<?xml version="1.0" encoding="utf-8"?>
<!-- Generator: Adobe Illustrator 16.2.1, SVG Export Plug-In . SVG Version: 6.00 Build 0)  -->
<!DOCTYPE svg PUBLIC "-//W3C//DTD SVG 1.1//EN" "http://www.w3.org/Graphics/SVG/1.1/DTD/svg11.dtd">
<svg version="1.1" id="Layer_1" xmlns="http://www.w3.org/2000/svg" xmlns:xlink="http://www.w3.org/1999/xlink" x="0px" y="0px"
	 width="743.572px" height="231.008px" viewBox="0 0 743.572 231.008" enable-background="new 0 0 743.572 231.008"
	 xml:space="preserve">
<g>
	<defs>
		<rect id="SVGID_1_" width="601.5" height="231.008"/>
	</defs>
	<clipPath id="SVGID_2_">
		<use xlink:href="#SVGID_1_"  overflow="visible"/>
	</clipPath>
	<g clip-path="url(#SVGID_2_)">
		<path d="M6.518,36.407c0.88,0.24,1.24,0.78,1.24,1.841v3.961c0,0.56-0.24,0.8-0.8,0.8h-0.54c-0.561,0-0.8-0.24-0.8-0.8v-3.921
			c0-0.62-0.28-0.9-0.9-0.9h-0.96v4.821c0,0.56-0.24,0.8-0.8,0.8h-0.54c-0.56,0-0.8-0.24-0.8-0.8V29.806c0-0.56,0.24-0.8,0.8-0.8
			h2.721c1.74,0,2.6,0.86,2.6,2.601v2.641C7.738,35.487,7.298,36.087,6.518,36.407z M5.598,31.706c0-0.54-0.26-0.8-0.8-0.8h-1.04
			v4.621h0.96c0.6,0,0.88-0.28,0.88-0.86V31.706z"/>
		<path d="M25.298,40.528c0,1.74-0.86,2.601-2.601,2.601h-1.14c-1.74,0-2.601-0.86-2.601-2.601v-9.042
			c0-1.74,0.86-2.601,2.601-2.601h1.14c1.74,0,2.601,0.86,2.601,2.601V40.528z M23.157,31.586c0-0.56-0.26-0.819-0.8-0.819h-0.44
			c-0.56,0-0.82,0.26-0.82,0.819v8.843c0,0.56,0.26,0.819,0.82,0.819h0.44c0.54,0,0.8-0.26,0.8-0.819V31.586z"/>
		<path d="M41.357,35.827c0.94,0.681,1.241,1.28,1.241,2.421v2.28c0,1.74-0.86,2.601-2.601,2.601h-0.94
			c-1.74,0-2.581-0.86-2.581-2.581v-2.16c0-0.56,0.24-0.8,0.8-0.8h0.48c0.56,0,0.8,0.24,0.8,0.8v2.08c0,0.541,0.26,0.801,0.82,0.801
			h0.28c0.56,0,0.82-0.26,0.82-0.801v-1.92c0-0.58-0.2-0.84-0.6-1.141l-2.161-1.58c-0.96-0.68-1.24-1.34-1.24-2.421v-1.92
			c0-1.74,0.86-2.601,2.601-2.601h0.9c1.72,0,2.581,0.86,2.581,2.581v1.74c0,0.56-0.24,0.8-0.8,0.8h-0.5c-0.561,0-0.8-0.24-0.8-0.8
			v-1.661c0-0.54-0.26-0.8-0.8-0.8h-0.26c-0.541,0-0.8,0.26-0.8,0.8v1.561c0,0.58,0.2,0.86,0.6,1.141L41.357,35.827z"/>
		<path d="M58.577,35.827c0.94,0.681,1.241,1.28,1.241,2.421v2.28c0,1.74-0.86,2.601-2.601,2.601h-0.94
			c-1.74,0-2.581-0.86-2.581-2.581v-2.16c0-0.56,0.24-0.8,0.8-0.8h0.48c0.56,0,0.8,0.24,0.8,0.8v2.08c0,0.541,0.26,0.801,0.82,0.801
			h0.28c0.56,0,0.82-0.26,0.82-0.801v-1.92c0-0.58-0.2-0.84-0.6-1.141l-2.161-1.58c-0.96-0.68-1.24-1.34-1.24-2.421v-1.92
			c0-1.74,0.86-2.601,2.601-2.601h0.9c1.72,0,2.581,0.86,2.581,2.581v1.74c0,0.56-0.24,0.8-0.8,0.8h-0.5c-0.561,0-0.8-0.24-0.8-0.8
			v-1.661c0-0.54-0.26-0.8-0.8-0.8h-0.26c-0.541,0-0.8,0.26-0.8,0.8v1.561c0,0.58,0.2,0.86,0.6,1.141L58.577,35.827z"/>
	</g>
</g>
<g>
</g>
<g>
	<path d="M83.379,45.921h2.38c0.612,0,0.815-0.204,0.815-0.815V24.707c0-0.612-0.204-0.816-0.815-0.816h-2.38v-1.088h11.423v1.088
		h-2.38c-0.612,0-0.816,0.204-0.816,0.816v8.975h8.023v-8.975c0-0.612-0.204-0.816-0.815-0.816h-2.448v-1.088h11.491v1.088h-2.38
		c-0.612,0-0.816,0.204-0.816,0.816v20.398c0,0.611,0.204,0.815,0.816,0.815h2.38v1.088H96.434v-1.088h2.38
		c0.612,0,0.815-0.204,0.815-0.815V34.906h-8.023v10.199c0,0.611,0.204,0.815,0.816,0.815h2.38v1.088H83.379V45.921z"/>
	<path d="M113.162,45.921h1.156c1.462,0,2.516-1.394,2.992-2.754l7.173-20.976h1.428l7.275,21.996
		c0.408,1.189,1.122,1.733,2.006,1.733h1.359v1.088h-11.933v-1.088h2.448c0.544,0,0.918-0.51,0.918-1.088
		c0-0.204-0.102-0.68-0.204-0.986l-1.088-3.264h-7.139l-0.714,2.074c-0.238,0.612-0.374,1.292-0.374,1.733
		c0,0.748,0.646,1.53,1.768,1.53h1.598v1.088h-8.669V45.921z M126.285,39.325l-3.094-9.349l-3.196,9.349H126.285z"/>
	<path d="M141.756,45.921h2.379c0.612,0,0.816-0.204,0.816-0.815V24.707c0-0.612-0.204-0.816-0.816-0.816h-2.379v-1.088h12.646
		c5.644,0,10.267,4.828,10.267,11.899s-4.624,12.307-10.267,12.307h-12.646V45.921z M150.799,45.921h3.026
		c2.72,0,5.065-1.836,5.065-5.915V29.807c0-4.08-2.346-5.916-5.065-5.916h-3.026c-0.612,0-0.816,0.204-0.816,0.816v20.398
		C149.983,45.717,150.188,45.921,150.799,45.921z"/>
	<path d="M182.76,45.921h2.379c0.612,0,0.816-0.204,0.816-0.815V24.707c0-0.612-0.204-0.816-0.816-0.816h-2.379v-1.088h11.967
		c4.045,0,7.615,2.38,7.615,5.78c0,3.297-3.026,4.963-5.746,5.677v0.204c2.89,0.442,6.562,2.414,6.562,5.949
		c0,4.284-3.706,6.596-7.989,6.596H182.76V45.921z M194.115,33.818c2.618,0,3.127-2.108,3.127-5.235
		c0-2.992-1.122-4.692-2.924-4.692h-2.516c-0.612,0-0.816,0.204-0.816,0.816v9.111H194.115z M191.803,45.921h2.312
		c2.244,0,3.604-1.156,3.604-5.508s-1.36-5.507-3.604-5.507h-3.128v10.199C190.987,45.717,191.191,45.921,191.803,45.921z"/>
	<path d="M209.28,45.921h2.379c0.612,0,0.816-0.204,0.816-0.815V24.707c0-0.612-0.204-0.816-0.816-0.816h-2.379v-1.088h19.106
		l0.204,7.888h-1.088c0,0-0.34-2.176-1.36-3.876c-0.952-1.665-2.312-2.924-4.08-2.924h-3.74c-0.612,0-0.816,0.204-0.816,0.816v9.383
		h1.734c1.904,0,3.399-2.72,3.399-4.691h1.088v10.641h-1.088c0-2.006-1.496-4.725-3.399-4.725h-1.734v9.791
		c0,0.611,0.204,0.815,0.816,0.815h3.706c2.788,0,4.386-2.991,5.032-4.827c0.442-1.258,0.714-3.468,0.714-3.468h1.088l-0.204,9.383
		H209.28V45.921z"/>
	<path d="M235.12,45.921h2.379c0.612,0,0.816-0.204,0.816-0.815V24.707c0-0.612-0.204-0.816-0.816-0.816h-2.379v-1.088h19.106
		l0.204,7.888h-1.088c0,0-0.34-2.176-1.36-3.876c-0.952-1.665-2.312-2.924-4.08-2.924h-3.74c-0.612,0-0.816,0.204-0.816,0.816v9.383
		h1.734c1.904,0,3.399-2.72,3.399-4.691h1.088v10.641h-1.088c0-2.006-1.496-4.725-3.399-4.725h-1.734v9.791
		c0,0.611,0.204,0.815,0.816,0.815h3.706c2.788,0,4.386-2.991,5.032-4.827c0.442-1.258,0.714-3.468,0.714-3.468h1.088l-0.204,9.383
		H235.12V45.921z"/>
	<path d="M260.483,45.921c2.448,0,4.284-1.428,4.284-3.536V27.869c0-0.511-0.068-0.612-0.374-1.055l-1.36-2.039
		c-0.442-0.646-0.85-0.885-1.938-0.885h-0.612v-1.088h7.547l10.879,15.537V27.427c0-2.107-1.836-3.536-4.284-3.536v-1.088h9.927
		v1.088c-2.448,0-4.284,1.429-4.284,3.536v20.194h-1.292l-12.715-18.188h-0.136v12.952c0,2.108,1.835,3.536,4.284,3.536v1.088
		h-9.927V45.921z"/>
	<path d="M300.603,45.921h1.156c1.462,0,2.516-1.394,2.992-2.754l7.173-20.976h1.428l7.275,21.996
		c0.408,1.189,1.122,1.733,2.006,1.733h1.359v1.088H312.06v-1.088h2.448c0.544,0,0.918-0.51,0.918-1.088
		c0-0.204-0.102-0.68-0.204-0.986l-1.088-3.264h-7.139l-0.714,2.074c-0.238,0.612-0.374,1.292-0.374,1.733
		c0,0.748,0.646,1.53,1.768,1.53h1.598v1.088h-8.669V45.921z M313.726,39.325l-3.094-9.349l-3.196,9.349H313.726z"/>
	<path d="M328.755,45.921c2.448,0,4.284-1.428,4.284-3.536V27.869c0-0.511-0.068-0.612-0.374-1.055l-1.36-2.039
		c-0.442-0.646-0.85-0.885-1.938-0.885h-0.612v-1.088h7.547l10.879,15.537V27.427c0-2.107-1.836-3.536-4.284-3.536v-1.088h9.927
		v1.088c-2.447,0-4.283,1.429-4.283,3.536v20.194h-1.292l-12.715-18.188h-0.136v12.952c0,2.108,1.836,3.536,4.283,3.536v1.088
		h-9.927V45.921z"/>
</g>
<g>
</g>
<g>
	<path d="M375.836,29.806c0-0.56,0.24-0.8,0.801-0.8h3.16c0.561,0,0.801,0.24,0.801,0.8v0.341c0,0.56-0.24,0.8-0.801,0.8h-1.82
		v3.961h1.721c0.561,0,0.8,0.24,0.8,0.8v0.34c0,0.561-0.239,0.801-0.8,0.801h-1.721v4.221h1.86c0.561,0,0.801,0.24,0.801,0.8v0.341
		c0,0.56-0.24,0.8-0.801,0.8h-3.2c-0.561,0-0.801-0.24-0.801-0.8V29.806z"/>
	<path d="M396.798,43.009c-0.521,0-0.74-0.2-0.801-0.7l-0.18-1.5h-2.221l-0.2,1.5c-0.06,0.5-0.28,0.7-0.78,0.7h-0.359
		c-0.62,0-0.881-0.3-0.78-0.92l1.76-12.403c0.08-0.479,0.301-0.68,0.801-0.68h1.44c0.5,0,0.72,0.2,0.8,0.68l1.78,12.403
		c0.1,0.62-0.16,0.92-0.78,0.92H396.798z M395.577,38.908l-0.88-7.082l-0.881,7.082H395.577z"/>
	<path d="M412.037,36.607v-0.58c0-0.44,0.24-0.66,0.681-0.66h1.74c0.54,0,0.8,0.26,0.8,0.78v4.381c0,1.74-0.86,2.601-2.601,2.601
		h-1.14c-1.741,0-2.601-0.86-2.601-2.601v-9.042c0-1.74,0.859-2.601,2.601-2.601h1.12c1.74,0,2.58,0.86,2.58,2.581v1.58
		c0,0.46-0.24,0.7-0.7,0.7h-0.7c-0.439,0-0.7-0.24-0.7-0.7v-1.461c0-0.56-0.26-0.819-0.8-0.819h-0.44c-0.56,0-0.82,0.26-0.82,0.819
		v8.843c0,0.56,0.261,0.819,0.82,0.819h0.48c0.56,0,0.82-0.26,0.82-0.819v-3.221h-0.521
		C412.237,37.208,412.037,37.027,412.037,36.607z"/>
	<path d="M426.477,29.806c0-0.56,0.239-0.8,0.8-0.8h0.54c0.561,0,0.8,0.24,0.8,0.8v11.263h1.561c0.561,0,0.8,0.24,0.8,0.8v0.341
		c0,0.56-0.239,0.8-0.8,0.8h-2.9c-0.561,0-0.8-0.24-0.8-0.8V29.806z"/>
	<path d="M441.795,29.806c0-0.56,0.24-0.8,0.801-0.8h3.16c0.561,0,0.801,0.24,0.801,0.8v0.341c0,0.56-0.24,0.8-0.801,0.8h-1.82
		v3.961h1.721c0.561,0,0.8,0.24,0.8,0.8v0.34c0,0.561-0.239,0.801-0.8,0.801h-1.721v4.221h1.86c0.561,0,0.801,0.24,0.801,0.8v0.341
		c0,0.56-0.24,0.8-0.801,0.8h-3.2c-0.561,0-0.801-0.24-0.801-0.8V29.806z"/>
	<path d="M475.097,35.827c0.94,0.681,1.24,1.28,1.24,2.421v2.28c0,1.74-0.86,2.601-2.601,2.601h-0.939
		c-1.741,0-2.581-0.86-2.581-2.581v-2.16c0-0.56,0.24-0.8,0.8-0.8h0.48c0.561,0,0.8,0.24,0.8,0.8v2.08
		c0,0.541,0.261,0.801,0.82,0.801h0.28c0.561,0,0.82-0.26,0.82-0.801v-1.92c0-0.58-0.2-0.84-0.601-1.141l-2.16-1.58
		c-0.96-0.68-1.24-1.34-1.24-2.421v-1.92c0-1.74,0.86-2.601,2.601-2.601h0.9c1.72,0,2.58,0.86,2.58,2.581v1.74
		c0,0.56-0.24,0.8-0.8,0.8h-0.5c-0.561,0-0.801-0.24-0.801-0.8v-1.661c0-0.54-0.26-0.8-0.8-0.8h-0.26c-0.54,0-0.801,0.26-0.801,0.8
		v1.561c0,0.58,0.2,0.86,0.601,1.141L475.097,35.827z"/>
	<path d="M491.616,38.067c0-0.56,0.24-0.8,0.801-0.8h0.5c0.56,0,0.8,0.24,0.8,0.8v2.461c0,1.74-0.86,2.601-2.601,2.601h-1.06
		c-1.741,0-2.601-0.86-2.601-2.601v-9.042c0-1.74,0.859-2.601,2.601-2.601h1.04c1.74,0,2.58,0.84,2.58,2.581v2.06
		c0,0.561-0.24,0.801-0.8,0.801h-0.5c-0.561,0-0.801-0.24-0.801-0.801v-1.94c0-0.56-0.26-0.819-0.8-0.819h-0.36
		c-0.56,0-0.82,0.26-0.82,0.819v8.843c0,0.56,0.261,0.819,0.82,0.819h0.4c0.54,0,0.8-0.26,0.8-0.819V38.067z"/>
	<path d="M511.217,40.528c0,1.74-0.86,2.601-2.601,2.601h-1.14c-1.741,0-2.601-0.86-2.601-2.601v-9.042
		c0-1.74,0.859-2.601,2.601-2.601h1.14c1.74,0,2.601,0.86,2.601,2.601V40.528z M509.076,31.586c0-0.56-0.26-0.819-0.8-0.819h-0.44
		c-0.56,0-0.82,0.26-0.82,0.819v8.843c0,0.56,0.261,0.819,0.82,0.819h0.44c0.54,0,0.8-0.26,0.8-0.819V31.586z"/>
	<path d="M527.856,29.006c0.56,0,0.8,0.24,0.8,0.8v10.723c0,1.74-0.86,2.601-2.601,2.601h-1.04c-1.74,0-2.601-0.86-2.601-2.601
		V29.806c0-0.56,0.24-0.8,0.8-0.8h0.54c0.561,0,0.801,0.24,0.801,0.8v10.623c0,0.56,0.26,0.819,0.82,0.819h0.34
		c0.54,0,0.8-0.26,0.8-0.819V29.806c0-0.56,0.24-0.8,0.801-0.8H527.856z"/>
	<path d="M543.536,42.209c0,0.56-0.24,0.8-0.8,0.8h-0.54c-0.561,0-0.801-0.24-0.801-0.8V30.946h-1.12c-0.56,0-0.8-0.24-0.8-0.8
		v-0.341c0-0.56,0.24-0.8,0.8-0.8h4.381c0.561,0,0.801,0.24,0.801,0.8v0.341c0,0.56-0.24,0.8-0.801,0.8h-1.12V42.209z"/>
	<path d="M555.795,44.93l-0.12-0.04c-0.2-0.061-0.279-0.28-0.16-0.521l0.12-0.26c0.181-0.4,0.36-0.801,0.4-1.101h-0.06
		c-0.381,0-0.641-0.22-0.641-0.62v-1.24c0-0.561,0.24-0.8,0.8-0.8h0.421c0.6,0,0.8,0.26,0.8,0.8v0.84c0,1.001-0.08,1.36-0.76,2.36
		l-0.221,0.341C556.215,44.93,556.035,45.009,555.795,44.93z"/>
</g>
<g>
</g>
<g>
	<defs>
		<rect id="SVGID_3_" width="601.5" height="231.008"/>
	</defs>
	<clipPath id="SVGID_4_">
		<use xlink:href="#SVGID_3_"  overflow="visible"/>
	</clipPath>
	<g clip-path="url(#SVGID_4_)">
		<path d="M-0.026,91.921h2.38c0.612,0,0.815-0.204,0.815-0.815V70.707c0-0.612-0.204-0.816-0.815-0.816h-2.38v-1.088H11.94
			c4.045,0,7.615,2.38,7.615,5.78c0,3.297-3.026,4.963-5.746,5.677v0.204c2.89,0.442,6.562,2.414,6.562,5.949
			c0,4.284-3.706,6.596-7.989,6.596H-0.026V91.921z M11.328,79.818c2.618,0,3.128-2.108,3.128-5.235
			c0-2.992-1.122-4.692-2.924-4.692H9.017c-0.612,0-0.816,0.204-0.816,0.816v9.111H11.328z M9.017,91.921h2.312
			c2.244,0,3.604-1.156,3.604-5.508s-1.36-5.507-3.604-5.507H8.201v10.199C8.201,91.717,8.405,91.921,9.017,91.921z"/>
		<path d="M26.697,68.803h11.015v1.088h-2.176c-0.612,0-0.816,0.204-0.816,0.816v15.57c0,4.182,1.564,5.983,4.861,5.983
			c3.4,0,5.813-2.72,5.813-5.983V72.951c0-2.176-1.768-3.061-3.536-3.061v-1.088h8.431v1.088c-1.768,0-3.536,0.885-3.536,3.061
			v12.986c0,4.25-2.992,7.684-8.125,7.684c-6.459,0-8.941-4.284-8.941-8.67V70.707c0-0.612-0.204-0.816-0.815-0.816h-2.176V68.803z"
			/>
		<path d="M56.073,68.803h20.397l0.272,10.132h-1.088c0,0-0.136-1.156-0.714-3.196c-0.782-2.787-2.583-5.848-4.896-5.848
			c-0.748,0-1.258,0.408-1.258,1.156v20.059c0,0.611,0.204,0.815,0.816,0.815h2.72v1.088H60.221v-1.088h2.72
			c0.612,0,0.816-0.204,0.816-0.815V71.047c0-0.748-0.51-1.156-1.258-1.156c-2.312,0-4.114,3.061-4.896,5.848
			c-0.578,2.04-0.714,3.196-0.714,3.196h-1.088L56.073,68.803z"/>
		<path d="M94.458,91.921h2.379c0.612,0,0.816-0.204,0.816-0.815V70.707c0-0.612-0.204-0.816-0.816-0.816h-2.379v-1.088h11.423
			v1.088h-2.38c-0.612,0-0.816,0.204-0.816,0.816v8.975h8.023v-8.975c0-0.612-0.204-0.816-0.816-0.816h-2.447v-1.088h11.491v1.088
			h-2.38c-0.612,0-0.816,0.204-0.816,0.816v20.398c0,0.611,0.204,0.815,0.816,0.815h2.38v1.088h-11.423v-1.088h2.379
			c0.612,0,0.816-0.204,0.816-0.815V80.906h-8.023v10.199c0,0.611,0.204,0.815,0.816,0.815h2.38v1.088H94.458V91.921z"/>
		<path d="M124.854,91.921h2.38c0.612,0,0.815-0.204,0.815-0.815V70.707c0-0.612-0.204-0.816-0.815-0.816h-2.38v-1.088h19.106
			l0.204,7.888h-1.088c0,0-0.34-2.176-1.36-3.876c-0.952-1.665-2.312-2.924-4.08-2.924h-3.74c-0.612,0-0.816,0.204-0.816,0.816
			v9.383h1.734c1.904,0,3.399-2.72,3.399-4.691h1.088v10.641h-1.088c0-2.006-1.496-4.725-3.399-4.725h-1.734v9.791
			c0,0.611,0.204,0.815,0.816,0.815h3.706c2.788,0,4.386-2.991,5.032-4.827c0.442-1.258,0.714-3.468,0.714-3.468h1.088l-0.204,9.383
			h-19.378V91.921z"/>
	</g>
</g>
<g>
</g>
<g>
	<path d="M173.076,82.605c0.952,4.998,3.978,9.928,7.854,9.928c4.08,0,4.657-2.448,4.657-3.876c0-1.258-1.088-2.176-2.448-3.06
		l-7.275-4.691c-1.7-1.088-3.808-3.06-3.808-6.188c0-4.691,3.264-6.527,6.664-6.527c2.244,0,4.147,1.224,4.828,1.699
		c0.442,0.341,0.884,0.612,1.224,0.612c0.442,0,0.68-0.34,0.748-0.782l0.204-0.918h1.088l0.34,8.84h-1.088
		c-1.258-4.691-4.284-8.363-7.615-8.363c-2.414,0-3.536,0.952-3.536,2.855c0,1.564,1.462,2.89,3.026,3.91l7.309,4.725
		c1.87,1.225,3.06,3.57,3.06,5.848c0,3.366-2.379,7.004-7.581,7.004c-2.176,0-3.74-0.748-4.658-1.496
		c-0.884-0.68-1.326-1.02-1.768-1.02c-0.476,0-0.782,0.407-0.884,1.155l-0.17,1.088h-1.054l-0.204-10.743H173.076z"/>
	<path d="M194.02,91.921c1.768,0,3.536-0.884,3.536-3.06V70.707c0-0.612-0.204-0.816-0.816-0.816h-2.72v-1.088h8.125l6.222,16.727
		l4.555-16.727h8.635v1.088h-2.379c-0.612,0-0.816,0.204-0.816,0.816v20.398c0,0.611,0.204,0.815,0.816,0.815h2.379v1.088h-11.423
		v-1.088h2.38c0.612,0,0.816-0.204,0.816-0.815V71.761l-5.916,21.656h-1.326l-6.936-18.664h-0.238v14.108
		c0,2.176,1.768,3.06,3.536,3.06v1.088h-8.431V91.921z"/>
	<path d="M237.437,68.191c5.372,0,10.063,6.188,10.063,12.715s-4.691,12.715-10.063,12.715s-10.063-6.188-10.063-12.715
		S232.065,68.191,237.437,68.191z M237.437,92.533c2.583,0,4.284-1.632,4.284-6.527V75.807c0-4.896-1.7-6.527-4.284-6.527
		c-2.584,0-4.284,1.632-4.284,6.527v10.199C233.153,90.901,234.853,92.533,237.437,92.533z"/>
	<path d="M253.689,91.921h2.38c0.612,0,0.815-0.204,0.815-0.815V70.707c0-0.612-0.204-0.816-0.815-0.816h-2.38v-1.088h11.151v1.088
		h-2.108c-0.612,0-0.816,0.204-0.816,0.816V80.77l6.562-7.615c0.578-0.68,0.85-1.088,0.85-1.835c0-0.816-0.476-1.429-1.224-1.429
		h-0.986v-1.088h8.397v1.088h-1.19c-1.054,0-2.142,0.885-2.822,1.7l-4.555,5.27l7.173,13.564c0.544,1.054,0.918,1.496,2.04,1.496
		h0.918v1.088h-10.675v-1.088h1.359c0.408,0,0.714-0.34,0.714-0.714c0-0.204-0.068-0.646-0.17-0.85l-4.929-9.384l-1.462,1.666v8.466
		c0,0.611,0.204,0.815,0.816,0.815h2.108v1.088h-11.151V91.921z"/>
	<path d="M282.249,91.921h2.38c0.612,0,0.815-0.204,0.815-0.815V70.707c0-0.612-0.204-0.816-0.815-0.816h-2.38v-1.088h19.106
		l0.204,7.888h-1.088c0,0-0.34-2.176-1.36-3.876c-0.952-1.665-2.312-2.924-4.08-2.924h-3.74c-0.612,0-0.816,0.204-0.816,0.816v9.383
		h1.734c1.904,0,3.399-2.72,3.399-4.691h1.088v10.641h-1.088c0-2.006-1.496-4.725-3.399-4.725h-1.734v9.791
		c0,0.611,0.204,0.815,0.816,0.815h3.706c2.788,0,4.386-2.991,5.032-4.827c0.442-1.258,0.714-3.468,0.714-3.468h1.088l-0.204,9.383
		h-19.378V91.921z"/>
	<path d="M308.089,91.921h2.38c0.612,0,0.815-0.204,0.815-0.815V70.707c0-0.612-0.204-0.816-0.815-0.816h-2.38v-1.088h12.646
		c5.644,0,10.267,4.828,10.267,11.899s-4.624,12.307-10.267,12.307h-12.646V91.921z M317.132,91.921h3.026
		c2.72,0,5.065-1.836,5.065-5.915V75.807c0-4.08-2.346-5.916-5.065-5.916h-3.026c-0.612,0-0.816,0.204-0.816,0.816v20.398
		C316.316,91.717,316.52,91.921,317.132,91.921z"/>
	<path d="M349.093,91.921h2.38c0.612,0,0.815-0.204,0.815-0.815V70.707c0-0.612-0.204-0.816-0.815-0.816h-2.38v-1.088h12.103
		c4.828,0,8.159,2.584,8.159,6.324c0,3.739-3.331,6.459-8.159,6.459h-3.875v9.52c0,0.611,0.204,0.815,0.816,0.815h2.992v1.088
		h-12.035V91.921z M360.686,80.498c2.55,0,3.229-2.38,3.229-5.371c0-2.992-0.68-5.236-3.229-5.236h-2.55
		c-0.612,0-0.816,0.204-0.816,0.816v9.791H360.686z"/>
	<path d="M375.34,91.921h2.38c0.612,0,0.816-0.306,0.816-0.918V70.707c0-0.612-0.204-0.816-0.816-0.816h-2.38v-1.088h11.423v1.088
		h-2.38c-0.611,0-0.815,0.204-0.815,0.816v20.296c0,0.612,0.204,0.918,0.815,0.918h3.435c2.787,0,4.521-4.046,5.099-5.915
		c0.374-1.258,0.851-3.468,0.851-3.468h1.088l-0.272,10.471H375.34V91.921z"/>
	<path d="M400.5,91.921h2.38c0.612,0,0.816-0.204,0.816-0.815V70.707c0-0.612-0.204-0.816-0.816-0.816h-2.38v-1.088h19.106
		l0.204,7.888h-1.088c0,0-0.34-2.176-1.36-3.876c-0.951-1.665-2.312-2.924-4.079-2.924h-3.74c-0.611,0-0.815,0.204-0.815,0.816
		v9.383h1.733c1.904,0,3.4-2.72,3.4-4.691h1.088v10.641h-1.088c0-2.006-1.496-4.725-3.4-4.725h-1.733v9.791
		c0,0.611,0.204,0.815,0.815,0.815h3.706c2.788,0,4.386-2.991,5.031-4.827c0.442-1.258,0.714-3.468,0.714-3.468h1.088l-0.203,9.383
		H400.5V91.921z"/>
	<path d="M425.864,91.921c2.448,0,4.283-1.428,4.283-3.536V73.869c0-0.511-0.067-0.612-0.374-1.055l-1.359-2.039
		c-0.442-0.646-0.85-0.885-1.938-0.885h-0.612v-1.088h7.547L444.29,84.34V73.427c0-2.107-1.835-3.536-4.283-3.536v-1.088h9.927
		v1.088c-2.447,0-4.283,1.429-4.283,3.536v20.194h-1.292l-12.715-18.188h-0.136v12.952c0,2.108,1.836,3.536,4.283,3.536v1.088
		h-9.927V91.921z"/>
	<path d="M454.899,68.803h20.398l0.271,10.132h-1.088c0,0-0.136-1.156-0.714-3.196c-0.781-2.787-2.584-5.848-4.896-5.848
		c-0.748,0-1.258,0.408-1.258,1.156v20.059c0,0.611,0.204,0.815,0.816,0.815h2.72v1.088h-12.104v-1.088h2.72
		c0.612,0,0.816-0.204,0.816-0.815V71.047c0-0.748-0.51-1.156-1.258-1.156c-2.312,0-4.114,3.061-4.896,5.848
		c-0.578,2.04-0.714,3.196-0.714,3.196h-1.088L454.899,68.803z"/>
	<path d="M480.875,68.803h10.676v1.088h-0.952c-0.681,0-0.952,0.612-0.952,1.088c0,0.272,0.068,0.681,0.204,0.952l4.487,9.757
		l3.128-7.785c0.238-0.544,0.476-1.359,0.476-1.938c0-0.952-0.476-2.074-1.836-2.074h-0.951v-1.088h8.431v1.088h-1.02
		c-1.666,0-2.652,1.326-3.094,2.482l-4.59,11.185v7.548c0,0.611,0.204,0.815,0.816,0.815h2.176v1.088h-11.016v-1.088h2.176
		c0.612,0,0.816-0.204,0.816-0.815v-7.242l-5.779-12.477c-0.544-1.189-1.088-1.496-2.006-1.496h-1.19V68.803z"/>
	<path d="M531.058,68.191c5.372,0,10.063,6.188,10.063,12.715s-4.691,12.715-10.063,12.715c-5.371,0-10.062-6.188-10.062-12.715
		S525.687,68.191,531.058,68.191z M531.058,92.533c2.584,0,4.284-1.632,4.284-6.527V75.807c0-4.896-1.7-6.527-4.284-6.527
		c-2.583,0-4.283,1.632-4.283,6.527v10.199C526.774,90.901,528.475,92.533,531.058,92.533z"/>
	<path d="M547.311,91.921h2.38c0.612,0,0.816-0.204,0.816-0.815V70.707c0-0.612-0.204-0.816-0.816-0.816h-2.38v-1.088h19.175
		l0.271,9.315h-1.088c0,0-0.374-2.72-1.224-4.521c-0.816-1.733-2.448-3.706-4.624-3.706h-3.468c-0.611,0-0.815,0.204-0.815,0.816
		v9.383h1.733c1.904,0,3.4-2.72,3.4-4.691h1.088v10.641h-1.088c0-2.006-1.496-4.725-3.4-4.725h-1.733v9.791
		c0,0.611,0.204,0.815,0.815,0.815h3.094v1.088h-12.137V91.921z"/>
</g>
<g>
	<defs>
		<rect id="SVGID_5_" width="601.5" height="231.008"/>
	</defs>
	<clipPath id="SVGID_6_">
		<use xlink:href="#SVGID_5_"  overflow="visible"/>
	</clipPath>
	<g clip-path="url(#SVGID_6_)">
		<path d="M-0.026,137.921h2.38c0.612,0,0.815-0.204,0.815-0.815v-20.398c0-0.612-0.204-0.816-0.815-0.816h-2.38v-1.088h12.103
			c4.828,0,8.159,2.584,8.159,6.324c0,3.739-3.332,6.459-8.159,6.459H8.201v9.52c0,0.611,0.204,0.815,0.816,0.815h2.992v1.088
			H-0.026V137.921z M11.566,126.498c2.55,0,3.229-2.38,3.229-5.371c0-2.992-0.68-5.236-3.229-5.236h-2.55
			c-0.612,0-0.816,0.204-0.816,0.816v9.791H11.566z"/>
		<path d="M36.522,114.191c5.371,0,10.063,6.188,10.063,12.715s-4.692,12.715-10.063,12.715c-5.372,0-10.063-6.188-10.063-12.715
			S31.151,114.191,36.522,114.191z M36.522,138.533c2.583,0,4.283-1.632,4.283-6.527v-10.199c0-4.896-1.7-6.527-4.283-6.527
			c-2.584,0-4.284,1.632-4.284,6.527v10.199C32.239,136.901,33.938,138.533,36.522,138.533z"/>
		<path d="M52.979,114.803h20.397l0.272,10.132h-1.088c0,0-0.136-1.156-0.714-3.196c-0.782-2.787-2.583-5.848-4.896-5.848
			c-0.748,0-1.258,0.408-1.258,1.156v20.059c0,0.611,0.204,0.815,0.816,0.815h2.72v1.088H57.127v-1.088h2.72
			c0.612,0,0.816-0.204,0.816-0.815v-20.059c0-0.748-0.51-1.156-1.258-1.156c-2.312,0-4.114,3.061-4.896,5.848
			c-0.578,2.04-0.714,3.196-0.714,3.196h-1.088L52.979,114.803z"/>
		<path d="M79.431,128.945h29.917v1.904H79.431V128.945z"/>
		<path d="M115.267,137.921h1.156c1.462,0,2.516-1.394,2.992-2.754l7.173-20.976h1.428l7.275,21.996
			c0.408,1.189,1.122,1.733,2.006,1.733h1.359v1.088h-11.933v-1.088h2.448c0.544,0,0.918-0.51,0.918-1.088
			c0-0.204-0.102-0.68-0.204-0.986l-1.088-3.264h-7.139l-0.714,2.074c-0.238,0.612-0.374,1.292-0.374,1.733
			c0,0.748,0.646,1.53,1.768,1.53h1.598v1.088h-8.669V137.921z M128.39,131.325l-3.094-9.349l-3.196,9.349H128.39z"/>
		<path d="M143.418,137.921c2.448,0,4.284-1.428,4.284-3.536v-14.516c0-0.511-0.068-0.612-0.374-1.055l-1.36-2.039
			c-0.442-0.646-0.85-0.885-1.938-0.885h-0.612v-1.088h7.547l10.879,15.537v-10.913c0-2.107-1.836-3.536-4.284-3.536v-1.088h9.927
			v1.088c-2.448,0-4.284,1.429-4.284,3.536v20.194h-1.292l-12.715-18.188h-0.136v12.952c0,2.108,1.835,3.536,4.284,3.536v1.088
			h-9.927V137.921z"/>
		<path d="M172.25,137.921h2.379c0.612,0,0.816-0.204,0.816-0.815v-20.398c0-0.612-0.204-0.816-0.816-0.816h-2.379v-1.088h12.646
			c5.644,0,10.267,4.828,10.267,11.899s-4.624,12.307-10.267,12.307H172.25V137.921z M181.293,137.921h3.026
			c2.72,0,5.065-1.836,5.065-5.915v-10.199c0-4.08-2.346-5.916-5.065-5.916h-3.026c-0.612,0-0.816,0.204-0.816,0.816v20.398
			C180.478,137.717,180.682,137.921,181.293,137.921z"/>
		<path d="M215.294,128.605c0.952,4.998,3.978,9.928,7.854,9.928c4.08,0,4.657-2.448,4.657-3.876c0-1.258-1.088-2.176-2.448-3.06
			l-7.275-4.691c-1.7-1.088-3.808-3.06-3.808-6.188c0-4.691,3.264-6.527,6.663-6.527c2.244,0,4.147,1.224,4.828,1.699
			c0.442,0.341,0.884,0.612,1.224,0.612c0.442,0,0.68-0.34,0.748-0.782l0.204-0.918h1.088l0.34,8.84h-1.088
			c-1.258-4.691-4.284-8.363-7.615-8.363c-2.414,0-3.536,0.952-3.536,2.855c0,1.564,1.462,2.89,3.026,3.91l7.309,4.725
			c1.87,1.225,3.06,3.57,3.06,5.848c0,3.366-2.38,7.004-7.581,7.004c-2.176,0-3.74-0.748-4.658-1.496
			c-0.884-0.68-1.326-1.02-1.768-1.02c-0.476,0-0.782,0.407-0.884,1.155l-0.17,1.088h-1.054l-0.204-10.743H215.294z"/>
		<path d="M236.918,114.803h20.397l0.272,10.132H256.5c0,0-0.136-1.156-0.714-3.196c-0.782-2.787-2.583-5.848-4.896-5.848
			c-0.748,0-1.258,0.408-1.258,1.156v20.059c0,0.611,0.204,0.815,0.816,0.815h2.72v1.088h-12.103v-1.088h2.72
			c0.612,0,0.816-0.204,0.816-0.815v-20.059c0-0.748-0.51-1.156-1.258-1.156c-2.312,0-4.114,3.061-4.896,5.848
			c-0.578,2.04-0.714,3.196-0.714,3.196h-1.088L236.918,114.803z"/>
		<path d="M263.438,137.921h2.38c0.612,0,0.815-0.204,0.815-0.815v-20.398c0-0.612-0.204-0.816-0.815-0.816h-2.38v-1.088h11.423
			v1.088h-2.38c-0.612,0-0.816,0.204-0.816,0.816v20.398c0,0.611,0.204,0.815,0.816,0.815h2.38v1.088h-11.423V137.921z"/>
		<path d="M280.777,137.921h2.38c0.612,0,0.815-0.306,0.815-0.918v-20.296c0-0.612-0.204-0.816-0.815-0.816h-2.38v-1.088H292.2
			v1.088h-2.38c-0.612,0-0.816,0.204-0.816,0.816v20.296c0,0.612,0.204,0.918,0.816,0.918h3.434c2.788,0,4.521-4.046,5.1-5.915
			c0.374-1.258,0.85-3.468,0.85-3.468h1.088l-0.271,10.471h-19.242V137.921z"/>
		<path d="M305.903,137.921h2.38c0.612,0,0.815-0.306,0.815-0.918v-20.296c0-0.612-0.204-0.816-0.815-0.816h-2.38v-1.088h11.423
			v1.088h-2.38c-0.612,0-0.816,0.204-0.816,0.816v20.296c0,0.612,0.204,0.918,0.816,0.918h3.434c2.788,0,4.521-4.046,5.1-5.915
			c0.374-1.258,0.85-3.468,0.85-3.468h1.088l-0.271,10.471h-19.242V137.921z"/>
		<path d="M353.332,114.191c2.142,0,3.468,0.748,4.828,1.666c0.476,0.306,0.85,0.51,1.156,0.51c0.374,0,0.578-0.272,0.748-0.646
			l0.578-1.258h1.122v9.791h-1.054c-1.53-5.643-3.978-8.975-7.377-8.975c-2.584,0-4.352,1.632-4.352,6.527v10.199
			c0,4.896,1.564,6.527,3.74,6.527c2.448,0,4.011-2.414,4.011-4.998v-4.657c0-0.612-0.204-0.816-0.815-0.816h-2.992v-1.088h11.287
			v1.088h-1.632c-0.612,0-0.816,0.204-0.816,0.816v10.573h-1.088l-0.816-3.094c-0.102-0.408-0.374-0.851-0.816-0.851
			c-0.476,0-0.782,0.272-1.054,0.714c-0.816,1.258-2.686,3.4-5.27,3.4c-5.983,0-9.519-5.95-9.519-12.715
			C343.201,120.106,347.349,114.191,353.332,114.191z"/>
		<path d="M378.899,114.191c5.372,0,10.063,6.188,10.063,12.715s-4.691,12.715-10.063,12.715c-5.371,0-10.062-6.188-10.062-12.715
			S373.528,114.191,378.899,114.191z M378.899,138.533c2.584,0,4.284-1.632,4.284-6.527v-10.199c0-4.896-1.7-6.527-4.284-6.527
			c-2.583,0-4.283,1.632-4.283,6.527v10.199C374.616,136.901,376.316,138.533,378.899,138.533z"/>
		<path d="M395.355,114.803h20.398l0.271,10.132h-1.088c0,0-0.136-1.156-0.714-3.196c-0.782-2.787-2.584-5.848-4.896-5.848
			c-0.748,0-1.258,0.408-1.258,1.156v20.059c0,0.611,0.204,0.815,0.816,0.815h2.72v1.088h-12.104v-1.088h2.72
			c0.612,0,0.816-0.204,0.816-0.815v-20.059c0-0.748-0.51-1.156-1.258-1.156c-2.312,0-4.113,3.061-4.896,5.848
			c-0.578,2.04-0.714,3.196-0.714,3.196h-1.088L395.355,114.803z"/>
		<path d="M433.13,137.921h1.155c1.462,0,2.516-1.394,2.992-2.754l7.173-20.976h1.428l7.275,21.996
			c0.408,1.189,1.122,1.733,2.006,1.733h1.36v1.088h-11.933v-1.088h2.447c0.544,0,0.918-0.51,0.918-1.088
			c0-0.204-0.102-0.68-0.204-0.986l-1.088-3.264h-7.139l-0.715,2.074c-0.237,0.612-0.373,1.292-0.373,1.733
			c0,0.748,0.646,1.53,1.768,1.53h1.598v1.088h-8.669V137.921z M446.252,131.325l-3.094-9.349l-3.195,9.349H446.252z"/>
	</g>
</g>
<g>
</g>
<g>
	<path d="M480.146,120.926c0.3,0,0.5,0.22,0.5,0.521v12.862c0,0.46-0.24,0.7-0.7,0.7h-0.68c-0.44,0-0.681-0.24-0.681-0.7v-10.482
		h-0.74c-0.46,0-0.68-0.28-0.68-0.64v-0.28c0-0.38,0.2-0.601,0.64-0.72c0.48-0.141,0.86-0.341,1.141-0.761s0.48-0.5,0.86-0.5
		H480.146z"/>
	<path d="M498.367,132.088c0,0.32-0.18,0.521-0.5,0.521h-0.561v1.721c0,0.439-0.199,0.68-0.66,0.68h-0.58
		c-0.46,0-0.68-0.24-0.68-0.68v-1.721h-2.881c-0.52,0-0.8-0.3-0.8-0.74v-0.88c0-0.301,0.02-0.521,0.1-0.78l2.521-8.603
		c0.12-0.46,0.34-0.66,0.82-0.66h1.341c0.58,0,0.819,0.28,0.819,0.841v8.962h0.561c0.32,0,0.5,0.2,0.5,0.5V132.088z
		 M493.446,130.748h1.94v-6.842L493.446,130.748z"/>
	<path d="M515.167,132.528c0,1.74-0.86,2.601-2.601,2.601h-0.939c-1.741,0-2.601-0.86-2.601-2.601v-9.042
		c0-1.74,0.859-2.601,2.601-2.601h0.92c1.74,0,2.561,0.82,2.561,2.561v1.12c0,0.561-0.24,0.801-0.801,0.801h-0.46
		c-0.56,0-0.8-0.24-0.8-0.801v-0.98c0-0.56-0.26-0.819-0.78-0.819h-0.34c-0.521,0-0.78,0.26-0.78,0.819v3.361
		c0.5-0.24,1.021-0.4,1.721-0.4c1.46,0,2.3,0.94,2.3,2.32V132.528z M511.927,133.248h0.359c0.521,0,0.78-0.26,0.78-0.819v-3.142
		c0-0.58-0.239-0.84-0.819-0.84c-0.4,0-0.841,0.101-1.101,0.22v3.762C511.146,132.988,511.406,133.248,511.927,133.248z"/>
	<path d="M532.587,132.528c0,1.74-0.86,2.601-2.601,2.601h-1.061c-1.74,0-2.6-0.86-2.6-2.601v-9.042c0-1.74,0.859-2.601,2.6-2.601
		h1.061c1.74,0,2.601,0.86,2.601,2.601V132.528z M530.467,123.586c0-0.56-0.26-0.819-0.801-0.819h-0.399
		c-0.561,0-0.82,0.26-0.82,0.819v8.843c0,0.56,0.26,0.819,0.82,0.819h0.399c0.541,0,0.801-0.26,0.801-0.819V123.586z"/>
</g>
<g>
</g>
<g>
	<defs>
		<rect id="SVGID_7_" width="601.5" height="231.008"/>
	</defs>
	<clipPath id="SVGID_8_">
		<use xlink:href="#SVGID_7_"  overflow="visible"/>
	</clipPath>
	<g clip-path="url(#SVGID_8_)">
		<path d="M11.479,160.191c5.372,0,10.063,6.188,10.063,12.715s-4.691,12.715-10.063,12.715s-10.063-6.188-10.063-12.715
			S6.107,160.191,11.479,160.191z M11.479,184.533c2.583,0,4.284-1.632,4.284-6.527v-10.199c0-4.896-1.7-6.527-4.284-6.527
			c-2.584,0-4.284,1.632-4.284,6.527v10.199C7.195,182.901,8.895,184.533,11.479,184.533z"/>
		<path d="M27.256,183.921c2.448,0,4.284-1.428,4.284-3.536v-14.516c0-0.511-0.068-0.612-0.374-1.055l-1.36-2.039
			c-0.442-0.646-0.85-0.885-1.938-0.885h-0.612v-1.088h7.547l10.879,15.537v-10.913c0-2.107-1.836-3.536-4.284-3.536v-1.088h9.927
			v1.088c-2.447,0-4.283,1.429-4.283,3.536v20.194H45.75l-12.715-18.188h-0.136v12.952c0,2.108,1.836,3.536,4.283,3.536v1.088
			h-9.927V183.921z"/>
		<path d="M67.987,183.921h2.38c0.612,0,0.815-0.204,0.815-0.815v-20.398c0-0.612-0.204-0.816-0.815-0.816h-2.38v-1.088H79.41v1.088
			h-2.38c-0.612,0-0.816,0.204-0.816,0.816v8.975h8.023v-8.975c0-0.612-0.204-0.816-0.815-0.816h-2.448v-1.088h11.491v1.088h-2.38
			c-0.612,0-0.816,0.204-0.816,0.816v20.398c0,0.611,0.204,0.815,0.816,0.815h2.38v1.088H81.042v-1.088h2.38
			c0.612,0,0.815-0.204,0.815-0.815v-10.199h-8.023v10.199c0,0.611,0.204,0.815,0.816,0.815h2.38v1.088H67.987V183.921z"/>
		<path d="M98.383,183.921h2.379c0.612,0,0.816-0.204,0.816-0.815v-20.398c0-0.612-0.204-0.816-0.816-0.816h-2.379v-1.088h11.423
			v1.088h-2.38c-0.612,0-0.816,0.204-0.816,0.816v20.398c0,0.611,0.204,0.815,0.816,0.815h2.38v1.088H98.383V183.921z"/>
		<path d="M117.762,174.605c0.952,4.998,3.978,9.928,7.854,9.928c4.08,0,4.657-2.448,4.657-3.876c0-1.258-1.088-2.176-2.448-3.06
			l-7.275-4.691c-1.7-1.088-3.808-3.06-3.808-6.188c0-4.691,3.264-6.527,6.664-6.527c2.244,0,4.147,1.224,4.828,1.699
			c0.442,0.341,0.884,0.612,1.224,0.612c0.442,0,0.68-0.34,0.748-0.782l0.204-0.918h1.088l0.34,8.84h-1.088
			c-1.258-4.691-4.284-8.363-7.615-8.363c-2.414,0-3.536,0.952-3.536,2.855c0,1.564,1.462,2.89,3.026,3.91l7.309,4.725
			c1.87,1.225,3.06,3.57,3.06,5.848c0,3.366-2.379,7.004-7.581,7.004c-2.176,0-3.74-0.748-4.658-1.496
			c-0.884-0.68-1.326-1.02-1.768-1.02c-0.476,0-0.782,0.407-0.884,1.155l-0.17,1.088h-1.054l-0.204-10.743H117.762z"/>
		<path d="M153.122,174.605c0.952,4.998,3.978,9.928,7.854,9.928c4.08,0,4.657-2.448,4.657-3.876c0-1.258-1.088-2.176-2.448-3.06
			l-7.275-4.691c-1.7-1.088-3.808-3.06-3.808-6.188c0-4.691,3.264-6.527,6.663-6.527c2.244,0,4.147,1.224,4.828,1.699
			c0.442,0.341,0.884,0.612,1.224,0.612c0.442,0,0.68-0.34,0.748-0.782l0.204-0.918h1.088l0.34,8.84h-1.088
			c-1.258-4.691-4.284-8.363-7.615-8.363c-2.414,0-3.536,0.952-3.536,2.855c0,1.564,1.462,2.89,3.026,3.91l7.309,4.725
			c1.87,1.225,3.06,3.57,3.06,5.848c0,3.366-2.38,7.004-7.581,7.004c-2.176,0-3.74-0.748-4.658-1.496
			c-0.884-0.68-1.326-1.02-1.768-1.02c-0.476,0-0.782,0.407-0.884,1.155l-0.17,1.088h-1.054l-0.204-10.743H153.122z"/>
		<path d="M172.162,183.921h1.156c1.462,0,2.516-1.394,2.992-2.754l7.173-20.976h1.428l7.275,21.996
			c0.408,1.189,1.122,1.733,2.006,1.733h1.359v1.088h-11.933v-1.088h2.448c0.544,0,0.918-0.51,0.918-1.088
			c0-0.204-0.102-0.68-0.204-0.986l-1.088-3.264h-7.139l-0.714,2.074c-0.238,0.612-0.374,1.292-0.374,1.733
			c0,0.748,0.646,1.53,1.768,1.53h1.598v1.088h-8.669V183.921z M185.285,177.325l-3.094-9.349l-3.196,9.349H185.285z"/>
		<path d="M198.546,160.803h20.398l0.271,10.132h-1.088c0,0-0.136-1.156-0.714-3.196c-0.782-2.787-2.583-5.848-4.896-5.848
			c-0.748,0-1.258,0.408-1.258,1.156v20.059c0,0.611,0.204,0.815,0.816,0.815h2.72v1.088h-12.103v-1.088h2.72
			c0.612,0,0.816-0.204,0.816-0.815v-20.059c0-0.748-0.51-1.156-1.258-1.156c-2.312,0-4.114,3.061-4.896,5.848
			c-0.578,2.04-0.714,3.196-0.714,3.196h-1.088L198.546,160.803z"/>
	</g>
</g>
<g>
	<path d="M224.771,179.196h0.688l1.406,2.469c0.906,1.594,2.219,2.969,4.25,2.969c1.688,0,2.281-1.062,2.281-1.875
		c0-1.25-0.812-1.812-3.906-3.312c-1.719-0.844-4.719-2.375-4.719-5.375c0-2.656,1.938-4.25,4.188-4.25
		c1.344,0,2.438,0.625,3.125,1.062c0.438,0.281,0.719,0.375,0.938,0.375c0.312,0,0.438-0.25,0.5-0.5l0.188-0.625h0.562v5h-0.688
		l-0.594-1.188c-1.156-2.312-2.719-3.375-4.156-3.375c-1,0-1.938,0.438-1.938,1.719c0,1.469,1.531,2.562,3.312,3.406
		c3.75,1.812,5.188,2.906,5.188,5.5c0,2.688-1.938,4.188-4.312,4.188c-1.531,0-2.719-0.688-3.25-1c-0.375-0.25-0.812-0.5-1.125-0.5
		c-0.562,0-1,0.375-1.156,0.844l-0.219,0.656h-0.562V179.196z"/>
</g>
<g>
	<path d="M243.34,180.113c1.53,0,2.651,1.122,2.651,2.651c0,1.53-1.122,2.652-2.651,2.652c-1.53,0-2.652-1.122-2.652-2.652
		C240.688,181.235,241.81,180.113,243.34,180.113z"/>
	<path d="M264.691,160.803h20.398l0.271,10.132h-1.088c0,0-0.136-1.156-0.714-3.196c-0.782-2.787-2.583-5.848-4.896-5.848
		c-0.748,0-1.258,0.408-1.258,1.156v20.059c0,0.611,0.204,0.815,0.816,0.815h2.72v1.088h-12.103v-1.088h2.72
		c0.612,0,0.816-0.204,0.816-0.815v-20.059c0-0.748-0.51-1.156-1.258-1.156c-2.312,0-4.114,3.061-4.896,5.848
		c-0.578,2.04-0.714,3.196-0.714,3.196h-1.088L264.691,160.803z"/>
	<path d="M301.546,160.191c5.372,0,10.063,6.188,10.063,12.715s-4.691,12.715-10.063,12.715s-10.063-6.188-10.063-12.715
		S296.175,160.191,301.546,160.191z M301.546,184.533c2.583,0,4.284-1.632,4.284-6.527v-10.199c0-4.896-1.7-6.527-4.284-6.527
		c-2.584,0-4.284,1.632-4.284,6.527v10.199C297.263,182.901,298.962,184.533,301.546,184.533z"/>
</g>
<g>
</g>
<g>
	<path d="M327.66,183.921h2.38c0.612,0,0.815-0.204,0.815-0.815v-20.398c0-0.612-0.204-0.816-0.815-0.816h-2.38v-1.088h19.174
		l0.272,9.315h-1.088c0,0-0.374-2.72-1.224-4.521c-0.816-1.733-2.448-3.706-4.624-3.706h-3.468c-0.612,0-0.816,0.204-0.816,0.816
		v9.383h1.734c1.904,0,3.399-2.72,3.399-4.691h1.088v10.641h-1.088c0-2.006-1.496-4.725-3.399-4.725h-1.734v9.791
		c0,0.611,0.204,0.815,0.816,0.815h3.094v1.088H327.66V183.921z"/>
	<path d="M352.82,183.921h2.38c0.612,0,0.815-0.204,0.815-0.815v-20.398c0-0.612-0.204-0.816-0.815-0.816h-2.38v-1.088h11.015
		c4.827,0,8.159,2.244,8.159,5.984c0,3.264-2.72,4.997-6.255,5.405v0.237c3.195,0.578,5.507,2.04,5.507,6.29v3.773
		c0,1.02,0.34,1.428,0.952,1.428c1.292,0,1.7-2.618,1.7-5.031h1.088c0,3.943-0.782,6.935-4.046,6.935
		c-2.788,0-4.726-1.631-4.726-5.099v-4.216c0-1.972-0.884-3.876-3.264-3.876h-1.904v10.472c0,0.611,0.204,0.815,0.816,0.815h2.992
		v1.088H352.82V183.921z M363.325,171.546c2.55,0,3.229-2.176,3.229-5.031s-0.68-4.624-3.229-4.624h-1.462
		c-0.612,0-0.816,0.204-0.816,0.816v8.839H363.325z"/>
	<path d="M380.02,183.921h2.38c0.612,0,0.816-0.204,0.816-0.815v-20.398c0-0.612-0.204-0.816-0.816-0.816h-2.38v-1.088h11.423v1.088
		h-2.38c-0.611,0-0.815,0.204-0.815,0.816v20.398c0,0.611,0.204,0.815,0.815,0.815h2.38v1.088H380.02V183.921z"/>
	<path d="M397.359,183.921h2.38c0.612,0,0.816-0.204,0.816-0.815v-20.398c0-0.612-0.204-0.816-0.816-0.816h-2.38v-1.088h19.106
		l0.204,7.888h-1.088c0,0-0.34-2.176-1.36-3.876c-0.951-1.665-2.312-2.924-4.079-2.924h-3.74c-0.611,0-0.815,0.204-0.815,0.816
		v9.383h1.733c1.904,0,3.4-2.72,3.4-4.691h1.088v10.641h-1.088c0-2.006-1.496-4.725-3.4-4.725h-1.733v9.791
		c0,0.611,0.204,0.815,0.815,0.815h3.706c2.788,0,4.386-2.991,5.031-4.827c0.442-1.258,0.714-3.468,0.714-3.468h1.088l-0.203,9.383
		h-19.379V183.921z"/>
	<path d="M422.723,183.921c2.447,0,4.283-1.428,4.283-3.536v-14.516c0-0.511-0.067-0.612-0.374-1.055l-1.359-2.039
		c-0.442-0.646-0.85-0.885-1.938-0.885h-0.612v-1.088h7.547l10.879,15.537v-10.913c0-2.107-1.836-3.536-4.283-3.536v-1.088h9.927
		v1.088c-2.447,0-4.283,1.429-4.283,3.536v20.194h-1.292l-12.715-18.188h-0.136v12.952c0,2.108,1.836,3.536,4.283,3.536v1.088
		h-9.927V183.921z"/>
	<path d="M451.555,183.921h2.38c0.612,0,0.816-0.204,0.816-0.815v-20.398c0-0.612-0.204-0.816-0.816-0.816h-2.38v-1.088h12.647
		c5.644,0,10.267,4.828,10.267,11.899s-4.623,12.307-10.267,12.307h-12.647V183.921z M460.598,183.921h3.026
		c2.72,0,5.065-1.836,5.065-5.915v-10.199c0-4.08-2.346-5.916-5.065-5.916h-3.026c-0.611,0-0.815,0.204-0.815,0.816v20.398
		C459.782,183.717,459.986,183.921,460.598,183.921z"/>
	<path d="M482.698,174.605c0.952,4.998,3.978,9.928,7.854,9.928c4.079,0,4.657-2.448,4.657-3.876c0-1.258-1.088-2.176-2.447-3.06
		l-7.275-4.691c-1.7-1.088-3.808-3.06-3.808-6.188c0-4.691,3.264-6.527,6.663-6.527c2.244,0,4.147,1.224,4.827,1.699
		c0.442,0.341,0.884,0.612,1.225,0.612c0.441,0,0.68-0.34,0.747-0.782l0.204-0.918h1.088l0.341,8.84h-1.088
		c-1.259-4.691-4.284-8.363-7.615-8.363c-2.414,0-3.536,0.952-3.536,2.855c0,1.564,1.462,2.89,3.025,3.91l7.31,4.725
		c1.87,1.225,3.06,3.57,3.06,5.848c0,3.366-2.38,7.004-7.581,7.004c-2.176,0-3.739-0.748-4.657-1.496
		c-0.884-0.68-1.326-1.02-1.769-1.02c-0.476,0-0.781,0.407-0.884,1.155l-0.17,1.088h-1.054l-0.204-10.743H482.698z"/>
	<path d="M506.498,179.978c2.244,0,3.604,1.699,3.604,3.943c0,3.909-2.583,6.562-5.847,7.751l-0.477-0.951
		c2.822-1.055,4.76-3.196,4.76-5.372c0-0.271-0.17-0.612-0.578-0.612c-0.237,0-0.544,0.137-0.815,0.272
		c-0.408,0.204-0.714,0.306-1.156,0.306c-1.122,0-2.414-0.781-2.414-2.447C503.574,180.93,505.104,179.978,506.498,179.978z"/>
</g>
<g>
</g>
<g>
</g>
<g>
	<defs>
		<rect id="SVGID_9_" width="601.5" height="231.008"/>
	</defs>
	<clipPath id="SVGID_10_">
		<use xlink:href="#SVGID_9_"  overflow="visible"/>
	</clipPath>
	<g clip-path="url(#SVGID_10_)">
		<path d="M-0.026,229.921h2.38c0.612,0,0.815-0.204,0.815-0.815v-20.398c0-0.612-0.204-0.816-0.815-0.816h-2.38v-1.088h11.423
			v1.088h-2.38c-0.612,0-0.816,0.204-0.816,0.816v8.975h8.023v-8.975c0-0.612-0.204-0.816-0.815-0.816H12.96v-1.088h11.491v1.088
			h-2.38c-0.612,0-0.816,0.204-0.816,0.816v20.398c0,0.611,0.204,0.815,0.816,0.815h2.38v1.088H13.028v-1.088h2.38
			c0.612,0,0.815-0.204,0.815-0.815v-10.199H8.201v10.199c0,0.611,0.204,0.815,0.816,0.815h2.38v1.088H-0.026V229.921z"/>
		<path d="M30.369,229.921h2.38c0.612,0,0.815-0.204,0.815-0.815v-20.398c0-0.612-0.204-0.816-0.815-0.816h-2.38v-1.088h19.106
			l0.204,7.888h-1.088c0,0-0.34-2.176-1.36-3.876c-0.952-1.665-2.312-2.924-4.08-2.924h-3.74c-0.612,0-0.816,0.204-0.816,0.816
			v9.383h1.734c1.904,0,3.399-2.72,3.399-4.691h1.088v10.641h-1.088c0-2.006-1.496-4.725-3.399-4.725h-1.734v9.791
			c0,0.611,0.204,0.815,0.816,0.815h3.706c2.788,0,4.386-2.991,5.032-4.827c0.442-1.258,0.714-3.468,0.714-3.468h1.088l-0.204,9.383
			H30.369V229.921z"/>
		<path d="M67.497,206.803h11.049v1.088H77.56c-0.646,0-1.054,0.545-1.054,1.19c0,0.204,0.068,0.578,0.17,0.85l4.284,13.089
			l3.196-10.879l-0.748-2.277c-0.51-1.496-1.19-1.973-2.686-1.973h-0.578v-1.088h11.151v1.088h-1.666
			c-0.646,0-1.088,0.511-1.088,0.986c0,0.204,0.034,0.476,0.102,0.748l4.318,13.259l3.093-11.185
			c0.102-0.307,0.238-1.292,0.238-1.836c0-0.816-0.408-1.973-1.802-1.973h-1.7v-1.088h9.179v1.088h-1.054
			c-1.734,0-2.72,1.395-3.264,3.094l-5.746,20.637h-1.428l-5.575-17.203l-5.032,17.203h-1.428l-7.071-21.521
			c-0.476-1.428-1.258-2.21-3.23-2.21h-0.646V206.803z"/>
		<path d="M101.021,229.921h1.156c1.462,0,2.516-1.394,2.992-2.754l7.173-20.976h1.428l7.275,21.996
			c0.408,1.189,1.122,1.733,2.005,1.733h1.36v1.088h-11.933v-1.088h2.448c0.544,0,0.918-0.51,0.918-1.088
			c0-0.204-0.102-0.68-0.204-0.986l-1.088-3.264h-7.139l-0.714,2.074c-0.238,0.612-0.374,1.292-0.374,1.733
			c0,0.748,0.646,1.53,1.768,1.53h1.598v1.088h-8.669V229.921z M114.143,223.325l-3.094-9.349l-3.196,9.349H114.143z"/>
		<path d="M131.654,220.605c0.952,4.998,3.978,9.928,7.854,9.928c4.08,0,4.657-2.448,4.657-3.876c0-1.258-1.088-2.176-2.448-3.06
			l-7.275-4.691c-1.7-1.088-3.808-3.06-3.808-6.188c0-4.691,3.264-6.527,6.664-6.527c2.244,0,4.147,1.224,4.828,1.699
			c0.442,0.341,0.884,0.612,1.224,0.612c0.442,0,0.68-0.34,0.748-0.782l0.204-0.918h1.088l0.34,8.84h-1.088
			c-1.258-4.691-4.284-8.363-7.615-8.363c-2.414,0-3.536,0.952-3.536,2.855c0,1.564,1.462,2.89,3.026,3.91l7.309,4.725
			c1.87,1.225,3.06,3.57,3.06,5.848c0,3.366-2.379,7.004-7.581,7.004c-2.176,0-3.74-0.748-4.658-1.496
			c-0.884-0.68-1.326-1.02-1.768-1.02c-0.476,0-0.782,0.407-0.884,1.155l-0.17,1.088h-1.054l-0.204-10.743H131.654z"/>
		<path d="M174.765,206.191c1.835,0,3.229,0.748,4.589,1.666c0.476,0.306,0.884,0.51,1.156,0.51c0.408,0,0.578-0.272,0.748-0.646
			l0.612-1.258h1.122V216.9h-1.088c-1.02-5.813-3.74-9.621-7.139-9.621c-1.904,0-3.74,1.632-3.74,6.527v10.199
			c0,4.896,2.176,6.527,4.08,6.527c3.196,0,4.998-1.802,6.018-3.706c0.816-1.53,1.156-3.569,1.326-5.167h1.224
			c-0.136,1.869-0.578,4.045-1.394,5.643c-1.36,2.652-3.773,4.318-7.173,4.318c-6.595,0-9.859-6.324-9.859-12.715
			C165.246,212.106,168.782,206.191,174.765,206.191z"/>
		<path d="M187.277,229.921h1.156c1.462,0,2.516-1.394,2.992-2.754l7.173-20.976h1.428l7.275,21.996
			c0.408,1.189,1.122,1.733,2.006,1.733h1.359v1.088h-11.933v-1.088h2.448c0.544,0,0.918-0.51,0.918-1.088
			c0-0.204-0.102-0.68-0.204-0.986l-1.088-3.264h-7.139l-0.714,2.074c-0.238,0.612-0.374,1.292-0.374,1.733
			c0,0.748,0.646,1.53,1.768,1.53h1.598v1.088h-8.669V229.921z M200.4,223.325l-3.094-9.349l-3.196,9.349H200.4z"/>
		<path d="M215.906,229.921h2.379c0.612,0,0.816-0.204,0.816-0.815v-20.398c0-0.612-0.204-0.816-0.816-0.816h-2.379v-1.088h11.015
			c4.828,0,8.159,2.244,8.159,5.984c0,3.264-2.72,4.997-6.255,5.405v0.237c3.196,0.578,5.508,2.04,5.508,6.29v3.773
			c0,1.02,0.34,1.428,0.952,1.428c1.292,0,1.7-2.618,1.7-5.031h1.088c0,3.943-0.782,6.935-4.045,6.935
			c-2.788,0-4.726-1.631-4.726-5.099v-4.216c0-1.972-0.884-3.876-3.264-3.876h-1.904v10.472c0,0.611,0.204,0.815,0.816,0.815h2.992
			v1.088h-12.035V229.921z M226.411,217.546c2.55,0,3.229-2.176,3.229-5.031s-0.68-4.624-3.229-4.624h-1.462
			c-0.612,0-0.816,0.204-0.816,0.816v8.839H226.411z"/>
		<path d="M243.105,229.921h2.38c0.612,0,0.815-0.204,0.815-0.815v-20.398c0-0.612-0.204-0.816-0.815-0.816h-2.38v-1.088h11.423
			v1.088h-2.38c-0.612,0-0.816,0.204-0.816,0.816v20.398c0,0.611,0.204,0.815,0.816,0.815h2.38v1.088h-11.423V229.921z"/>
		<path d="M259.969,229.921c2.448,0,4.284-1.428,4.284-3.536v-14.516c0-0.511-0.068-0.612-0.374-1.055l-1.36-2.039
			c-0.442-0.646-0.85-0.885-1.938-0.885h-0.612v-1.088h7.547l10.879,15.537v-10.913c0-2.107-1.836-3.536-4.284-3.536v-1.088h9.927
			v1.088c-2.448,0-4.284,1.429-4.284,3.536v20.194h-1.292l-12.715-18.188h-0.136v12.952c0,2.108,1.835,3.536,4.284,3.536v1.088
			h-9.927V229.921z"/>
		<path d="M299.204,206.191c2.142,0,3.468,0.748,4.828,1.666c0.476,0.306,0.85,0.51,1.156,0.51c0.374,0,0.578-0.272,0.748-0.646
			l0.578-1.258h1.122v9.791h-1.054c-1.53-5.643-3.978-8.975-7.377-8.975c-2.583,0-4.352,1.632-4.352,6.527v10.199
			c0,4.896,1.564,6.527,3.74,6.527c2.448,0,4.012-2.414,4.012-4.998v-4.657c0-0.612-0.204-0.816-0.816-0.816h-2.991v-1.088h11.287
			v1.088h-1.632c-0.612,0-0.816,0.204-0.816,0.816v10.573h-1.088l-0.816-3.094c-0.102-0.408-0.374-0.851-0.816-0.851
			c-0.476,0-0.782,0.272-1.054,0.714c-0.816,1.258-2.686,3.4-5.27,3.4c-5.983,0-9.519-5.95-9.519-12.715
			C289.073,212.106,293.22,206.191,299.204,206.191z"/>
		<path d="M326.948,229.921h1.156c1.462,0,2.516-1.394,2.992-2.754l7.173-20.976h1.428l7.275,21.996
			c0.408,1.189,1.122,1.733,2.006,1.733h1.359v1.088h-11.933v-1.088h2.448c0.544,0,0.918-0.51,0.918-1.088
			c0-0.204-0.102-0.68-0.204-0.986l-1.088-3.264h-7.139l-0.714,2.074c-0.238,0.612-0.374,1.292-0.374,1.733
			c0,0.748,0.646,1.53,1.768,1.53h1.598v1.088h-8.669V229.921z M340.071,223.325l-3.094-9.349l-3.196,9.349H340.071z"/>
		<path d="M355.066,229.921c2.448,0,4.284-1.428,4.284-3.536v-14.516c0-0.511-0.068-0.612-0.374-1.055l-1.36-2.039
			c-0.442-0.646-0.85-0.885-1.938-0.885h-0.612v-1.088h7.547l10.878,15.537v-10.913c0-2.107-1.836-3.536-4.283-3.536v-1.088h9.927
			v1.088c-2.447,0-4.283,1.429-4.283,3.536v20.194h-1.292l-12.715-18.188h-0.136v12.952c0,2.108,1.836,3.536,4.283,3.536v1.088
			h-9.927V229.921z"/>
	</g>
	<g clip-path="url(#SVGID_10_)">
		<path d="M383.966,229.921h2.38c0.612,0,0.816-0.204,0.816-0.815v-20.398c0-0.612-0.204-0.816-0.816-0.816h-2.38v-1.088h12.647
			c5.643,0,10.267,4.828,10.267,11.899s-4.624,12.307-10.267,12.307h-12.647V229.921z M393.01,229.921h3.025
			c2.72,0,5.065-1.836,5.065-5.915v-10.199c0-4.08-2.346-5.916-5.065-5.916h-3.025c-0.612,0-0.816,0.204-0.816,0.816v20.398
			C392.193,229.717,392.397,229.921,393.01,229.921z"/>
	</g>
	<g clip-path="url(#SVGID_10_)">
		<path d="M434.383,222.067c0-0.56,0.24-0.8,0.801-0.8h0.5c0.56,0,0.8,0.24,0.8,0.8v2.461c0,1.74-0.86,2.601-2.601,2.601h-1.061
			c-1.74,0-2.6-0.86-2.6-2.601v-9.042c0-1.74,0.859-2.601,2.6-2.601h1.041c1.74,0,2.58,0.84,2.58,2.581v2.06
			c0,0.561-0.24,0.801-0.8,0.801h-0.5c-0.561,0-0.801-0.24-0.801-0.801v-1.94c0-0.56-0.26-0.819-0.8-0.819h-0.36
			c-0.56,0-0.82,0.26-0.82,0.819v8.843c0,0.56,0.261,0.819,0.82,0.819h0.4c0.54,0,0.8-0.26,0.8-0.819V222.067z"/>
		<path d="M452.663,227.009c-0.521,0-0.74-0.2-0.801-0.7l-0.18-1.5h-2.221l-0.2,1.5c-0.06,0.5-0.28,0.7-0.78,0.7h-0.359
			c-0.62,0-0.881-0.3-0.78-0.92l1.76-12.403c0.08-0.479,0.301-0.68,0.801-0.68h1.44c0.5,0,0.72,0.2,0.8,0.68l1.78,12.403
			c0.1,0.62-0.16,0.92-0.78,0.92H452.663z M451.442,222.908l-0.88-7.082l-0.881,7.082H451.442z"/>
		<path d="M469.822,220.407c0.88,0.24,1.24,0.78,1.24,1.841v3.961c0,0.56-0.24,0.8-0.8,0.8h-0.54c-0.561,0-0.801-0.24-0.801-0.8
			v-3.921c0-0.62-0.279-0.9-0.899-0.9h-0.961v4.821c0,0.56-0.239,0.8-0.8,0.8h-0.54c-0.561,0-0.8-0.24-0.8-0.8v-12.403
			c0-0.56,0.239-0.8,0.8-0.8h2.721c1.74,0,2.601,0.86,2.601,2.601v2.641C471.043,219.487,470.603,220.087,469.822,220.407z
			 M468.902,215.706c0-0.54-0.26-0.8-0.8-0.8h-1.041v4.621h0.961c0.6,0,0.88-0.28,0.88-0.86V215.706z"/>
		<path d="M482.301,213.806c0-0.56,0.24-0.8,0.801-0.8h3.16c0.561,0,0.801,0.24,0.801,0.8v0.341c0,0.56-0.24,0.8-0.801,0.8h-1.82
			v3.961h1.721c0.561,0,0.8,0.24,0.8,0.8v0.34c0,0.561-0.239,0.801-0.8,0.801h-1.721v4.221h1.86c0.561,0,0.801,0.24,0.801,0.8v0.341
			c0,0.56-0.24,0.8-0.801,0.8h-3.2c-0.561,0-0.801-0.24-0.801-0.8V213.806z"/>
		<path d="M498.242,213.806c0-0.56,0.239-0.8,0.8-0.8h3.061c0.561,0,0.8,0.24,0.8,0.8v0.341c0,0.56-0.239,0.8-0.8,0.8h-1.721v4.041
			h1.621c0.56,0,0.8,0.24,0.8,0.8v0.34c0,0.561-0.24,0.801-0.8,0.801h-1.621v5.281c0,0.56-0.239,0.8-0.8,0.8h-0.54
			c-0.561,0-0.8-0.24-0.8-0.8V213.806z"/>
		<path d="M518.662,220.407c0.88,0.24,1.24,0.78,1.24,1.841v3.961c0,0.56-0.24,0.8-0.8,0.8h-0.54c-0.561,0-0.801-0.24-0.801-0.8
			v-3.921c0-0.62-0.279-0.9-0.899-0.9h-0.961v4.821c0,0.56-0.239,0.8-0.8,0.8h-0.54c-0.561,0-0.8-0.24-0.8-0.8v-12.403
			c0-0.56,0.239-0.8,0.8-0.8h2.721c1.74,0,2.601,0.86,2.601,2.601v2.641C519.883,219.487,519.442,220.087,518.662,220.407z
			 M517.742,215.706c0-0.54-0.26-0.8-0.8-0.8h-1.041v4.621h0.961c0.6,0,0.88-0.28,0.88-0.86V215.706z"/>
		<path d="M531.141,213.806c0-0.56,0.24-0.8,0.801-0.8h3.16c0.561,0,0.801,0.24,0.801,0.8v0.341c0,0.56-0.24,0.8-0.801,0.8h-1.82
			v3.961h1.721c0.561,0,0.8,0.24,0.8,0.8v0.34c0,0.561-0.239,0.801-0.8,0.801h-1.721v4.221h1.86c0.561,0,0.801,0.24,0.801,0.8v0.341
			c0,0.56-0.24,0.8-0.801,0.8h-3.2c-0.561,0-0.801-0.24-0.801-0.8V213.806z"/>
		<path d="M547.08,213.806c0-0.56,0.24-0.8,0.801-0.8h3.16c0.561,0,0.801,0.24,0.801,0.8v0.341c0,0.56-0.24,0.8-0.801,0.8h-1.82
			v3.961h1.721c0.561,0,0.8,0.24,0.8,0.8v0.34c0,0.561-0.239,0.801-0.8,0.801h-1.721v4.221h1.86c0.561,0,0.801,0.24,0.801,0.8v0.341
			c0,0.56-0.24,0.8-0.801,0.8h-3.2c-0.561,0-0.801-0.24-0.801-0.8V213.806z"/>
		<path d="M564.102,224.349c0.56,0,0.8,0.239,0.8,0.8v1.061c0,0.56-0.24,0.8-0.8,0.8h-0.421c-0.56,0-0.8-0.24-0.8-0.8v-1.061
			c0-0.561,0.24-0.8,0.8-0.8H564.102z"/>
	</g>
	<line clip-path="url(#SVGID_10_)" fill="none" stroke="#ED1B2F" x1="1.5" y1="0.499" x2="252" y2="0.499"/>
</g>
<g>
</g>
<g>
</g>
<g>
</g>
<g>
</g>
<g>
</g>
<g>
</g>
<g>
</g>
<g>
</g>
<g>
</g>
<g>
</g>
<g>
</g>
<g>
</g>
<g>
</g>
<g>
</g>
<g>
</g>
</svg>
