<?xml version="1.0" encoding="utf-8"?>
<!-- Generator: Adobe Illustrator 16.2.1, SVG Export Plug-In . SVG Version: 6.00 Build 0)  -->
<!DOCTYPE svg PUBLIC "-//W3C//DTD SVG 1.1//EN" "http://www.w3.org/Graphics/SVG/1.1/DTD/svg11.dtd">
<svg version="1.1" id="Layer_1" xmlns="http://www.w3.org/2000/svg" xmlns:xlink="http://www.w3.org/1999/xlink" x="0px" y="0px"
	 width="743.572px" height="139.524px" viewBox="0 0 743.572 139.524" enable-background="new 0 0 743.572 139.524"
	 xml:space="preserve">
<g>
	<defs>
		<rect id="SVGID_1_" width="672" height="139.524"/>
	</defs>
	<clipPath id="SVGID_2_">
		<use xlink:href="#SVGID_1_"  overflow="visible"/>
	</clipPath>
	<g clip-path="url(#SVGID_2_)">
		<path d="M-0.906,23.319h20.397l0.272,10.131h-1.088c0,0-0.136-1.156-0.714-3.196c-0.782-2.787-2.583-5.847-4.896-5.847
			c-0.748,0-1.258,0.407-1.258,1.155V45.62c0,0.612,0.204,0.816,0.816,0.816h2.72v1.088H3.241v-1.088h2.72
			c0.612,0,0.816-0.204,0.816-0.816V25.562c0-0.748-0.51-1.155-1.258-1.155c-2.312,0-4.114,3.06-4.896,5.847
			c-0.578,2.04-0.714,3.196-0.714,3.196h-1.088L-0.906,23.319z"/>
		<path d="M25.613,46.437h2.38c0.612,0,0.815-0.204,0.815-0.816V25.223c0-0.612-0.204-0.815-0.815-0.815h-2.38v-1.088h11.423v1.088
			h-2.38c-0.612,0-0.816,0.203-0.816,0.815v8.976h8.023v-8.976c0-0.612-0.204-0.815-0.815-0.815H38.6v-1.088h11.491v1.088h-2.38
			c-0.612,0-0.816,0.203-0.816,0.815V45.62c0,0.612,0.204,0.816,0.816,0.816h2.38v1.088H38.668v-1.088h2.38
			c0.612,0,0.815-0.204,0.815-0.816V35.422H33.84V45.62c0,0.612,0.204,0.816,0.816,0.816h2.38v1.088H25.613V46.437z"/>
		<path d="M56.009,46.437h2.38c0.612,0,0.815-0.204,0.815-0.816V25.223c0-0.612-0.204-0.815-0.815-0.815h-2.38v-1.088h19.106
			l0.204,7.887h-1.088c0,0-0.34-2.176-1.36-3.876c-0.952-1.665-2.312-2.923-4.08-2.923h-3.74c-0.612,0-0.816,0.203-0.816,0.815
			v9.383h1.734c1.904,0,3.399-2.72,3.399-4.691h1.088v10.641h-1.088c0-2.005-1.496-4.726-3.399-4.726h-1.734v9.791
			c0,0.612,0.204,0.816,0.816,0.816h3.706c2.788,0,4.386-2.992,5.032-4.827c0.442-1.258,0.714-3.468,0.714-3.468h1.088l-0.204,9.383
			H56.009V46.437z"/>
	</g>
</g>
<g>
</g>
<g>
	<path d="M98.421,46.437h1.156c1.462,0,2.516-1.394,2.992-2.754l7.173-20.976h1.428l7.275,21.996
		c0.408,1.189,1.122,1.733,2.005,1.733h1.36v1.088h-11.933v-1.088h2.448c0.544,0,0.918-0.51,0.918-1.088
		c0-0.204-0.102-0.68-0.204-0.986l-1.088-3.264h-7.139l-0.714,2.074c-0.238,0.612-0.374,1.292-0.374,1.733
		c0,0.748,0.646,1.53,1.768,1.53h1.598v1.088h-8.669V46.437z M111.543,39.841l-3.094-9.349l-3.196,9.349H111.543z"/>
	<path d="M135.819,22.707c2.142,0,3.468,0.748,4.828,1.666c0.476,0.306,0.85,0.51,1.156,0.51c0.374,0,0.578-0.272,0.748-0.646
		l0.578-1.258h1.122v9.791h-1.054c-1.53-5.644-3.978-8.975-7.377-8.975c-2.584,0-4.352,1.632-4.352,6.527v10.199
		c0,4.896,1.564,6.527,3.74,6.527c2.448,0,4.011-2.414,4.011-4.998v-4.657c0-0.612-0.204-0.816-0.815-0.816h-2.992v-1.088h11.287
		v1.088h-1.632c-0.612,0-0.816,0.204-0.816,0.816v10.573h-1.088l-0.816-3.094c-0.102-0.408-0.374-0.851-0.816-0.851
		c-0.476,0-0.782,0.272-1.054,0.714c-0.816,1.258-2.686,3.4-5.27,3.4c-5.983,0-9.519-5.95-9.519-12.715
		C125.688,28.622,129.836,22.707,135.819,22.707z"/>
	<path d="M152.276,46.437h2.38c0.612,0,0.815-0.204,0.815-0.816V25.223c0-0.612-0.204-0.815-0.815-0.815h-2.38v-1.088h19.106
		l0.204,7.887h-1.088c0,0-0.34-2.176-1.36-3.876c-0.952-1.665-2.312-2.923-4.08-2.923h-3.74c-0.612,0-0.816,0.203-0.816,0.815v9.383
		h1.734c1.904,0,3.399-2.72,3.399-4.691h1.088v10.641h-1.088c0-2.005-1.496-4.726-3.399-4.726h-1.734v9.791
		c0,0.612,0.204,0.816,0.816,0.816h3.706c2.788,0,4.386-2.992,5.032-4.827c0.442-1.258,0.714-3.468,0.714-3.468h1.088l-0.204,9.383
		h-19.378V46.437z"/>
	<path d="M177.64,46.437c2.448,0,4.284-1.428,4.284-3.535V28.385c0-0.511-0.068-0.612-0.374-1.055l-1.36-2.039
		c-0.442-0.646-0.85-0.884-1.938-0.884h-0.612v-1.088h7.547l10.879,15.536V27.942c0-2.107-1.836-3.535-4.284-3.535v-1.088h9.927
		v1.088c-2.447,0-4.283,1.428-4.283,3.535v20.194h-1.292l-12.715-18.188h-0.136v12.953c0,2.107,1.836,3.535,4.283,3.535v1.088
		h-9.927V46.437z"/>
	<path d="M206.676,23.319h20.397l0.272,10.131h-1.088c0,0-0.136-1.156-0.714-3.196c-0.782-2.787-2.583-5.847-4.896-5.847
		c-0.748,0-1.258,0.407-1.258,1.155V45.62c0,0.612,0.204,0.816,0.816,0.816h2.72v1.088h-12.103v-1.088h2.72
		c0.612,0,0.816-0.204,0.816-0.816V25.562c0-0.748-0.51-1.155-1.258-1.155c-2.312,0-4.114,3.06-4.896,5.847
		c-0.578,2.04-0.714,3.196-0.714,3.196h-1.088L206.676,23.319z"/>
</g>
<g>
</g>
<g>
	<path d="M256.248,22.707c1.835,0,3.229,0.748,4.589,1.666c0.476,0.306,0.884,0.51,1.156,0.51c0.408,0,0.578-0.272,0.748-0.646
		l0.612-1.258h1.122v10.438h-1.088c-1.02-5.813-3.74-9.621-7.139-9.621c-1.904,0-3.74,1.632-3.74,6.527v10.199
		c0,4.896,2.176,6.527,4.08,6.527c3.196,0,4.998-1.802,6.018-3.706c0.816-1.529,1.156-3.569,1.326-5.167h1.224
		c-0.136,1.869-0.578,4.045-1.394,5.643c-1.36,2.652-3.773,4.318-7.173,4.318c-6.595,0-9.859-6.323-9.859-12.715
		C246.729,28.622,250.264,22.707,256.248,22.707z"/>
	<path d="M271.276,46.437h2.38c0.612,0,0.815-0.204,0.815-0.816V25.223c0-0.612-0.204-0.815-0.815-0.815h-2.38v-1.088h11.015
		c4.828,0,8.159,2.243,8.159,5.982c0,3.264-2.72,4.998-6.255,5.406v0.237c3.196,0.578,5.507,2.04,5.507,6.29v3.773
		c0,1.02,0.34,1.428,0.952,1.428c1.292,0,1.7-2.618,1.7-5.031h1.088c0,3.943-0.782,6.936-4.045,6.936
		c-2.788,0-4.726-1.633-4.726-5.1v-4.216c0-1.972-0.884-3.876-3.264-3.876h-1.904V45.62c0,0.612,0.204,0.816,0.816,0.816h2.992
		v1.088h-12.035V46.437z M281.781,34.062c2.55,0,3.229-2.176,3.229-5.031s-0.68-4.623-3.229-4.623h-1.462
		c-0.612,0-0.816,0.203-0.816,0.815v8.839H281.781z"/>
	<path d="M298.476,46.437h2.379c0.612,0,0.816-0.204,0.816-0.816V25.223c0-0.612-0.204-0.815-0.816-0.815h-2.379v-1.088h19.106
		l0.204,7.887h-1.088c0,0-0.34-2.176-1.36-3.876c-0.952-1.665-2.312-2.923-4.08-2.923h-3.74c-0.612,0-0.816,0.203-0.816,0.815v9.383
		h1.734c1.904,0,3.399-2.72,3.399-4.691h1.088v10.641h-1.088c0-2.005-1.496-4.726-3.399-4.726h-1.734v9.791
		c0,0.612,0.204,0.816,0.816,0.816h3.706c2.788,0,4.386-2.992,5.032-4.827c0.442-1.258,0.714-3.468,0.714-3.468h1.088l-0.204,9.383
		h-19.378V46.437z"/>
	<path d="M323.703,46.437h1.156c1.462,0,2.516-1.394,2.992-2.754l7.173-20.976h1.428l7.275,21.996
		c0.408,1.189,1.122,1.733,2.006,1.733h1.359v1.088H335.16v-1.088h2.448c0.544,0,0.918-0.51,0.918-1.088
		c0-0.204-0.102-0.68-0.204-0.986l-1.088-3.264h-7.139l-0.714,2.074c-0.238,0.612-0.374,1.292-0.374,1.733
		c0,0.748,0.646,1.53,1.768,1.53h1.598v1.088h-8.669V46.437z M336.826,39.841l-3.094-9.349l-3.196,9.349H336.826z"/>
	<path d="M350.121,23.319h20.398l0.271,10.131h-1.088c0,0-0.136-1.156-0.714-3.196c-0.782-2.787-2.584-5.847-4.896-5.847
		c-0.748,0-1.258,0.407-1.258,1.155V45.62c0,0.612,0.204,0.816,0.816,0.816h2.72v1.088h-12.103v-1.088h2.72
		c0.612,0,0.816-0.204,0.816-0.816V25.562c0-0.748-0.51-1.155-1.258-1.155c-2.312,0-4.114,3.06-4.896,5.847
		c-0.578,2.04-0.714,3.196-0.714,3.196h-1.088L350.121,23.319z"/>
	<path d="M376.641,46.437h2.38c0.612,0,0.816-0.204,0.816-0.816V25.223c0-0.612-0.204-0.815-0.816-0.815h-2.38v-1.088h19.106
		l0.204,7.887h-1.088c0,0-0.34-2.176-1.36-3.876c-0.951-1.665-2.312-2.923-4.079-2.923h-3.74c-0.611,0-0.815,0.203-0.815,0.815
		v9.383h1.733c1.904,0,3.4-2.72,3.4-4.691h1.088v10.641h-1.088c0-2.005-1.496-4.726-3.4-4.726h-1.733v9.791
		c0,0.612,0.204,0.816,0.815,0.816h3.706c2.788,0,4.386-2.992,5.031-4.827c0.442-1.258,0.714-3.468,0.714-3.468h1.088l-0.203,9.383
		h-19.379V46.437z"/>
	<path d="M402.48,46.437h2.38c0.612,0,0.816-0.204,0.816-0.816V25.223c0-0.612-0.204-0.815-0.816-0.815h-2.38v-1.088h12.647
		c5.644,0,10.267,4.827,10.267,11.898s-4.623,12.307-10.267,12.307H402.48V46.437z M411.523,46.437h3.026
		c2.72,0,5.065-1.836,5.065-5.915V30.322c0-4.08-2.346-5.915-5.065-5.915h-3.026c-0.611,0-0.815,0.203-0.815,0.815V45.62
		C410.708,46.232,410.912,46.437,411.523,46.437z"/>
</g>
<g>
	<defs>
		<rect id="SVGID_3_" width="672" height="139.524"/>
	</defs>
	<clipPath id="SVGID_4_">
		<use xlink:href="#SVGID_3_"  overflow="visible"/>
	</clipPath>
	<g clip-path="url(#SVGID_4_)">
		<path d="M-2.393,92.437h1.156c1.462,0,2.516-1.394,2.992-2.754l7.173-20.976h1.428l7.275,21.996
			c0.408,1.189,1.122,1.733,2.005,1.733h1.36v1.088H9.064v-1.088h2.448c0.544,0,0.918-0.51,0.918-1.088
			c0-0.204-0.102-0.68-0.204-0.986l-1.088-3.264H3.999l-0.714,2.074c-0.238,0.612-0.374,1.292-0.374,1.733
			c0,0.748,0.646,1.53,1.768,1.53h1.598v1.088h-8.669V92.437z M10.73,85.841l-3.094-9.349L4.44,85.841H10.73z"/>
	</g>
</g>
<g>
</g>
<g>
	<path d="M49.648,82.343c0.94,0.681,1.241,1.28,1.241,2.421v2.28c0,1.74-0.86,2.601-2.601,2.601h-0.94
		c-1.74,0-2.581-0.86-2.581-2.581v-2.16c0-0.56,0.24-0.8,0.8-0.8h0.48c0.56,0,0.8,0.24,0.8,0.8v2.08c0,0.541,0.26,0.801,0.82,0.801
		h0.28c0.56,0,0.82-0.26,0.82-0.801v-1.92c0-0.58-0.2-0.84-0.6-1.141l-2.161-1.58c-0.96-0.68-1.24-1.34-1.24-2.42v-1.921
		c0-1.74,0.86-2.601,2.601-2.601h0.9c1.72,0,2.581,0.86,2.581,2.581v1.74c0,0.56-0.24,0.8-0.8,0.8h-0.5c-0.56,0-0.8-0.24-0.8-0.8
		v-1.661c0-0.54-0.26-0.8-0.8-0.8h-0.26c-0.541,0-0.8,0.26-0.8,0.8v1.561c0,0.58,0.2,0.86,0.6,1.141L49.648,82.343z"/>
	<path d="M62.047,76.321c0-0.56,0.24-0.8,0.8-0.8h3.161c0.56,0,0.8,0.24,0.8,0.8v0.341c0,0.56-0.24,0.8-0.8,0.8h-1.82v3.961h1.72
		c0.56,0,0.8,0.24,0.8,0.8v0.34c0,0.561-0.24,0.801-0.8,0.801h-1.72v4.221h1.86c0.56,0,0.8,0.24,0.8,0.8v0.341
		c0,0.56-0.24,0.8-0.8,0.8h-3.201c-0.56,0-0.8-0.24-0.8-0.8V76.321z"/>
	<path d="M82.108,84.583c0-0.56,0.24-0.8,0.8-0.8h0.5c0.56,0,0.8,0.24,0.8,0.8v2.461c0,1.74-0.86,2.601-2.601,2.601h-1.06
		c-1.74,0-2.601-0.86-2.601-2.601v-9.042c0-1.74,0.86-2.601,2.601-2.601h1.04c1.741,0,2.581,0.84,2.581,2.581v2.06
		c0,0.561-0.24,0.801-0.8,0.801h-0.5c-0.56,0-0.8-0.24-0.8-0.801v-1.94c0-0.56-0.26-0.819-0.8-0.819h-0.36
		c-0.56,0-0.82,0.26-0.82,0.819v8.843c0,0.56,0.26,0.819,0.82,0.819h0.4c0.54,0,0.8-0.26,0.8-0.819V84.583z"/>
	<path d="M100.308,82.923c0.88,0.24,1.24,0.78,1.24,1.841v3.961c0,0.56-0.24,0.8-0.8,0.8h-0.54c-0.561,0-0.8-0.24-0.8-0.8v-3.921
		c0-0.62-0.28-0.9-0.9-0.9h-0.96v4.821c0,0.56-0.24,0.8-0.8,0.8h-0.54c-0.56,0-0.8-0.24-0.8-0.8V76.321c0-0.56,0.24-0.8,0.8-0.8
		h2.721c1.74,0,2.6,0.86,2.6,2.601v2.641C101.528,82.003,101.088,82.603,100.308,82.923z M99.388,78.222c0-0.54-0.26-0.8-0.8-0.8
		h-1.04v4.621h0.96c0.6,0,0.88-0.28,0.88-0.86V78.222z"/>
	<path d="M112.787,76.321c0-0.56,0.24-0.8,0.8-0.8h3.161c0.56,0,0.8,0.24,0.8,0.8v0.341c0,0.56-0.24,0.8-0.8,0.8h-1.82v3.961h1.72
		c0.56,0,0.8,0.24,0.8,0.8v0.34c0,0.561-0.24,0.801-0.8,0.801h-1.72v4.221h1.86c0.56,0,0.8,0.24,0.8,0.8v0.341
		c0,0.56-0.24,0.8-0.8,0.8h-3.201c-0.56,0-0.8-0.24-0.8-0.8V76.321z"/>
</g>
<g>
	<path d="M132.288,88.725c0,0.56-0.24,0.8-0.8,0.8h-0.541c-0.56,0-0.8-0.24-0.8-0.8V77.462h-1.121c-0.56,0-0.8-0.24-0.8-0.8v-0.341
		c0-0.56,0.24-0.8,0.8-0.8h4.381c0.56,0,0.8,0.24,0.8,0.8v0.341c0,0.56-0.24,0.8-0.8,0.8h-1.121V88.725z"/>
</g>
<g>
	<path d="M158.814,92.437h2.379c0.612,0,0.816-0.204,0.816-0.816V71.223c0-0.612-0.204-0.815-0.816-0.815h-2.379v-1.088h11.423
		v1.088h-2.38c-0.612,0-0.816,0.203-0.816,0.815V91.62c0,0.612,0.204,0.816,0.816,0.816h2.38v1.088h-11.423V92.437z"/>
	<path d="M176.154,92.437h2.379c0.612,0,0.816-0.204,0.816-0.816V71.223c0-0.612-0.204-0.815-0.816-0.815h-2.379v-1.088H188.8
		c5.644,0,10.267,4.827,10.267,11.898s-4.624,12.307-10.267,12.307h-12.646V92.437z M185.197,92.437h3.026
		c2.72,0,5.065-1.836,5.065-5.915V76.322c0-4.08-2.346-5.915-5.065-5.915h-3.026c-0.612,0-0.816,0.203-0.816,0.815V91.62
		C184.381,92.232,184.585,92.437,185.197,92.437z"/>
	<path d="M205.257,92.437h2.379c0.612,0,0.816-0.204,0.816-0.816V71.223c0-0.612-0.204-0.815-0.816-0.815h-2.379v-1.088h19.106
		l0.204,7.887h-1.088c0,0-0.34-2.176-1.36-3.876c-0.952-1.665-2.312-2.923-4.08-2.923h-3.74c-0.612,0-0.816,0.203-0.816,0.815v9.383
		h1.734c1.904,0,3.399-2.72,3.399-4.691h1.088v10.641h-1.088c0-2.005-1.496-4.726-3.399-4.726h-1.734v9.791
		c0,0.612,0.204,0.816,0.816,0.816h3.706c2.788,0,4.386-2.992,5.032-4.827c0.442-1.258,0.714-3.468,0.714-3.468h1.088l-0.204,9.383
		h-19.378V92.437z"/>
	<path d="M230.621,92.437c2.448,0,4.284-1.428,4.284-3.535V74.385c0-0.511-0.068-0.612-0.374-1.055l-1.36-2.039
		c-0.442-0.646-0.85-0.884-1.938-0.884h-0.612v-1.088h7.547l10.879,15.536V73.942c0-2.107-1.836-3.535-4.284-3.535v-1.088h9.927
		v1.088c-2.447,0-4.283,1.428-4.283,3.535v20.194h-1.292L236.4,75.948h-0.136v12.953c0,2.107,1.836,3.535,4.283,3.535v1.088h-9.927
		V92.437z"/>
	<path d="M259.656,69.319h20.398l0.271,10.131h-1.088c0,0-0.136-1.156-0.714-3.196c-0.782-2.787-2.583-5.847-4.896-5.847
		c-0.748,0-1.258,0.407-1.258,1.155V91.62c0,0.612,0.204,0.816,0.816,0.816h2.72v1.088h-12.103v-1.088h2.72
		c0.612,0,0.816-0.204,0.816-0.816V71.562c0-0.748-0.51-1.155-1.258-1.155c-2.312,0-4.114,3.06-4.896,5.847
		c-0.578,2.04-0.714,3.196-0.714,3.196h-1.088L259.656,69.319z"/>
	<path d="M286.176,92.437h2.379c0.612,0,0.816-0.204,0.816-0.816V71.223c0-0.612-0.204-0.815-0.816-0.815h-2.379v-1.088h11.423
		v1.088h-2.38c-0.612,0-0.816,0.203-0.816,0.815V91.62c0,0.612,0.204,0.816,0.816,0.816h2.38v1.088h-11.423V92.437z"/>
	<path d="M303.72,69.319h20.398l0.271,10.131h-1.088c0,0-0.136-1.156-0.714-3.196c-0.782-2.787-2.583-5.847-4.896-5.847
		c-0.748,0-1.258,0.407-1.258,1.155V91.62c0,0.612,0.204,0.816,0.816,0.816h2.72v1.088h-12.103v-1.088h2.72
		c0.612,0,0.816-0.204,0.816-0.816V71.562c0-0.748-0.51-1.155-1.258-1.155c-2.312,0-4.114,3.06-4.896,5.847
		c-0.578,2.04-0.714,3.196-0.714,3.196h-1.088L303.72,69.319z"/>
	<path d="M329.696,69.319h10.675v1.088h-0.952c-0.68,0-0.952,0.611-0.952,1.088c0,0.271,0.068,0.68,0.204,0.951l4.487,9.757
		l3.128-7.785c0.238-0.544,0.476-1.359,0.476-1.938c0-0.952-0.476-2.073-1.835-2.073h-0.952v-1.088h8.431v1.088h-1.02
		c-1.666,0-2.652,1.325-3.094,2.481l-4.59,11.185v7.547c0,0.612,0.204,0.816,0.816,0.816h2.176v1.088h-11.015v-1.088h2.176
		c0.612,0,0.816-0.204,0.816-0.816v-7.241l-5.779-12.477c-0.544-1.189-1.088-1.495-2.006-1.495h-1.19V69.319z"/>
	<path d="M357.337,88.629c1.53,0,2.651,1.122,2.651,2.651c0,1.53-1.122,2.652-2.651,2.652c-1.53,0-2.652-1.122-2.652-2.652
		C354.685,89.751,355.807,88.629,357.337,88.629z"/>
	<path d="M378.484,92.437h2.38c0.612,0,0.816-0.204,0.816-0.816V71.223c0-0.612-0.204-0.815-0.816-0.815h-2.38v-1.088h11.423v1.088
		h-2.38c-0.611,0-0.815,0.203-0.815,0.815v8.976h8.023v-8.976c0-0.612-0.204-0.815-0.816-0.815h-2.447v-1.088h11.49v1.088h-2.38
		c-0.611,0-0.815,0.203-0.815,0.815V91.62c0,0.612,0.204,0.816,0.815,0.816h2.38v1.088h-11.423v-1.088h2.38
		c0.612,0,0.816-0.204,0.816-0.816V81.422h-8.023V91.62c0,0.612,0.204,0.816,0.815,0.816h2.38v1.088h-11.423V92.437z"/>
	<path d="M408.88,92.437h2.38c0.612,0,0.816-0.204,0.816-0.816V71.223c0-0.612-0.204-0.815-0.816-0.815h-2.38v-1.088h11.423v1.088
		h-2.379c-0.612,0-0.816,0.203-0.816,0.815V91.62c0,0.612,0.204,0.816,0.816,0.816h2.379v1.088H408.88V92.437z"/>
	<path d="M428.26,83.121c0.952,4.998,3.978,9.928,7.854,9.928c4.079,0,4.657-2.448,4.657-3.876c0-1.258-1.088-2.176-2.447-3.06
		l-7.275-4.691c-1.7-1.088-3.808-3.06-3.808-6.188c0-4.691,3.264-6.527,6.663-6.527c2.244,0,4.147,1.224,4.827,1.7
		c0.442,0.34,0.885,0.611,1.225,0.611c0.441,0,0.68-0.34,0.748-0.782l0.203-0.917h1.088l0.34,8.839h-1.088
		c-1.258-4.691-4.283-8.363-7.615-8.363c-2.413,0-3.535,0.952-3.535,2.855c0,1.563,1.462,2.89,3.025,3.91l7.31,4.726
		c1.87,1.224,3.06,3.569,3.06,5.847c0,3.366-2.38,7.004-7.581,7.004c-2.176,0-3.739-0.748-4.657-1.496
		c-0.885-0.68-1.326-1.021-1.769-1.021c-0.476,0-0.781,0.408-0.884,1.156l-0.17,1.088h-1.054l-0.204-10.743H428.26z"/>
	<path d="M471.949,68.707c2.142,0,3.468,0.748,4.827,1.666c0.477,0.306,0.851,0.51,1.156,0.51c0.374,0,0.578-0.272,0.748-0.646
		l0.578-1.258h1.122v9.791h-1.055c-1.529-5.644-3.978-8.975-7.377-8.975c-2.584,0-4.352,1.632-4.352,6.527v10.199
		c0,4.896,1.563,6.527,3.739,6.527c2.448,0,4.012-2.414,4.012-4.998v-4.657c0-0.612-0.204-0.816-0.815-0.816h-2.992v-1.088h11.287
		v1.088h-1.632c-0.612,0-0.815,0.204-0.815,0.816v10.573h-1.088l-0.816-3.094c-0.102-0.408-0.374-0.851-0.816-0.851
		c-0.476,0-0.781,0.272-1.054,0.714c-0.815,1.258-2.686,3.4-5.27,3.4c-5.983,0-9.519-5.95-9.519-12.715
		C461.818,74.622,465.966,68.707,471.949,68.707z"/>
	<path d="M497.517,68.707c5.372,0,10.063,6.188,10.063,12.715s-4.691,12.715-10.063,12.715c-5.371,0-10.062-6.188-10.062-12.715
		S492.146,68.707,497.517,68.707z M497.517,93.049c2.584,0,4.284-1.632,4.284-6.527V76.322c0-4.896-1.7-6.527-4.284-6.527
		c-2.583,0-4.283,1.632-4.283,6.527v10.199C493.233,91.417,494.934,93.049,497.517,93.049z"/>
	<path d="M510.914,92.437h1.155c1.462,0,2.517-1.394,2.992-2.754l7.173-20.976h1.428l7.275,21.996
		c0.408,1.189,1.122,1.733,2.006,1.733h1.36v1.088h-11.933v-1.088h2.447c0.544,0,0.918-0.51,0.918-1.088
		c0-0.204-0.102-0.68-0.204-0.986l-1.088-3.264h-7.14l-0.714,2.074c-0.237,0.612-0.374,1.292-0.374,1.733
		c0,0.748,0.646,1.53,1.769,1.53h1.598v1.088h-8.669V92.437z M524.036,85.841l-3.094-9.349l-3.195,9.349H524.036z"/>
	<path d="M539.541,92.437h2.38c0.612,0,0.816-0.306,0.816-0.918V71.223c0-0.612-0.204-0.815-0.816-0.815h-2.38v-1.088h11.423v1.088
		h-2.38c-0.611,0-0.815,0.203-0.815,0.815v20.296c0,0.612,0.204,0.918,0.815,0.918h3.435c2.787,0,4.521-4.046,5.099-5.915
		c0.374-1.258,0.851-3.468,0.851-3.468h1.088l-0.272,10.471h-19.242V92.437z"/>
	<path d="M567.319,77.002c1.529,0,2.651,1.122,2.651,2.651c0,1.53-1.122,2.652-2.651,2.652c-1.53,0-2.652-1.122-2.652-2.652
		C564.667,78.124,565.789,77.002,567.319,77.002z M567.319,88.629c1.529,0,2.651,1.122,2.651,2.651c0,1.53-1.122,2.652-2.651,2.652
		c-1.53,0-2.652-1.122-2.652-2.652C564.667,89.751,565.789,88.629,567.319,88.629z"/>
</g>
<g>
</g>
<g>
	<defs>
		<rect id="SVGID_5_" width="672" height="139.524"/>
	</defs>
	<clipPath id="SVGID_6_">
		<use xlink:href="#SVGID_5_"  overflow="visible"/>
	</clipPath>
	<g clip-path="url(#SVGID_6_)">
		<path d="M-0.026,138.437h2.38c0.612,0,0.815-0.204,0.815-0.816v-20.397c0-0.612-0.204-0.815-0.815-0.815h-2.38v-1.088H11.94
			c4.045,0,7.615,2.379,7.615,5.779c0,3.297-3.026,4.963-5.746,5.677v0.204c2.89,0.442,6.562,2.414,6.562,5.949
			c0,4.284-3.706,6.596-7.989,6.596H-0.026V138.437z M11.328,126.334c2.618,0,3.128-2.108,3.128-5.235
			c0-2.992-1.122-4.691-2.924-4.691H9.017c-0.612,0-0.816,0.203-0.816,0.815v9.111H11.328z M9.017,138.437h2.312
			c2.244,0,3.604-1.156,3.604-5.508s-1.36-5.507-3.604-5.507H8.201v10.198C8.201,138.232,8.405,138.437,9.017,138.437z"/>
		<path d="M26.493,138.437h2.38c0.612,0,0.815-0.204,0.815-0.816v-20.397c0-0.612-0.204-0.815-0.815-0.815h-2.38v-1.088h19.106
			l0.204,7.887h-1.088c0,0-0.34-2.176-1.36-3.876c-0.952-1.665-2.312-2.923-4.08-2.923h-3.74c-0.612,0-0.816,0.203-0.816,0.815
			v9.383h1.734c1.904,0,3.399-2.72,3.399-4.691h1.088v10.641h-1.088c0-2.005-1.496-4.726-3.399-4.726H34.72v9.791
			c0,0.612,0.204,0.816,0.816,0.816h3.706c2.788,0,4.386-2.992,5.032-4.827c0.442-1.258,0.714-3.468,0.714-3.468h1.088l-0.204,9.383
			H26.493V138.437z"/>
		<path d="M52.333,138.437h2.38c0.612,0,0.815-0.204,0.815-0.816v-20.397c0-0.612-0.204-0.815-0.815-0.815h-2.38v-1.088h19.174
			l0.272,9.314h-1.088c0,0-0.374-2.72-1.224-4.521c-0.816-1.733-2.448-3.705-4.624-3.705h-3.468c-0.612,0-0.816,0.203-0.816,0.815
			v9.383h1.734c1.904,0,3.399-2.72,3.399-4.691h1.088v10.641h-1.088c0-2.005-1.496-4.726-3.399-4.726H60.56v9.791
			c0,0.612,0.204,0.816,0.816,0.816h3.094v1.088H52.333V138.437z"/>
		<path d="M77.493,138.437h2.379c0.612,0,0.816-0.204,0.816-0.816v-20.397c0-0.612-0.204-0.815-0.816-0.815h-2.379v-1.088h11.015
			c4.828,0,8.159,2.243,8.159,5.982c0,3.264-2.72,4.998-6.255,5.406v0.237c3.196,0.578,5.508,2.04,5.508,6.29v3.773
			c0,1.02,0.34,1.428,0.952,1.428c1.292,0,1.7-2.618,1.7-5.031h1.088c0,3.943-0.782,6.936-4.045,6.936
			c-2.788,0-4.726-1.633-4.726-5.1v-4.216c0-1.972-0.884-3.876-3.264-3.876H85.72v10.471c0,0.612,0.204,0.816,0.816,0.816h2.992
			v1.088H77.493V138.437z M87.998,126.062c2.55,0,3.229-2.176,3.229-5.031s-0.68-4.623-3.229-4.623h-1.462
			c-0.612,0-0.816,0.203-0.816,0.815v8.839H87.998z"/>
		<path d="M104.659,138.437h2.379c0.612,0,0.816-0.204,0.816-0.816v-20.397c0-0.612-0.204-0.815-0.816-0.815h-2.379v-1.088h11.423
			v1.088h-2.38c-0.612,0-0.816,0.203-0.816,0.815v20.397c0,0.612,0.204,0.816,0.816,0.816h2.38v1.088h-11.423V138.437z"/>
		<path d="M121.998,138.437h2.38c0.612,0,0.815-0.204,0.815-0.816v-20.397c0-0.612-0.204-0.815-0.815-0.815h-2.38v-1.088h19.106
			l0.204,7.887h-1.088c0,0-0.34-2.176-1.36-3.876c-0.952-1.665-2.312-2.923-4.08-2.923h-3.74c-0.612,0-0.816,0.203-0.816,0.815
			v9.383h1.734c1.904,0,3.399-2.72,3.399-4.691h1.088v10.641h-1.088c0-2.005-1.496-4.726-3.399-4.726h-1.734v9.791
			c0,0.612,0.204,0.816,0.816,0.816h3.706c2.788,0,4.386-2.992,5.032-4.827c0.442-1.258,0.714-3.468,0.714-3.468h1.088l-0.204,9.383
			h-19.378V138.437z"/>
		<path d="M147.362,138.437c2.448,0,4.284-1.428,4.284-3.535v-14.517c0-0.511-0.068-0.612-0.374-1.055l-1.36-2.039
			c-0.442-0.646-0.85-0.884-1.938-0.884h-0.612v-1.088h7.547l10.879,15.536v-10.913c0-2.107-1.836-3.535-4.284-3.535v-1.088h9.927
			v1.088c-2.448,0-4.284,1.428-4.284,3.535v20.194h-1.292l-12.715-18.188h-0.136v12.953c0,2.107,1.835,3.535,4.284,3.535v1.088
			h-9.927V138.437z"/>
	</g>
	<g clip-path="url(#SVGID_6_)">
		<path d="M176.23,138.437h2.379c0.612,0,0.816-0.204,0.816-0.816v-20.397c0-0.612-0.204-0.815-0.816-0.815h-2.379v-1.088h12.646
			c5.644,0,10.267,4.827,10.267,11.898s-4.624,12.307-10.267,12.307H176.23V138.437z M185.273,138.437h3.026
			c2.72,0,5.065-1.836,5.065-5.915v-10.199c0-4.08-2.346-5.915-5.065-5.915h-3.026c-0.612,0-0.816,0.203-0.816,0.815v20.397
			C184.457,138.232,184.661,138.437,185.273,138.437z"/>
	</g>
	<g clip-path="url(#SVGID_6_)">
	</g>
	<g clip-path="url(#SVGID_6_)">
		<path d="M222.004,135.524c-0.56,0-0.8-0.24-0.8-0.8v-12.403c0-0.56,0.24-0.8,0.8-0.8h2.42c2.081,0,3.061,1,3.061,3.061v7.882
			c0,2.061-0.98,3.061-3.061,3.061H222.004z M223.344,123.401v10.242h0.78c0.84,0,1.221-0.399,1.221-1.24v-7.762
			c0-0.84-0.38-1.24-1.221-1.24H223.344z"/>
		<path d="M243.625,128.923c0.88,0.24,1.24,0.78,1.24,1.841v3.961c0,0.56-0.24,0.8-0.8,0.8h-0.541c-0.56,0-0.8-0.24-0.8-0.8v-3.921
			c0-0.62-0.28-0.9-0.9-0.9h-0.96v4.821c0,0.56-0.24,0.8-0.8,0.8h-0.54c-0.56,0-0.8-0.24-0.8-0.8v-12.403c0-0.56,0.24-0.8,0.8-0.8
			h2.72c1.741,0,2.601,0.86,2.601,2.601v2.641C244.845,128.003,244.405,128.603,243.625,128.923z M242.705,124.222
			c0-0.54-0.26-0.8-0.8-0.8h-1.04v4.621h0.96c0.6,0,0.88-0.28,0.88-0.86V124.222z"/>
		<path d="M256.103,122.321c0-0.56,0.24-0.8,0.8-0.8h3.161c0.56,0,0.8,0.24,0.8,0.8v0.341c0,0.56-0.24,0.8-0.8,0.8h-1.82v3.961h1.72
			c0.56,0,0.8,0.24,0.8,0.8v0.34c0,0.561-0.24,0.801-0.8,0.801h-1.72v4.221h1.86c0.56,0,0.8,0.24,0.8,0.8v0.341
			c0,0.56-0.24,0.8-0.8,0.8h-3.201c-0.56,0-0.8-0.24-0.8-0.8V122.321z"/>
		<path d="M277.044,135.524c-0.52,0-0.74-0.2-0.8-0.7l-0.18-1.5h-2.221l-0.2,1.5c-0.06,0.5-0.28,0.7-0.78,0.7h-0.36
			c-0.62,0-0.88-0.3-0.78-0.92l1.761-12.403c0.08-0.479,0.3-0.68,0.8-0.68h1.44c0.5,0,0.72,0.2,0.8,0.68l1.78,12.403
			c0.1,0.62-0.16,0.92-0.78,0.92H277.044z M275.824,131.424l-0.88-7.082l-0.88,7.082H275.824z"/>
		<path d="M290.103,135.524c-0.56,0-0.8-0.24-0.8-0.8v-12.403c0-0.56,0.24-0.8,0.8-0.8h2.42c2.081,0,3.061,1,3.061,3.061v7.882
			c0,2.061-0.98,3.061-3.061,3.061H290.103z M291.443,123.401v10.242h0.78c0.84,0,1.221-0.399,1.221-1.24v-7.762
			c0-0.84-0.38-1.24-1.221-1.24H291.443z"/>
		<path d="M321.503,130.443v4.281c0,0.56-0.24,0.8-0.8,0.8h-0.54c-0.56,0-0.8-0.24-0.8-0.8v-12.403c0-0.56,0.24-0.8,0.8-0.8h2.561
			c1.74,0,2.601,0.86,2.601,2.601v3.721c0,1.74-0.86,2.601-2.601,2.601H321.503z M323.184,124.222c0-0.56-0.26-0.82-0.8-0.82h-0.88
			v5.161h0.88c0.54,0,0.8-0.26,0.8-0.819V124.222z"/>
		<path d="M337.743,121.521c0.56,0,0.8,0.24,0.8,0.8v12.403c0,0.56-0.24,0.8-0.8,0.8h-0.54c-0.56,0-0.8-0.24-0.8-0.8v-12.403
			c0-0.56,0.24-0.8,0.8-0.8H337.743z"/>
		<path d="M354.743,128.923c0.88,0.24,1.24,0.78,1.24,1.841v3.961c0,0.56-0.24,0.8-0.8,0.8h-0.54c-0.561,0-0.8-0.24-0.8-0.8v-3.921
			c0-0.62-0.28-0.9-0.9-0.9h-0.96v4.821c0,0.56-0.24,0.8-0.8,0.8h-0.54c-0.56,0-0.8-0.24-0.8-0.8v-12.403c0-0.56,0.24-0.8,0.8-0.8
			h2.721c1.74,0,2.6,0.86,2.6,2.601v2.641C355.963,128.003,355.523,128.603,354.743,128.923z M353.823,124.222
			c0-0.54-0.26-0.8-0.8-0.8h-1.04v4.621h0.96c0.6,0,0.88-0.28,0.88-0.86V124.222z"/>
		<path d="M372.304,135.524c-0.521,0-0.74-0.2-0.801-0.7l-0.18-1.5h-2.221l-0.2,1.5c-0.06,0.5-0.28,0.7-0.78,0.7h-0.359
			c-0.62,0-0.881-0.3-0.78-0.92l1.76-12.403c0.08-0.479,0.301-0.68,0.801-0.68h1.44c0.5,0,0.72,0.2,0.8,0.68l1.78,12.403
			c0.1,0.62-0.16,0.92-0.78,0.92H372.304z M371.083,131.424l-0.88-7.082l-0.881,7.082H371.083z"/>
		<path d="M387.383,134.725c0,0.56-0.24,0.8-0.8,0.8h-0.54c-0.561,0-0.801-0.24-0.801-0.8v-11.263h-1.12c-0.56,0-0.8-0.24-0.8-0.8
			v-0.341c0-0.56,0.24-0.8,0.8-0.8h4.381c0.561,0,0.801,0.24,0.801,0.8v0.341c0,0.56-0.24,0.8-0.801,0.8h-1.12V134.725z"/>
		<path d="M400.143,122.321c0-0.56,0.239-0.8,0.8-0.8h3.16c0.561,0,0.801,0.24,0.801,0.8v0.341c0,0.56-0.24,0.8-0.801,0.8h-1.82
			v3.961h1.721c0.561,0,0.8,0.24,0.8,0.8v0.34c0,0.561-0.239,0.801-0.8,0.801h-1.721v4.221h1.86c0.561,0,0.801,0.24,0.801,0.8v0.341
			c0,0.56-0.24,0.8-0.801,0.8h-3.2c-0.561,0-0.8-0.24-0.8-0.8V122.321z"/>
		<path d="M433.522,128.923c0.88,0.24,1.24,0.78,1.24,1.841v3.961c0,0.56-0.24,0.8-0.8,0.8h-0.54c-0.561,0-0.801-0.24-0.801-0.8
			v-3.921c0-0.62-0.279-0.9-0.899-0.9h-0.961v4.821c0,0.56-0.239,0.8-0.8,0.8h-0.54c-0.561,0-0.801-0.24-0.801-0.8v-12.403
			c0-0.56,0.24-0.8,0.801-0.8h2.721c1.74,0,2.601,0.86,2.601,2.601v2.641C434.743,128.003,434.303,128.603,433.522,128.923z
			 M432.603,124.222c0-0.54-0.26-0.8-0.8-0.8h-1.041v4.621h0.961c0.6,0,0.88-0.28,0.88-0.86V124.222z"/>
		<path d="M452.303,133.044c0,1.74-0.86,2.601-2.601,2.601h-1.14c-1.741,0-2.601-0.86-2.601-2.601v-9.042
			c0-1.74,0.859-2.601,2.601-2.601h1.14c1.74,0,2.601,0.86,2.601,2.601V133.044z M450.162,124.102c0-0.56-0.26-0.819-0.8-0.819
			h-0.44c-0.56,0-0.82,0.26-0.82,0.819v8.843c0,0.56,0.261,0.819,0.82,0.819h0.44c0.54,0,0.8-0.26,0.8-0.819V124.102z"/>
		<path d="M468.423,128.323c0.82,0.279,1.22,0.88,1.22,2.021v2.58c0,1.74-0.86,2.601-2.601,2.601h-2.7
			c-0.561,0-0.801-0.24-0.801-0.8v-12.403c0-0.56,0.24-0.8,0.801-0.8h2.66c1.74,0,2.601,0.86,2.601,2.601v2.061
			C469.603,127.423,469.183,128.043,468.423,128.323z M467.482,124.202c0-0.54-0.26-0.801-0.8-0.801h-1.021v4.081h0.94
			c0.6,0,0.88-0.3,0.88-0.88V124.202z M465.662,129.303v4.341h1.061c0.54,0,0.8-0.26,0.8-0.8v-2.66c0-0.601-0.28-0.881-0.88-0.881
			H465.662z"/>
		<path d="M480.842,122.321c0-0.56,0.239-0.8,0.8-0.8h3.16c0.561,0,0.801,0.24,0.801,0.8v0.341c0,0.56-0.24,0.8-0.801,0.8h-1.82
			v3.961h1.721c0.561,0,0.8,0.24,0.8,0.8v0.34c0,0.561-0.239,0.801-0.8,0.801h-1.721v4.221h1.86c0.561,0,0.801,0.24,0.801,0.8v0.341
			c0,0.56-0.24,0.8-0.801,0.8h-3.2c-0.561,0-0.8-0.24-0.8-0.8V122.321z"/>
		<path d="M501.682,128.923c0.88,0.24,1.24,0.78,1.24,1.841v3.961c0,0.56-0.24,0.8-0.8,0.8h-0.54c-0.561,0-0.801-0.24-0.801-0.8
			v-3.921c0-0.62-0.279-0.9-0.899-0.9h-0.961v4.821c0,0.56-0.239,0.8-0.8,0.8h-0.54c-0.561,0-0.8-0.24-0.8-0.8v-12.403
			c0-0.56,0.239-0.8,0.8-0.8h2.721c1.74,0,2.601,0.86,2.601,2.601v2.641C502.902,128.003,502.462,128.603,501.682,128.923z
			 M500.762,124.222c0-0.54-0.26-0.8-0.8-0.8h-1.041v4.621h0.961c0.6,0,0.88-0.28,0.88-0.86V124.222z"/>
		<path d="M517.621,134.725c0,0.56-0.24,0.8-0.8,0.8h-0.54c-0.561,0-0.801-0.24-0.801-0.8v-11.263h-1.12c-0.56,0-0.8-0.24-0.8-0.8
			v-0.341c0-0.56,0.24-0.8,0.8-0.8h4.381c0.561,0,0.801,0.24,0.801,0.8v0.341c0,0.56-0.24,0.8-0.801,0.8h-1.12V134.725z"/>
		<path d="M535.041,128.343c0.94,0.681,1.24,1.28,1.24,2.421v2.28c0,1.74-0.86,2.601-2.601,2.601h-0.939
			c-1.741,0-2.581-0.86-2.581-2.581v-2.16c0-0.56,0.24-0.8,0.8-0.8h0.48c0.561,0,0.8,0.24,0.8,0.8v2.08
			c0,0.541,0.261,0.801,0.82,0.801h0.28c0.561,0,0.82-0.26,0.82-0.801v-1.92c0-0.58-0.2-0.84-0.601-1.141l-2.16-1.58
			c-0.96-0.68-1.24-1.34-1.24-2.42v-1.921c0-1.74,0.86-2.601,2.601-2.601h0.9c1.72,0,2.58,0.86,2.58,2.581v1.74
			c0,0.56-0.24,0.8-0.8,0.8h-0.5c-0.561,0-0.801-0.24-0.801-0.8v-1.661c0-0.54-0.26-0.8-0.8-0.8h-0.26c-0.54,0-0.801,0.26-0.801,0.8
			v1.561c0,0.58,0.2,0.86,0.601,1.141L535.041,128.343z"/>
		<path d="M548.521,132.864c0.56,0,0.8,0.239,0.8,0.8v1.061c0,0.56-0.24,0.8-0.8,0.8h-0.421c-0.56,0-0.8-0.24-0.8-0.8v-1.061
			c0-0.561,0.24-0.8,0.8-0.8H548.521z"/>
	</g>
	<line clip-path="url(#SVGID_6_)" fill="none" stroke="#ED1B2F" x1="0" y1="0.5" x2="252" y2="0.5"/>
</g>
<g>
</g>
<g>
</g>
<g>
</g>
<g>
</g>
<g>
</g>
<g>
</g>
<g>
</g>
<g>
</g>
<g>
</g>
<g>
</g>
<g>
</g>
<g>
</g>
<g>
</g>
<g>
</g>
<g>
</g>
</svg>
