<?xml version="1.0" encoding="utf-8"?>
<!-- Generator: Adobe Illustrator 16.2.1, SVG Export Plug-In . SVG Version: 6.00 Build 0)  -->
<!DOCTYPE svg PUBLIC "-//W3C//DTD SVG 1.1//EN" "http://www.w3.org/Graphics/SVG/1.1/DTD/svg11.dtd">
<svg version="1.1" id="Layer_1" xmlns="http://www.w3.org/2000/svg" xmlns:xlink="http://www.w3.org/1999/xlink" x="0px" y="0px"
	 width="743.572px" height="142.912px" viewBox="0 0 743.572 142.912" enable-background="new 0 0 743.572 142.912"
	 xml:space="preserve">
<g>
	<defs>
		<rect id="SVGID_1_" width="743.572" height="142.912"/>
	</defs>
	<clipPath id="SVGID_2_">
		<use xlink:href="#SVGID_1_"  overflow="visible"/>
	</clipPath>
	<g clip-path="url(#SVGID_2_)">
		<path fill="#000002" d="M17.884,0.414h20.397l0.272,10.132h-1.088c0,0-0.136-1.156-0.714-3.196
			c-0.782-2.787-2.583-5.848-4.896-5.848c-0.748,0-1.258,0.408-1.258,1.156v20.059c0,0.611,0.204,0.815,0.816,0.815h2.72v1.088
			H22.031v-1.088h2.72c0.612,0,0.816-0.204,0.816-0.815V2.658c0-0.748-0.51-1.156-1.258-1.156c-2.312,0-4.114,3.061-4.896,5.848
			c-0.578,2.04-0.714,3.196-0.714,3.196h-1.088L17.884,0.414z"/>
		<path fill="#000002" d="M44.403,23.532h2.38c0.612,0,0.815-0.204,0.815-0.815V2.318c0-0.612-0.204-0.816-0.815-0.816h-2.38V0.414
			h11.423v1.088h-2.38c-0.612,0-0.816,0.204-0.816,0.816v8.975h8.023V2.318c0-0.612-0.204-0.816-0.815-0.816H57.39V0.414h11.491
			v1.088h-2.38c-0.612,0-0.816,0.204-0.816,0.816v20.398c0,0.611,0.204,0.815,0.816,0.815h2.38v1.088H57.458v-1.088h2.38
			c0.612,0,0.815-0.204,0.815-0.815V12.518H52.63v10.199c0,0.611,0.204,0.815,0.816,0.815h2.38v1.088H44.403V23.532z"/>
		<path fill="#000002" d="M74.799,23.532h2.38c0.612,0,0.815-0.204,0.815-0.815V2.318c0-0.612-0.204-0.816-0.815-0.816h-2.38V0.414
			h11.423v1.088h-2.38c-0.612,0-0.816,0.204-0.816,0.816v20.398c0,0.611,0.204,0.815,0.816,0.815h2.38v1.088H74.799V23.532z"/>
		<path fill="#000002" d="M94.178,14.217c0.952,4.998,3.978,9.928,7.854,9.928c4.08,0,4.657-2.448,4.657-3.876
			c0-1.258-1.088-2.176-2.448-3.06l-7.275-4.691c-1.7-1.088-3.808-3.06-3.808-6.188c0-4.691,3.264-6.527,6.664-6.527
			c2.244,0,4.147,1.224,4.828,1.699c0.442,0.341,0.884,0.612,1.224,0.612c0.442,0,0.68-0.34,0.748-0.782l0.204-0.918h1.088
			l0.34,8.84h-1.088c-1.258-4.691-4.284-8.363-7.615-8.363c-2.414,0-3.536,0.952-3.536,2.855c0,1.564,1.462,2.89,3.026,3.91
			l7.309,4.725c1.87,1.225,3.06,3.57,3.06,5.848c0,3.366-2.379,7.004-7.581,7.004c-2.176,0-3.74-0.748-4.658-1.496
			c-0.884-0.68-1.326-1.02-1.768-1.02c-0.476,0-0.782,0.407-0.884,1.155l-0.17,1.088h-1.054L93.09,14.217H94.178z"/>
		<path fill="#000002" d="M127.43,23.532h2.379c0.612,0,0.816-0.204,0.816-0.815V2.318c0-0.612-0.204-0.816-0.816-0.816h-2.379
			V0.414h11.423v1.088h-2.38c-0.612,0-0.816,0.204-0.816,0.816v20.398c0,0.611,0.204,0.815,0.816,0.815h2.38v1.088H127.43V23.532z"
			/>
		<path fill="#000002" d="M146.81,14.217c0.952,4.998,3.978,9.928,7.854,9.928c4.08,0,4.657-2.448,4.657-3.876
			c0-1.258-1.088-2.176-2.448-3.06l-7.275-4.691c-1.7-1.088-3.808-3.06-3.808-6.188c0-4.691,3.264-6.527,6.663-6.527
			c2.244,0,4.147,1.224,4.828,1.699c0.442,0.341,0.884,0.612,1.224,0.612c0.442,0,0.68-0.34,0.748-0.782l0.204-0.918h1.088
			l0.34,8.84h-1.088c-1.258-4.691-4.284-8.363-7.615-8.363c-2.414,0-3.536,0.952-3.536,2.855c0,1.564,1.462,2.89,3.026,3.91
			l7.309,4.725c1.87,1.225,3.06,3.57,3.06,5.848c0,3.366-2.38,7.004-7.581,7.004c-2.176,0-3.74-0.748-4.658-1.496
			c-0.884-0.68-1.326-1.02-1.768-1.02c-0.476,0-0.782,0.407-0.884,1.155l-0.17,1.088h-1.054l-0.204-10.743H146.81z"/>
		<path fill="#000002" d="M179.654,23.532c1.768,0,3.536-0.884,3.536-3.06V2.318c0-0.612-0.204-0.816-0.816-0.816h-2.72V0.414h8.125
			L194,17.141l4.555-16.727h8.635v1.088h-2.379c-0.612,0-0.816,0.204-0.816,0.816v20.398c0,0.611,0.204,0.815,0.816,0.815h2.379
			v1.088h-11.423v-1.088h2.38c0.612,0,0.816-0.204,0.816-0.815V3.372l-5.916,21.656h-1.326l-6.936-18.664h-0.238v14.108
			c0,2.176,1.768,3.06,3.536,3.06v1.088h-8.431V23.532z"/>
		<path fill="#000002" d="M223.104-0.197c5.371,0,10.063,6.188,10.063,12.715s-4.692,12.715-10.063,12.715
			c-5.372,0-10.063-6.188-10.063-12.715S217.733-0.197,223.104-0.197z M223.104,24.145c2.583,0,4.283-1.632,4.283-6.527V7.418
			c0-4.896-1.7-6.527-4.283-6.527c-2.584,0-4.284,1.632-4.284,6.527v10.199C218.821,22.513,220.521,24.145,223.104,24.145z"/>
		<path fill="#000002" d="M239.357,23.532h2.38c0.612,0,0.815-0.204,0.815-0.815V2.318c0-0.612-0.204-0.816-0.815-0.816h-2.38V0.414
			h11.015c4.828,0,8.159,2.244,8.159,5.984c0,3.264-2.72,4.997-6.255,5.405v0.237c3.196,0.578,5.507,2.04,5.507,6.29v3.773
			c0,1.02,0.34,1.428,0.952,1.428c1.292,0,1.7-2.618,1.7-5.031h1.088c0,3.943-0.782,6.935-4.045,6.935
			c-2.788,0-4.726-1.631-4.726-5.099v-4.216c0-1.972-0.884-3.876-3.264-3.876h-1.904v10.472c0,0.611,0.204,0.815,0.816,0.815h2.992
			v1.088h-12.035V23.532z M249.862,11.157c2.55,0,3.229-2.176,3.229-5.031s-0.68-4.624-3.229-4.624H248.4
			c-0.612,0-0.816,0.204-0.816,0.816v8.839H249.862z"/>
		<path fill="#000002" d="M266.557,23.532h2.379c0.612,0,0.816-0.204,0.816-0.815V2.318c0-0.612-0.204-0.816-0.816-0.816h-2.379
			V0.414h19.106l0.204,7.888h-1.088c0,0-0.34-2.176-1.36-3.876c-0.952-1.665-2.312-2.924-4.08-2.924h-3.74
			c-0.612,0-0.816,0.204-0.816,0.816v9.383h1.734c1.904,0,3.399-2.72,3.399-4.691h1.088V17.65h-1.088
			c0-2.006-1.496-4.725-3.399-4.725h-1.734v9.791c0,0.611,0.204,0.815,0.816,0.815h3.706c2.788,0,4.386-2.991,5.032-4.827
			c0.442-1.258,0.714-3.468,0.714-3.468h1.088l-0.204,9.383h-19.378V23.532z"/>
		<path fill="#000002" d="M304.501,0.414h20.397l0.272,10.132h-1.088c0,0-0.136-1.156-0.714-3.196
			c-0.782-2.787-2.583-5.848-4.896-5.848c-0.748,0-1.258,0.408-1.258,1.156v20.059c0,0.611,0.204,0.815,0.816,0.815h2.72v1.088
			h-12.103v-1.088h2.72c0.612,0,0.816-0.204,0.816-0.815V2.658c0-0.748-0.51-1.156-1.258-1.156c-2.312,0-4.114,3.061-4.896,5.848
			c-0.578,2.04-0.714,3.196-0.714,3.196h-1.088L304.501,0.414z"/>
		<path fill="#000002" d="M331.021,23.532h2.38c0.612,0,0.815-0.204,0.815-0.815V2.318c0-0.612-0.204-0.816-0.815-0.816h-2.38V0.414
			h11.423v1.088h-2.38c-0.612,0-0.816,0.204-0.816,0.816v8.975h8.023V2.318c0-0.612-0.204-0.816-0.815-0.816h-2.448V0.414h11.491
			v1.088h-2.38c-0.612,0-0.816,0.204-0.816,0.816v20.398c0,0.611,0.204,0.815,0.816,0.815h2.38v1.088h-11.423v-1.088h2.38
			c0.612,0,0.815-0.204,0.815-0.815V12.518h-8.023v10.199c0,0.611,0.204,0.815,0.816,0.815h2.38v1.088h-11.423V23.532z"/>
		<path fill="#000002" d="M360.804,23.532h1.156c1.462,0,2.516-1.394,2.991-2.754l7.174-20.976h1.428l7.275,21.996
			c0.408,1.189,1.122,1.733,2.006,1.733h1.359v1.088h-11.933v-1.088h2.448c0.544,0,0.918-0.51,0.918-1.088
			c0-0.204-0.103-0.68-0.204-0.986l-1.088-3.264h-7.14l-0.714,2.074c-0.238,0.612-0.374,1.292-0.374,1.733
			c0,0.748,0.646,1.53,1.768,1.53h1.598v1.088h-8.669V23.532z M373.927,16.937l-3.094-9.349l-3.195,9.349H373.927z"/>
		<path fill="#000002" d="M388.922,23.532c2.447,0,4.283-1.428,4.283-3.536V5.48c0-0.511-0.067-0.612-0.374-1.055l-1.359-2.039
			c-0.442-0.646-0.85-0.885-1.938-0.885h-0.612V0.414h7.547l10.879,15.537V5.038c0-2.107-1.836-3.536-4.283-3.536V0.414h9.927v1.088
			c-2.447,0-4.283,1.429-4.283,3.536v20.194h-1.292L394.701,7.044h-0.136v12.952c0,2.108,1.836,3.536,4.283,3.536v1.088h-9.927
			V23.532z"/>
		<path fill="#000002" d="M429.008,23.532h1.155c1.462,0,2.517-1.394,2.992-2.754l7.173-20.976h1.428l7.275,21.996
			c0.408,1.189,1.122,1.733,2.006,1.733h1.36v1.088h-11.933v-1.088h2.447c0.544,0,0.918-0.51,0.918-1.088
			c0-0.204-0.102-0.68-0.204-0.986l-1.088-3.264h-7.14l-0.714,2.074c-0.237,0.612-0.374,1.292-0.374,1.733
			c0,0.748,0.646,1.53,1.769,1.53h1.598v1.088h-8.669V23.532z M442.13,16.937l-3.094-9.349l-3.195,9.349H442.13z"/>
	</g>
</g>
<g>
	<path fill="#231F20" d="M473.085,13.419c0.82,0.279,1.22,0.88,1.22,2.021v2.58c0,1.74-0.86,2.601-2.601,2.601h-2.7
		c-0.561,0-0.801-0.24-0.801-0.8V7.417c0-0.56,0.24-0.8,0.801-0.8h2.66c1.74,0,2.601,0.86,2.601,2.601v2.061
		C474.265,12.519,473.845,13.139,473.085,13.419z M472.145,9.298c0-0.54-0.26-0.801-0.8-0.801h-1.021v4.081h0.94
		c0.6,0,0.88-0.3,0.88-0.88V9.298z M470.324,14.398v4.341h1.061c0.54,0,0.8-0.26,0.8-0.8v-2.66c0-0.601-0.28-0.881-0.88-0.881
		H470.324z"/>
	<path fill="#231F20" d="M490.925,6.617c0.56,0,0.8,0.24,0.8,0.8V18.14c0,1.74-0.86,2.601-2.601,2.601h-1.04
		c-1.74,0-2.601-0.86-2.601-2.601V7.417c0-0.56,0.24-0.8,0.8-0.8h0.54c0.561,0,0.801,0.24,0.801,0.8V18.04
		c0,0.56,0.26,0.819,0.82,0.819h0.34c0.54,0,0.8-0.26,0.8-0.819V7.417c0-0.56,0.24-0.8,0.801-0.8H490.925z"/>
	<path fill="#231F20" d="M507.804,13.438c0.94,0.681,1.24,1.28,1.24,2.421v2.28c0,1.74-0.86,2.601-2.601,2.601h-0.939
		c-1.741,0-2.581-0.86-2.581-2.581v-2.16c0-0.56,0.24-0.8,0.8-0.8h0.48c0.561,0,0.8,0.24,0.8,0.8v2.08
		c0,0.541,0.261,0.801,0.82,0.801h0.28c0.561,0,0.82-0.26,0.82-0.801v-1.92c0-0.58-0.2-0.84-0.601-1.141l-2.16-1.58
		c-0.96-0.68-1.24-1.34-1.24-2.421v-1.92c0-1.74,0.86-2.601,2.601-2.601h0.9c1.72,0,2.58,0.86,2.58,2.581v1.74
		c0,0.56-0.24,0.8-0.8,0.8h-0.5c-0.561,0-0.801-0.24-0.801-0.8V9.157c0-0.54-0.26-0.8-0.8-0.8h-0.26c-0.54,0-0.801,0.26-0.801,0.8
		v1.561c0,0.58,0.2,0.86,0.601,1.141L507.804,13.438z"/>
	<path fill="#231F20" d="M521.543,6.617c0.561,0,0.801,0.24,0.801,0.8V19.82c0,0.56-0.24,0.8-0.801,0.8h-0.54
		c-0.56,0-0.8-0.24-0.8-0.8V7.417c0-0.56,0.24-0.8,0.8-0.8H521.543z"/>
	<path fill="#231F20" d="M535.563,13.658v6.162c0,0.56-0.24,0.8-0.8,0.8h-0.32c-0.561,0-0.801-0.24-0.801-0.8V7.417
		c0-0.56,0.24-0.8,0.801-0.8h1.061c0.46,0,0.68,0.18,0.779,0.62l1.86,8.021l-0.02-2.34V7.417c0-0.56,0.24-0.8,0.8-0.8h0.32
		c0.561,0,0.801,0.24,0.801,0.8V19.82c0,0.56-0.24,0.8-0.801,0.8h-0.88c-0.46,0-0.681-0.18-0.78-0.62l-2.04-8.822L535.563,13.658z"
		/>
	<path fill="#231F20" d="M551.322,7.417c0-0.56,0.24-0.8,0.801-0.8h3.16c0.561,0,0.801,0.24,0.801,0.8v0.341
		c0,0.56-0.24,0.8-0.801,0.8h-1.82v3.961h1.721c0.561,0,0.8,0.24,0.8,0.8v0.34c0,0.561-0.239,0.801-0.8,0.801h-1.721v4.221h1.86
		c0.561,0,0.801,0.24,0.801,0.8v0.341c0,0.56-0.24,0.8-0.801,0.8h-3.2c-0.561,0-0.801-0.24-0.801-0.8V7.417z"/>
	<path fill="#231F20" d="M572.063,13.438c0.94,0.681,1.24,1.28,1.24,2.421v2.28c0,1.74-0.86,2.601-2.601,2.601h-0.939
		c-1.741,0-2.581-0.86-2.581-2.581v-2.16c0-0.56,0.24-0.8,0.8-0.8h0.48c0.561,0,0.8,0.24,0.8,0.8v2.08
		c0,0.541,0.261,0.801,0.82,0.801h0.28c0.561,0,0.82-0.26,0.82-0.801v-1.92c0-0.58-0.2-0.84-0.601-1.141l-2.16-1.58
		c-0.96-0.68-1.24-1.34-1.24-2.421v-1.92c0-1.74,0.86-2.601,2.601-2.601h0.9c1.72,0,2.58,0.86,2.58,2.581v1.74
		c0,0.56-0.24,0.8-0.8,0.8h-0.5c-0.561,0-0.801-0.24-0.801-0.8V9.157c0-0.54-0.26-0.8-0.8-0.8h-0.26c-0.54,0-0.801,0.26-0.801,0.8
		v1.561c0,0.58,0.2,0.86,0.601,1.141L572.063,13.438z"/>
	<path fill="#231F20" d="M589.264,13.438c0.94,0.681,1.24,1.28,1.24,2.421v2.28c0,1.74-0.86,2.601-2.601,2.601h-0.939
		c-1.741,0-2.581-0.86-2.581-2.581v-2.16c0-0.56,0.24-0.8,0.8-0.8h0.48c0.561,0,0.8,0.24,0.8,0.8v2.08
		c0,0.541,0.261,0.801,0.82,0.801h0.28c0.561,0,0.82-0.26,0.82-0.801v-1.92c0-0.58-0.2-0.84-0.601-1.141l-2.16-1.58
		c-0.96-0.68-1.24-1.34-1.24-2.421v-1.92c0-1.74,0.86-2.601,2.601-2.601h0.9c1.72,0,2.58,0.86,2.58,2.581v1.74
		c0,0.56-0.24,0.8-0.8,0.8h-0.5c-0.561,0-0.801-0.24-0.801-0.8V9.157c0-0.54-0.26-0.8-0.8-0.8h-0.26c-0.54,0-0.801,0.26-0.801,0.8
		v1.561c0,0.58,0.2,0.86,0.601,1.141L589.264,13.438z"/>
</g>
<g>
	<defs>
		<rect id="SVGID_3_" width="743.572" height="142.912"/>
	</defs>
	<clipPath id="SVGID_4_">
		<use xlink:href="#SVGID_3_"  overflow="visible"/>
	</clipPath>
	<g clip-path="url(#SVGID_4_)">
		<path fill="#000002" d="M615.274,0.414h20.398l0.271,10.132h-1.088c0,0-0.136-1.156-0.714-3.196
			c-0.781-2.787-2.584-5.848-4.896-5.848c-0.748,0-1.258,0.408-1.258,1.156v20.059c0,0.611,0.204,0.815,0.816,0.815h2.72v1.088
			h-12.104v-1.088h2.72c0.612,0,0.816-0.204,0.816-0.815V2.658c0-0.748-0.51-1.156-1.258-1.156c-2.312,0-4.114,3.061-4.896,5.848
			c-0.578,2.04-0.714,3.196-0.714,3.196h-1.088L615.274,0.414z"/>
		<path fill="#000002" d="M652.129-0.197c5.372,0,10.063,6.188,10.063,12.715s-4.691,12.715-10.063,12.715
			c-5.371,0-10.062-6.188-10.062-12.715S646.758-0.197,652.129-0.197z M652.129,24.145c2.584,0,4.284-1.632,4.284-6.527V7.418
			c0-4.896-1.7-6.527-4.284-6.527c-2.583,0-4.283,1.632-4.283,6.527v10.199C647.846,22.513,649.546,24.145,652.129,24.145z"/>
	</g>
</g>
<g>
	<path fill="#000002" d="M17.204,69.532c1.768,0,3.536-0.884,3.536-3.06V48.318c0-0.612-0.204-0.816-0.816-0.816h-2.72v-1.088h8.125
		l6.222,16.727l4.555-16.727h8.635v1.088h-2.379c-0.612,0-0.816,0.204-0.816,0.816v20.398c0,0.611,0.204,0.815,0.816,0.815h2.379
		v1.088H33.318v-1.088h2.38c0.612,0,0.816-0.204,0.816-0.815V49.372l-5.916,21.656h-1.326l-6.936-18.664h-0.238v14.108
		c0,2.176,1.768,3.06,3.536,3.06v1.088h-8.431V69.532z"/>
	<path fill="#000002" d="M50.32,69.532h2.379c0.612,0,0.816-0.204,0.816-0.815V48.318c0-0.612-0.204-0.816-0.816-0.816H50.32v-1.088
		h19.106l0.204,7.888h-1.088c0,0-0.34-2.176-1.36-3.876c-0.952-1.665-2.312-2.924-4.08-2.924h-3.74
		c-0.612,0-0.816,0.204-0.816,0.816v9.383h1.734c1.904,0,3.399-2.72,3.399-4.691h1.088V63.65H63.68c0-2.006-1.496-4.725-3.399-4.725
		h-1.734v9.791c0,0.611,0.204,0.815,0.816,0.815h3.706c2.788,0,4.386-2.991,5.032-4.827c0.442-1.258,0.714-3.468,0.714-3.468h1.088
		l-0.204,9.383H50.32V69.532z"/>
	<path fill="#000002" d="M78.539,65.589c2.244,0,3.604,1.699,3.604,3.943c0,3.909-2.584,6.562-5.848,7.751l-0.476-0.951
		c2.821-1.055,4.759-3.196,4.759-5.372c0-0.271-0.17-0.612-0.578-0.612c-0.238,0-0.544,0.137-0.816,0.272
		c-0.408,0.204-0.714,0.306-1.156,0.306c-1.122,0-2.414-0.781-2.414-2.447C75.615,66.541,77.145,65.589,78.539,65.589z"/>
	<path fill="#000002" d="M90.405,45.803c2.244,0,3.604,1.699,3.604,3.943c0,3.91-2.584,6.562-5.848,7.751l-0.476-0.951
		c2.821-1.055,4.759-3.196,4.759-5.372c0-0.271-0.17-0.611-0.578-0.611c-0.238,0-0.544,0.136-0.816,0.271
		c-0.408,0.204-0.714,0.306-1.156,0.306c-1.122,0-2.414-0.781-2.414-2.447C87.481,46.755,89.011,45.803,90.405,45.803z
		 M97.884,45.803c2.244,0,3.604,1.699,3.604,3.943c0,3.91-2.583,6.562-5.847,7.751l-0.476-0.951
		c2.822-1.055,4.759-3.196,4.759-5.372c0-0.271-0.17-0.611-0.578-0.611c-0.238,0-0.544,0.136-0.816,0.271
		c-0.408,0.204-0.714,0.306-1.156,0.306c-1.122,0-2.414-0.781-2.414-2.447C94.96,46.755,96.49,45.803,97.884,45.803z"/>
	<path fill="#000002" d="M119.237,69.532h2.38c0.612,0,0.815-0.204,0.815-0.815V48.318c0-0.612-0.204-0.816-0.815-0.816h-2.38
		v-1.088h12.646c5.644,0,10.267,4.828,10.267,11.899s-4.624,12.307-10.267,12.307h-12.646V69.532z M128.28,69.532h3.026
		c2.72,0,5.065-1.836,5.065-5.915V53.418c0-4.08-2.346-5.916-5.065-5.916h-3.026c-0.612,0-0.816,0.204-0.816,0.816v20.398
		C127.464,69.328,127.668,69.532,128.28,69.532z"/>
	<path fill="#000002" d="M148.341,69.532h2.38c0.612,0,0.815-0.204,0.815-0.815V48.318c0-0.612-0.204-0.816-0.815-0.816h-2.38
		v-1.088h12.103c4.828,0,8.159,2.584,8.159,6.324c0,3.739-3.332,6.459-8.159,6.459h-3.875v9.52c0,0.611,0.204,0.815,0.816,0.815
		h2.992v1.088h-12.035V69.532z M159.934,58.109c2.55,0,3.229-2.38,3.229-5.371c0-2.992-0.68-5.236-3.229-5.236h-2.55
		c-0.612,0-0.816,0.204-0.816,0.816v9.791H159.934z"/>
	<path fill="#000002" d="M174.555,69.532h2.38c0.612,0,0.815-0.204,0.815-0.815V48.318c0-0.612-0.204-0.816-0.815-0.816h-2.38
		v-1.088h11.015c4.828,0,8.159,2.244,8.159,5.984c0,3.264-2.72,4.997-6.255,5.405v0.237c3.196,0.578,5.507,2.04,5.507,6.29v3.773
		c0,1.02,0.34,1.428,0.952,1.428c1.292,0,1.7-2.618,1.7-5.031h1.088c0,3.943-0.782,6.935-4.045,6.935
		c-2.788,0-4.726-1.631-4.726-5.099v-4.216c0-1.972-0.884-3.876-3.264-3.876h-1.904v10.472c0,0.611,0.204,0.815,0.816,0.815h2.992
		v1.088h-12.035V69.532z M185.06,57.157c2.55,0,3.229-2.176,3.229-5.031s-0.68-4.624-3.229-4.624h-1.462
		c-0.612,0-0.816,0.204-0.816,0.816v8.839H185.06z"/>
	<path fill="#000002" d="M215.694,60.217c0.952,4.998,3.978,9.928,7.854,9.928c4.08,0,4.657-2.448,4.657-3.876
		c0-1.258-1.088-2.176-2.448-3.06l-7.275-4.691c-1.7-1.088-3.808-3.06-3.808-6.188c0-4.691,3.264-6.527,6.663-6.527
		c2.244,0,4.147,1.224,4.828,1.699c0.442,0.341,0.884,0.612,1.224,0.612c0.442,0,0.68-0.34,0.748-0.782l0.204-0.918h1.088l0.34,8.84
		h-1.088c-1.258-4.691-4.284-8.363-7.615-8.363c-2.414,0-3.536,0.952-3.536,2.855c0,1.564,1.462,2.89,3.026,3.91l7.309,4.725
		c1.87,1.225,3.06,3.57,3.06,5.848c0,3.366-2.38,7.004-7.581,7.004c-2.176,0-3.74-0.748-4.658-1.496
		c-0.884-0.68-1.326-1.02-1.768-1.02c-0.476,0-0.782,0.407-0.884,1.155l-0.17,1.088h-1.054l-0.204-10.743H215.694z"/>
	<path fill="#000002" d="M234.734,69.532h1.156c1.462,0,2.516-1.394,2.992-2.754l7.173-20.976h1.428l7.275,21.996
		c0.408,1.189,1.122,1.733,2.006,1.733h1.359v1.088h-11.933v-1.088h2.448c0.544,0,0.918-0.51,0.918-1.088
		c0-0.204-0.102-0.68-0.204-0.986l-1.088-3.264h-7.139l-0.714,2.074c-0.238,0.612-0.374,1.292-0.374,1.733
		c0,0.748,0.646,1.53,1.768,1.53h1.598v1.088h-8.669V69.532z M247.857,62.937l-3.094-9.349l-3.196,9.349H247.857z"/>
	<path fill="#000002" d="M263.329,69.532h2.379c0.612,0,0.816-0.204,0.816-0.815V48.318c0-0.612-0.204-0.816-0.816-0.816h-2.379
		v-1.088h11.423v1.088h-2.38c-0.612,0-0.816,0.204-0.816,0.816v20.398c0,0.611,0.204,0.815,0.816,0.815h2.38v1.088h-11.423V69.532z"
		/>
	<path fill="#000002" d="M280.668,69.532h2.38c0.612,0,0.815-0.204,0.815-0.815V48.318c0-0.612-0.204-0.816-0.815-0.816h-2.38
		v-1.088h12.646c5.644,0,10.267,4.828,10.267,11.899s-4.624,12.307-10.267,12.307h-12.646V69.532z M289.711,69.532h3.026
		c2.72,0,5.065-1.836,5.065-5.915V53.418c0-4.08-2.346-5.916-5.065-5.916h-3.026c-0.612,0-0.816,0.204-0.816,0.816v20.398
		C288.895,69.328,289.099,69.532,289.711,69.532z"/>
	<path fill="#000002" d="M312.424,65.725c1.53,0,2.651,1.122,2.651,2.651c0,1.53-1.122,2.652-2.651,2.652
		c-1.53,0-2.652-1.122-2.652-2.652C309.772,66.847,310.894,65.725,312.424,65.725z"/>
	<path fill="#000002" d="M338.705,45.803l0.476,0.952c-2.821,1.054-4.759,3.195-4.759,5.371c0,0.272,0.17,0.612,0.578,0.612
		c0.238,0,0.544-0.137,0.816-0.272c0.408-0.204,0.714-0.306,1.156-0.306c1.122,0,2.414,0.781,2.414,2.447
		c0,1.938-1.53,2.89-2.924,2.89c-2.244,0-3.604-1.699-3.604-3.943C332.857,49.645,335.441,46.992,338.705,45.803z M346.184,45.803
		l0.476,0.952c-2.822,1.054-4.76,3.195-4.76,5.371c0,0.272,0.17,0.612,0.578,0.612c0.238,0,0.544-0.137,0.816-0.272
		c0.408-0.204,0.714-0.306,1.156-0.306c1.122,0,2.414,0.781,2.414,2.447c0,1.938-1.53,2.89-2.924,2.89
		c-2.244,0-3.604-1.699-3.604-3.943C340.337,49.645,342.92,46.992,346.184,45.803z"/>
	<path fill="#000002" d="M352.884,69.532h2.38c0.612,0,0.815-0.204,0.815-0.815V48.318c0-0.612-0.204-0.816-0.815-0.816h-2.38
		v-1.088h11.423v1.088h-2.38c-0.612,0-0.816,0.204-0.816,0.816v20.398c0,0.611,0.204,0.815,0.816,0.815h2.38v1.088h-11.423V69.532z"
		/>
	<path fill="#000002" d="M370.427,46.414h20.398l0.271,10.132h-1.088c0,0-0.136-1.156-0.714-3.196
		c-0.781-2.787-2.584-5.848-4.896-5.848c-0.748,0-1.258,0.408-1.258,1.156v20.059c0,0.611,0.204,0.815,0.816,0.815h2.72v1.088
		h-12.104v-1.088h2.72c0.612,0,0.816-0.204,0.816-0.815V48.658c0-0.748-0.51-1.156-1.258-1.156c-2.312,0-4.114,3.061-4.896,5.848
		c-0.578,2.04-0.714,3.196-0.714,3.196h-1.088L370.427,46.414z"/>
	<path fill="#000002" d="M399.326,45.803c2.244,0,3.604,1.699,3.604,3.943c0,3.91-2.583,6.562-5.847,7.751l-0.477-0.951
		c2.822-1.055,4.76-3.196,4.76-5.372c0-0.271-0.17-0.611-0.578-0.611c-0.237,0-0.544,0.136-0.815,0.271
		c-0.408,0.204-0.714,0.306-1.156,0.306c-1.122,0-2.414-0.781-2.414-2.447C396.402,46.755,397.933,45.803,399.326,45.803z"/>
	<path fill="#000002" d="M410.887,60.217c0.952,4.998,3.978,9.928,7.854,9.928c4.079,0,4.657-2.448,4.657-3.876
		c0-1.258-1.088-2.176-2.447-3.06l-7.275-4.691c-1.7-1.088-3.808-3.06-3.808-6.188c0-4.691,3.264-6.527,6.663-6.527
		c2.244,0,4.147,1.224,4.827,1.699c0.442,0.341,0.885,0.612,1.225,0.612c0.441,0,0.68-0.34,0.748-0.782l0.203-0.918h1.088l0.34,8.84
		h-1.088c-1.258-4.691-4.283-8.363-7.615-8.363c-2.413,0-3.535,0.952-3.535,2.855c0,1.564,1.462,2.89,3.025,3.91l7.31,4.725
		c1.87,1.225,3.06,3.57,3.06,5.848c0,3.366-2.38,7.004-7.581,7.004c-2.176,0-3.739-0.748-4.657-1.496
		c-0.885-0.68-1.326-1.02-1.769-1.02c-0.476,0-0.781,0.407-0.884,1.155l-0.17,1.088h-1.054l-0.204-10.743H410.887z"/>
	<path fill="#000002" d="M443.561,69.532h1.155c1.462,0,2.517-1.394,2.992-2.754l7.173-20.976h1.428l7.275,21.996
		c0.408,1.189,1.122,1.733,2.006,1.733h1.36v1.088h-11.933v-1.088h2.447c0.544,0,0.918-0.51,0.918-1.088
		c0-0.204-0.102-0.68-0.204-0.986l-1.088-3.264h-7.14l-0.714,2.074c-0.237,0.612-0.374,1.292-0.374,1.733
		c0,0.748,0.646,1.53,1.769,1.53h1.598v1.088h-8.669V69.532z M456.683,62.937l-3.094-9.349l-3.195,9.349H456.683z"/>
</g>
<g>
	<path fill="#231F20" d="M487.794,60.019c0.88,0.24,1.24,0.78,1.24,1.841v3.961c0,0.56-0.24,0.8-0.8,0.8h-0.54
		c-0.561,0-0.801-0.24-0.801-0.8v-3.921c0-0.62-0.279-0.9-0.899-0.9h-0.961v4.821c0,0.56-0.239,0.8-0.8,0.8h-0.54
		c-0.561,0-0.801-0.24-0.801-0.8V53.417c0-0.56,0.24-0.8,0.801-0.8h2.721c1.74,0,2.601,0.86,2.601,2.601v2.641
		C489.015,59.099,488.574,59.698,487.794,60.019z M486.874,55.317c0-0.54-0.26-0.8-0.8-0.8h-1.041v4.621h0.961
		c0.6,0,0.88-0.28,0.88-0.86V55.317z"/>
	<path fill="#231F20" d="M500.273,53.417c0-0.56,0.239-0.8,0.8-0.8h3.16c0.561,0,0.801,0.24,0.801,0.8v0.341
		c0,0.56-0.24,0.8-0.801,0.8h-1.82v3.961h1.721c0.561,0,0.8,0.24,0.8,0.8v0.34c0,0.561-0.239,0.801-0.8,0.801h-1.721v4.221h1.86
		c0.561,0,0.801,0.24,0.801,0.8v0.341c0,0.56-0.24,0.8-0.801,0.8h-3.2c-0.561,0-0.8-0.24-0.8-0.8V53.417z"/>
	<path fill="#231F20" d="M518.373,66.64c-0.5,0-0.72-0.199-0.8-0.68l-1.82-12.423c-0.101-0.62,0.16-0.92,0.78-0.92h0.54
		c0.5,0,0.72,0.2,0.78,0.7l1.18,9.702l1.221-9.702c0.06-0.5,0.28-0.7,0.78-0.7h0.42c0.62,0,0.88,0.3,0.78,0.92l-1.841,12.423
		c-0.06,0.48-0.3,0.68-0.78,0.68H518.373z"/>
	<path fill="#231F20" d="M539.434,64.14c0,1.74-0.86,2.601-2.601,2.601h-1.14c-1.741,0-2.601-0.86-2.601-2.601v-9.042
		c0-1.74,0.859-2.601,2.601-2.601h1.14c1.74,0,2.601,0.86,2.601,2.601V64.14z M537.293,55.197c0-0.56-0.26-0.819-0.8-0.819h-0.44
		c-0.56,0-0.82,0.26-0.82,0.819v8.843c0,0.56,0.261,0.819,0.82,0.819h0.44c0.54,0,0.8-0.26,0.8-0.819V55.197z"/>
	<path fill="#231F20" d="M550.652,53.417c0-0.56,0.24-0.8,0.801-0.8h0.54c0.561,0,0.8,0.24,0.8,0.8V64.68h1.561
		c0.561,0,0.8,0.24,0.8,0.8v0.341c0,0.56-0.239,0.8-0.8,0.8h-2.9c-0.561,0-0.801-0.24-0.801-0.8V53.417z"/>
	<path fill="#231F20" d="M571.254,52.617c0.56,0,0.8,0.24,0.8,0.8V64.14c0,1.74-0.86,2.601-2.601,2.601h-1.04
		c-1.74,0-2.601-0.86-2.601-2.601V53.417c0-0.56,0.24-0.8,0.8-0.8h0.54c0.561,0,0.801,0.24,0.801,0.8V64.04
		c0,0.56,0.26,0.819,0.82,0.819h0.34c0.54,0,0.8-0.26,0.8-0.819V53.417c0-0.56,0.24-0.8,0.801-0.8H571.254z"/>
	<path fill="#231F20" d="M586.933,65.82c0,0.56-0.24,0.8-0.8,0.8h-0.54c-0.561,0-0.801-0.24-0.801-0.8V54.558h-1.12
		c-0.56,0-0.8-0.24-0.8-0.8v-0.341c0-0.56,0.24-0.8,0.8-0.8h4.381c0.561,0,0.801,0.24,0.801,0.8v0.341c0,0.56-0.24,0.8-0.801,0.8
		h-1.12V65.82z"/>
	<path fill="#231F20" d="M601.052,52.617c0.561,0,0.801,0.24,0.801,0.8V65.82c0,0.56-0.24,0.8-0.801,0.8h-0.54
		c-0.56,0-0.8-0.24-0.8-0.8V53.417c0-0.56,0.24-0.8,0.8-0.8H601.052z"/>
	<path fill="#231F20" d="M619.453,64.14c0,1.74-0.86,2.601-2.601,2.601h-1.14c-1.741,0-2.601-0.86-2.601-2.601v-9.042
		c0-1.74,0.859-2.601,2.601-2.601h1.14c1.74,0,2.601,0.86,2.601,2.601V64.14z M617.312,55.197c0-0.56-0.26-0.819-0.8-0.819h-0.44
		c-0.56,0-0.82,0.26-0.82,0.819v8.843c0,0.56,0.261,0.819,0.82,0.819h0.44c0.54,0,0.8-0.26,0.8-0.819V55.197z"/>
	<path fill="#231F20" d="M632.612,59.658v6.162c0,0.56-0.24,0.8-0.8,0.8h-0.32c-0.561,0-0.801-0.24-0.801-0.8V53.417
		c0-0.56,0.24-0.8,0.801-0.8h1.061c0.46,0,0.68,0.18,0.779,0.62l1.86,8.021l-0.02-2.34v-5.502c0-0.56,0.24-0.8,0.8-0.8h0.32
		c0.561,0,0.801,0.24,0.801,0.8V65.82c0,0.56-0.24,0.8-0.801,0.8h-0.88c-0.46,0-0.681-0.18-0.78-0.62l-2.04-8.822L632.612,59.658z"
		/>
</g>
<g>
	<defs>
		<rect id="SVGID_5_" width="743.572" height="142.912"/>
	</defs>
	<clipPath id="SVGID_6_">
		<use xlink:href="#SVGID_5_"  overflow="visible"/>
	</clipPath>
	<g clip-path="url(#SVGID_6_)">
		<path fill="#000002" d="M661.148,69.532h1.155c1.462,0,2.517-1.394,2.992-2.754l7.173-20.976h1.428l7.275,21.996
			c0.408,1.189,1.122,1.733,2.006,1.733h1.36v1.088h-11.933v-1.088h2.447c0.544,0,0.918-0.51,0.918-1.088
			c0-0.204-0.102-0.68-0.204-0.986l-1.088-3.264h-7.14l-0.714,2.074c-0.237,0.612-0.374,1.292-0.374,1.733
			c0,0.748,0.646,1.53,1.769,1.53h1.598v1.088h-8.669V69.532z M674.271,62.937l-3.094-9.349l-3.195,9.349H674.271z"/>
		<path fill="#000002" d="M689.3,69.532c2.448,0,4.283-1.428,4.283-3.536V51.48c0-0.511-0.067-0.612-0.374-1.055l-1.359-2.039
			c-0.442-0.646-0.85-0.885-1.938-0.885H689.3v-1.088h7.547l10.879,15.537V51.038c0-2.107-1.835-3.536-4.283-3.536v-1.088h9.927
			v1.088c-2.447,0-4.283,1.429-4.283,3.536v20.194h-1.292l-12.715-18.188h-0.136v12.952c0,2.108,1.836,3.536,4.283,3.536v1.088
			H689.3V69.532z"/>
		<path fill="#000002" d="M718.131,69.532h2.38c0.612,0,0.816-0.204,0.816-0.815V48.318c0-0.612-0.204-0.816-0.816-0.816h-2.38
			v-1.088h12.647c5.644,0,10.267,4.828,10.267,11.899s-4.623,12.307-10.267,12.307h-12.647V69.532z M727.174,69.532h3.026
			c2.72,0,5.065-1.836,5.065-5.915V53.418c0-4.08-2.346-5.916-5.065-5.916h-3.026c-0.611,0-0.815,0.204-0.815,0.816v20.398
			C726.358,69.328,726.562,69.532,727.174,69.532z"/>
	</g>
</g>
<g>
	<path fill="#000002" d="M17.68,115.532h2.38c0.612,0,0.815-0.204,0.815-0.815V94.318c0-0.612-0.204-0.816-0.815-0.816h-2.38v-1.088
		h11.423v1.088h-2.38c-0.612,0-0.816,0.204-0.816,0.816v20.398c0,0.611,0.204,0.815,0.816,0.815h2.38v1.088H17.68V115.532z"/>
	<path fill="#000002" d="M37.059,106.217c0.952,4.998,3.978,9.928,7.854,9.928c4.08,0,4.657-2.448,4.657-3.876
		c0-1.258-1.088-2.176-2.448-3.06l-7.275-4.691c-1.7-1.088-3.808-3.06-3.808-6.188c0-4.691,3.264-6.527,6.663-6.527
		c2.244,0,4.147,1.224,4.828,1.699c0.442,0.341,0.884,0.612,1.224,0.612c0.442,0,0.68-0.34,0.748-0.782l0.204-0.918h1.088l0.34,8.84
		h-1.088c-1.258-4.691-4.284-8.363-7.615-8.363c-2.414,0-3.536,0.952-3.536,2.855c0,1.564,1.462,2.89,3.026,3.91l7.309,4.725
		c1.87,1.225,3.06,3.57,3.06,5.848c0,3.366-2.38,7.004-7.581,7.004c-2.176,0-3.74-0.748-4.658-1.496
		c-0.884-0.68-1.326-1.02-1.768-1.02c-0.476,0-0.782,0.407-0.884,1.155l-0.17,1.088h-1.054l-0.204-10.743H37.059z"/>
	<path fill="#000002" d="M70.345,115.532h2.379c0.612,0,0.816-0.204,0.816-0.815V94.318c0-0.612-0.204-0.816-0.816-0.816h-2.379
		v-1.088h11.967c4.045,0,7.615,2.38,7.615,5.78c0,3.297-3.026,4.963-5.746,5.677v0.204c2.89,0.442,6.562,2.414,6.562,5.949
		c0,4.284-3.706,6.596-7.989,6.596H70.345V115.532z M81.7,103.43c2.618,0,3.127-2.108,3.127-5.235c0-2.992-1.122-4.692-2.924-4.692
		h-2.516c-0.612,0-0.816,0.204-0.816,0.816v9.111H81.7z M79.388,115.532H81.7c2.244,0,3.604-1.156,3.604-5.508
		s-1.36-5.507-3.604-5.507h-3.128v10.199C78.572,115.328,78.776,115.532,79.388,115.532z"/>
	<path fill="#000002" d="M96.865,115.532h2.379c0.612,0,0.816-0.204,0.816-0.815V94.318c0-0.612-0.204-0.816-0.816-0.816h-2.379
		v-1.088h19.106l0.204,7.888h-1.088c0,0-0.34-2.176-1.36-3.876c-0.952-1.665-2.312-2.924-4.08-2.924h-3.74
		c-0.612,0-0.816,0.204-0.816,0.816v9.383h1.734c1.904,0,3.399-2.72,3.399-4.691h1.088v10.641h-1.088
		c0-2.006-1.496-4.725-3.399-4.725h-1.734v9.791c0,0.611,0.204,0.815,0.816,0.815h3.706c2.788,0,4.386-2.991,5.032-4.827
		c0.442-1.258,0.714-3.468,0.714-3.468h1.088l-0.204,9.383H96.865V115.532z"/>
	<path fill="#000002" d="M132.495,91.803c1.836,0,3.229,0.748,4.589,1.666c0.476,0.306,0.884,0.51,1.156,0.51
		c0.408,0,0.578-0.272,0.748-0.646l0.612-1.258h1.122v10.438h-1.088c-1.02-5.813-3.74-9.621-7.139-9.621
		c-1.904,0-3.74,1.632-3.74,6.527v10.199c0,4.896,2.176,6.527,4.08,6.527c3.196,0,4.998-1.802,6.018-3.706
		c0.816-1.53,1.156-3.569,1.326-5.167h1.224c-0.136,1.869-0.578,4.045-1.394,5.643c-1.36,2.652-3.774,4.318-7.173,4.318
		c-6.595,0-9.859-6.324-9.859-12.715C122.976,97.718,126.512,91.803,132.495,91.803z"/>
	<path fill="#000002" d="M157.859,91.803c5.372,0,10.063,6.188,10.063,12.715s-4.691,12.715-10.063,12.715
		s-10.063-6.188-10.063-12.715S152.487,91.803,157.859,91.803z M157.859,116.145c2.583,0,4.284-1.632,4.284-6.527V99.418
		c0-4.896-1.7-6.527-4.284-6.527c-2.584,0-4.284,1.632-4.284,6.527v10.199C153.575,114.513,155.275,116.145,157.859,116.145z"/>
	<path fill="#000002" d="M173.636,115.532c1.768,0,3.536-0.884,3.536-3.06V94.318c0-0.612-0.204-0.816-0.816-0.816h-2.72v-1.088
		h8.125l6.222,16.727l4.556-16.727h8.635v1.088h-2.38c-0.612,0-0.815,0.204-0.815,0.816v20.398c0,0.611,0.204,0.815,0.815,0.815
		h2.38v1.088H189.75v-1.088h2.38c0.612,0,0.816-0.204,0.816-0.815V95.372l-5.916,21.656h-1.326l-6.936-18.664h-0.238v14.108
		c0,2.176,1.768,3.06,3.536,3.06v1.088h-8.431V115.532z"/>
	<path fill="#000002" d="M206.751,115.532h2.379c0.612,0,0.816-0.204,0.816-0.815V94.318c0-0.612-0.204-0.816-0.816-0.816h-2.379
		v-1.088h11.423v1.088h-2.38c-0.612,0-0.816,0.204-0.816,0.816v20.398c0,0.611,0.204,0.815,0.816,0.815h2.38v1.088h-11.423V115.532z
		"/>
	<path fill="#000002" d="M223.615,115.532c2.448,0,4.284-1.428,4.284-3.536V97.48c0-0.511-0.068-0.612-0.374-1.055l-1.36-2.039
		c-0.442-0.646-0.85-0.885-1.938-0.885h-0.612v-1.088h7.547l10.879,15.537V97.038c0-2.107-1.836-3.536-4.284-3.536v-1.088h9.927
		v1.088c-2.447,0-4.283,1.429-4.283,3.536v20.194h-1.292l-12.715-18.188h-0.136v12.952c0,2.108,1.836,3.536,4.283,3.536v1.088
		h-9.927V115.532z"/>
	<path fill="#000002" d="M262.85,91.803c2.142,0,3.468,0.748,4.828,1.666c0.476,0.306,0.85,0.51,1.156,0.51
		c0.374,0,0.578-0.272,0.748-0.646l0.578-1.258h1.122v9.791h-1.054c-1.53-5.643-3.978-8.975-7.377-8.975
		c-2.584,0-4.352,1.632-4.352,6.527v10.199c0,4.896,1.564,6.527,3.74,6.527c2.448,0,4.011-2.414,4.011-4.998v-4.657
		c0-0.612-0.204-0.816-0.815-0.816h-2.992v-1.088h11.287v1.088h-1.632c-0.612,0-0.816,0.204-0.816,0.816v10.573h-1.088l-0.816-3.094
		c-0.102-0.408-0.374-0.851-0.816-0.851c-0.476,0-0.782,0.272-1.054,0.714c-0.816,1.258-2.686,3.4-5.27,3.4
		c-5.983,0-9.519-5.95-9.519-12.715C252.719,97.718,256.866,91.803,262.85,91.803z"/>
	<path fill="#000002" d="M290.696,115.532c1.768,0,3.536-0.884,3.536-3.06V94.318c0-0.612-0.204-0.816-0.816-0.816h-2.72v-1.088
		h8.125l6.222,16.727l4.556-16.727h8.635v1.088h-2.38c-0.612,0-0.815,0.204-0.815,0.816v20.398c0,0.611,0.204,0.815,0.815,0.815
		h2.38v1.088h-11.423v-1.088h2.38c0.612,0,0.816-0.204,0.816-0.815V95.372l-5.916,21.656h-1.326l-6.936-18.664h-0.238v14.108
		c0,2.176,1.768,3.06,3.536,3.06v1.088h-8.431V115.532z"/>
	<path fill="#000002" d="M323.269,92.414h10.675v1.088h-0.952c-0.68,0-0.952,0.612-0.952,1.088c0,0.272,0.068,0.681,0.204,0.952
		l4.487,9.757l3.128-7.785c0.238-0.544,0.476-1.359,0.476-1.938c0-0.952-0.476-2.074-1.836-2.074h-0.952v-1.088h8.431v1.088h-1.02
		c-1.666,0-2.651,1.326-3.093,2.482l-4.59,11.185v7.548c0,0.611,0.204,0.815,0.816,0.815h2.176v1.088h-11.015v-1.088h2.176
		c0.612,0,0.816-0.204,0.816-0.815v-7.242l-5.78-12.477c-0.544-1.189-1.088-1.496-2.005-1.496h-1.19V92.414z"/>
	<path fill="#000002" d="M363.082,115.532h2.38c0.611,0,0.815-0.306,0.815-0.918V94.318c0-0.612-0.204-0.816-0.815-0.816h-2.38
		v-1.088h11.423v1.088h-2.38c-0.612,0-0.816,0.204-0.816,0.816v20.296c0,0.612,0.204,0.918,0.816,0.918h3.434
		c2.788,0,4.521-4.046,5.1-5.915c0.374-1.258,0.85-3.468,0.85-3.468h1.088l-0.271,10.471h-19.242V115.532z"/>
	<path fill="#000002" d="M388.207,115.532h2.38c0.612,0,0.816-0.204,0.816-0.815V94.318c0-0.612-0.204-0.816-0.816-0.816h-2.38
		v-1.088h11.423v1.088h-2.38c-0.611,0-0.815,0.204-0.815,0.816v20.398c0,0.611,0.204,0.815,0.815,0.815h2.38v1.088h-11.423V115.532z
		"/>
	<path fill="#000002" d="M405.547,115.532h2.38c0.612,0,0.816-0.204,0.816-0.815V94.318c0-0.612-0.204-0.816-0.816-0.816h-2.38
		v-1.088h19.175l0.271,9.315h-1.088c0,0-0.374-2.72-1.224-4.521c-0.816-1.733-2.448-3.706-4.624-3.706h-3.468
		c-0.611,0-0.815,0.204-0.815,0.816v9.383h1.733c1.904,0,3.4-2.72,3.4-4.691h1.088v10.641h-1.088c0-2.006-1.496-4.725-3.4-4.725
		h-1.733v9.791c0,0.611,0.204,0.815,0.815,0.815h3.094v1.088h-12.137V115.532z"/>
	<path fill="#000002" d="M430.673,115.532h2.38c0.612,0,0.816-0.204,0.816-0.815V94.318c0-0.612-0.204-0.816-0.816-0.816h-2.38
		v-1.088h19.106l0.204,7.888h-1.088c0,0-0.34-2.176-1.36-3.876c-0.951-1.665-2.312-2.924-4.079-2.924h-3.739
		c-0.612,0-0.816,0.204-0.816,0.816v9.383h1.733c1.904,0,3.4-2.72,3.4-4.691h1.088v10.641h-1.088c0-2.006-1.496-4.725-3.4-4.725
		H438.9v9.791c0,0.611,0.204,0.815,0.816,0.815h3.705c2.788,0,4.386-2.991,5.031-4.827c0.442-1.258,0.714-3.468,0.714-3.468h1.088
		l-0.204,9.383h-19.378V115.532z"/>
	<path fill="#000002" d="M458.893,91.803c2.244,0,3.604,1.699,3.604,3.943c0,3.91-2.583,6.562-5.847,7.751l-0.477-0.951
		c2.822-1.055,4.76-3.196,4.76-5.372c0-0.271-0.17-0.611-0.578-0.611c-0.237,0-0.544,0.136-0.815,0.271
		c-0.408,0.204-0.714,0.306-1.156,0.306c-1.122,0-2.414-0.781-2.414-2.447C455.969,92.755,457.499,91.803,458.893,91.803z"/>
	<path fill="#000002" d="M470.419,106.217c0.952,4.998,3.978,9.928,7.854,9.928c4.079,0,4.657-2.448,4.657-3.876
		c0-1.258-1.088-2.176-2.447-3.06l-7.275-4.691c-1.7-1.088-3.808-3.06-3.808-6.188c0-4.691,3.264-6.527,6.663-6.527
		c2.244,0,4.147,1.224,4.827,1.699c0.442,0.341,0.884,0.612,1.225,0.612c0.441,0,0.68-0.34,0.747-0.782l0.204-0.918h1.088
		l0.341,8.84h-1.088c-1.259-4.691-4.284-8.363-7.615-8.363c-2.414,0-3.536,0.952-3.536,2.855c0,1.564,1.462,2.89,3.025,3.91
		l7.31,4.725c1.87,1.225,3.06,3.57,3.06,5.848c0,3.366-2.38,7.004-7.581,7.004c-2.176,0-3.739-0.748-4.657-1.496
		c-0.884-0.68-1.326-1.02-1.769-1.02c-0.476,0-0.781,0.407-0.884,1.155l-0.17,1.088h-1.054l-0.204-10.743H470.419z"/>
	<path fill="#000002" d="M503.093,92.414h11.049v1.088h-0.986c-0.646,0-1.054,0.545-1.054,1.19c0,0.204,0.068,0.578,0.17,0.85
		l4.283,13.089l3.196-10.879l-0.748-2.277c-0.51-1.496-1.189-1.973-2.686-1.973h-0.578v-1.088h11.151v1.088h-1.666
		c-0.646,0-1.088,0.511-1.088,0.986c0,0.204,0.033,0.476,0.102,0.748l4.317,13.259l3.094-11.185
		c0.103-0.307,0.238-1.292,0.238-1.836c0-0.816-0.408-1.973-1.802-1.973h-1.7v-1.088h9.18v1.088h-1.055
		c-1.733,0-2.72,1.395-3.264,3.094l-5.745,20.637h-1.428l-5.575-17.203l-5.032,17.203h-1.428l-7.071-21.521
		c-0.476-1.428-1.258-2.21-3.229-2.21h-0.646V92.414z"/>
	<path fill="#000002" d="M550.827,91.803c5.372,0,10.063,6.188,10.063,12.715s-4.691,12.715-10.063,12.715
		c-5.371,0-10.062-6.188-10.062-12.715S545.456,91.803,550.827,91.803z M550.827,116.145c2.584,0,4.284-1.632,4.284-6.527V99.418
		c0-4.896-1.7-6.527-4.284-6.527c-2.583,0-4.283,1.632-4.283,6.527v10.199C546.544,114.513,548.244,116.145,550.827,116.145z"/>
	<path fill="#000002" d="M567.08,115.532h2.38c0.612,0,0.816-0.204,0.816-0.815V94.318c0-0.612-0.204-0.816-0.816-0.816h-2.38
		v-1.088h11.016c4.827,0,8.159,2.244,8.159,5.984c0,3.264-2.72,4.997-6.256,5.405v0.237c3.196,0.578,5.508,2.04,5.508,6.29v3.773
		c0,1.02,0.34,1.428,0.952,1.428c1.291,0,1.699-2.618,1.699-5.031h1.088c0,3.943-0.782,6.935-4.046,6.935
		c-2.787,0-4.726-1.631-4.726-5.099v-4.216c0-1.972-0.884-3.876-3.264-3.876h-1.903v10.472c0,0.611,0.204,0.815,0.815,0.815h2.992
		v1.088H567.08V115.532z M577.585,103.157c2.55,0,3.23-2.176,3.23-5.031s-0.681-4.624-3.23-4.624h-1.462
		c-0.611,0-0.815,0.204-0.815,0.816v8.839H577.585z"/>
	<path fill="#000002" d="M594.245,115.532h2.38c0.612,0,0.816-0.204,0.816-0.815V94.318c0-0.612-0.204-0.816-0.816-0.816h-2.38
		v-1.088h11.151v1.088h-2.107c-0.612,0-0.816,0.204-0.816,0.816v10.062l6.562-7.615c0.578-0.68,0.85-1.088,0.85-1.835
		c0-0.816-0.476-1.429-1.224-1.429h-0.986v-1.088h8.397v1.088h-1.189c-1.055,0-2.143,0.885-2.822,1.7l-4.556,5.27l7.174,13.564
		c0.544,1.054,0.918,1.496,2.039,1.496h0.918v1.088H606.96v-1.088h1.36c0.408,0,0.714-0.34,0.714-0.714
		c0-0.204-0.068-0.646-0.17-0.85l-4.93-9.384l-1.462,1.666v8.466c0,0.611,0.204,0.815,0.816,0.815h2.107v1.088h-11.151V115.532z"/>
	<path fill="#000002" d="M625.457,111.725c1.529,0,2.651,1.122,2.651,2.651c0,1.53-1.122,2.652-2.651,2.652
		c-1.53,0-2.652-1.122-2.652-2.652C622.805,112.847,623.927,111.725,625.457,111.725z"/>
	<path fill="#000002" d="M637.051,91.803c2.244,0,3.604,1.699,3.604,3.943c0,3.91-2.583,6.562-5.847,7.751l-0.477-0.951
		c2.822-1.055,4.76-3.196,4.76-5.372c0-0.271-0.17-0.611-0.578-0.611c-0.237,0-0.544,0.136-0.815,0.271
		c-0.408,0.204-0.714,0.306-1.156,0.306c-1.122,0-2.414-0.781-2.414-2.447C634.127,92.755,635.657,91.803,637.051,91.803z
		 M644.53,91.803c2.244,0,3.604,1.699,3.604,3.943c0,3.91-2.584,6.562-5.848,7.751l-0.476-0.951c2.821-1.055,4.76-3.196,4.76-5.372
		c0-0.271-0.17-0.611-0.578-0.611c-0.238,0-0.544,0.136-0.816,0.271c-0.407,0.204-0.714,0.306-1.155,0.306
		c-1.122,0-2.414-0.781-2.414-2.447C641.606,92.755,643.137,91.803,644.53,91.803z"/>
</g>
<g>
	<defs>
		<rect id="SVGID_7_" width="743.572" height="142.912"/>
	</defs>
	<clipPath id="SVGID_8_">
		<use xlink:href="#SVGID_7_"  overflow="visible"/>
	</clipPath>
	<line clip-path="url(#SVGID_8_)" fill="none" stroke="#EC1B2E" x1="18.772" y1="142.412" x2="330.771" y2="142.412"/>
	<path clip-path="url(#SVGID_8_)" fill="#000002" d="M0,7.752c0,2.244,1.36,3.944,3.604,3.944c1.394,0,2.924-0.952,2.924-2.891
		c0-1.666-1.292-2.448-2.414-2.448c-0.442,0-0.748,0.103-1.156,0.307C2.686,6.8,2.38,6.936,2.142,6.936
		c-0.408,0-0.578-0.34-0.578-0.611c0-2.177,1.938-4.318,4.76-5.372L5.848,0C2.584,1.189,0,3.842,0,7.752 M7.48,7.752
		c0,2.244,1.36,3.944,3.604,3.944c1.394,0,2.924-0.952,2.924-2.891c0-1.666-1.292-2.448-2.414-2.448
		c-0.442,0-0.748,0.103-1.156,0.307C10.166,6.8,9.86,6.936,9.622,6.936c-0.408,0-0.578-0.34-0.578-0.611
		c0-2.177,1.938-4.318,4.76-5.372L13.328,0C10.064,1.189,7.48,3.842,7.48,7.752"/>
</g>
<g>
</g>
<g>
</g>
<g>
</g>
<g>
</g>
<g>
</g>
<g>
</g>
<g>
</g>
<g>
</g>
<g>
</g>
<g>
</g>
<g>
</g>
<g>
</g>
<g>
</g>
<g>
</g>
<g>
</g>
</svg>
