<?xml version="1.0" encoding="utf-8"?>
<!-- Generator: Adobe Illustrator 16.2.1, SVG Export Plug-In . SVG Version: 6.00 Build 0)  -->
<!DOCTYPE svg PUBLIC "-//W3C//DTD SVG 1.1//EN" "http://www.w3.org/Graphics/SVG/1.1/DTD/svg11.dtd">
<svg version="1.1" id="Layer_1" xmlns="http://www.w3.org/2000/svg" xmlns:xlink="http://www.w3.org/1999/xlink" x="0px" y="0px"
	 width="743.572px" height="185.5px" viewBox="0 0 743.572 185.5" enable-background="new 0 0 743.572 185.5" xml:space="preserve">
<g>
	<defs>
		<rect id="SVGID_1_" width="728" height="185.5"/>
	</defs>
	<clipPath id="SVGID_2_">
		<use xlink:href="#SVGID_1_"  overflow="visible"/>
	</clipPath>
	<g clip-path="url(#SVGID_2_)">
		<path fill="#000002" d="M2.312,0.002H22.71l0.271,10.132h-1.088c0,0-0.136-1.156-0.714-3.196C20.398,4.15,18.596,1.09,16.284,1.09
			c-0.748,0-1.258,0.408-1.258,1.156v20.059c0,0.611,0.204,0.815,0.816,0.815h2.72v1.088H6.459V23.12h2.72
			c0.612,0,0.816-0.204,0.816-0.815V2.246c0-0.748-0.51-1.156-1.258-1.156c-2.312,0-4.114,3.061-4.896,5.848
			c-0.578,2.04-0.714,3.196-0.714,3.196H2.04L2.312,0.002z"/>
		<path fill="#000002" d="M39.167-0.609c5.372,0,10.063,6.188,10.063,12.715S44.538,24.82,39.167,24.82s-10.063-6.188-10.063-12.715
			S33.795-0.609,39.167-0.609z M39.167,23.732c2.583,0,4.284-1.632,4.284-6.527V7.006c0-4.896-1.7-6.527-4.284-6.527
			c-2.584,0-4.284,1.632-4.284,6.527v10.199C34.883,22.101,36.583,23.732,39.167,23.732z"/>
		<path fill="#000002" d="M69.359,13.805c0.952,4.998,3.978,9.928,7.854,9.928c4.08,0,4.657-2.448,4.657-3.876
			c0-1.258-1.088-2.176-2.448-3.06l-7.275-4.691c-1.7-1.088-3.808-3.06-3.808-6.188c0-4.691,3.264-6.527,6.664-6.527
			c2.244,0,4.147,1.224,4.828,1.699c0.442,0.341,0.884,0.612,1.224,0.612c0.442,0,0.68-0.34,0.748-0.782l0.204-0.918h1.088
			l0.34,8.84h-1.088c-1.258-4.691-4.284-8.363-7.615-8.363c-2.414,0-3.536,0.952-3.536,2.855c0,1.564,1.462,2.89,3.026,3.91
			l7.309,4.725c1.87,1.225,3.06,3.57,3.06,5.848c0,3.366-2.379,7.004-7.581,7.004c-2.176,0-3.74-0.748-4.658-1.496
			c-0.884-0.68-1.326-1.02-1.768-1.02c-0.476,0-0.782,0.407-0.884,1.155l-0.17,1.088h-1.054l-0.204-10.743H69.359z"/>
		<path fill="#000002" d="M90.745,23.12h2.38c0.612,0,0.815-0.204,0.815-0.815V1.906c0-0.612-0.204-0.816-0.815-0.816h-2.38V0.002
			h19.106l0.204,7.888h-1.088c0,0-0.34-2.176-1.36-3.876c-0.952-1.665-2.312-2.924-4.08-2.924h-3.74
			c-0.612,0-0.816,0.204-0.816,0.816v9.383h1.734c1.904,0,3.399-2.72,3.399-4.691h1.088v10.641h-1.088
			c0-2.006-1.496-4.725-3.399-4.725h-1.734v9.791c0,0.611,0.204,0.815,0.816,0.815h3.706c2.788,0,4.386-2.991,5.032-4.827
			c0.442-1.258,0.714-3.468,0.714-3.468h1.088l-0.204,9.383H90.745V23.12z"/>
		<path fill="#000002" d="M115.973,23.12h1.156c1.462,0,2.516-1.394,2.992-2.754l7.173-20.976h1.428l7.275,21.996
			c0.408,1.189,1.122,1.733,2.005,1.733h1.36v1.088h-11.933V23.12h2.448c0.544,0,0.918-0.51,0.918-1.088
			c0-0.204-0.102-0.68-0.204-0.986l-1.088-3.264h-7.139l-0.714,2.074c-0.238,0.612-0.374,1.292-0.374,1.733
			c0,0.748,0.646,1.53,1.768,1.53h1.598v1.088h-8.669V23.12z M129.095,16.524l-3.094-9.349l-3.196,9.349H129.095z"/>
		<path fill="#000002" d="M144.601,23.12h2.38c0.612,0,0.815-0.306,0.815-0.918V1.906c0-0.612-0.204-0.816-0.815-0.816h-2.38V0.002
			h11.423V1.09h-2.38c-0.612,0-0.816,0.204-0.816,0.816v20.296c0,0.612,0.204,0.918,0.816,0.918h3.434
			c2.788,0,4.521-4.046,5.1-5.915c0.374-1.258,0.85-3.468,0.85-3.468h1.088l-0.271,10.471h-19.242V23.12z"/>
		<path fill="#000002" d="M181.66,23.12h2.38c0.612,0,0.815-0.204,0.815-0.815V1.906c0-0.612-0.204-0.816-0.815-0.816h-2.38V0.002
			h11.423V1.09h-2.38c-0.612,0-0.816,0.204-0.816,0.816v8.975h8.023V1.906c0-0.612-0.204-0.816-0.815-0.816h-2.448V0.002h11.491
			V1.09h-2.38c-0.612,0-0.816,0.204-0.816,0.816v20.398c0,0.611,0.204,0.815,0.816,0.815h2.38v1.088h-11.423V23.12h2.38
			c0.612,0,0.815-0.204,0.815-0.815V12.105h-8.023v10.199c0,0.611,0.204,0.815,0.816,0.815h2.38v1.088H181.66V23.12z"/>
		<path fill="#000002" d="M212.056,23.12h2.379c0.612,0,0.816-0.204,0.816-0.815V1.906c0-0.612-0.204-0.816-0.816-0.816h-2.379
			V0.002h11.423V1.09h-2.38c-0.612,0-0.816,0.204-0.816,0.816v20.398c0,0.611,0.204,0.815,0.816,0.815h2.38v1.088h-11.423V23.12z"/>
		<path fill="#000002" d="M231.435,13.805c0.952,4.998,3.978,9.928,7.854,9.928c4.08,0,4.657-2.448,4.657-3.876
			c0-1.258-1.088-2.176-2.448-3.06l-7.275-4.691c-1.7-1.088-3.808-3.06-3.808-6.188c0-4.691,3.264-6.527,6.664-6.527
			c2.244,0,4.147,1.224,4.828,1.699c0.442,0.341,0.884,0.612,1.224,0.612c0.442,0,0.68-0.34,0.748-0.782l0.204-0.918h1.088
			l0.34,8.84h-1.088c-1.258-4.691-4.284-8.363-7.615-8.363c-2.414,0-3.536,0.952-3.536,2.855c0,1.564,1.462,2.89,3.026,3.91
			l7.309,4.725c1.87,1.225,3.06,3.57,3.06,5.848c0,3.366-2.379,7.004-7.581,7.004c-2.176,0-3.74-0.748-4.658-1.496
			c-0.884-0.68-1.326-1.02-1.768-1.02c-0.476,0-0.782,0.407-0.884,1.155l-0.17,1.088h-1.054l-0.204-10.743H231.435z"/>
	</g>
</g>
<g>
	<path fill="#231F20" d="M266.942,19.408c0,0.56-0.24,0.8-0.8,0.8h-0.541c-0.56,0-0.8-0.24-0.8-0.8V8.146h-1.121
		c-0.56,0-0.8-0.24-0.8-0.8V7.005c0-0.56,0.24-0.8,0.8-0.8h4.381c0.56,0,0.8,0.24,0.8,0.8v0.341c0,0.56-0.24,0.8-0.8,0.8h-1.121
		V19.408z"/>
	<path fill="#231F20" d="M281.702,20.208c-0.52,0-0.74-0.2-0.8-0.7l-1.5-12.402c-0.08-0.62,0.16-0.9,0.78-0.9h0.54
		c0.521,0,0.74,0.2,0.8,0.72l0.92,9.263l1-9.263c0.06-0.52,0.3-0.72,0.8-0.72h0.62c0.52,0,0.74,0.2,0.8,0.72l1,9.223l0.94-9.223
		c0.04-0.52,0.28-0.72,0.78-0.72h0.34c0.62,0,0.86,0.28,0.8,0.9l-1.521,12.402c-0.06,0.5-0.28,0.7-0.78,0.7h-1.1
		c-0.5,0-0.74-0.2-0.8-0.7l-0.88-7.682l-0.84,7.662c-0.06,0.52-0.28,0.72-0.8,0.72H281.702z"/>
	<path fill="#231F20" d="M306.763,17.728c0,1.74-0.86,2.601-2.601,2.601h-1.14c-1.74,0-2.601-0.86-2.601-2.601V8.686
		c0-1.74,0.86-2.601,2.601-2.601h1.14c1.74,0,2.601,0.86,2.601,2.601V17.728z M304.622,8.785c0-0.56-0.26-0.819-0.8-0.819h-0.44
		c-0.56,0-0.82,0.26-0.82,0.819v8.843c0,0.56,0.26,0.819,0.82,0.819h0.44c0.54,0,0.8-0.26,0.8-0.819V8.785z"/>
	<path fill="#231F20" d="M331.882,6.205c0.56,0,0.8,0.24,0.8,0.8v12.403c0,0.56-0.24,0.8-0.8,0.8h-0.54c-0.56,0-0.8-0.24-0.8-0.8
		V7.005c0-0.56,0.24-0.8,0.8-0.8H331.882z"/>
	<path fill="#231F20" d="M344.781,20.208c-0.56,0-0.8-0.24-0.8-0.8V7.005c0-0.56,0.24-0.8,0.8-0.8h2.42c2.081,0,3.061,1,3.061,3.061
		v7.882c0,2.061-0.98,3.061-3.061,3.061H344.781z M346.122,8.085v10.242h0.78c0.84,0,1.221-0.399,1.221-1.24V9.326
		c0-0.841-0.38-1.241-1.221-1.241H346.122z"/>
	<path fill="#231F20" d="M361.501,7.005c0-0.56,0.24-0.8,0.8-0.8h3.161c0.56,0,0.8,0.24,0.8,0.8v0.341c0,0.56-0.24,0.8-0.8,0.8
		h-1.82v3.961h1.72c0.561,0,0.801,0.24,0.801,0.8v0.34c0,0.561-0.24,0.801-0.801,0.801h-1.72v4.221h1.86c0.56,0,0.8,0.24,0.8,0.8
		v0.341c0,0.56-0.24,0.8-0.8,0.8h-3.201c-0.56,0-0.8-0.24-0.8-0.8V7.005z"/>
	<path fill="#231F20" d="M379.361,13.246v6.162c0,0.56-0.24,0.8-0.8,0.8h-0.32c-0.561,0-0.8-0.24-0.8-0.8V7.005
		c0-0.56,0.239-0.8,0.8-0.8h1.061c0.46,0,0.68,0.18,0.779,0.62l1.86,8.021l-0.02-2.34V7.005c0-0.56,0.24-0.8,0.8-0.8h0.32
		c0.561,0,0.8,0.24,0.8,0.8v12.403c0,0.56-0.239,0.8-0.8,0.8h-0.88c-0.46,0-0.681-0.18-0.78-0.62l-2.04-8.822L379.361,13.246z"/>
	<path fill="#231F20" d="M398.741,19.408c0,0.56-0.24,0.8-0.8,0.8h-0.54c-0.561,0-0.801-0.24-0.801-0.8V8.146h-1.12
		c-0.56,0-0.8-0.24-0.8-0.8V7.005c0-0.56,0.24-0.8,0.8-0.8h4.381c0.561,0,0.801,0.24,0.801,0.8v0.341c0,0.56-0.24,0.8-0.801,0.8
		h-1.12V19.408z"/>
	<path fill="#231F20" d="M412.86,6.205c0.561,0,0.801,0.24,0.801,0.8v12.403c0,0.56-0.24,0.8-0.801,0.8h-0.54
		c-0.56,0-0.8-0.24-0.8-0.8V7.005c0-0.56,0.24-0.8,0.8-0.8H412.86z"/>
	<path fill="#231F20" d="M428.581,19.408c0,0.56-0.24,0.8-0.8,0.8h-0.54c-0.561,0-0.801-0.24-0.801-0.8V8.146h-1.12
		c-0.56,0-0.8-0.24-0.8-0.8V7.005c0-0.56,0.24-0.8,0.8-0.8h4.381c0.561,0,0.801,0.24,0.801,0.8v0.341c0,0.56-0.24,0.8-0.801,0.8
		h-1.12V19.408z"/>
	<path fill="#231F20" d="M442.699,6.205c0.561,0,0.801,0.24,0.801,0.8v12.403c0,0.56-0.24,0.8-0.801,0.8h-0.54
		c-0.56,0-0.8-0.24-0.8-0.8V7.005c0-0.56,0.24-0.8,0.8-0.8H442.699z"/>
	<path fill="#231F20" d="M454.799,7.005c0-0.56,0.24-0.8,0.801-0.8h3.16c0.561,0,0.801,0.24,0.801,0.8v0.341
		c0,0.56-0.24,0.8-0.801,0.8h-1.82v3.961h1.721c0.561,0,0.8,0.24,0.8,0.8v0.34c0,0.561-0.239,0.801-0.8,0.801h-1.721v4.221h1.86
		c0.561,0,0.801,0.24,0.801,0.8v0.341c0,0.56-0.24,0.8-0.801,0.8h-3.2c-0.561,0-0.801-0.24-0.801-0.8V7.005z"/>
	<path fill="#231F20" d="M475.521,13.026c0.94,0.681,1.24,1.28,1.24,2.421v2.28c0,1.74-0.86,2.601-2.601,2.601h-0.939
		c-1.741,0-2.581-0.86-2.581-2.581v-2.16c0-0.56,0.24-0.8,0.8-0.8h0.48c0.561,0,0.8,0.24,0.8,0.8v2.08
		c0,0.541,0.261,0.801,0.82,0.801h0.28c0.561,0,0.82-0.26,0.82-0.801v-1.92c0-0.58-0.2-0.84-0.601-1.141l-2.16-1.58
		c-0.96-0.68-1.24-1.34-1.24-2.421v-1.92c0-1.74,0.86-2.601,2.601-2.601h0.9c1.72,0,2.58,0.86,2.58,2.581v1.74
		c0,0.56-0.24,0.8-0.8,0.8h-0.5c-0.561,0-0.801-0.24-0.801-0.8V8.745c0-0.54-0.26-0.8-0.8-0.8h-0.26c-0.54,0-0.801,0.26-0.801,0.8
		v1.561c0,0.58,0.2,0.86,0.601,1.141L475.521,13.026z"/>
</g>
<g>
	<defs>
		<rect id="SVGID_3_" width="728" height="185.5"/>
	</defs>
	<clipPath id="SVGID_4_">
		<use xlink:href="#SVGID_3_"  overflow="visible"/>
	</clipPath>
	<g clip-path="url(#SVGID_4_)">
		<path fill="#000002" d="M501.327,23.12h2.38c0.612,0,0.816-0.204,0.816-0.815V1.906c0-0.612-0.204-0.816-0.816-0.816h-2.38V0.002
			h19.175l0.271,9.315h-1.088c0,0-0.374-2.72-1.224-4.521c-0.816-1.733-2.448-3.706-4.624-3.706h-3.467
			c-0.612,0-0.816,0.204-0.816,0.816v9.383h1.733c1.904,0,3.4-2.72,3.4-4.691h1.088v10.641h-1.088c0-2.006-1.496-4.725-3.4-4.725
			h-1.733v9.791c0,0.611,0.204,0.815,0.816,0.815h3.093v1.088h-12.137V23.12z"/>
		<path fill="#000002" d="M526.486,23.12h2.38c0.612,0,0.816-0.204,0.816-0.815V1.906c0-0.612-0.204-0.816-0.816-0.816h-2.38V0.002
			h11.016c4.827,0,8.159,2.244,8.159,5.984c0,3.264-2.72,4.997-6.256,5.405v0.237c3.196,0.578,5.508,2.04,5.508,6.29v3.773
			c0,1.02,0.34,1.428,0.952,1.428c1.291,0,1.699-2.618,1.699-5.031h1.088c0,3.943-0.782,6.935-4.046,6.935
			c-2.787,0-4.726-1.631-4.726-5.099v-4.216c0-1.972-0.884-3.876-3.264-3.876h-1.903v10.472c0,0.611,0.204,0.815,0.815,0.815h2.992
			v1.088h-12.035V23.12z M536.991,10.745c2.55,0,3.23-2.176,3.23-5.031s-0.681-4.624-3.23-4.624h-1.462
			c-0.611,0-0.815,0.204-0.815,0.816v8.839H536.991z"/>
		<path fill="#000002" d="M564.021-0.609c5.372,0,10.063,6.188,10.063,12.715s-4.691,12.715-10.063,12.715
			c-5.371,0-10.062-6.188-10.062-12.715S558.65-0.609,564.021-0.609z M564.021,23.732c2.584,0,4.284-1.632,4.284-6.527V7.006
			c0-4.896-1.7-6.527-4.284-6.527c-2.583,0-4.283,1.632-4.283,6.527v10.199C559.738,22.101,561.438,23.732,564.021,23.732z"/>
		<path fill="#000002" d="M579.799,23.12c1.768,0,3.535-0.884,3.535-3.06V1.906c0-0.612-0.203-0.816-0.815-0.816h-2.72V0.002h8.125
			l6.222,16.727l4.556-16.727h8.635V1.09h-2.38c-0.611,0-0.815,0.204-0.815,0.816v20.398c0,0.611,0.204,0.815,0.815,0.815h2.38
			v1.088h-11.423V23.12h2.38c0.612,0,0.816-0.204,0.816-0.815V2.96l-5.916,21.656h-1.326l-6.935-18.664h-0.238v14.108
			c0,2.176,1.768,3.06,3.536,3.06v1.088h-8.432V23.12z"/>
	</g>
	<g clip-path="url(#SVGID_4_)">
	</g>
	<g clip-path="url(#SVGID_4_)">
		<path fill="#000002" d="M12.44,45.393c5.371,0,10.063,6.188,10.063,12.715S17.812,70.822,12.44,70.822
			c-5.372,0-10.063-6.188-10.063-12.715S7.069,45.393,12.44,45.393z M12.44,69.734c2.583,0,4.283-1.632,4.283-6.527V53.008
			c0-4.896-1.7-6.527-4.283-6.527c-2.584,0-4.284,1.632-4.284,6.527v10.199C8.157,68.103,9.856,69.734,12.44,69.734z"/>
		<path fill="#000002" d="M28.217,69.122c2.448,0,4.284-1.428,4.284-3.536V51.07c0-0.511-0.068-0.612-0.374-1.055l-1.36-2.039
			c-0.442-0.646-0.85-0.885-1.938-0.885h-0.612v-1.088h7.547l10.879,15.537V50.628c0-2.107-1.836-3.536-4.284-3.536v-1.088h9.927
			v1.088c-2.448,0-4.284,1.429-4.284,3.536v20.194h-1.292L33.997,52.634h-0.136v12.952c0,2.108,1.835,3.536,4.284,3.536v1.088
			h-9.927V69.122z"/>
		<path fill="#000002" d="M57.049,69.122h2.38c0.612,0,0.815-0.204,0.815-0.815V47.908c0-0.612-0.204-0.816-0.815-0.816h-2.38
			v-1.088h19.106l0.204,7.888h-1.088c0,0-0.34-2.176-1.36-3.876c-0.952-1.665-2.312-2.924-4.08-2.924h-3.74
			c-0.612,0-0.816,0.204-0.816,0.816v9.383h1.734c1.904,0,3.399-2.72,3.399-4.691h1.088V63.24h-1.088
			c0-2.006-1.496-4.725-3.399-4.725h-1.734v9.791c0,0.611,0.204,0.815,0.816,0.815h3.706c2.788,0,4.386-2.991,5.032-4.827
			c0.442-1.258,0.714-3.468,0.714-3.468h1.088l-0.204,9.383H57.049V69.122z"/>
		<path fill="#000002" d="M94.143,69.122h1.156c1.462,0,2.516-1.394,2.992-2.754l7.173-20.976h1.428l7.275,21.996
			c0.408,1.189,1.122,1.733,2.005,1.733h1.36v1.088h-11.933v-1.088h2.448c0.544,0,0.918-0.51,0.918-1.088
			c0-0.204-0.102-0.68-0.204-0.986l-1.088-3.264h-7.139l-0.714,2.074c-0.238,0.612-0.374,1.292-0.374,1.733
			c0,0.748,0.646,1.53,1.768,1.53h1.598v1.088h-8.669V69.122z M107.265,62.526l-3.094-9.349l-3.196,9.349H107.265z"/>
		<path fill="#000002" d="M122.26,69.122c2.448,0,4.284-1.428,4.284-3.536V51.07c0-0.511-0.068-0.612-0.374-1.055l-1.36-2.039
			c-0.442-0.646-0.85-0.885-1.938-0.885h-0.612v-1.088h7.547l10.879,15.537V50.628c0-2.107-1.836-3.536-4.284-3.536v-1.088h9.927
			v1.088c-2.448,0-4.284,1.429-4.284,3.536v20.194h-1.292L128.04,52.634h-0.136v12.952c0,2.108,1.835,3.536,4.284,3.536v1.088
			h-9.927V69.122z"/>
		<path fill="#000002" d="M160.203,45.393c5.371,0,10.063,6.188,10.063,12.715s-4.692,12.715-10.063,12.715
			c-5.372,0-10.063-6.188-10.063-12.715S154.832,45.393,160.203,45.393z M160.203,69.734c2.583,0,4.283-1.632,4.283-6.527V53.008
			c0-4.896-1.7-6.527-4.283-6.527c-2.584,0-4.284,1.632-4.284,6.527v10.199C155.919,68.103,157.619,69.734,160.203,69.734z"/>
		<path fill="#000002" d="M176.659,46.004h20.398l0.271,10.132h-1.088c0,0-0.136-1.156-0.714-3.196
			c-0.782-2.787-2.583-5.848-4.896-5.848c-0.748,0-1.258,0.408-1.258,1.156v20.059c0,0.611,0.204,0.815,0.816,0.815h2.72v1.088
			h-12.103v-1.088h2.72c0.612,0,0.816-0.204,0.816-0.815V48.248c0-0.748-0.51-1.156-1.258-1.156c-2.312,0-4.114,3.061-4.896,5.848
			c-0.578,2.04-0.714,3.196-0.714,3.196h-1.088L176.659,46.004z"/>
		<path fill="#000002" d="M203.179,69.122h2.379c0.612,0,0.816-0.204,0.816-0.815V47.908c0-0.612-0.204-0.816-0.816-0.816h-2.379
			v-1.088h11.423v1.088h-2.38c-0.612,0-0.816,0.204-0.816,0.816v8.975h8.023v-8.975c0-0.612-0.204-0.816-0.816-0.816h-2.447v-1.088
			h11.491v1.088h-2.38c-0.612,0-0.816,0.204-0.816,0.816v20.398c0,0.611,0.204,0.815,0.816,0.815h2.38v1.088h-11.423v-1.088h2.379
			c0.612,0,0.816-0.204,0.816-0.815V58.107h-8.023v10.199c0,0.611,0.204,0.815,0.816,0.815h2.38v1.088h-11.423V69.122z"/>
		<path fill="#000002" d="M233.575,69.122h2.38c0.612,0,0.815-0.204,0.815-0.815V47.908c0-0.612-0.204-0.816-0.815-0.816h-2.38
			v-1.088h19.106l0.204,7.888h-1.088c0,0-0.34-2.176-1.36-3.876c-0.952-1.665-2.312-2.924-4.08-2.924h-3.74
			c-0.612,0-0.816,0.204-0.816,0.816v9.383h1.734c1.904,0,3.399-2.72,3.399-4.691h1.088V63.24h-1.088
			c0-2.006-1.496-4.725-3.399-4.725h-1.734v9.791c0,0.611,0.204,0.815,0.816,0.815h3.706c2.788,0,4.386-2.991,5.032-4.827
			c0.442-1.258,0.714-3.468,0.714-3.468h1.088l-0.204,9.383h-19.378V69.122z"/>
		<path fill="#000002" d="M259.415,69.122h2.379c0.612,0,0.816-0.204,0.816-0.815V47.908c0-0.612-0.204-0.816-0.816-0.816h-2.379
			v-1.088h11.015c4.828,0,8.159,2.244,8.159,5.984c0,3.264-2.72,4.997-6.255,5.405v0.237c3.196,0.578,5.508,2.04,5.508,6.29v3.773
			c0,1.02,0.34,1.428,0.952,1.428c1.292,0,1.7-2.618,1.7-5.031h1.088c0,3.943-0.782,6.935-4.045,6.935
			c-2.788,0-4.726-1.631-4.726-5.099v-4.216c0-1.972-0.884-3.876-3.264-3.876h-1.904v10.472c0,0.611,0.204,0.815,0.816,0.815h2.992
			v1.088h-12.035V69.122z M269.919,56.747c2.55,0,3.229-2.176,3.229-5.031s-0.68-4.624-3.229-4.624h-1.462
			c-0.612,0-0.816,0.204-0.816,0.816v8.839H269.919z"/>
		<path fill="#000002" d="M288.96,65.179c2.244,0,3.604,1.699,3.604,3.943c0,3.909-2.584,6.562-5.848,7.751l-0.476-0.951
			c2.822-1.055,4.76-3.196,4.76-5.372c0-0.271-0.17-0.612-0.578-0.612c-0.238,0-0.544,0.137-0.816,0.272
			c-0.408,0.204-0.714,0.306-1.156,0.306c-1.122,0-2.414-0.781-2.414-2.447C286.037,66.131,287.566,65.179,288.96,65.179z"/>
		<path fill="#000002" d="M310.346,69.122h2.379c0.612,0,0.816-0.204,0.816-0.815V47.908c0-0.612-0.204-0.816-0.816-0.816h-2.379
			v-1.088h11.015c4.828,0,8.159,2.244,8.159,5.984c0,3.264-2.72,4.997-6.255,5.405v0.237c3.196,0.578,5.508,2.04,5.508,6.29v3.773
			c0,1.02,0.34,1.428,0.952,1.428c1.292,0,1.7-2.618,1.7-5.031h1.088c0,3.943-0.782,6.935-4.045,6.935
			c-2.788,0-4.726-1.631-4.726-5.099v-4.216c0-1.972-0.884-3.876-3.264-3.876h-1.904v10.472c0,0.611,0.204,0.815,0.816,0.815h2.992
			v1.088h-12.035V69.122z M320.851,56.747c2.55,0,3.229-2.176,3.229-5.031s-0.68-4.624-3.229-4.624h-1.462
			c-0.612,0-0.816,0.204-0.816,0.816v8.839H320.851z"/>
		<path fill="#000002" d="M347.881,45.393c5.372,0,10.063,6.188,10.063,12.715s-4.691,12.715-10.063,12.715
			s-10.063-6.188-10.063-12.715S342.51,45.393,347.881,45.393z M347.881,69.734c2.583,0,4.284-1.632,4.284-6.527V53.008
			c0-4.896-1.7-6.527-4.284-6.527c-2.584,0-4.284,1.632-4.284,6.527v10.199C343.598,68.103,345.297,69.734,347.881,69.734z"/>
		<path fill="#000002" d="M366.174,59.807c0.951,4.998,3.978,9.928,7.853,9.928c4.08,0,4.658-2.448,4.658-3.876
			c0-1.258-1.088-2.176-2.448-3.06l-7.275-4.691c-1.699-1.088-3.808-3.06-3.808-6.188c0-4.691,3.264-6.527,6.663-6.527
			c2.244,0,4.148,1.224,4.828,1.699c0.441,0.341,0.884,0.612,1.224,0.612c0.442,0,0.68-0.34,0.748-0.782l0.204-0.918h1.088
			l0.34,8.84h-1.088c-1.258-4.691-4.283-8.363-7.615-8.363c-2.414,0-3.535,0.952-3.535,2.855c0,1.564,1.461,2.89,3.025,3.91
			l7.309,4.725c1.87,1.225,3.061,3.57,3.061,5.848c0,3.366-2.38,7.004-7.582,7.004c-2.176,0-3.739-0.748-4.657-1.496
			c-0.884-0.68-1.326-1.02-1.768-1.02c-0.476,0-0.782,0.407-0.884,1.155l-0.17,1.088h-1.055l-0.203-10.743H366.174z"/>
		<path fill="#000002" d="M389.633,59.807c0.952,4.998,3.978,9.928,7.854,9.928c4.079,0,4.657-2.448,4.657-3.876
			c0-1.258-1.088-2.176-2.447-3.06l-7.275-4.691c-1.7-1.088-3.808-3.06-3.808-6.188c0-4.691,3.264-6.527,6.663-6.527
			c2.244,0,4.147,1.224,4.827,1.699c0.442,0.341,0.885,0.612,1.225,0.612c0.441,0,0.68-0.34,0.748-0.782l0.203-0.918h1.088
			l0.34,8.84h-1.088c-1.258-4.691-4.283-8.363-7.615-8.363c-2.413,0-3.535,0.952-3.535,2.855c0,1.564,1.462,2.89,3.025,3.91
			l7.31,4.725c1.87,1.225,3.06,3.57,3.06,5.848c0,3.366-2.38,7.004-7.581,7.004c-2.176,0-3.739-0.748-4.657-1.496
			c-0.885-0.68-1.326-1.02-1.769-1.02c-0.476,0-0.781,0.407-0.884,1.155l-0.17,1.088h-1.054l-0.204-10.743H389.633z"/>
		<path fill="#000002" d="M422.919,69.122h2.38c0.612,0,0.816-0.204,0.816-0.815V47.908c0-0.612-0.204-0.816-0.816-0.816h-2.38
			v-1.088h11.016c4.827,0,8.159,2.244,8.159,5.984c0,3.264-2.72,4.997-6.256,5.405v0.237c3.195,0.578,5.508,2.04,5.508,6.29v3.773
			c0,1.02,0.34,1.428,0.951,1.428c1.292,0,1.7-2.618,1.7-5.031h1.088c0,3.943-0.782,6.935-4.046,6.935
			c-2.787,0-4.725-1.631-4.725-5.099v-4.216c0-1.972-0.885-3.876-3.264-3.876h-1.904v10.472c0,0.611,0.204,0.815,0.816,0.815h2.991
			v1.088h-12.035V69.122z M433.424,56.747c2.55,0,3.23-2.176,3.23-5.031s-0.681-4.624-3.23-4.624h-1.461
			c-0.612,0-0.816,0.204-0.816,0.816v8.839H433.424z"/>
		<path fill="#000002" d="M450.085,69.122h2.38c0.612,0,0.816-0.204,0.816-0.815V47.908c0-0.612-0.204-0.816-0.816-0.816h-2.38
			v-1.088h19.106l0.204,7.888h-1.088c0,0-0.34-2.176-1.36-3.876c-0.951-1.665-2.312-2.924-4.079-2.924h-3.739
			c-0.612,0-0.816,0.204-0.816,0.816v9.383h1.733c1.904,0,3.4-2.72,3.4-4.691h1.088V63.24h-1.088c0-2.006-1.496-4.725-3.4-4.725
			h-1.733v9.791c0,0.611,0.204,0.815,0.816,0.815h3.705c2.788,0,4.386-2.991,5.031-4.827c0.442-1.258,0.714-3.468,0.714-3.468h1.088
			l-0.204,9.383h-19.378V69.122z"/>
		<path fill="#000002" d="M475.313,69.122h1.155c1.462,0,2.516-1.394,2.992-2.754l7.173-20.976h1.428l7.275,21.996
			c0.408,1.189,1.122,1.733,2.006,1.733h1.36v1.088h-11.933v-1.088h2.447c0.544,0,0.918-0.51,0.918-1.088
			c0-0.204-0.102-0.68-0.204-0.986l-1.088-3.264h-7.139l-0.715,2.074c-0.237,0.612-0.373,1.292-0.373,1.733
			c0,0.748,0.646,1.53,1.768,1.53h1.598v1.088h-8.669V69.122z M488.436,62.526l-3.094-9.349l-3.195,9.349H488.436z"/>
		<path fill="#000002" d="M503.906,69.122h2.38c0.612,0,0.816-0.306,0.816-0.918V47.908c0-0.612-0.204-0.816-0.816-0.816h-2.38
			v-1.088h11.423v1.088h-2.38c-0.611,0-0.815,0.204-0.815,0.816v20.296c0,0.612,0.204,0.918,0.815,0.918h3.435
			c2.787,0,4.521-4.046,5.099-5.915c0.374-1.258,0.851-3.468,0.851-3.468h1.088l-0.272,10.471h-19.242V69.122z"/>
		<path fill="#000002" d="M529.032,69.122h2.38c0.612,0,0.816-0.204,0.816-0.815V47.908c0-0.612-0.204-0.816-0.816-0.816h-2.38
			v-1.088h11.423v1.088h-2.379c-0.612,0-0.816,0.204-0.816,0.816v20.398c0,0.611,0.204,0.815,0.816,0.815h2.379v1.088h-11.423
			V69.122z"/>
		<path fill="#000002" d="M546.576,69.122l11.967-22.03h-4.283c-1.7,0-4.012,1.938-5.134,4.692c-0.578,1.462-0.782,2.89-0.782,2.923
			h-1.088l0.408-8.703h16.591v1.156l-11.933,21.962h4.657c2.651,0,4.691-2.821,5.507-4.42c0.952-1.903,1.292-4.079,1.292-4.079
			h1.088l-0.544,9.587h-17.746V69.122z"/>
		<path fill="#000002" d="M570.886,69.122h2.38c0.612,0,0.816-0.204,0.816-0.815V47.908c0-0.612-0.204-0.816-0.816-0.816h-2.38
			v-1.088h19.106l0.204,7.888h-1.088c0,0-0.34-2.176-1.36-3.876c-0.951-1.665-2.312-2.924-4.079-2.924h-3.739
			c-0.612,0-0.816,0.204-0.816,0.816v9.383h1.733c1.904,0,3.4-2.72,3.4-4.691h1.088V63.24h-1.088c0-2.006-1.496-4.725-3.4-4.725
			h-1.733v9.791c0,0.611,0.204,0.815,0.816,0.815h3.705c2.788,0,4.386-2.991,5.031-4.827c0.442-1.258,0.714-3.468,0.714-3.468h1.088
			l-0.204,9.383h-19.378V69.122z"/>
		<path fill="#000002" d="M596.726,69.122h2.38c0.612,0,0.816-0.204,0.816-0.815V47.908c0-0.612-0.204-0.816-0.816-0.816h-2.38
			v-1.088h12.647c5.643,0,10.267,4.828,10.267,11.899s-4.624,12.307-10.267,12.307h-12.647V69.122z M605.77,69.122h3.025
			c2.72,0,5.065-1.836,5.065-5.915V53.008c0-4.08-2.346-5.916-5.065-5.916h-3.025c-0.612,0-0.816,0.204-0.816,0.816v20.398
			C604.953,68.918,605.157,69.122,605.77,69.122z"/>
		<path fill="#000002" d="M628.175,65.179c2.244,0,3.604,1.699,3.604,3.943c0,3.909-2.583,6.562-5.847,7.751l-0.477-0.951
			c2.822-1.055,4.76-3.196,4.76-5.372c0-0.271-0.17-0.612-0.578-0.612c-0.238,0-0.544,0.137-0.815,0.272
			c-0.408,0.204-0.714,0.306-1.156,0.306c-1.122,0-2.414-0.781-2.414-2.447C625.251,66.131,626.781,65.179,628.175,65.179z"/>
	</g>
	<g clip-path="url(#SVGID_4_)">
		<path fill="#000002" d="M1.493,92.006h11.049v1.088h-0.986c-0.646,0-1.054,0.545-1.054,1.19c0,0.204,0.068,0.578,0.17,0.85
			l4.284,13.089l3.196-10.879l-0.748-2.277c-0.51-1.496-1.19-1.973-2.686-1.973H14.14v-1.088h11.151v1.088h-1.666
			c-0.646,0-1.088,0.511-1.088,0.986c0,0.204,0.034,0.476,0.102,0.748l4.318,13.259l3.094-11.185
			c0.102-0.307,0.238-1.292,0.238-1.836c0-0.816-0.408-1.973-1.802-1.973h-1.7v-1.088h9.179v1.088h-1.054
			c-1.734,0-2.72,1.395-3.264,3.094l-5.746,20.637h-1.428l-5.576-17.203l-5.031,17.203H12.44L5.369,95.304
			c-0.476-1.428-1.258-2.21-3.23-2.21H1.493V92.006z"/>
		<path fill="#000002" d="M49.228,91.395c5.372,0,10.063,6.188,10.063,12.715s-4.691,12.715-10.063,12.715
			s-10.063-6.188-10.063-12.715S43.856,91.395,49.228,91.395z M49.228,115.736c2.583,0,4.284-1.632,4.284-6.527V99.01
			c0-4.896-1.7-6.527-4.284-6.527c-2.584,0-4.284,1.632-4.284,6.527v10.199C44.944,114.104,46.644,115.736,49.228,115.736z"/>
		<path fill="#000002" d="M65.685,92.006H76.7v1.088h-2.176c-0.612,0-0.816,0.204-0.816,0.816v15.57
			c0,4.182,1.564,5.983,4.861,5.983c3.4,0,5.813-2.72,5.813-5.983V96.154c0-2.176-1.768-3.061-3.536-3.061v-1.088h8.431v1.088
			c-1.768,0-3.536,0.885-3.536,3.061v12.986c0,4.25-2.992,7.684-8.125,7.684c-6.459,0-8.941-4.284-8.941-8.67V93.91
			c0-0.612-0.204-0.816-0.816-0.816h-2.176V92.006z"/>
		<path fill="#000002" d="M94.856,115.124h2.38c0.612,0,0.815-0.306,0.815-0.918V93.91c0-0.612-0.204-0.816-0.815-0.816h-2.38
			v-1.088h11.423v1.088h-2.38c-0.612,0-0.816,0.204-0.816,0.816v20.296c0,0.612,0.204,0.918,0.816,0.918h3.434
			c2.788,0,4.521-4.046,5.1-5.915c0.374-1.258,0.85-3.468,0.85-3.468h1.088l-0.271,10.471H94.856V115.124z"/>
		<path fill="#000002" d="M119.982,115.124h2.38c0.612,0,0.815-0.204,0.815-0.815V93.91c0-0.612-0.204-0.816-0.815-0.816h-2.38
			v-1.088h12.646c5.644,0,10.267,4.828,10.267,11.899s-4.624,12.307-10.267,12.307h-12.646V115.124z M129.025,115.124h3.026
			c2.72,0,5.065-1.836,5.065-5.915V99.01c0-4.08-2.346-5.916-5.065-5.916h-3.026c-0.612,0-0.816,0.204-0.816,0.816v20.398
			C128.209,114.92,128.414,115.124,129.025,115.124z"/>
		<path fill="#000002" d="M160.986,115.124h2.38c0.612,0,0.815-0.204,0.815-0.815V93.91c0-0.612-0.204-0.816-0.815-0.816h-2.38
			v-1.088h11.015c4.828,0,8.159,2.244,8.159,5.984c0,3.264-2.72,4.997-6.255,5.405v0.237c3.196,0.578,5.507,2.04,5.507,6.29v3.773
			c0,1.02,0.34,1.428,0.952,1.428c1.292,0,1.7-2.618,1.7-5.031h1.088c0,3.943-0.782,6.935-4.045,6.935
			c-2.788,0-4.726-1.631-4.726-5.099v-4.216c0-1.972-0.884-3.876-3.264-3.876h-1.904v10.472c0,0.611,0.204,0.815,0.816,0.815h2.992
			v1.088h-12.035V115.124z M171.491,102.749c2.55,0,3.229-2.176,3.229-5.031s-0.68-4.624-3.229-4.624h-1.462
			c-0.612,0-0.816,0.204-0.816,0.816v8.839H171.491z"/>
		<path fill="#000002" d="M188.186,115.124h2.379c0.612,0,0.816-0.204,0.816-0.815V93.91c0-0.612-0.204-0.816-0.816-0.816h-2.379
			v-1.088h19.106l0.204,7.888h-1.088c0,0-0.34-2.176-1.36-3.876c-0.952-1.665-2.312-2.924-4.08-2.924h-3.74
			c-0.612,0-0.816,0.204-0.816,0.816v9.383h1.734c1.904,0,3.399-2.72,3.399-4.691h1.088v10.641h-1.088
			c0-2.006-1.496-4.725-3.399-4.725h-1.734v9.791c0,0.611,0.204,0.815,0.816,0.815h3.706c2.788,0,4.386-2.991,5.032-4.827
			c0.442-1.258,0.714-3.468,0.714-3.468h1.088l-0.204,9.383h-19.378V115.124z"/>
		<path fill="#000002" d="M224.36,91.395c5.371,0,10.063,6.188,10.063,12.715c0,4.963-2.72,9.791-6.494,11.797
			c0.17,2.481,1.054,4.045,2.856,4.045c1.904,0,2.686-1.869,2.686-4.012c0-0.543-0.034-1.02-0.102-1.631h1.02
			c0.102,0.646,0.17,1.699,0.17,2.617c0,1.394-0.068,3.298-0.816,4.861c-0.714,1.496-2.074,2.516-3.739,2.516
			c-1.938,0-3.978-1.563-3.978-4.352c0-0.544,0-2.107,0.136-3.365c-0.578,0.17-1.258,0.238-1.768,0.238
			c-5.507,0-10.097-6.29-10.097-12.715C214.297,97.582,218.989,91.395,224.36,91.395z M221.267,114.342l0.068-0.033
			c-0.068-0.272-0.102-0.442-0.102-0.816c0-1.394,1.02-2.924,2.992-2.924c1.972,0,3.196,1.496,3.468,3.229h0.102
			c0.612-1.224,0.85-2.651,0.85-4.589V99.01c0-4.896-1.7-6.527-4.283-6.527c-2.584,0-4.284,1.632-4.284,6.527v10.199
			C220.077,111.792,220.586,113.424,221.267,114.342z M223.204,115.6c0.204,0.103,0.748,0.137,1.156,0.137
			c0.612,0,1.292-0.137,1.87-0.374c0-1.802-0.204-3.672-2.38-3.672c-0.986,0-1.666,1.02-1.666,1.972
			C222.185,114.784,222.626,115.362,223.204,115.6z"/>
		<path fill="#000002" d="M240.817,92.006h11.015v1.088h-2.176c-0.612,0-0.816,0.204-0.816,0.816v15.57
			c0,4.182,1.564,5.983,4.861,5.983c3.4,0,5.813-2.72,5.813-5.983V96.154c0-2.176-1.768-3.061-3.536-3.061v-1.088h8.431v1.088
			c-1.768,0-3.536,0.885-3.536,3.061v12.986c0,4.25-2.992,7.684-8.125,7.684c-6.459,0-8.941-4.284-8.941-8.67V93.91
			c0-0.612-0.204-0.816-0.815-0.816h-2.176V92.006z"/>
		<path fill="#000002" d="M269.989,115.124h2.379c0.612,0,0.816-0.204,0.816-0.815V93.91c0-0.612-0.204-0.816-0.816-0.816h-2.379
			v-1.088h11.423v1.088h-2.38c-0.612,0-0.816,0.204-0.816,0.816v20.398c0,0.611,0.204,0.815,0.816,0.815h2.38v1.088h-11.423V115.124
			z"/>
		<path fill="#000002" d="M287.329,115.124h2.379c0.612,0,0.816-0.204,0.816-0.815V93.91c0-0.612-0.204-0.816-0.816-0.816h-2.379
			v-1.088h11.015c4.828,0,8.159,2.244,8.159,5.984c0,3.264-2.72,4.997-6.255,5.405v0.237c3.196,0.578,5.508,2.04,5.508,6.29v3.773
			c0,1.02,0.34,1.428,0.952,1.428c1.292,0,1.7-2.618,1.7-5.031h1.088c0,3.943-0.782,6.935-4.045,6.935
			c-2.788,0-4.726-1.631-4.726-5.099v-4.216c0-1.972-0.884-3.876-3.264-3.876h-1.904v10.472c0,0.611,0.204,0.815,0.816,0.815h2.992
			v1.088h-12.035V115.124z M297.833,102.749c2.55,0,3.229-2.176,3.229-5.031s-0.68-4.624-3.229-4.624h-1.462
			c-0.612,0-0.816,0.204-0.816,0.816v8.839H297.833z"/>
		<path fill="#000002" d="M314.528,115.124h2.38c0.612,0,0.815-0.204,0.815-0.815V93.91c0-0.612-0.204-0.816-0.815-0.816h-2.38
			v-1.088h19.106l0.204,7.888h-1.088c0,0-0.34-2.176-1.36-3.876c-0.952-1.665-2.312-2.924-4.08-2.924h-3.74
			c-0.612,0-0.816,0.204-0.816,0.816v9.383h1.734c1.904,0,3.399-2.72,3.399-4.691h1.088v10.641h-1.088
			c0-2.006-1.496-4.725-3.399-4.725h-1.734v9.791c0,0.611,0.204,0.815,0.816,0.815h3.706c2.788,0,4.386-2.991,5.032-4.827
			c0.442-1.258,0.714-3.468,0.714-3.468h1.088l-0.204,9.383h-19.378V115.124z"/>
		<path fill="#000002" d="M351.656,115.124h1.156c1.462,0,2.516-1.394,2.992-2.754l7.173-20.976h1.427l7.275,21.996
			c0.408,1.189,1.122,1.733,2.006,1.733h1.36v1.088h-11.933v-1.088h2.448c0.544,0,0.918-0.51,0.918-1.088
			c0-0.204-0.102-0.68-0.204-0.986l-1.088-3.264h-7.139l-0.714,2.074c-0.238,0.612-0.374,1.292-0.374,1.733
			c0,0.748,0.646,1.53,1.768,1.53h1.598v1.088h-8.669V115.124z M364.778,108.528l-3.093-9.349l-3.196,9.349H364.778z"/>
		<path fill="#000002" d="M392.149,115.124h2.38c0.612,0,0.816-0.204,0.816-0.815V93.91c0-0.612-0.204-0.816-0.816-0.816h-2.38
			v-1.088h11.151v1.088h-2.107c-0.612,0-0.816,0.204-0.816,0.816v10.062l6.562-7.615c0.578-0.68,0.85-1.088,0.85-1.835
			c0-0.816-0.476-1.429-1.224-1.429h-0.986v-1.088h8.397v1.088h-1.189c-1.055,0-2.143,0.885-2.822,1.7l-4.556,5.27l7.174,13.564
			c0.544,1.054,0.918,1.496,2.039,1.496h0.918v1.088h-10.675v-1.088h1.36c0.408,0,0.714-0.34,0.714-0.714
			c0-0.204-0.068-0.646-0.17-0.85l-4.93-9.384l-1.462,1.666v8.466c0,0.611,0.204,0.815,0.816,0.815h2.107v1.088h-11.151V115.124z"/>
		<path fill="#000002" d="M420.709,115.124h2.38c0.612,0,0.816-0.204,0.816-0.815V93.91c0-0.612-0.204-0.816-0.816-0.816h-2.38
			v-1.088h11.423v1.088h-2.38c-0.611,0-0.815,0.204-0.815,0.816v20.398c0,0.611,0.204,0.815,0.815,0.815h2.38v1.088h-11.423V115.124
			z"/>
		<path fill="#000002" d="M437.573,115.124c2.448,0,4.283-1.428,4.283-3.536V97.072c0-0.511-0.067-0.612-0.374-1.055l-1.359-2.039
			c-0.442-0.646-0.85-0.885-1.938-0.885h-0.612v-1.088h7.547l10.879,15.537V96.63c0-2.107-1.835-3.536-4.283-3.536v-1.088h9.927
			v1.088c-2.447,0-4.283,1.429-4.283,3.536v20.194h-1.292l-12.715-18.188h-0.136v12.952c0,2.108,1.836,3.536,4.283,3.536v1.088
			h-9.927V115.124z"/>
		<path fill="#000002" d="M466.404,115.124h2.38c0.612,0,0.816-0.204,0.816-0.815V93.91c0-0.612-0.204-0.816-0.816-0.816h-2.38
			v-1.088h12.647c5.644,0,10.267,4.828,10.267,11.899s-4.623,12.307-10.267,12.307h-12.647V115.124z M475.447,115.124h3.026
			c2.72,0,5.065-1.836,5.065-5.915V99.01c0-4.08-2.346-5.916-5.065-5.916h-3.026c-0.611,0-0.815,0.204-0.815,0.816v20.398
			C474.632,114.92,474.836,115.124,475.447,115.124z"/>
		<path fill="#000002" d="M517.709,91.395c5.372,0,10.063,6.188,10.063,12.715s-4.691,12.715-10.063,12.715
			c-5.371,0-10.062-6.188-10.062-12.715S512.338,91.395,517.709,91.395z M517.709,115.736c2.584,0,4.284-1.632,4.284-6.527V99.01
			c0-4.896-1.7-6.527-4.284-6.527c-2.583,0-4.283,1.632-4.283,6.527v10.199C513.426,114.104,515.126,115.736,517.709,115.736z"/>
		<path fill="#000002" d="M533.962,115.124h2.38c0.612,0,0.816-0.204,0.816-0.815V93.91c0-0.612-0.204-0.816-0.816-0.816h-2.38
			v-1.088h19.175l0.271,9.315h-1.088c0,0-0.374-2.72-1.224-4.521c-0.816-1.733-2.448-3.706-4.624-3.706h-3.467
			c-0.612,0-0.816,0.204-0.816,0.816v9.383h1.733c1.904,0,3.4-2.72,3.4-4.691h1.088v10.641h-1.088c0-2.006-1.496-4.725-3.4-4.725
			h-1.733v9.791c0,0.611,0.204,0.815,0.816,0.815h3.093v1.088h-12.137V115.124z"/>
	</g>
	<g clip-path="url(#SVGID_4_)">
		<path fill="#000002" d="M2.105,161.126h2.38c0.612,0,0.815-0.204,0.815-0.815v-20.398c0-0.612-0.204-0.816-0.815-0.816h-2.38
			v-1.088H13.12c4.828,0,8.159,2.244,8.159,5.984c0,3.264-2.72,4.997-6.255,5.405v0.237c3.196,0.578,5.507,2.04,5.507,6.29v3.773
			c0,1.02,0.34,1.428,0.952,1.428c1.292,0,1.7-2.618,1.7-5.031h1.088c0,3.943-0.782,6.935-4.045,6.935
			c-2.788,0-4.726-1.631-4.726-5.099v-4.216c0-1.972-0.884-3.876-3.264-3.876h-1.904v10.472c0,0.611,0.204,0.815,0.816,0.815h2.992
			v1.088H2.105V161.126z M12.61,148.751c2.55,0,3.229-2.176,3.229-5.031s-0.68-4.624-3.229-4.624h-1.462
			c-0.612,0-0.816,0.204-0.816,0.816v8.839H12.61z"/>
		<path fill="#000002" d="M29.476,138.008H40.49v1.088h-2.176c-0.612,0-0.816,0.204-0.816,0.816v15.57
			c0,4.182,1.564,5.983,4.861,5.983c3.4,0,5.813-2.72,5.813-5.983v-13.326c0-2.176-1.768-3.061-3.536-3.061v-1.088h8.431v1.088
			c-1.768,0-3.536,0.885-3.536,3.061v12.986c0,4.25-2.992,7.684-8.125,7.684c-6.459,0-8.941-4.284-8.941-8.67v-14.244
			c0-0.612-0.204-0.816-0.815-0.816h-2.176V138.008z"/>
		<path fill="#000002" d="M58.851,138.008h20.398l0.271,10.132h-1.088c0,0-0.136-1.156-0.714-3.196
			c-0.782-2.787-2.583-5.848-4.896-5.848c-0.748,0-1.258,0.408-1.258,1.156v20.059c0,0.611,0.204,0.815,0.816,0.815h2.72v1.088
			H62.999v-1.088h2.72c0.612,0,0.816-0.204,0.816-0.815v-20.059c0-0.748-0.51-1.156-1.258-1.156c-2.312,0-4.114,3.061-4.896,5.848
			c-0.578,2.04-0.714,3.196-0.714,3.196h-1.088L58.851,138.008z"/>
		<path fill="#000002" d="M85.371,161.126h2.379c0.612,0,0.816-0.204,0.816-0.815v-20.398c0-0.612-0.204-0.816-0.816-0.816h-2.379
			v-1.088h11.423v1.088h-2.38c-0.612,0-0.816,0.204-0.816,0.816v8.975h8.023v-8.975c0-0.612-0.204-0.816-0.816-0.816h-2.447v-1.088
			h11.491v1.088h-2.38c-0.612,0-0.816,0.204-0.816,0.816v20.398c0,0.611,0.204,0.815,0.816,0.815h2.38v1.088H98.425v-1.088h2.379
			c0.612,0,0.816-0.204,0.816-0.815v-10.199h-8.023v10.199c0,0.611,0.204,0.815,0.816,0.815h2.38v1.088H85.371V161.126z"/>
		<path fill="#000002" d="M115.766,161.126h2.379c0.612,0,0.816-0.306,0.816-0.918v-20.296c0-0.612-0.204-0.816-0.816-0.816h-2.379
			v-1.088h11.423v1.088h-2.38c-0.612,0-0.816,0.204-0.816,0.816v20.296c0,0.612,0.204,0.918,0.816,0.918h3.434
			c2.788,0,4.521-4.046,5.1-5.915c0.374-1.258,0.85-3.468,0.85-3.468h1.088l-0.272,10.471h-19.242V161.126z"/>
		<path fill="#000002" d="M140.892,161.126h2.379c0.612,0,0.816-0.204,0.816-0.815v-20.398c0-0.612-0.204-0.816-0.816-0.816h-2.379
			v-1.088h19.106l0.204,7.888h-1.088c0,0-0.34-2.176-1.36-3.876c-0.952-1.665-2.312-2.924-4.08-2.924h-3.74
			c-0.612,0-0.816,0.204-0.816,0.816v9.383h1.734c1.904,0,3.399-2.72,3.399-4.691h1.088v10.641h-1.088
			c0-2.006-1.496-4.725-3.399-4.725h-1.734v9.791c0,0.611,0.204,0.815,0.816,0.815h3.706c2.788,0,4.386-2.991,5.032-4.827
			c0.442-1.258,0.714-3.468,0.714-3.468h1.088l-0.204,9.383h-19.378V161.126z"/>
		<path fill="#000002" d="M168.771,151.811c0.952,4.998,3.978,9.928,7.854,9.928c4.08,0,4.657-2.448,4.657-3.876
			c0-1.258-1.088-2.176-2.448-3.06l-7.275-4.691c-1.7-1.088-3.808-3.06-3.808-6.188c0-4.691,3.264-6.527,6.663-6.527
			c2.244,0,4.147,1.224,4.828,1.699c0.442,0.341,0.884,0.612,1.224,0.612c0.442,0,0.68-0.34,0.748-0.782l0.204-0.918h1.088
			l0.34,8.84h-1.088c-1.258-4.691-4.284-8.363-7.615-8.363c-2.414,0-3.536,0.952-3.536,2.855c0,1.564,1.462,2.89,3.026,3.91
			l7.309,4.725c1.87,1.225,3.06,3.57,3.06,5.848c0,3.366-2.38,7.004-7.581,7.004c-2.176,0-3.74-0.748-4.658-1.496
			c-0.884-0.68-1.326-1.02-1.768-1.02c-0.476,0-0.782,0.407-0.884,1.155l-0.17,1.088h-1.054l-0.204-10.743H168.771z"/>
		<path fill="#000002" d="M192.231,151.811c0.952,4.998,3.978,9.928,7.854,9.928c4.08,0,4.657-2.448,4.657-3.876
			c0-1.258-1.088-2.176-2.448-3.06l-7.275-4.691c-1.7-1.088-3.808-3.06-3.808-6.188c0-4.691,3.264-6.527,6.664-6.527
			c2.244,0,4.147,1.224,4.828,1.699c0.442,0.341,0.884,0.612,1.224,0.612c0.442,0,0.68-0.34,0.748-0.782l0.204-0.918h1.088
			l0.34,8.84h-1.088c-1.258-4.691-4.284-8.363-7.615-8.363c-2.414,0-3.536,0.952-3.536,2.855c0,1.564,1.462,2.89,3.026,3.91
			l7.309,4.725c1.87,1.225,3.06,3.57,3.06,5.848c0,3.366-2.379,7.004-7.581,7.004c-2.176,0-3.74-0.748-4.658-1.496
			c-0.884-0.68-1.326-1.02-1.768-1.02c-0.476,0-0.782,0.407-0.884,1.155l-0.17,1.088h-1.054l-0.204-10.743H192.231z"/>
		<path fill="#000002" d="M224.939,161.126h1.156c1.462,0,2.516-1.394,2.992-2.754l7.173-20.976h1.428l7.275,21.996
			c0.408,1.189,1.122,1.733,2.005,1.733h1.36v1.088h-11.933v-1.088h2.448c0.544,0,0.918-0.51,0.918-1.088
			c0-0.204-0.102-0.68-0.204-0.986l-1.088-3.264h-7.139l-0.714,2.074c-0.238,0.612-0.374,1.292-0.374,1.733
			c0,0.748,0.646,1.53,1.768,1.53h1.598v1.088h-8.669V161.126z M238.062,154.53l-3.094-9.349l-3.196,9.349H238.062z"/>
		<path fill="#000002" d="M253.091,161.126c2.448,0,4.284-1.428,4.284-3.536v-14.516c0-0.511-0.068-0.612-0.374-1.055l-1.36-2.039
			c-0.442-0.646-0.85-0.885-1.938-0.885h-0.612v-1.088h7.547l10.879,15.537v-10.913c0-2.107-1.836-3.536-4.284-3.536v-1.088h9.927
			v1.088c-2.448,0-4.284,1.429-4.284,3.536v20.194h-1.292l-12.715-18.188h-0.136v12.952c0,2.108,1.835,3.536,4.284,3.536v1.088
			h-9.927V161.126z"/>
		<path fill="#000002" d="M281.923,161.126h2.38c0.612,0,0.815-0.204,0.815-0.815v-20.398c0-0.612-0.204-0.816-0.815-0.816h-2.38
			v-1.088h12.646c5.644,0,10.267,4.828,10.267,11.899s-4.624,12.307-10.267,12.307h-12.646V161.126z M290.966,161.126h3.026
			c2.72,0,5.065-1.836,5.065-5.915v-10.199c0-4.08-2.346-5.916-5.065-5.916h-3.026c-0.612,0-0.816,0.204-0.816,0.816v20.398
			C290.15,160.922,290.354,161.126,290.966,161.126z"/>
	</g>
</g>
<g>
	<path fill="#231F20" d="M321.529,145.005c0-0.56,0.24-0.8,0.8-0.8h3.161c0.56,0,0.8,0.24,0.8,0.8v0.341c0,0.56-0.24,0.8-0.8,0.8
		h-1.82v3.961h1.72c0.56,0,0.8,0.24,0.8,0.8v0.34c0,0.561-0.24,0.801-0.8,0.801h-1.72v4.221h1.86c0.56,0,0.8,0.24,0.8,0.8v0.341
		c0,0.56-0.24,0.8-0.8,0.8h-3.201c-0.56,0-0.8-0.24-0.8-0.8V145.005z"/>
	<path fill="#231F20" d="M337.469,145.005c0-0.56,0.24-0.8,0.8-0.8h0.54c0.56,0,0.8,0.24,0.8,0.8v11.263h1.56
		c0.56,0,0.8,0.24,0.8,0.8v0.341c0,0.56-0.24,0.8-0.8,0.8h-2.9c-0.56,0-0.8-0.24-0.8-0.8V145.005z"/>
	<path fill="#231F20" d="M357.75,158.208c-0.52,0-0.74-0.2-0.8-0.7l-0.18-1.5h-2.221l-0.2,1.5c-0.06,0.5-0.28,0.7-0.78,0.7h-0.36
		c-0.62,0-0.88-0.3-0.78-0.92l1.761-12.403c0.08-0.479,0.3-0.68,0.8-0.68h1.44c0.5,0,0.72,0.2,0.8,0.68l1.78,12.403
		c0.1,0.62-0.16,0.92-0.78,0.92H357.75z M356.53,154.107l-0.88-7.082l-0.88,7.082H356.53z"/>
	<path fill="#231F20" d="M374.891,151.007c0.82,0.279,1.22,0.88,1.22,2.021v2.58c0,1.74-0.86,2.601-2.601,2.601h-2.7
		c-0.561,0-0.8-0.24-0.8-0.8v-12.403c0-0.56,0.239-0.8,0.8-0.8h2.66c1.74,0,2.601,0.86,2.601,2.601v2.061
		C376.07,150.106,375.65,150.727,374.891,151.007z M373.95,146.886c0-0.54-0.26-0.801-0.8-0.801h-1.021v4.081h0.94
		c0.6,0,0.88-0.3,0.88-0.88V146.886z M372.13,151.986v4.341h1.061c0.54,0,0.8-0.26,0.8-0.8v-2.66c0-0.601-0.28-0.881-0.88-0.881
		H372.13z"/>
	<path fill="#231F20" d="M393.61,155.728c0,1.74-0.86,2.601-2.601,2.601h-1.141c-1.74,0-2.6-0.86-2.6-2.601v-9.042
		c0-1.74,0.859-2.601,2.6-2.601h1.141c1.74,0,2.601,0.86,2.601,2.601V155.728z M391.47,146.785c0-0.56-0.26-0.819-0.8-0.819h-0.44
		c-0.56,0-0.82,0.26-0.82,0.819v8.843c0,0.56,0.261,0.819,0.82,0.819h0.44c0.54,0,0.8-0.26,0.8-0.819V146.785z"/>
	<path fill="#231F20" d="M409.75,151.606c0.88,0.24,1.24,0.78,1.24,1.841v3.961c0,0.56-0.24,0.8-0.8,0.8h-0.54
		c-0.561,0-0.801-0.24-0.801-0.8v-3.921c0-0.62-0.279-0.9-0.899-0.9h-0.961v4.821c0,0.56-0.239,0.8-0.8,0.8h-0.54
		c-0.561,0-0.8-0.24-0.8-0.8v-12.403c0-0.56,0.239-0.8,0.8-0.8h2.721c1.74,0,2.601,0.86,2.601,2.601v2.641
		C410.971,150.687,410.53,151.286,409.75,151.606z M408.83,146.905c0-0.54-0.26-0.8-0.8-0.8h-1.041v4.621h0.961
		c0.6,0,0.88-0.28,0.88-0.86V146.905z"/>
	<path fill="#231F20" d="M427.31,158.208c-0.521,0-0.74-0.2-0.801-0.7l-0.18-1.5h-2.221l-0.2,1.5c-0.06,0.5-0.28,0.7-0.78,0.7
		h-0.359c-0.62,0-0.881-0.3-0.78-0.92l1.76-12.403c0.08-0.479,0.301-0.68,0.801-0.68h1.44c0.5,0,0.72,0.2,0.8,0.68l1.78,12.403
		c0.1,0.62-0.16,0.92-0.78,0.92H427.31z M426.089,154.107l-0.88-7.082l-0.881,7.082H426.089z"/>
	<path fill="#231F20" d="M442.389,157.408c0,0.56-0.24,0.8-0.8,0.8h-0.54c-0.561,0-0.801-0.24-0.801-0.8v-11.263h-1.12
		c-0.56,0-0.8-0.24-0.8-0.8v-0.341c0-0.56,0.24-0.8,0.8-0.8h4.381c0.561,0,0.801,0.24,0.801,0.8v0.341c0,0.56-0.24,0.8-0.801,0.8
		h-1.12V157.408z"/>
	<path fill="#231F20" d="M455.148,145.005c0-0.56,0.239-0.8,0.8-0.8h3.16c0.561,0,0.801,0.24,0.801,0.8v0.341
		c0,0.56-0.24,0.8-0.801,0.8h-1.82v3.961h1.721c0.561,0,0.8,0.24,0.8,0.8v0.34c0,0.561-0.239,0.801-0.8,0.801h-1.721v4.221h1.86
		c0.561,0,0.801,0.24,0.801,0.8v0.341c0,0.56-0.24,0.8-0.801,0.8h-3.2c-0.561,0-0.8-0.24-0.8-0.8V145.005z"/>
	<path fill="#231F20" d="M488.448,151.026c0.94,0.681,1.24,1.28,1.24,2.421v2.28c0,1.74-0.86,2.601-2.601,2.601h-0.939
		c-1.741,0-2.581-0.86-2.581-2.581v-2.16c0-0.56,0.24-0.8,0.8-0.8h0.48c0.561,0,0.8,0.24,0.8,0.8v2.08
		c0,0.541,0.261,0.801,0.82,0.801h0.28c0.561,0,0.82-0.26,0.82-0.801v-1.92c0-0.58-0.2-0.84-0.601-1.141l-2.16-1.58
		c-0.96-0.68-1.24-1.34-1.24-2.421v-1.92c0-1.74,0.86-2.601,2.601-2.601h0.9c1.72,0,2.58,0.86,2.58,2.581v1.74
		c0,0.56-0.24,0.8-0.8,0.8h-0.5c-0.561,0-0.801-0.24-0.801-0.8v-1.661c0-0.54-0.26-0.8-0.8-0.8h-0.26c-0.54,0-0.801,0.26-0.801,0.8
		v1.561c0,0.58,0.2,0.86,0.601,1.141L488.448,151.026z"/>
	<path fill="#231F20" d="M500.848,145.005c0-0.56,0.239-0.8,0.8-0.8h3.16c0.561,0,0.801,0.24,0.801,0.8v0.341
		c0,0.56-0.24,0.8-0.801,0.8h-1.82v3.961h1.721c0.561,0,0.8,0.24,0.8,0.8v0.34c0,0.561-0.239,0.801-0.8,0.801h-1.721v4.221h1.86
		c0.561,0,0.801,0.24,0.801,0.8v0.341c0,0.56-0.24,0.8-0.801,0.8h-3.2c-0.561,0-0.8-0.24-0.8-0.8V145.005z"/>
	<path fill="#231F20" d="M520.888,153.267c0-0.56,0.24-0.8,0.801-0.8h0.5c0.56,0,0.8,0.24,0.8,0.8v2.461
		c0,1.74-0.86,2.601-2.601,2.601h-1.06c-1.741,0-2.601-0.86-2.601-2.601v-9.042c0-1.74,0.859-2.601,2.601-2.601h1.04
		c1.74,0,2.58,0.84,2.58,2.581v2.06c0,0.561-0.24,0.801-0.8,0.801h-0.5c-0.561,0-0.801-0.24-0.801-0.801v-1.94
		c0-0.56-0.26-0.819-0.8-0.819h-0.36c-0.56,0-0.82,0.26-0.82,0.819v8.843c0,0.56,0.261,0.819,0.82,0.819h0.4
		c0.54,0,0.8-0.26,0.8-0.819V153.267z"/>
	<path fill="#231F20" d="M539.088,151.606c0.88,0.24,1.24,0.78,1.24,1.841v3.961c0,0.56-0.24,0.8-0.8,0.8h-0.54
		c-0.561,0-0.801-0.24-0.801-0.8v-3.921c0-0.62-0.279-0.9-0.899-0.9h-0.961v4.821c0,0.56-0.239,0.8-0.8,0.8h-0.54
		c-0.561,0-0.8-0.24-0.8-0.8v-12.403c0-0.56,0.239-0.8,0.8-0.8h2.721c1.74,0,2.601,0.86,2.601,2.601v2.641
		C540.309,150.687,539.868,151.286,539.088,151.606z M538.168,146.905c0-0.54-0.26-0.8-0.8-0.8h-1.041v4.621h0.961
		c0.6,0,0.88-0.28,0.88-0.86V146.905z"/>
	<path fill="#231F20" d="M551.566,145.005c0-0.56,0.24-0.8,0.801-0.8h3.16c0.561,0,0.801,0.24,0.801,0.8v0.341
		c0,0.56-0.24,0.8-0.801,0.8h-1.82v3.961h1.721c0.561,0,0.8,0.24,0.8,0.8v0.34c0,0.561-0.239,0.801-0.8,0.801h-1.721v4.221h1.86
		c0.561,0,0.801,0.24,0.801,0.8v0.341c0,0.56-0.24,0.8-0.801,0.8h-3.2c-0.561,0-0.801-0.24-0.801-0.8V145.005z"/>
	<path fill="#231F20" d="M571.628,153.267c0-0.56,0.24-0.8,0.801-0.8h0.5c0.56,0,0.8,0.24,0.8,0.8v2.461
		c0,1.74-0.86,2.601-2.601,2.601h-1.06c-1.741,0-2.601-0.86-2.601-2.601v-9.042c0-1.74,0.859-2.601,2.601-2.601h1.04
		c1.74,0,2.58,0.84,2.58,2.581v2.06c0,0.561-0.24,0.801-0.8,0.801h-0.5c-0.561,0-0.801-0.24-0.801-0.801v-1.94
		c0-0.56-0.26-0.819-0.8-0.819h-0.36c-0.56,0-0.82,0.26-0.82,0.819v8.843c0,0.56,0.261,0.819,0.82,0.819h0.4
		c0.54,0,0.8-0.26,0.8-0.819V153.267z"/>
	<path fill="#231F20" d="M588.667,157.408c0,0.56-0.24,0.8-0.8,0.8h-0.54c-0.561,0-0.801-0.24-0.801-0.8v-3.981l-2.061-8.222
		c-0.159-0.68,0.101-1,0.78-1h0.521c0.479,0,0.7,0.18,0.8,0.64l1.08,5.302l1.121-5.302c0.1-0.46,0.319-0.64,0.779-0.64h0.4
		c0.681,0,0.94,0.34,0.761,1l-2.041,8.062V157.408z"/>
	<path fill="#231F20" d="M601.747,155.548c0.56,0,0.8,0.239,0.8,0.8v1.061c0,0.56-0.24,0.8-0.8,0.8h-0.421c-0.56,0-0.8-0.24-0.8-0.8
		v-1.061c0-0.561,0.24-0.8,0.8-0.8H601.747z"/>
</g>
<g>
	<defs>
		<rect id="SVGID_5_" width="728" height="185.5"/>
	</defs>
	<clipPath id="SVGID_6_">
		<use xlink:href="#SVGID_5_"  overflow="visible"/>
	</clipPath>
	<line clip-path="url(#SVGID_6_)" fill="none" stroke="#EC1B2E" x1="3.2" y1="185" x2="315.2" y2="185"/>
</g>
<g>
</g>
<g>
</g>
<g>
</g>
<g>
</g>
<g>
</g>
<g>
</g>
<g>
</g>
<g>
</g>
<g>
</g>
<g>
</g>
<g>
</g>
<g>
</g>
<g>
</g>
<g>
</g>
<g>
</g>
</svg>
