<?xml version="1.0" encoding="utf-8"?>
<!-- Generator: Adobe Illustrator 16.2.1, SVG Export Plug-In . SVG Version: 6.00 Build 0)  -->
<!DOCTYPE svg PUBLIC "-//W3C//DTD SVG 1.1//EN" "http://www.w3.org/Graphics/SVG/1.1/DTD/svg11.dtd">
<svg version="1.1" id="Layer_1" xmlns="http://www.w3.org/2000/svg" xmlns:xlink="http://www.w3.org/1999/xlink" x="0px" y="0px"
	 width="129px" height="89.971px" viewBox="296.5 0 129 89.971" enable-background="new 296.5 0 129 89.971" xml:space="preserve">
<g>
	<path fill="#ED1B2F" d="M302.002,2.248c0-0.745,0.391-1.172,1.172-1.172h5.468c0.604,0,0.959,0.354,0.959,0.959v0.07
		c0,0.64-0.355,0.959-0.959,0.959h-4.509v9.196h4.332c0.604,0,0.958,0.354,0.958,0.958v0.071c0,0.604-0.355,0.959-0.958,0.959
		h-4.332v9.692h4.581c0.604,0,0.958,0.319,0.958,0.959v0.07c0,0.604-0.355,0.959-0.958,0.959h-5.539
		c-0.781,0-1.172-0.426-1.172-1.172L302.002,2.248L302.002,2.248z"/>
	<path fill="#ED1B2F" d="M314.25,15.244v9.765c0,0.639-0.355,0.994-0.958,0.994h-0.071c-0.639,0-0.994-0.355-0.994-0.994V2.178
		c0-0.746,0.426-1.172,1.172-1.172h0.639c0.604,0,0.958,0.284,1.136,0.852l5.148,19.14l-0.036-9.445V1.964
		c0-0.604,0.355-0.958,0.994-0.958h0.071c0.604,0,0.958,0.354,0.958,0.958v22.867c0,0.745-0.426,1.172-1.172,1.172h-0.461
		c-0.604,0-0.958-0.284-1.136-0.854l-5.326-19.812L314.25,15.244z"/>
	<path fill="#ED1B2F" d="M326.71,25.932c-0.781,0-1.172-0.426-1.172-1.172V2.248c0-0.745,0.391-1.172,1.172-1.172h3.195
		c3.551,0,5.291,1.739,5.291,5.291V20.64c0,3.551-1.74,5.291-5.291,5.291L326.71,25.932L326.71,25.932z M327.668,3.065v20.878h2.13
		c2.202,0,3.267-1.064,3.267-3.303V6.367c0-2.237-1.065-3.303-3.267-3.303H327.668z"/>
	<path fill="#ED1B2F" d="M351.703,21.777c0,2.876-1.456,4.367-4.367,4.367H346.2c-2.912,0-4.368-1.491-4.368-4.367V5.195
		c0-2.841,1.456-4.332,4.368-4.332h1.136c2.912,0,4.367,1.491,4.367,4.332V21.777z M349.573,5.124c0-1.526-0.746-2.272-2.308-2.272
		h-0.994c-1.562,0-2.308,0.746-2.308,2.272v16.76c0,1.526,0.746,2.272,2.308,2.272h0.994c1.562,0,2.308-0.746,2.308-2.272V5.124z"/>
	<path fill="#ED1B2F" d="M354.825,2.248c0-0.745,0.391-1.172,1.172-1.172h5.291c0.604,0,0.958,0.354,0.958,0.959v0.07
		c0,0.64-0.355,0.959-0.958,0.959h-4.332v9.231h4.154c0.639,0,0.959,0.354,0.959,0.959v0.07c0,0.604-0.32,0.959-0.959,0.959h-4.154
		v10.688c0,0.675-0.355,1.03-1.03,1.03h-0.071c-0.675,0-1.03-0.355-1.03-1.03V2.248L354.825,2.248z"/>
	<path fill="#ED1B2F" d="M370.338,16.273v8.699c0,0.675-0.354,1.03-1.029,1.03h-0.069c-0.677,0-1.03-0.355-1.03-1.03V2.248
		c0-0.745,0.391-1.172,1.172-1.172h3.337c2.912,0,4.476,1.456,4.476,4.332V11.8c0,2.982-1.527,4.474-4.51,4.474L370.338,16.273
		L370.338,16.273z M375.061,5.302c0-1.526-0.852-2.236-2.414-2.236h-2.309V14.32h2.273c1.633,0,2.449-0.815,2.449-2.413V5.302
		L375.061,5.302z"/>
	<path fill="#ED1B2F" d="M387.734,26.003c-0.532,0-0.853-0.284-0.959-0.817l-0.604-3.939h-5.254l-0.604,3.939
		c-0.105,0.533-0.426,0.817-0.957,0.817h-0.071c-0.745,0-1.101-0.427-0.994-1.137l3.799-22.938c0.106-0.675,0.497-0.994,1.172-0.994
		h0.568c0.675,0,1.065,0.319,1.171,0.994l3.8,22.938c0.106,0.71-0.249,1.137-0.993,1.137H387.734z M385.854,19.256l-2.309-14.842
		l-2.344,14.842H385.854z"/>
	<path fill="#ED1B2F" d="M398.207,14.072c1.562,0.427,2.379,1.456,2.379,3.517v7.385c0,0.675-0.355,1.03-1.03,1.03h-0.07
		c-0.675,0-1.029-0.355-1.029-1.03v-7.313c0-1.775-0.853-2.593-2.663-2.593h-2.415v9.906c0,0.675-0.354,1.03-1.028,1.03h-0.07
		c-0.676,0-1.03-0.355-1.03-1.03V2.248c0-0.745,0.392-1.172,1.172-1.172h3.764c2.911,0,4.367,1.456,4.367,4.332v4.758
		C400.55,12.475,399.662,13.54,398.207,14.072z M398.42,5.302c0-1.526-0.746-2.236-2.309-2.236h-2.734v10.049h2.451
		c1.739,0,2.592-0.816,2.592-2.558V5.302z"/>
	<path fill="#ED1B2F" d="M408.323,24.973c0,0.675-0.354,1.03-1.03,1.03h-0.07c-0.675,0-1.028-0.355-1.028-1.03V3.065h-3.056
		c-0.604,0-0.959-0.319-0.959-0.959v-0.07c0-0.604,0.355-0.959,0.959-0.959h8.238c0.604,0,0.959,0.354,0.959,0.959v0.07
		c0,0.64-0.354,0.959-0.959,0.959h-3.054V24.973z"/>
	<path fill="#ED1B2F" d="M419.221,4.627h-1.526c-0.604,0-0.853-0.319-0.853-0.745V3.74c0-0.462,0.248-0.675,0.71-0.816
		c0.854-0.178,1.386-0.391,1.775-0.816c0.105-0.105,0.249-0.249,0.497-0.675c0.213-0.319,0.354-0.497,0.781-0.497h0.105
		c0.319,0,0.568,0.213,0.568,0.604V25.01c0,0.674-0.355,0.994-0.994,0.994h-0.071c-0.639,0-0.994-0.32-0.994-0.994L419.221,4.627
		L419.221,4.627z"/>
</g>
<line fill="none" stroke="#231F20" stroke-width="0.5" x1="343.979" y1="88.795" x2="379.479" y2="88.795"/>
</svg>
