<?xml version="1.0" encoding="utf-8"?>
<!-- Generator: Adobe Illustrator 16.2.1, SVG Export Plug-In . SVG Version: 6.00 Build 0)  -->
<!DOCTYPE svg PUBLIC "-//W3C//DTD SVG 1.1//EN" "http://www.w3.org/Graphics/SVG/1.1/DTD/svg11.dtd">
<svg version="1.1" id="Layer_1" xmlns="http://www.w3.org/2000/svg" xmlns:xlink="http://www.w3.org/1999/xlink" x="0px" y="0px"
	 width="440px" height="162.335px" viewBox="144 0 440 162.335" enable-background="new 144 0 440 162.335" xml:space="preserve">
<g>
	<g>
		<defs>
			<rect id="SVGID_1_" x="159.404" width="409.192" height="162.335"/>
		</defs>
		<clipPath id="SVGID_2_">
			<use xlink:href="#SVGID_1_"  overflow="visible"/>
		</clipPath>
		<path clip-path="url(#SVGID_2_)" d="M557.071,158.473c-0.845,0-1.308-0.5-1.308-1.806c0-4.299,2.866-9.125,5.892-9.125
			c0.679,0,1.306,0.345,1.648,0.811l-1,4.23c-0.307,1.313-1.121,2.808-2.334,3.99C558.66,157.85,557.787,158.473,557.071,158.473
			 M562.618,162.212l4.418-0.653l0.373-1.373c-2.336-0.56-2.612-0.903-2.27-2.181l3.455-12.854l-1.187-0.254l-1.619,1.119
			c-0.993-0.684-1.963-1.148-3.731-1.148c-4.768,0-11.085,5.57-11.085,12.668c0,3.18,1.553,4.985,4.045,4.705
			c2.149-0.25,3.927-2.242,6.228-5.357l0.253,0.127l-0.375,1.307c-0.156,0.562-0.313,1.188-0.313,1.811
			C560.81,161.152,561.559,161.805,562.618,162.212 M535.898,162.212l4.946-0.653l0.373-1.373c-2.336-0.56-2.61-0.869-2.271-2.181
			l2.213-8.282c0.747-2.771-0.25-4.825-2.802-4.825c-2.272,0-3.767,1.84-5.948,4.979l-0.19-0.09c0.873-3.02-0.246-4.889-2.709-4.889
			c-2.27,0-3.607,1.713-6.193,5.168l-0.188-0.093l0.716-2.96v-1.676h-6.598l-0.5,1.799l1.866,0.344l0.623,1.311l-3.489,13.045h4.485
			l2.09-7.877c0.373-1.434,0.898-2.365,2.303-3.77c1.183-1.184,1.683-1.492,2.272-1.492c0.843,0,1.06,0.594,0.779,1.68
			l-3.087,11.459h4.485l2.086-7.816c0.407-1.553,0.899-2.426,2.303-3.829c1.188-1.183,1.688-1.491,2.276-1.491
			c0.844,0,1.09,0.592,0.783,1.678l-2.217,8.162c-0.152,0.623-0.217,1.055-0.217,1.59
			C534.092,161.152,534.838,161.805,535.898,162.212 M500.642,162.212l4.956-0.653l0.365-1.373c-2.332-0.56-2.611-0.869-2.269-2.181
			l2.209-8.282c0.75-2.771-0.246-4.825-2.8-4.825c-2.269,0-3.769,1.84-5.947,4.979l-0.189-0.09c0.869-3.02-0.25-4.889-2.706-4.889
			c-2.271,0-3.611,1.713-6.193,5.168l-0.19-0.093l0.721-2.96v-1.676h-6.604l-0.496,1.799l1.87,0.344l0.619,1.311l-3.485,13.045
			h4.481l2.086-7.877c0.373-1.434,0.902-2.365,2.307-3.77c1.183-1.184,1.683-1.492,2.275-1.492c0.84,0,1.061,0.594,0.775,1.68
			l-3.082,11.459h4.485l2.082-7.816c0.403-1.553,0.898-2.426,2.303-3.829c1.183-1.183,1.683-1.491,2.279-1.491
			c0.836,0,1.086,0.592,0.775,1.678l-2.209,8.162c-0.155,0.623-0.22,1.055-0.22,1.59C498.84,161.152,499.59,161.805,500.642,162.212
			 M465.983,146.949c1.245,0,1.745,0.907,1.745,1.903c0,3.303-3.492,4.39-6.451,4.825
			C461.841,150.438,463.49,146.949,465.983,146.949 M462.523,162.302c2.557,0,5.02-1.272,7.194-2.952l-0.993-1.591
			c-1.741,1.123-3.332,1.777-4.734,1.777c-2.43,0-2.899-1.934-2.899-3.677v-0.563c7.571-0.465,10.9-2.801,10.9-6.258
			c0-2.709-2.303-4.201-5.411-4.201c-5.643,0-10.157,5.262-10.157,11.054C456.423,159.35,458.572,162.302,462.523,162.302
			 M441.004,162.212l4.985-0.653l0.373-1.373c-2.43-0.56-2.709-0.933-2.396-2.181l4.479-17.906v-1.612h-6.972l-0.47,1.8l1.873,0.342
			l0.649,1.308l-3.918,15.729c-0.218,0.933-0.403,1.742-0.403,2.463C439.205,161.152,439.948,161.805,441.004,162.212
			 M423.63,162.212l4.824-0.653l0.374-1.373c-2.333-0.56-2.616-0.869-2.273-2.181l3.054-11.057v-1.611h-6.94l-0.5,1.799l1.865,0.344
			l0.624,1.311l-2.616,9.526c-0.149,0.533-0.246,1.187-0.246,1.712C421.794,161.059,422.573,161.805,423.63,162.212 M428.056,143.21
			c1.709,0,3.074-1.582,3.074-3.016c0-1.429-0.992-2.398-2.455-2.398c-1.709,0-3.082,1.59-3.082,3.02
			C425.593,142.248,426.589,143.21,428.056,143.21 M402.584,142.498c3.357,0,5.229,1.84,5.229,5.791
			c0,3.521-1.464,6.793-3.146,8.476c-1.836,1.836-3.672,2.493-5.979,2.493h-0.594L402.584,142.498z M398.064,161.835
			c5.168,0,8.594-1.43,11.242-4.076c2.456-2.463,3.821-5.98,3.821-9.344c0-5.795-3.948-8.5-9.989-8.5h-7.661l-0.56,2.176l1.869,0.31
			l0.34,1.345l-3.799,14.262l-1.09,1.344l-1.746,0.311l-0.557,2.176h8.129V161.835z M362.198,162.335c3.986,0,6.54-2.082,6.54-5.229
			c0-2.213-1.399-3.553-4.015-5.201c-2.217-1.404-2.965-2.061-2.965-3.087c0-0.903,0.78-1.963,2.59-1.963
			c0.498,0,1.494,0.123,2.147,0.593l-0.404,1.84c0.527,0.899,1.337,1.435,2.396,1.435c1.026,0,1.869-0.812,1.869-2.026
			c0-2.086-3.114-3.857-6.289-3.857c-3.985,0-6.29,2.111-6.29,5.135c0,1.962,1.185,3.396,3.98,5.107
			c2.187,1.34,2.997,2.152,2.997,3.053c0,1.275-1.186,2.184-2.715,2.184c-0.997,0-2.116-0.283-2.926-0.811l0.562-1.869
			c-0.53-0.996-1.367-1.53-2.305-1.53c-1.089,0-1.869,0.874-1.869,2.026C355.504,160.686,359.211,162.335,362.198,162.335
			 M342.673,150.815c3.737-2.146,6.849-5.295,6.883-8.411c0-1.896-1.246-3.02-2.679-3.02c-2.209,0-3.141,2.307-3.329,3.955
			l1.678,1.772c-0.588,1.435-1.99,3.087-3.484,4.396L342.673,150.815z M317.606,161.835h4.482l1.74-6.539
			c0.721-2.674,2.184-4.764,3.987-6.228l1.433,1.403c1.838-0.098,3.52-1.403,3.52-3.27c0-1.246-0.842-2.242-2.146-2.242
			c-1.498,0-2.68,1.213-5.575,5.48l-0.188-0.098l0.842-3.332v-1.676h-6.601l-0.495,1.799l1.862,0.344l0.624,1.311L317.606,161.835z
			 M303.155,146.949c1.245,0,1.747,0.907,1.747,1.903c0,3.303-3.493,4.39-6.45,4.825
			C299.01,150.438,300.663,146.949,303.155,146.949 M299.696,162.302c2.553,0,5.018-1.272,7.196-2.952l-0.998-1.591
			c-1.742,1.123-3.332,1.777-4.733,1.777c-2.432,0-2.897-1.934-2.897-3.677v-0.563c7.569-0.465,10.897-2.801,10.897-6.258
			c0-2.709-2.3-4.201-5.414-4.201c-5.641,0-10.151,5.262-10.151,11.054C293.596,159.35,295.743,162.302,299.696,162.302
			 M272.885,158.632c-0.845,0-1.281-0.842-1.281-2.211c0-4.457,2.558-8.564,4.926-8.564c0.933,0,1.65,0.434,2.488,1.307
			l-1.151,4.611c-0.31,1.213-0.871,2.18-2.242,3.362C274.348,158.23,273.598,158.632,272.885,158.632 M278.552,162.212l4.608-0.653
			l0.373-1.373c-2.338-0.56-2.618-0.869-2.272-2.181l4.515-17.906v-1.612H278.8l-0.467,1.8l1.868,0.342l0.654,1.308l-0.812,3.119
			l-0.34,2.053l-0.156,0.029c-1.058-1.179-2.086-2.052-4.329-2.052c-3.955,0-8.407,5.324-8.407,11.611
			c0,3.489,1.338,5.545,3.829,5.545c2.179,0,3.926-1.869,6.264-4.705l0.248,0.127c-0.248,0.903-0.405,1.93-0.405,2.463
			C276.747,161.152,277.491,161.805,278.552,162.212 M251.646,162.212l4.948-0.653l0.375-1.373
			c-2.336-0.556-2.618-0.869-2.274-2.181l2.213-8.282c0.744-2.771-0.284-4.825-2.928-4.825c-2.366,0-3.702,1.717-6.228,5.172
			l-0.183-0.094l0.713-2.963v-1.676h-6.601l-0.499,1.799l1.87,0.344l0.623,1.311l-3.489,13.045h4.485l2.086-7.877
			c0.371-1.434,0.903-2.365,2.304-3.77c1.151-1.152,1.586-1.492,2.274-1.492c0.745,0,1.276,0.467,0.933,1.68l-2.213,8.16
			c-0.153,0.623-0.218,1.057-0.218,1.59C249.839,161.152,250.587,161.805,251.646,162.212 M217.825,162.271
			c2.366,0,3.737-1.713,6.258-5.168l0.188,0.093l-0.31,1.276c-0.127,0.561-0.218,1.119-0.218,1.652c0,1.026,0.747,1.68,1.804,2.086
			l4.608-0.652l0.37-1.373c-2.334-0.561-2.612-0.869-2.269-2.18l3.394-12.668h-4.483l-2.086,7.869
			c-0.375,1.438-0.901,2.373-2.304,3.772c-1.153,1.151-1.59,1.496-2.278,1.496c-0.744,0-1.244-0.468-0.931-1.681l2.617-9.848v-1.611
			h-6.944l-0.5,1.799l1.87,0.344l0.621,1.311l-2.304,8.66C214.184,160.216,215.178,162.271,217.825,162.271 M194.811,160.062
			c-1.372,0-2.056-1.209-2.056-3.579c0-4.36,2.118-9.377,4.795-9.377c1.469,0,2.09,1.218,2.09,3.582
			C199.64,155.082,197.55,160.062,194.811,160.062 M194.873,162.335c5.295,0,9.56-5.012,9.56-10.463c0-4.33-2.584-7.035-6.944-7.035
			c-5.295,0-9.56,5.009-9.56,10.459C187.928,159.63,190.512,162.335,194.873,162.335 M159.404,161.835h10.771l0.594-2.176
			l-2.523-0.311l-0.339-1.344l1.524-5.762h1.651l1.899,0.438l-0.502,2.34h1.869l2.151-7.941h-1.87l-0.748,2.176l-2.118,0.44h-1.649
			l1.929-7.198h4.825l1.56,1.246l-0.313,2.836h2.618l1.772-6.664h-17.561l-0.558,2.176l1.868,0.31l0.34,1.345l-3.797,14.262
			l-1.09,1.344l-1.743,0.311L159.404,161.835z"/>
	</g>
	<g>
		<defs>
			<rect id="SVGID_3_" x="159.404" width="409.192" height="162.335"/>
		</defs>
		<clipPath id="SVGID_4_">
			<use xlink:href="#SVGID_3_"  overflow="visible"/>
		</clipPath>
		<path clip-path="url(#SVGID_4_)" fill="#EC1B2F" d="M369.488,20.255V4.19c0-2.75-1.407-4.19-4.228-4.19H364.5
			c-2.819,0-4.227,1.44-4.227,4.19v6.676c0,2.202,1.303,3.78,3.917,3.78c1.345,0,2.377-0.377,3.271-0.892v6.605
			c0,1.478-0.756,2.202-2.2,2.202H364.5c-1.478,0-2.2-0.724-2.2-2.202V18.09c0-0.623-0.345-0.97-0.961-0.97h-0.065
			c-0.62,0-0.964,0.347-0.964,0.97v2.269c0,2.817,1.337,4.124,4.19,4.124h0.761C368.081,24.483,369.488,23.042,369.488,20.255
			 M362.301,10.489V4.124c0-1.478,0.724-2.202,2.2-2.202h0.761c1.444,0,2.2,0.724,2.2,2.202v7.844
			c-0.722,0.414-1.787,0.757-2.892,0.757C362.919,12.725,362.301,11.863,362.301,10.489"/>
	</g>
</g>
<line fill="none" stroke="#231F20" stroke-width="0.5" x1="347.738" y1="84.46" x2="382.127" y2="84.46"/>
</svg>
