<?xml version="1.0" encoding="utf-8"?>
<!-- Generator: Adobe Illustrator 16.2.1, SVG Export Plug-In . SVG Version: 6.00 Build 0)  -->
<!DOCTYPE svg PUBLIC "-//W3C//DTD SVG 1.1//EN" "http://www.w3.org/Graphics/SVG/1.1/DTD/svg11.dtd">
<svg version="1.1" id="Layer_1" xmlns="http://www.w3.org/2000/svg" xmlns:xlink="http://www.w3.org/1999/xlink" x="0px" y="0px"
	 width="440px" height="162.335px" viewBox="144 0 440 162.335" enable-background="new 144 0 440 162.335" xml:space="preserve">
<g>
	<g>
		<defs>
			<rect id="SVGID_1_" x="274.217" y="0.757" width="179.448" height="160.821"/>
		</defs>
		<clipPath id="SVGID_2_">
			<use xlink:href="#SVGID_1_"  overflow="visible"/>
		</clipPath>
		<path clip-path="url(#SVGID_2_)" d="M448.216,161.457l4.902-0.648l0.369-1.359c-2.312-0.551-2.586-0.861-2.248-2.154l2.188-8.213
			c0.744-2.742-0.272-4.779-2.897-4.779c-2.345,0-3.666,1.701-6.166,5.125l-0.187-0.092l0.707-2.936v-1.66h-6.539l-0.496,1.781
			l1.853,0.34l0.617,1.297l-3.455,12.93h4.444l2.064-7.809c0.373-1.42,0.895-2.344,2.285-3.734c1.143-1.143,1.574-1.479,2.25-1.479
			c0.744,0,1.266,0.463,0.928,1.668l-2.191,8.082c-0.153,0.617-0.215,1.045-0.215,1.572
			C446.431,160.405,447.167,161.052,448.216,161.457 M416.595,157.753c-0.836,0-1.295-0.498-1.295-1.791
			c0-4.258,2.84-9.037,5.834-9.037c0.674,0,1.295,0.338,1.631,0.801l-0.987,4.193c-0.312,1.301-1.107,2.779-2.31,3.955
			C418.169,157.138,417.304,157.753,416.595,157.753 M422.087,161.457l4.377-0.648l0.371-1.359
			c-2.313-0.555-2.592-0.891-2.248-2.154l3.42-12.739l-1.172-0.253l-1.604,1.109c-0.986-0.676-1.941-1.139-3.697-1.139
			c-4.723,0-10.979,5.52-10.979,12.555c0,3.15,1.537,4.937,4.004,4.658c2.134-0.244,3.894-2.221,6.175-5.309l0.248,0.127
			l-0.373,1.293c-0.152,0.559-0.308,1.174-0.308,1.791C420.3,160.405,421.038,161.052,422.087,161.457 M395.618,161.457l4.901-0.648
			l0.371-1.359c-2.315-0.555-2.598-0.861-2.252-2.154l2.187-8.213c0.746-2.742-0.246-4.779-2.771-4.779
			c-2.25,0-3.735,1.822-5.896,4.933l-0.185-0.088c0.865-2.989-0.245-4.844-2.684-4.844c-2.248,0-3.576,1.696-6.137,5.12
			l-0.187-0.092l0.711-2.932v-1.66h-6.544l-0.487,1.781l1.85,0.34l0.617,1.297l-3.457,12.93h4.441l2.072-7.809
			c0.361-1.42,0.889-2.344,2.281-3.734c1.17-1.172,1.666-1.479,2.25-1.479c0.836,0,1.049,0.59,0.77,1.668l-3.055,11.354h4.445
			l2.063-7.75c0.396-1.537,0.894-2.401,2.281-3.793c1.176-1.172,1.668-1.479,2.256-1.479c0.832,0,1.078,0.59,0.769,1.668
			l-2.188,8.082c-0.156,0.617-0.215,1.045-0.215,1.572C393.829,160.405,394.569,161.052,395.618,161.457 M359.086,161.578
			c3.949,0,6.479-2.062,6.479-5.179c0-2.192-1.384-3.519-3.975-5.153c-2.196-1.392-2.938-2.041-2.938-3.058
			c0-0.896,0.771-1.944,2.564-1.944c0.495,0,1.481,0.123,2.129,0.588l-0.399,1.823c0.521,0.89,1.325,1.419,2.375,1.419
			c1.016,0,1.848-0.802,1.848-2.009c0-2.065-3.083-3.821-6.229-3.821c-3.947,0-6.23,2.092-6.23,5.088
			c0,1.942,1.174,3.362,3.943,5.061c2.165,1.33,2.969,2.133,2.969,3.023c0,1.264-1.173,2.162-2.688,2.162
			c-0.985,0-2.097-0.281-2.899-0.804l0.557-1.853c-0.524-0.985-1.354-1.512-2.281-1.512c-1.078,0-1.853,0.861-1.853,2.004
			C352.455,159.944,356.128,161.578,359.086,161.578 M336.689,161.578c3.946,0,6.476-2.062,6.476-5.179
			c0-2.192-1.384-3.519-3.974-5.153c-2.195-1.392-2.938-2.041-2.938-3.058c0-0.896,0.771-1.944,2.565-1.944
			c0.493,0,1.479,0.123,2.127,0.588l-0.4,1.823c0.522,0.89,1.325,1.419,2.373,1.419c1.02,0,1.853-0.802,1.853-2.009
			c0-2.065-3.085-3.821-6.23-3.821c-3.949,0-6.231,2.092-6.231,5.088c0,1.942,1.173,3.362,3.945,5.061
			c2.165,1.33,2.966,2.133,2.966,3.023c0,1.264-1.173,2.162-2.688,2.162c-0.986,0-2.095-0.281-2.9-0.804l0.557-1.853
			c-0.521-0.985-1.354-1.512-2.28-1.512c-1.08,0-1.854,0.861-1.854,2.004C330.057,159.944,333.729,161.578,336.689,161.578
			 M312.224,159.328c-1.357,0-2.036-1.197-2.036-3.545c0-4.318,2.098-9.291,4.753-9.291c1.45,0,2.067,1.204,2.067,3.553
			C317.009,154.392,314.94,159.328,312.224,159.328 M312.285,161.578c5.245,0,9.471-4.963,9.471-10.365
			c0-4.287-2.561-6.969-6.877-6.969c-5.248,0-9.468,4.961-9.468,10.364C305.41,158.897,307.964,161.578,312.285,161.578
			 M284.677,149.705l2.067-7.777h1.755c2.131,0,3.121,1.107,3.121,2.896c0,1.547-0.744,2.78-1.545,3.522
			c-0.802,0.741-2.037,1.356-4.165,1.356h-1.233V149.705z M274.217,161.087h9.843l0.492-1.879l-1.666-0.34l-0.336-1.269l1.449-5.341
			h0.738c1.48,0,2.162,0.312,2.529,2.253l0.833,4.354l0.958,2.219h5.674l0.557-2.098l-2.096-0.928l-0.678-3.053
			c-0.372-1.635-0.647-3.023-3.486-3.672l0.061-0.277c4.659-0.617,8.11-2.469,8.11-6.727c0-3.304-2.652-4.965-8.016-4.965h-9.472
			l-0.556,2.157l1.851,0.308l0.34,1.326l-3.765,14.135l-1.08,1.326l-1.726,0.307L274.217,161.087z"/>
	</g>
	<g>
		<defs>
			<rect id="SVGID_3_" x="274.217" y="0.757" width="179.448" height="160.821"/>
		</defs>
		<clipPath id="SVGID_4_">
			<use xlink:href="#SVGID_3_"  overflow="visible"/>
		</clipPath>
		<path clip-path="url(#SVGID_4_)" fill="#EC1B2F" d="M360.75,21.13v2.555c0,0.714,0.377,1.124,1.125,1.124h7.083
			c0.613,0,0.92-0.307,0.92-0.917v-0.07c0-0.577-0.307-0.917-0.92-0.917h-6.202v-1.638c0-1.667,0.274-2.418,1.261-3.679l4.061-5.112
			c1.289-1.571,1.664-2.865,1.664-4.433V4.842c0-2.691-1.361-4.085-4.082-4.085h-0.753c-2.729,0-4.086,1.394-4.086,4.085V8.42
			c0,0.647,0.341,0.987,0.949,0.987h0.066c0.613,0,0.954-0.34,0.954-0.987V4.738c0-1.397,0.718-2.077,2.147-2.077h0.617
			c1.433,0,2.146,0.68,2.146,2.077V8.35c0,1.058-0.303,1.875-1.125,2.898l-4.059,5.08C361.127,18.065,360.75,19.256,360.75,21.13"/>
	</g>
</g>
<line fill="none" stroke="#231F20" stroke-width="0.5" x1="348.162" y1="84.429" x2="382.228" y2="84.429"/>
</svg>
