<?xml version="1.0" encoding="utf-8"?>
<!-- Generator: Adobe Illustrator 16.2.1, SVG Export Plug-In . SVG Version: 6.00 Build 0)  -->
<!DOCTYPE svg PUBLIC "-//W3C//DTD SVG 1.1//EN" "http://www.w3.org/Graphics/SVG/1.1/DTD/svg11.dtd">
<svg version="1.1" id="Layer_1" xmlns="http://www.w3.org/2000/svg" xmlns:xlink="http://www.w3.org/1999/xlink" x="0px" y="0px"
	 width="440px" height="162.335px" viewBox="144 0 440 162.335" enable-background="new 144 0 440 162.335" xml:space="preserve">
<g>
	<g>
		<defs>
			<rect id="SVGID_1_" x="315.785" width="96.431" height="162.335"/>
		</defs>
		<clipPath id="SVGID_2_">
			<use xlink:href="#SVGID_1_"  overflow="visible"/>
		</clipPath>
		<path clip-path="url(#SVGID_2_)" d="M404.3,157.468c3.871,0,6.35-2.021,6.35-5.073c0-2.147-1.362-3.444-3.896-5.045
			c-2.147-1.36-2.876-1.998-2.876-2.998c0-0.876,0.757-1.901,2.513-1.901c0.486,0,1.449,0.12,2.082,0.576l-0.395,1.781
			c0.515,0.877,1.305,1.391,2.325,1.391c0.999,0,1.813-0.785,1.813-1.966c0-2.024-3.017-3.745-6.103-3.745
			c-3.867,0-6.103,2.051-6.103,4.983c0,1.907,1.148,3.299,3.864,4.957c2.118,1.304,2.904,2.09,2.904,2.966
			c0,1.238-1.151,2.115-2.633,2.115c-0.968,0-2.055-0.271-2.836-0.786l0.539-1.812c-0.51-0.971-1.327-1.483-2.233-1.483
			c-1.054,0-1.812,0.844-1.812,1.966C397.807,155.871,401.398,157.468,404.3,157.468 M380.939,156.443
			c2.875,0.452,3.266,0.999,3.266,1.689c0,1.062-1.934,2.453-4.838,2.453c-2.387,0-3.658-0.967-3.658-2.357
			c0-0.88,0.334-1.543,1.182-2.452L380.939,156.443z M381.186,149.375c-1.729,0-2.274-1.028-2.274-2.447
			c0-2.365,1.485-4.657,3.391-4.657c1.571,0,2.181,1.119,2.181,2.748C384.48,147.378,382.844,149.375,381.186,149.375
			 M381.243,151.065c3.962,0,7.188-2.114,7.188-5.472c0-0.635-0.147-1.211-0.453-1.781h3.082l0.548-3.268h-0.605l-4.32,1.604
			c-1.086-0.967-2.715-1.633-4.562-1.633c-3.601,0-7.224,2.237-7.224,5.653c0,1.843,1.061,3.263,2.66,4.076
			c-2.899,1.211-3.807,2.178-3.807,3.145c0,0.753,0.605,1.357,1.388,1.781c-2.599,1.09-3.562,2.3-3.562,3.6
			c0,1.995,2.508,3.566,6.916,3.566c4.386,0,9.4-2.295,9.4-5.652c0-1.753-1.511-2.781-3.925-3.205l-3.332-0.574
			c-2.293-0.393-2.688-0.664-2.688-1.091c0-0.269,0.243-0.603,0.963-1.054C379.643,150.972,380.424,151.065,381.243,151.065z
			 M351.929,157.41c2.296,0,3.626-1.662,6.073-5.02l0.183,0.095l-0.301,1.238c-0.123,0.539-0.212,1.086-0.212,1.601
			c0,1,0.726,1.633,1.751,2.024l4.472-0.634l0.359-1.33c-2.265-0.547-2.535-0.848-2.202-2.114l3.293-12.298h-4.354l-2.021,7.643
			c-0.363,1.393-0.875,2.303-2.235,3.656c-1.119,1.122-1.542,1.456-2.21,1.456c-0.724,0-1.208-0.453-0.904-1.634l2.541-9.557v-1.564
			h-6.739l-0.485,1.749l1.814,0.334l0.604,1.267l-2.236,8.405C348.394,155.416,349.359,157.41,351.929,157.41 M315.785,156.986
			h9.759l0.483-1.84l-1.751-0.333l-0.333-1.237l1.631-6.109h6.408l-1.633,6.109l-0.998,1.237l-1.631,0.333l-0.486,1.84H337
			l0.542-2.115l-1.814-0.3l-0.329-1.301l3.687-13.845l1.056-1.299l1.691-0.301l0.545-2.115h-9.759l-0.481,1.844l1.749,0.328
			l0.335,1.242l-1.514,5.687h-6.404l1.511-5.687l0.997-1.242l1.632-0.328l0.484-1.844h-9.759l-0.545,2.115l1.812,0.301l0.33,1.299
			l-3.685,13.845l-1.057,1.301l-1.691,0.3L315.785,156.986z"/>
	</g>
	<g>
		<defs>
			<rect id="SVGID_3_" x="315.785" width="96.431" height="162.335"/>
		</defs>
		<clipPath id="SVGID_4_">
			<use xlink:href="#SVGID_3_"  overflow="visible"/>
		</clipPath>
		<path clip-path="url(#SVGID_4_)" fill="#EC1B2F" d="M369.501,22.622c0,0.634,0.333,0.935,0.931,0.935h0.066
			c0.602,0,0.936-0.301,0.936-0.935V0.568c0-0.369-0.233-0.568-0.534-0.568h-0.101c-0.399,0-0.533,0.167-0.729,0.467
			c-0.234,0.398-0.366,0.532-0.469,0.633c-0.365,0.402-0.866,0.602-1.667,0.764c-0.436,0.134-0.669,0.333-0.669,0.768v0.134
			c0,0.398,0.233,0.699,0.803,0.699h1.435L369.501,22.622L369.501,22.622z M358.921,22.622c0,0.634,0.333,0.935,0.931,0.935h0.067
			c0.601,0,0.935-0.301,0.935-0.935V0.568c0-0.369-0.233-0.568-0.533-0.568h-0.101c-0.399,0-0.53,0.167-0.729,0.467
			c-0.235,0.398-0.367,0.532-0.47,0.633c-0.365,0.402-0.866,0.602-1.667,0.764c-0.435,0.134-0.668,0.333-0.668,0.768v0.134
			c0,0.398,0.234,0.699,0.803,0.699h1.434L358.921,22.622L358.921,22.622z"/>
	</g>
</g>
<line fill="none" stroke="#231F20" stroke-width="0.5" x1="348.04" y1="81.896" x2="381.413" y2="81.896"/>
</svg>
