<?xml version="1.0" encoding="utf-8"?>
<!-- Generator: Adobe Illustrator 16.2.1, SVG Export Plug-In . SVG Version: 6.00 Build 0)  -->
<!DOCTYPE svg PUBLIC "-//W3C//DTD SVG 1.1//EN" "http://www.w3.org/Graphics/SVG/1.1/DTD/svg11.dtd">
<svg version="1.1" id="Layer_1" xmlns="http://www.w3.org/2000/svg" xmlns:xlink="http://www.w3.org/1999/xlink" x="0px" y="0px"
	 width="440px" height="162.335px" viewBox="144 0 440 162.335" enable-background="new 144 0 440 162.335" xml:space="preserve">
<g>
	<g>
		<defs>
			<rect id="SVGID_1_" x="304.568" width="118.862" height="162.335"/>
		</defs>
		<clipPath id="SVGID_2_">
			<use xlink:href="#SVGID_1_"  overflow="visible"/>
		</clipPath>
		<path clip-path="url(#SVGID_2_)" d="M415.92,162.212l4.831-0.654l0.371-1.374c-2.34-0.562-2.616-0.871-2.271-2.183l3.053-11.071
			v-1.614h-6.946l-0.5,1.801l1.868,0.346l0.624,1.312l-2.62,9.538c-0.157,0.535-0.246,1.188-0.246,1.716
			C414.082,161.058,414.859,161.804,415.92,162.212 M420.345,143.187c1.715,0,3.086-1.585,3.086-3.02
			c0-1.433-0.993-2.402-2.463-2.402c-1.714,0-3.083,1.591-3.083,3.021C417.885,142.222,418.883,143.187,420.345,143.187
			 M393.092,158.628c-0.843,0-1.282-0.844-1.282-2.217c0-4.459,2.561-8.574,4.932-8.574c0.938,0,1.656,0.435,2.497,1.31
			l-1.154,4.617c-0.314,1.214-0.874,2.183-2.243,3.366C394.555,158.226,393.809,158.628,393.092,158.628 M398.771,162.212
			l4.609-0.654l0.374-1.374c-2.34-0.562-2.623-0.871-2.274-2.183l4.522-17.932v-1.615h-6.986l-0.463,1.801l1.864,0.346l0.653,1.307
			l-0.807,3.125l-0.345,2.055l-0.157,0.029c-1.061-1.181-2.084-2.055-4.33-2.055c-3.965,0-8.422,5.331-8.422,11.628
			c0,3.494,1.341,5.552,3.834,5.552c2.187,0,3.932-1.871,6.273-4.711l0.246,0.127c-0.246,0.904-0.403,1.932-0.403,2.467
			C396.962,161.151,397.709,161.804,398.771,162.212 M371.827,162.212l4.954-0.654l0.377-1.374
			c-2.338-0.558-2.623-0.871-2.277-2.183l2.214-8.295c0.744-2.773-0.282-4.832-2.934-4.832c-2.368,0-3.706,1.721-6.229,5.181
			l-0.187-0.095l0.716-2.967v-1.679h-6.612l-0.499,1.802l1.872,0.344l0.625,1.312l-3.493,13.062h4.49l2.089-7.89
			c0.375-1.434,0.904-2.368,2.308-3.772c1.152-1.154,1.59-1.494,2.277-1.494c0.746,0,1.277,0.468,0.935,1.682l-2.211,8.172
			c-0.157,0.623-0.218,1.057-0.218,1.592C370.022,161.151,370.767,161.804,371.827,162.212 M341.519,160.061
			c-1.376,0-2.06-1.212-2.06-3.583c0-4.368,2.118-9.391,4.805-9.391c1.464,0,2.089,1.218,2.089,3.586
			C346.353,155.072,344.264,160.061,341.519,160.061 M341.577,162.335c5.304,0,9.573-5.019,9.573-10.478
			c0-4.334-2.586-7.043-6.952-7.043c-5.301,0-9.569,5.015-9.569,10.474C334.629,159.626,337.213,162.335,341.577,162.335
			 M312.52,159.474l2.154-8.023h0.716c2.65,0,3.958,1.248,3.958,3.092c0,2.992-2.026,4.933-6.017,4.933L312.52,159.474
			L312.52,159.474z M315.262,149.208l1.872-6.953h0.438c2.431,0,3.896,0.841,3.896,2.681c0,2.622-1.993,4.272-5.517,4.272H315.262z
			 M304.568,161.835h8.857c6.421,0,11.066-2.361,11.066-6.823c0-2.47-1.902-3.935-4.955-4.496l0.062-0.246
			c3.863-0.405,6.952-2.31,6.952-5.737c0-2.965-2.932-4.646-7.511-4.646h-8.918l-0.562,2.178l1.87,0.312l0.345,1.346l-3.807,14.279
			l-1.091,1.346l-1.745,0.311L304.568,161.835z"/>
	</g>
	<g>
		<defs>
			<rect id="SVGID_3_" x="304.568" width="118.862" height="162.335"/>
		</defs>
		<clipPath id="SVGID_4_">
			<use xlink:href="#SVGID_3_"  overflow="visible"/>
		</clipPath>
		<path clip-path="url(#SVGID_4_)" fill="#EC1B2F" d="M365.368,9.124c-1.515,0-2.448,0.62-3.344,1.371V1.921h5.893
			c0.614,0,0.926-0.344,0.926-0.927V0.923c0-0.617-0.312-0.927-0.926-0.927h-6.647c-0.757,0-1.136,0.415-1.136,1.136V11.84
			c0,0.516,0.277,0.826,0.827,0.826h0.414c0.305,0,0.581-0.07,0.821-0.31c0.896-0.859,1.69-1.345,2.725-1.345
			c1.344,0,2.031,0.793,2.031,2.31v6.856c0,1.48-0.757,2.205-2.204,2.205h-0.551c-1.485,0-2.209-0.725-2.209-2.205v-3.482
			c0-0.621-0.343-0.964-0.959-0.964h-0.068c-0.654,0-0.999,0.344-0.999,0.964v3.448c0,2.754,1.377,4.163,4.132,4.163h0.725
			c2.789,0,4.196-1.442,4.196-4.233v-7.129C369.015,10.529,367.571,9.124,365.368,9.124"/>
	</g>
</g>
<line fill="none" stroke="#231F20" stroke-width="0.5" x1="347.202" y1="84.36" x2="381.636" y2="84.36"/>
</svg>
