<?xml version="1.0" encoding="utf-8"?>
<!-- Generator: Adobe Illustrator 16.2.1, SVG Export Plug-In . SVG Version: 6.00 Build 0)  -->
<!DOCTYPE svg PUBLIC "-//W3C//DTD SVG 1.1//EN" "http://www.w3.org/Graphics/SVG/1.1/DTD/svg11.dtd">
<svg version="1.1" id="Layer_1" xmlns="http://www.w3.org/2000/svg" xmlns:xlink="http://www.w3.org/1999/xlink" x="0px" y="0px"
	 width="440px" height="162.335px" viewBox="144 0 440 162.335" enable-background="new 144 0 440 162.335" xml:space="preserve">
<g>
	<g>
		<defs>
			<rect id="SVGID_1_" x="304.743" width="115.844" height="162.335"/>
		</defs>
		<clipPath id="SVGID_2_">
			<use xlink:href="#SVGID_1_"  overflow="visible"/>
		</clipPath>
		<path clip-path="url(#SVGID_2_)" d="M414.582,146.949c1.242,0,1.742,0.907,1.742,1.903c0,3.304-3.488,4.39-6.447,4.826
			C410.436,150.438,412.086,146.949,414.582,146.949 M411.119,162.302c2.557,0,5.019-1.273,7.198-2.953l-0.997-1.588
			c-1.742,1.123-3.331,1.773-4.734,1.773c-2.429,0-2.899-1.932-2.899-3.674v-0.564c7.571-0.467,10.9-2.803,10.9-6.258
			c0-2.709-2.303-4.201-5.411-4.201c-5.643,0-10.154,5.262-10.154,11.054C405.021,159.349,407.168,162.302,411.119,162.302
			 M388.014,162.272c2.242,0,4.3-0.935,6.354-2.368l-0.967-1.986c-1.811,0.936-2.836,1.307-3.862,1.307
			c-1.869,0-2.832-1.148-2.865-3.549c-0.094-4.084,2.052-8.352,5.017-8.352c0.495,0,0.81,0.125,1.148,0.375l-0.934,2.773
			c0.251,0.713,0.934,1.335,2.021,1.335c1.313,0,2.493-1.085,2.493-2.988c0-2.366-2.091-3.981-5.134-3.981
			c-4.707,0-9.625,4.826-9.625,11.023C381.662,160.341,384.592,162.272,388.014,162.272 M358.899,161.835h4.481l1.742-6.539
			c0.72-2.68,2.183-4.764,3.989-6.228l1.432,1.403c1.837-0.098,3.516-1.403,3.516-3.273c0-1.242-0.839-2.238-2.146-2.238
			c-1.497,0-2.68,1.213-5.575,5.48l-0.188-0.096l0.843-3.332v-1.678h-6.599l-0.498,1.801l1.864,0.344l0.624,1.305L358.899,161.835z
			 M340.147,160.062c-1.369,0-2.053-1.209-2.053-3.578c0-4.361,2.116-9.378,4.792-9.378c1.472,0,2.089,1.215,2.089,3.584
			C344.977,155.082,342.888,160.062,340.147,160.062 M340.212,162.332c5.294,0,9.562-5.008,9.562-10.459
			c0-4.33-2.588-7.035-6.945-7.035c-5.294,0-9.56,5.009-9.56,10.459C333.269,159.626,335.85,162.332,340.212,162.332
			 M304.743,161.835h10.77l0.599-2.176l-2.522-0.312l-0.344-1.343l1.526-5.762h1.65l1.897,0.438l-0.5,2.34h1.868l2.153-7.941h-1.874
			l-0.746,2.176l-2.12,0.44h-1.647l1.933-7.198h4.822l1.559,1.246l-0.312,2.836h2.62l1.771-6.664h-17.56l-0.557,2.176l1.865,0.311
			l0.34,1.344l-3.796,14.262l-1.089,1.343l-1.747,0.312L304.743,161.835z"/>
	</g>
	<g>
		<defs>
			<rect id="SVGID_3_" x="304.743" width="115.844" height="162.335"/>
		</defs>
		<clipPath id="SVGID_4_">
			<use xlink:href="#SVGID_3_"  overflow="visible"/>
		</clipPath>
		<path clip-path="url(#SVGID_4_)" fill="#EC1B2F" d="M363.709,22.561h-0.827c-1.479,0-2.24-0.724-2.24-2.201v-3.03
			c0-0.62-0.334-0.962-0.954-0.962h-0.071c-0.614,0-0.961,0.343-0.961,0.962v2.996c0,2.75,1.376,4.157,4.16,4.157h0.963
			c2.854,0,4.229-1.44,4.229-4.227v-5.094c0-1.926-0.755-2.922-2.231-3.333c1.377-0.448,2.16-1.511,2.16-3.645V4.19
			c0-2.75-1.369-4.19-4.226-4.19h-0.79c-2.821,0-4.195,1.441-4.195,4.19v2.511c0,0.624,0.344,0.967,0.964,0.967h0.067
			c0.618,0,0.958-0.343,0.958-0.967V4.124c0-1.478,0.762-2.202,2.169-2.202h0.827c1.444,0,2.164,0.724,2.164,2.202v4.541
			c0,1.583-0.753,2.374-2.301,2.374h-1.685c-0.59,0-0.934,0.31-0.934,0.925v0.071c0,0.582,0.344,0.892,0.934,0.892h1.756
			c1.543,0,2.301,0.791,2.301,2.373v5.061C365.944,21.837,365.225,22.561,363.709,22.561"/>
	</g>
</g>
<line fill="none" stroke="#231F20" stroke-width="0.5" x1="346.186" y1="84.46" x2="380.576" y2="84.46"/>
</svg>
