<?xml version="1.0" encoding="utf-8"?>
<!-- Generator: Adobe Illustrator 16.2.1, SVG Export Plug-In . SVG Version: 6.00 Build 0)  -->
<!DOCTYPE svg PUBLIC "-//W3C//DTD SVG 1.1//EN" "http://www.w3.org/Graphics/SVG/1.1/DTD/svg11.dtd">
<svg version="1.1" id="Layer_1" xmlns="http://www.w3.org/2000/svg" xmlns:xlink="http://www.w3.org/1999/xlink" x="0px" y="0px"
	 width="440px" height="162.335px" viewBox="144 0 440 162.335" enable-background="new 144 0 440 162.335" xml:space="preserve">
<g>
	<g>
		<defs>
			<rect id="SVGID_1_" x="324.856" width="75.333" height="162.335"/>
		</defs>
		<clipPath id="SVGID_2_">
			<use xlink:href="#SVGID_1_"  overflow="visible"/>
		</clipPath>
		<path clip-path="url(#SVGID_2_)" d="M389.898,159.315c-1.121,0-1.812-0.5-1.812-1.218c0-0.25,0.062-0.713,0.155-1.092l0.879-3.619
			c0.276-1.215,0.87-2.184,2.212-3.37c1.277-1.151,2.028-1.495,2.743-1.495c1.03,0,1.313,1.154,1.313,2.305
			C395.392,154.701,393.329,159.315,389.898,159.315 M388.558,162.302c6.023,0,11.632-5.762,11.632-11.998
			c0-3.494-1.405-5.396-3.894-5.396c-2.186,0-3.932,1.872-6.239,4.709l-0.25-0.123l0.9-2.496l1.719-6.929v-1.612h-6.988
			l-0.464,1.801l1.868,0.343l0.658,1.315l-3.804,15.342c-0.157,0.654-0.279,1.494-0.279,1.932
			C383.417,160.904,385.035,162.302,388.558,162.302 M364.115,160.06c-1.376,0-2.063-1.211-2.063-3.583
			c0-4.368,2.122-9.39,4.806-9.39c1.465,0,2.089,1.218,2.089,3.586C368.945,155.071,366.856,160.06,364.115,160.06 M364.174,162.335
			c5.302,0,9.572-5.019,9.572-10.478c0-4.334-2.586-7.043-6.951-7.043c-5.302,0-9.572,5.015-9.572,10.474
			C357.223,159.626,359.81,162.335,364.174,162.335 M338.792,161.833h4.706l4.867-18.112l1.059-1.343l1.588-0.312l0.563-2.179h-7.92
			l-0.497,1.901l1.84,0.34l0.34,1.277l-2.023,7.578l-0.719,4.682l-0.779,0.127l-0.154-3.373l-2.712-12.532h-8.543l-0.562,2.179
			l1.87,0.311l0.343,1.346l-3.802,14.279l-1.091,1.347l-1.749,0.31l-0.559,2.178h8.071l0.499-1.895l-1.836-0.348l-0.346-1.277
			l2.587-9.666l0.719-4.682h0.775l0.188,3.091L338.792,161.833z"/>
	</g>
	<g>
		<defs>
			<rect id="SVGID_3_" x="324.856" width="75.333" height="162.335"/>
		</defs>
		<clipPath id="SVGID_4_">
			<use xlink:href="#SVGID_3_"  overflow="visible"/>
		</clipPath>
		<path clip-path="url(#SVGID_4_)" fill="#EC1B2F" d="M367.372,2.369c0.101-0.482,0.205-0.893,0.205-1.308V0.96
			c0-0.621-0.305-0.964-0.961-0.964h-6.505c-0.621,0-0.896,0.311-0.896,0.931v0.071c0,0.613,0.274,0.923,0.896,0.923h5.402
			l-4.749,21.111c-0.172,0.721,0.172,1.136,0.896,1.136h0.066c0.519,0,0.792-0.243,0.897-0.725L367.372,2.369z"/>
	</g>
</g>
<line fill="none" stroke="#231F20" stroke-width="0.5" x1="346.318" y1="84.36" x2="380.752" y2="84.36"/>
</svg>
