<?xml version="1.0" encoding="utf-8"?>
<!-- Generator: Adobe Illustrator 16.2.1, SVG Export Plug-In . SVG Version: 6.00 Build 0)  -->
<!DOCTYPE svg PUBLIC "-//W3C//DTD SVG 1.1//EN" "http://www.w3.org/Graphics/SVG/1.1/DTD/svg11.dtd">
<svg version="1.1" id="Layer_1" xmlns="http://www.w3.org/2000/svg" xmlns:xlink="http://www.w3.org/1999/xlink" x="0px" y="0px"
	 width="440px" height="162.335px" viewBox="143.999 0 440 162.335" enable-background="new 143.999 0 440 162.335"
	 xml:space="preserve">
<g>
	<g>
		<defs>
			<rect id="SVGID_1_" x="146.487" width="435.025" height="162.05"/>
		</defs>
		<clipPath id="SVGID_2_">
			<use xlink:href="#SVGID_1_"  overflow="visible"/>
		</clipPath>
		<path clip-path="url(#SVGID_2_)" d="M565.988,156.914h4.351l3.319-13.263h4.107l0.694-2.53h-4.166l0.452-1.816
			c0.48-1.904,1.391-3.172,2.447-3.295l1.419,2.357c1.51,0.245,2.898-0.511,2.898-2.054c0-1.181-1.3-2.267-3.928-2.267
			c-1.903,0-3.471,0.662-4.709,1.748c-1.3,1.151-2.233,2.781-2.718,4.568l-0.152,0.547l-2.66,0.598l-0.598,2.144h2.562
			L565.988,156.914z M545.565,153.808c-0.818,0-1.241-0.816-1.241-2.146c0-4.32,2.479-8.311,4.776-8.311
			c0.905,0,1.604,0.424,2.415,1.271l-1.114,4.474c-0.305,1.177-0.848,2.11-2.18,3.262
			C546.984,153.414,546.261,153.808,545.565,153.808 M551.061,157.275l4.475-0.633l0.361-1.329
			c-2.267-0.546-2.541-0.847-2.207-2.112l4.383-17.371v-1.567h-6.766l-0.456,1.747l1.813,0.334l0.633,1.267l-0.785,3.026
			l-0.329,1.99l-0.151,0.028c-1.028-1.147-2.023-1.989-4.199-1.989c-3.837,0-8.154,5.16-8.154,11.265
			c0,3.384,1.299,5.379,3.714,5.379c2.109,0,3.805-1.813,6.077-4.563l0.238,0.123c-0.238,0.875-0.391,1.87-0.391,2.385
			C549.315,156.251,550.036,156.884,551.061,157.275 M521.371,154.471c-0.904,0-1.604-0.421-2.418-1.271l1.119-4.472
			c0.3-1.177,0.843-2.117,2.175-3.265c1.238-1.059,1.962-1.448,2.657-1.448c0.817,0,1.237,0.813,1.237,2.146
			C526.143,150.485,523.666,154.471,521.371,154.471 M510.312,162.046h8.851l0.485-1.838l-1.875-0.297l-0.302-0.852l0.481-1.875
			l0.333-1.991l0.151-0.028c1.028,1.145,2.027,1.99,4.199,1.99c3.837,0,8.151-5.162,8.151-11.265c0-3.386-1.296-5.375-3.714-5.375
			c-2.114,0-3.802,1.813-6.066,4.558l-0.246-0.115l0.607-2.574v-1.473h-6.402l-0.484,1.743l1.783,0.333l0.603,1.268l-3.624,14.353
			l-1.058,1.304l-1.39,0.297L510.312,162.046z M500.226,157.396c1.93,0,3.382-1.658,3.382-3.291c0-1.566-1.147-2.682-2.72-2.682
			c-1.93,0-3.381,1.656-3.381,3.289C497.507,156.28,498.654,157.396,500.226,157.396 M476.089,156.914h11.627l0.571-2.113
			l-2.743-0.297l-0.333-1.301l4.709-17.556l-0.329-0.448l-8.521,2.023l-0.543,1.962h2.988l0.362,1.299l-3.41,12.72l-1.026,1.301
			l-2.78,0.297L476.089,156.914z M459.656,149.21h8.394l1.028-3.924h-8.396L459.656,149.21z M445.032,142.475
			c1.209,0,1.693,0.876,1.693,1.846c0,3.2-3.385,4.257-6.255,4.681C441.015,145.859,442.614,142.475,445.032,142.475
			 M441.681,157.367c2.477,0,4.864-1.234,6.979-2.863l-0.963-1.543c-1.694,1.09-3.236,1.724-4.598,1.724
			c-2.359,0-2.81-1.875-2.81-3.565v-0.545c7.341-0.453,10.57-2.724,10.57-6.07c0-2.629-2.23-4.08-5.253-4.08
			c-5.47,0-9.85,5.104-9.85,10.726C435.759,154.503,437.844,157.367,441.681,157.367 M419.535,157.396
			c3.869,0,6.342-2.021,6.342-5.07c0-2.145-1.354-3.443-3.892-5.043c-2.146-1.361-2.87-1.998-2.87-2.998
			c0-0.871,0.753-1.9,2.505-1.9c0.485,0,1.451,0.121,2.085,0.576l-0.391,1.781c0.514,0.875,1.296,1.391,2.322,1.391
			c0.996,0,1.811-0.786,1.811-1.963c0-2.022-3.016-3.746-6.096-3.746c-3.869,0-6.104,2.053-6.104,4.984
			c0,1.903,1.146,3.293,3.866,4.955c2.114,1.299,2.898,2.086,2.898,2.961c0,1.237-1.146,2.117-2.632,2.117
			c-0.963,0-2.052-0.275-2.838-0.785l0.543-1.812c-0.51-0.967-1.324-1.484-2.229-1.484c-1.062,0-1.813,0.848-1.813,1.967
			C413.045,155.798,416.64,157.396,419.535,157.396 M399.178,157.275l4.8-0.633l0.362-1.329c-2.266-0.543-2.534-0.847-2.201-2.112
			l2.144-8.037c0.725-2.686-0.274-4.681-2.837-4.681c-2.295,0-3.6,1.666-6.042,5.015l-0.186-0.088l0.699-2.873v-1.625h-6.403
			l-0.484,1.744l1.816,0.332l0.598,1.268l-3.377,12.658h4.344l2.027-7.642c0.36-1.39,0.876-2.295,2.232-3.655
			c1.118-1.119,1.542-1.447,2.204-1.447c0.728,0,1.238,0.451,0.908,1.629l-2.146,7.912c-0.15,0.604-0.21,1.027-0.21,1.541
			C397.426,156.251,398.15,156.884,399.178,157.275 M373.985,142.475c1.209,0,1.689,0.876,1.689,1.846
			c0,3.2-3.385,4.257-6.257,4.681C369.964,145.859,371.565,142.475,373.985,142.475 M370.628,157.367
			c2.481,0,4.866-1.234,6.978-2.863l-0.964-1.543c-1.687,1.09-3.229,1.724-4.592,1.724c-2.355,0-2.812-1.875-2.812-3.565v-0.545
			c7.347-0.453,10.574-2.724,10.574-6.07c0-2.629-2.235-4.08-5.252-4.08c-5.472,0-9.85,5.104-9.85,10.726
			C364.711,154.503,366.794,157.367,370.628,157.367 M348.215,157.337c2.175,0,4.17-0.904,6.162-2.295l-0.938-1.93
			c-1.753,0.904-2.749,1.268-3.746,1.268c-1.813,0-2.747-1.115-2.776-3.446c-0.093-3.956,1.991-8.097,4.863-8.097
			c0.48,0,0.785,0.123,1.113,0.361l-0.903,2.692c0.242,0.69,0.903,1.296,1.962,1.296c1.271,0,2.416-1.057,2.416-2.902
			c0-2.291-2.023-3.863-4.981-3.863c-4.562,0-9.333,4.686-9.333,10.697C342.054,155.466,344.894,157.337,348.215,157.337
			 M326.86,157.275l4.679-0.633l0.361-1.329c-2.265-0.546-2.539-0.847-2.204-2.112l2.961-10.727v-1.562h-6.734l-0.48,1.743
			l1.808,0.333l0.604,1.268l-2.534,9.244c-0.148,0.516-0.241,1.147-0.241,1.662C325.077,156.158,325.834,156.884,326.86,157.275
			 M331.149,138.848c1.659,0,2.985-1.538,2.985-2.929c0-1.387-0.967-2.323-2.384-2.323c-1.659,0-2.989,1.542-2.989,2.929
			C328.763,137.914,329.729,138.848,331.149,138.848 M309.88,157.275l4.834-0.633l0.358-1.329c-2.354-0.546-2.628-0.903-2.324-2.112
			l4.353-17.371v-1.567h-6.769l-0.452,1.747l1.813,0.334l0.633,1.267l-3.803,15.259c-0.212,0.903-0.396,1.689-0.396,2.385
			C308.13,156.251,308.854,156.884,309.88,157.275 M291.754,157.396c3.872,0,6.344-2.021,6.344-5.07
			c0-2.145-1.357-3.443-3.893-5.043c-2.15-1.361-2.872-1.998-2.872-2.998c0-0.871,0.756-1.9,2.508-1.9
			c0.483,0,1.45,0.121,2.083,0.576l-0.393,1.781c0.516,0.875,1.298,1.391,2.324,1.391c0.998,0,1.813-0.786,1.813-1.963
			c0-2.022-3.021-3.746-6.101-3.746c-3.866,0-6.101,2.053-6.101,4.984c0,1.903,1.149,3.293,3.866,4.955
			c2.116,1.299,2.903,2.086,2.903,2.961c0,1.237-1.149,2.117-2.633,2.117c-0.966,0-2.052-0.275-2.834-0.785l0.541-1.812
			c-0.512-0.967-1.327-1.484-2.235-1.484c-1.057,0-1.813,0.848-1.813,1.967C285.261,155.798,288.857,157.396,291.754,157.396
			 M263.908,156.914h4.347l1.69-6.342c0.693-2.6,2.112-4.623,3.866-6.042l1.39,1.361c1.783-0.095,3.414-1.361,3.414-3.175
			c0-1.209-0.814-2.172-2.087-2.172c-1.45,0-2.593,1.177-5.404,5.316l-0.181-0.094l0.814-3.232v-1.625h-6.4l-0.487,1.744
			l1.813,0.333l0.604,1.269L263.908,156.914z M249.889,142.475c1.209,0,1.69,0.876,1.69,1.846c0,3.2-3.384,4.257-6.256,4.681
			C245.868,145.859,247.47,142.475,249.889,142.475 M246.536,157.367c2.476,0,4.863-1.234,6.975-2.863l-0.963-1.543
			c-1.69,1.09-3.232,1.724-4.593,1.724c-2.356,0-2.812-1.875-2.812-3.565v-0.545c7.346-0.453,10.575-2.724,10.575-6.07
			c0-2.629-2.235-4.08-5.252-4.08c-5.471,0-9.849,5.104-9.849,10.726C240.616,154.503,242.699,157.367,246.536,157.367
			 M219.412,157.126h4.043c4.626-3.803,8.399-8.303,8.399-12.807c0-2.537-1.12-3.837-2.839-3.837c-1.571,0-2.476,1.329-2.476,2.688
			c0,0.664,0.212,1.301,0.545,1.813l1.842,0.604c-0.241,2.6-2.328,5.588-5.079,8.154h-0.574l0.21-3.021l-0.362-9.812h-6.04
			l-0.481,1.744l2.143,0.604L219.412,157.126z M201.251,157.275l4.682-0.633l0.364-1.329c-2.27-0.546-2.539-0.847-2.206-2.112
			l2.957-10.727v-1.562h-6.731l-0.481,1.743l1.808,0.333l0.604,1.268l-2.536,9.244c-0.15,0.516-0.241,1.147-0.241,1.662
			C199.472,156.158,200.225,156.884,201.251,157.275 M205.541,138.848c1.659,0,2.991-1.538,2.991-2.929
			c0-1.387-0.968-2.323-2.387-2.323c-1.662,0-2.988,1.542-2.988,2.929C203.157,137.914,204.125,138.848,205.541,138.848
			 M177.088,156.914h4.349l1.69-6.342c0.697-2.6,2.116-4.623,3.866-6.042l1.39,1.361c1.783-0.095,3.414-1.361,3.414-3.175
			c0-1.209-0.816-2.172-2.083-2.172c-1.454,0-2.599,1.177-5.408,5.316l-0.181-0.094l0.814-3.232v-1.625h-6.401l-0.485,1.744
			l1.812,0.333l0.604,1.269L177.088,156.914z M158.752,138.156c3.262,0,5.075,1.781,5.075,5.618c0,3.413-1.421,6.588-3.052,8.218
			c-1.783,1.783-3.565,2.42-5.8,2.42h-0.574L158.752,138.156z M154.371,156.914c5.015,0,8.336-1.387,10.906-3.953
			c2.381-2.389,3.713-5.803,3.713-9.062c0-5.625-3.836-8.25-9.697-8.25h-7.428l-0.545,2.114l1.812,0.301l0.335,1.304l-3.688,13.834
			l-1.057,1.303l-1.69,0.297l-0.545,2.115h7.884V156.914z"/>
	</g>
	<g>
		<defs>
			<rect id="SVGID_3_" x="146.487" width="435.025" height="162.05"/>
		</defs>
		<clipPath id="SVGID_4_">
			<use xlink:href="#SVGID_3_"  overflow="visible"/>
		</clipPath>
		<path clip-path="url(#SVGID_4_)" fill="#EC1B2F" d="M367.495,8.97c-1.472,0-2.371,0.601-3.24,1.332V1.995h5.705
			c0.601,0,0.901-0.333,0.901-0.901V1.032c0-0.601-0.302-0.901-0.901-0.901h-6.438c-0.731,0-1.098,0.402-1.098,1.097v10.374
			c0,0.5,0.267,0.8,0.796,0.8h0.4c0.3,0,0.566-0.065,0.8-0.3c0.868-0.833,1.636-1.299,2.637-1.299c1.304,0,1.972,0.767,1.972,2.237
			v6.642c0,1.434-0.732,2.132-2.14,2.132h-0.531c-1.437,0-2.137-0.699-2.137-2.132v-3.37c0-0.604-0.333-0.938-0.934-0.938h-0.067
			c-0.63,0-0.965,0.333-0.965,0.938v3.333c0,2.671,1.332,4.032,4,4.032h0.7c2.706,0,4.07-1.396,4.07-4.097v-6.91
			C371.027,10.334,369.631,8.97,367.495,8.97 M355.42,22.612c0,0.633,0.333,0.934,0.93,0.934h0.067c0.601,0,0.934-0.3,0.934-0.934
			V0.564c0-0.369-0.232-0.568-0.533-0.568h-0.101c-0.4,0-0.53,0.167-0.729,0.467c-0.233,0.402-0.368,0.536-0.468,0.633
			c-0.367,0.402-0.866,0.601-1.667,0.764c-0.435,0.134-0.668,0.333-0.668,0.768v0.134c0,0.402,0.233,0.702,0.801,0.702h1.436
			L355.42,22.612L355.42,22.612z"/>
	</g>
</g>
<line fill="none" stroke="#231F20" stroke-width="0.5" x1="345.81" y1="81.859" x2="379.168" y2="81.859"/>
</svg>
