<?xml version="1.0" encoding="utf-8"?>
<!-- Generator: Adobe Illustrator 16.2.1, SVG Export Plug-In . SVG Version: 6.00 Build 0)  -->
<!DOCTYPE svg PUBLIC "-//W3C//DTD SVG 1.1//EN" "http://www.w3.org/Graphics/SVG/1.1/DTD/svg11.dtd">
<svg version="1.1" id="Layer_1" xmlns="http://www.w3.org/2000/svg" xmlns:xlink="http://www.w3.org/1999/xlink" x="0px" y="0px"
	 width="440px" height="162.335px" viewBox="144 0 440 162.335" enable-background="new 144 0 440 162.335" xml:space="preserve">
<g>
	<g>
		<defs>
			<rect id="SVGID_1_" x="290.503" width="148.995" height="162.335"/>
		</defs>
		<clipPath id="SVGID_2_">
			<use xlink:href="#SVGID_1_"  overflow="visible"/>
		</clipPath>
		<path clip-path="url(#SVGID_2_)" d="M430.656,162.242c1.93,0,3.706-0.561,5.232-1.464l-0.348-1.836
			c-0.806,0.347-1.522,0.53-2.112,0.53c-1.098,0-1.652-0.407-1.652-1.276c0-0.438,0.093-0.903,0.25-1.497l2.365-8.814h4.456
			l0.649-2.52h-4.448l1.209-4.457h-2.77l-2.96,4.299l-2.706,0.776l-0.5,1.899h2.583l-2.485,9.38
			c-0.187,0.653-0.373,1.434-0.373,2.116C427.048,161.119,428.261,162.242,430.656,162.242 M410.908,162.242l4.83-0.652l0.365-1.375
			c-2.333-0.559-2.612-0.868-2.27-2.176l3.053-11.062v-1.612h-6.941l-0.5,1.799l1.865,0.348l0.628,1.307l-2.616,9.532
			c-0.156,0.53-0.25,1.185-0.25,1.71C409.072,161.089,409.849,161.839,410.908,162.242 M415.331,143.24
			c1.714,0,3.08-1.586,3.08-3.02c0-1.43-0.993-2.396-2.456-2.396c-1.714,0-3.083,1.592-3.083,3.02
			C412.872,142.277,413.864,143.24,415.331,143.24 M388.638,150.656l2.185-8.133h0.902c2.332,0,3.644,1.12,3.644,3.146
			c0,3.18-2.396,4.985-5.979,4.985L388.638,150.656L388.638,150.656z M378.176,161.869h10.775l0.594-2.181l-2.527-0.31l-0.339-1.34
			l1.276-4.834h0.84c8.222,0,11.991-3.604,11.991-7.723c0-3.829-3.239-5.543-8.345-5.543h-8.72l-0.566,2.18l1.873,0.312l0.336,1.34
			l-3.8,14.269l-1.087,1.34l-1.742,0.311L378.176,161.869z M352.643,146.977c1.247,0,1.747,0.907,1.747,1.903
			c0,3.303-3.493,4.393-6.455,4.83C348.496,150.466,350.148,146.977,352.643,146.977 M349.185,162.335
			c2.554,0,5.019-1.272,7.196-2.957l-0.997-1.59c-1.743,1.123-3.333,1.776-4.735,1.776c-2.431,0-2.896-1.935-2.896-3.676v-0.562
			c7.571-0.467,10.9-2.807,10.9-6.263c0-2.71-2.302-4.202-5.416-4.202c-5.643,0-10.156,5.262-10.156,11.055
			C343.081,159.378,345.229,162.335,349.185,162.335 M328.034,162.242l4.953-0.652l0.372-1.375
			c-2.334-0.555-2.615-0.868-2.275-2.176l2.213-8.285c0.75-2.772-0.278-4.83-2.922-4.83c-2.367,0-3.708,1.718-6.23,5.174
			l-0.217-0.094l1.026-2.959l1.713-6.92v-1.612h-6.976l-0.471,1.799l1.87,0.347l0.653,1.312l-4.949,19.899h4.483l1.931-7.879
			c0.344-1.437,0.844-2.369,2.243-3.77c1.153-1.157,1.59-1.497,2.272-1.497c0.75,0,1.277,0.467,0.938,1.685l-2.213,8.158
			c-0.157,0.623-0.218,1.061-0.218,1.59C326.229,161.182,326.976,161.839,328.034,162.242 M290.908,161.869h10.773l0.594-2.181
			l-2.18-0.31l-0.374-1.34l4.173-15.517h1.991l1.561,1.247l-0.562,3.77h2.616l2.023-7.6h-18.997l-2.025,7.6h2.618l1.43-3.77
			l2.243-1.247h1.995l-4.174,15.517l-1.058,1.34l-2.057,0.31L290.908,161.869z"/>
	</g>
	<g>
		<defs>
			<rect id="SVGID_3_" x="290.503" width="148.995" height="162.335"/>
		</defs>
		<clipPath id="SVGID_4_">
			<use xlink:href="#SVGID_3_"  overflow="visible"/>
		</clipPath>
		<path clip-path="url(#SVGID_4_)" fill="#EC1B2F" d="M362.896,12.858h0.691c1.549,0,2.339,0.724,2.339,2.307v5.233
			c0,1.478-0.723,2.202-2.2,2.202h-0.967c-1.479,0-2.202-0.724-2.202-2.202v-5.233C360.558,13.582,361.349,12.858,362.896,12.858
			 M360.591,8.633V4.087c0-1.478,0.758-2.202,2.237-2.202h0.795c1.514,0,2.27,0.724,2.27,2.202v4.546
			c0,1.583-0.791,2.374-2.338,2.374h-0.624C361.382,11.007,360.591,10.215,360.591,8.633 M358.635,4.225v3.889
			c0,2.135,0.825,3.202,2.129,3.643c-1.44,0.415-2.231,1.344-2.231,3.27v5.233c0,2.784,1.405,4.225,4.227,4.225h0.967
			c2.819,0,4.228-1.441,4.228-4.225v-5.233c0-1.926-0.791-2.855-2.232-3.27c1.304-0.44,2.13-1.508,2.13-3.643V4.225
			c0-2.784-1.44-4.225-4.228-4.225h-0.761C360.042,0,358.635,1.441,358.635,4.225"/>
	</g>
</g>
<line fill="none" stroke="#231F20" stroke-width="0.5" x1="346.044" y1="84.475" x2="380.441" y2="84.475"/>
</svg>
