<?xml version="1.0" encoding="utf-8"?>
<!-- Generator: Adobe Illustrator 16.2.1, SVG Export Plug-In . SVG Version: 6.00 Build 0)  -->
<!DOCTYPE svg PUBLIC "-//W3C//DTD SVG 1.1//EN" "http://www.w3.org/Graphics/SVG/1.1/DTD/svg11.dtd">
<svg version="1.1" id="Layer_1" xmlns="http://www.w3.org/2000/svg" xmlns:xlink="http://www.w3.org/1999/xlink" x="0px" y="0px"
	 width="440px" height="162.335px" viewBox="144 0 440 162.335" enable-background="new 144 0 440 162.335" xml:space="preserve">
<g>
	<g>
		<defs>
			<rect id="SVGID_1_" x="228.424" y="0.164" width="271.153" height="162.171"/>
		</defs>
		<clipPath id="SVGID_2_">
			<use xlink:href="#SVGID_1_"  overflow="visible"/>
		</clipPath>
		<path clip-path="url(#SVGID_2_)" d="M484.422,161.839h4.481l1.741-6.541c0.719-2.674,2.18-4.762,3.985-6.223l1.432,1.402
			c1.837-0.098,3.521-1.402,3.521-3.271c0-1.246-0.84-2.242-2.153-2.242c-1.492,0-2.672,1.216-5.566,5.478l-0.187-0.091l0.839-3.334
			v-1.682h-6.601l-0.499,1.808l1.87,0.339l0.622,1.311L484.422,161.839z M469.972,146.953c1.246,0,1.743,0.902,1.743,1.897
			c0,3.304-3.489,4.396-6.447,4.832C465.828,150.441,467.476,146.953,469.972,146.953 M466.513,162.306
			c2.555,0,5.021-1.276,7.193-2.955l-0.991-1.59c-1.746,1.119-3.336,1.775-4.739,1.775c-2.425,0-2.895-1.933-2.895-3.675V155.3
			c7.57-0.469,10.897-2.805,10.897-6.264c0-2.709-2.303-4.197-5.414-4.197c-5.642,0-10.151,5.258-10.151,11.057
			C460.413,159.351,462.559,162.306,466.513,162.306 M445,162.208l4.978-0.652l0.379-1.366c-2.43-0.563-2.71-0.937-2.399-2.183
			l4.484-17.905v-1.615h-6.975L445,140.292l1.867,0.34l0.651,1.311l-3.921,15.723c-0.217,0.937-0.403,1.746-0.403,2.457
			C443.194,161.152,443.94,161.806,445,162.208 M428.528,146.953c1.243,0,1.746,0.902,1.746,1.897c0,3.304-3.488,4.396-6.451,4.832
			C424.387,150.441,426.036,146.953,428.528,146.953 M425.069,162.306c2.557,0,5.016-1.276,7.192-2.955l-0.995-1.59
			c-1.742,1.119-3.332,1.775-4.734,1.775c-2.429,0-2.896-1.933-2.896-3.675V155.3c7.566-0.469,10.896-2.805,10.896-6.264
			c0-2.709-2.298-4.197-5.41-4.197c-5.641,0-10.151,5.258-10.151,11.057C418.97,159.351,421.114,162.306,425.069,162.306
			 M404.46,146.953c1.246,0,1.746,0.902,1.746,1.897c0,3.304-3.492,4.396-6.451,4.832
			C400.318,150.441,401.968,146.953,404.46,146.953 M401.001,162.306c2.556,0,5.019-1.276,7.193-2.955l-0.992-1.59
			c-1.746,1.119-3.336,1.775-4.738,1.775c-2.429,0-2.896-1.933-2.896-3.675V155.3c7.569-0.469,10.897-2.805,10.897-6.264
			c0-2.709-2.302-4.197-5.418-4.197c-5.637,0-10.146,5.258-10.146,11.057C394.901,159.351,397.047,162.306,401.001,162.306
			 M375.656,150.63l2.179-8.133h0.906c2.333,0,3.642,1.123,3.642,3.147c0,3.179-2.395,4.985-5.973,4.985H375.656L375.656,150.63z
			 M365.198,161.839h10.771l0.59-2.18l-2.521-0.31l-0.343-1.341l1.282-4.83h0.836c8.224,0,11.983-3.608,11.983-7.721
			c0-3.826-3.238-5.539-8.342-5.539h-8.716l-0.562,2.175l1.87,0.312l0.34,1.34l-3.797,14.264l-1.089,1.341l-1.746,0.31
			L365.198,161.839z M339.085,162.208l4.947-0.652l0.375-1.366c-2.339-0.563-2.617-0.873-2.273-2.183l2.209-8.278
			c0.747-2.772-0.28-4.828-2.924-4.828c-2.363,0-3.705,1.713-6.227,5.171l-0.188-0.097l0.718-2.958v-1.682h-6.603l-0.497,1.808
			l1.869,0.339l0.623,1.311l-3.488,13.047h4.48l2.086-7.879c0.375-1.434,0.905-2.365,2.307-3.765c1.151-1.157,1.586-1.5,2.271-1.5
			c0.747,0,1.279,0.47,0.937,1.683l-2.212,8.16c-0.153,0.621-0.219,1.06-0.219,1.584
			C337.277,161.152,338.027,161.806,339.085,162.208 M308.819,160.066c-1.373,0-2.06-1.217-2.06-3.582
			c0-4.361,2.119-9.376,4.797-9.376c1.463,0,2.091,1.218,2.091,3.582C313.647,155.082,311.558,160.066,308.819,160.066
			 M308.88,162.335c5.295,0,9.562-5.008,9.562-10.461c0-4.328-2.584-7.035-6.943-7.035c-5.295,0-9.56,5.013-9.56,10.463
			C301.938,159.63,304.521,162.335,308.88,162.335 M286.37,162.208l4.82-0.652l0.375-1.366c-2.334-0.563-2.613-0.876-2.273-2.183
			l3.054-11.055v-1.617h-6.944l-0.496,1.808l1.869,0.339l0.623,1.311l-2.617,9.528c-0.152,0.526-0.248,1.181-0.248,1.712
			C284.532,161.059,285.311,161.806,286.37,162.208 M290.79,143.216c1.712,0,3.08-1.584,3.08-3.018c0-1.433-0.994-2.396-2.458-2.396
			c-1.712,0-3.08,1.587-3.08,3.02C288.332,142.251,289.327,143.216,290.79,143.216 M269.181,162.208l4.947-0.652l0.375-1.366
			c-2.335-0.563-2.617-0.873-2.273-2.183l2.213-8.278c0.744-2.772-0.283-4.828-2.928-4.828c-2.365,0-3.703,1.713-6.223,5.171
			l-0.188-0.097l0.714-2.958v-1.682h-6.602l-0.496,1.808l1.869,0.339l0.623,1.311l-3.488,13.047h4.484l2.086-7.879
			c0.375-1.434,0.902-2.365,2.305-3.765c1.153-1.157,1.588-1.5,2.273-1.5c0.748,0,1.275,0.47,0.931,1.683l-2.207,8.16
			c-0.157,0.621-0.219,1.06-0.219,1.584C267.377,161.152,268.122,161.806,269.181,162.208 M236.737,159.757
			c-1.994,0-3.053-1.375-3.053-4.366c0-5.384,2.926-13.39,7.285-13.39c1.994,0,3.054,1.373,3.054,4.361
			C244.023,151.753,241.096,159.757,236.737,159.757 M236.827,162.335c7.103,0,12.456-7.131,12.456-14.354
			c0-5.043-2.988-8.56-8.405-8.56c-7.102,0-12.454,7.127-12.454,14.351C228.424,158.82,231.411,162.335,236.827,162.335"/>
	</g>
	<g>
		<defs>
			<rect id="SVGID_3_" x="228.424" y="0.164" width="271.153" height="162.171"/>
		</defs>
		<clipPath id="SVGID_4_">
			<use xlink:href="#SVGID_3_"  overflow="visible"/>
		</clipPath>
		<path clip-path="url(#SVGID_4_)" fill="#EC1B2F" d="M364.452,3.223v14.443h-4.984L364.452,3.223z M357.886,16.841
			c-0.172,0.481-0.275,0.753-0.275,1.306v0.205c0,0.72,0.415,1.13,1.137,1.13h5.706v3.989c0,0.586,0.311,0.896,0.893,0.896h0.066
			c0.586,0,0.896-0.31,0.896-0.896v-3.989h1.307c0.55,0,0.858-0.31,0.858-0.892v-0.07c0-0.544-0.31-0.854-0.858-0.854h-1.307V1.298
			c0-0.72-0.413-1.134-1.133-1.134h-0.653c-0.514,0-0.893,0.239-1.063,0.757L357.886,16.841z"/>
	</g>
</g>
<line fill="none" stroke="#231F20" stroke-width="0.5" x1="345.643" y1="84.473" x2="380.029" y2="84.473"/>
</svg>
