<?xml version="1.0" encoding="utf-8"?>
<!-- Generator: Adobe Illustrator 16.2.1, SVG Export Plug-In . SVG Version: 6.00 Build 0)  -->
<!DOCTYPE svg PUBLIC "-//W3C//DTD SVG 1.1//EN" "http://www.w3.org/Graphics/SVG/1.1/DTD/svg11.dtd">
<svg version="1.1" id="Layer_1" xmlns="http://www.w3.org/2000/svg" xmlns:xlink="http://www.w3.org/1999/xlink" x="0px" y="0px"
	 width="440px" height="162.335px" viewBox="144 0 440 162.335" enable-background="new 144 0 440 162.335" xml:space="preserve">
<g>
	<g>
		<g>
			<defs>
				<rect id="SVGID_1_" x="287.125" width="153.75" height="162.117"/>
			</defs>
			<clipPath id="SVGID_2_">
				<use xlink:href="#SVGID_1_"  overflow="visible"/>
			</clipPath>
			<path clip-path="url(#SVGID_2_)" d="M434.873,146.746c1.245,0,1.736,0.9,1.736,1.896c0,3.3-3.481,4.394-6.441,4.829
				C430.727,150.23,432.379,146.746,434.873,146.746 M431.416,162.085c2.551,0,5.008-1.274,7.188-2.951l-0.994-1.59
				c-1.741,1.119-3.33,1.779-4.731,1.779c-2.427,0-2.896-1.936-2.896-3.677v-0.56c7.566-0.471,10.89-2.803,10.89-6.256
				c0-2.707-2.3-4.197-5.41-4.197c-5.633,0-10.141,5.253-10.141,11.047C425.32,159.134,427.465,162.085,431.416,162.085
				 M397.535,161.621h3.448l10.208-18.393h0.682l-1.617,4.484l-2.771,10.395l-0.869,1.275l-1.559,0.34l-0.524,1.896h9.61l0.56-2.178
				l-1.863-0.309l-0.344-1.34l3.795-14.256l1.089-1.334l1.745-0.311l0.559-2.178h-9.678l-6.346,11.572l-1.495,3.549h-0.556
				l0.373-3.545l-0.098-11.576h-9.765l-0.562,2.173l1.867,0.313l0.344,1.338l-3.791,14.254l-1.097,1.338l-1.737,0.31l-0.562,2.179
				h7.751l0.525-1.897l-1.682-0.339l-0.187-1.276l2.772-10.394l0.807-4.485h0.687L397.535,161.621z M360.179,161.99l4.975-0.652
				l0.375-1.364c-2.429-0.563-2.707-0.937-2.395-2.183l4.479-17.892v-1.614h-6.968l-0.466,1.805l1.862,0.341l0.655,1.308
				l-3.918,15.711c-0.217,0.938-0.401,1.744-0.401,2.457C358.376,160.934,359.122,161.587,360.179,161.99 M342.816,161.99
				l4.977-0.652l0.371-1.364c-2.425-0.563-2.707-0.937-2.395-2.183l4.479-17.892v-1.614h-6.968l-0.464,1.805l1.865,0.341
				l0.652,1.308l-3.916,15.711c-0.218,0.938-0.404,1.744-0.404,2.457C341.014,160.934,341.758,161.587,342.816,161.99
				 M320.414,158.257c-0.841,0-1.312-0.495-1.312-1.801c0-4.295,2.869-9.119,5.888-9.119c0.684,0,1.307,0.34,1.646,0.81
				l-0.992,4.231c-0.312,1.305-1.122,2.8-2.337,3.98C322.002,157.634,321.131,158.257,320.414,158.257 M325.954,161.99l4.416-0.652
				l0.371-1.364c-2.334-0.563-2.612-0.906-2.27-2.183l3.453-12.848l-1.184-0.246l-1.617,1.118c-0.995-0.685-1.96-1.151-3.731-1.151
				c-4.761,0-11.076,5.566-11.076,12.662c0,3.172,1.555,4.977,4.043,4.7c2.146-0.254,3.92-2.243,6.227-5.354l0.25,0.123l-0.375,1.31
				c-0.157,0.556-0.31,1.179-0.31,1.801C324.151,160.934,324.896,161.587,325.954,161.99 M295.366,162.117
				c2.58,0,5.07-1.119,7.093-2.425l1.463-5.478h-2.612l-2.677,4.604c-0.623,0.376-1.309,0.687-2.302,0.687
				c-2.271,0-3.734-1.711-3.734-4.946c0-5.57,3.515-12.636,7.686-12.636c1.243,0,1.927,0.34,2.55,0.873l0.218,4.354h2.615
				l2.084-7.836h-1.246l-1.836,1.088c-1.154-0.654-2.521-1.15-4.575-1.15c-6.438,0-12.972,6.685-12.972,14.436
				C287.123,158.854,290.484,162.117,295.366,162.117"/>
		</g>
		<g>
			<defs>
				<rect id="SVGID_3_" x="287.125" width="153.75" height="162.117"/>
			</defs>
			<clipPath id="SVGID_4_">
				<use xlink:href="#SVGID_3_"  overflow="visible"/>
			</clipPath>
			<path clip-path="url(#SVGID_4_)" fill="#EC1B2F" d="M369.109,3.125v14.432h-4.983L369.109,3.125z M362.546,16.732
				c-0.171,0.481-0.273,0.753-0.273,1.305v0.205c0,0.72,0.411,1.129,1.133,1.129h5.704v3.985c0,0.585,0.31,0.895,0.889,0.895h0.07
				c0.582,0,0.893-0.31,0.893-0.895v-3.985h1.305c0.55,0,0.859-0.31,0.859-0.887v-0.071c0-0.548-0.311-0.857-0.859-0.857h-1.305
				V1.201c0-0.72-0.412-1.134-1.134-1.134h-0.649c-0.516,0-0.895,0.239-1.064,0.757L362.546,16.732z M356.189,23.29
				c0,0.652,0.345,0.962,0.958,0.962h0.068c0.619,0,0.961-0.31,0.961-0.962V0.582c0-0.376-0.239-0.582-0.55-0.582h-0.102
				c-0.412,0-0.546,0.171-0.752,0.481c-0.24,0.41-0.379,0.548-0.48,0.652c-0.379,0.41-0.895,0.619-1.719,0.787
				c-0.448,0.134-0.688,0.343-0.688,0.791v0.134c0,0.414,0.24,0.723,0.826,0.723h1.478V23.29z"/>
		</g>
	</g>
	<line fill="none" stroke="#231F20" stroke-width="0.5" x1="346.103" y1="84.312" x2="380.463" y2="84.312"/>
</g>
</svg>
