<?xml version="1.0" encoding="utf-8"?>
<!-- Generator: Adobe Illustrator 16.2.1, SVG Export Plug-In . SVG Version: 6.00 Build 0)  -->
<!DOCTYPE svg PUBLIC "-//W3C//DTD SVG 1.1//EN" "http://www.w3.org/Graphics/SVG/1.1/DTD/svg11.dtd">
<svg version="1.1" id="Layer_1" xmlns="http://www.w3.org/2000/svg" xmlns:xlink="http://www.w3.org/1999/xlink" x="0px" y="0px"
	 width="440px" height="162.335px" viewBox="143.999 0 440 162.335" enable-background="new 143.999 0 440 162.335"
	 xml:space="preserve">
<g>
	<g>
		<defs>
			<rect id="SVGID_1_" x="145.313" width="437.373" height="161.971"/>
		</defs>
		<clipPath id="SVGID_2_">
			<use xlink:href="#SVGID_1_"  overflow="visible"/>
		</clipPath>
		<path clip-path="url(#SVGID_2_)" d="M574.547,161.966c3.98,0,6.523-2.076,6.523-5.211c0-2.209-1.394-3.545-4.003-5.19
			c-2.207-1.399-2.952-2.056-2.952-3.079c0-0.9,0.773-1.959,2.576-1.959c0.499,0,1.492,0.123,2.145,0.594l-0.401,1.834
			c0.528,0.897,1.333,1.43,2.391,1.43c1.023,0,1.862-0.811,1.862-2.02c0-2.082-3.105-3.851-6.271-3.851
			c-3.983,0-6.277,2.106-6.277,5.123c0,1.958,1.178,3.388,3.978,5.097c2.175,1.337,2.981,2.145,2.981,3.046
			c0,1.272-1.181,2.179-2.707,2.179c-0.989,0-2.113-0.283-2.919-0.809l0.56-1.865c-0.524-0.994-1.362-1.525-2.294-1.525
			c-1.091,0-1.865,0.871-1.865,2.021C567.871,160.326,571.564,161.966,574.547,161.966 M551.988,161.966
			c3.979,0,6.525-2.076,6.525-5.211c0-2.209-1.398-3.545-4.006-5.19c-2.208-1.399-2.956-2.056-2.956-3.079
			c0-0.9,0.778-1.959,2.584-1.959c0.499,0,1.489,0.123,2.142,0.594l-0.406,1.834c0.533,0.897,1.341,1.43,2.391,1.43
			c1.027,0,1.865-0.811,1.865-2.02c0-2.082-3.102-3.851-6.27-3.851c-3.98,0-6.273,2.106-6.273,5.123
			c0,1.958,1.176,3.388,3.969,5.097c2.178,1.337,2.986,2.145,2.986,3.046c0,1.272-1.186,2.179-2.707,2.179
			c-0.99,0-2.107-0.283-2.915-0.809l0.555-1.865c-0.524-0.994-1.366-1.525-2.298-1.525c-1.083,0-1.861,0.871-1.861,2.021
			C545.312,160.326,549.006,161.966,551.988,161.966 M531.641,146.621c1.244,0,1.739,0.903,1.739,1.897
			c0,3.295-3.48,4.379-6.438,4.813C527.505,150.101,529.15,146.621,531.641,146.621 M528.186,161.938
			c2.552,0,5.005-1.271,7.18-2.944l-0.99-1.586c-1.739,1.119-3.325,1.771-4.722,1.771c-2.428,0-2.896-1.93-2.896-3.668v-0.562
			c7.56-0.465,10.88-2.796,10.88-6.242c0-2.703-2.302-4.192-5.405-4.192c-5.626,0-10.128,5.25-10.128,11.028
			C522.104,158.992,524.247,161.938,528.186,161.938 M507.03,161.848l4.938-0.651l0.372-1.369c-2.331-0.56-2.609-0.867-2.268-2.176
			l2.204-8.266c0.749-2.762-0.279-4.812-2.915-4.812c-2.36,0-3.701,1.713-6.219,5.155l-0.187-0.089l0.719-2.956v-1.672h-6.586
			l-0.499,1.794l1.865,0.343l0.622,1.304l-3.481,13.021h4.473l2.085-7.858c0.372-1.431,0.899-2.361,2.301-3.762
			c1.146-1.15,1.579-1.488,2.268-1.488c0.741,0,1.273,0.465,0.932,1.676l-2.208,8.143c-0.152,0.621-0.217,1.054-0.217,1.586
			C505.229,160.791,505.974,161.442,507.03,161.848 M480.212,161.848l4.971-0.651l0.372-1.369c-2.42-0.562-2.703-0.932-2.39-2.176
			l4.472-17.867v-1.607h-6.959l-0.466,1.794l1.865,0.343l0.651,1.305l-3.912,15.692c-0.217,0.931-0.402,1.737-0.402,2.457
			C478.414,160.791,479.158,161.442,480.212,161.848 M462.877,161.848l4.971-0.651l0.372-1.369
			c-2.428-0.562-2.703-0.932-2.396-2.176l4.479-17.867v-1.607h-6.958l-0.466,1.794l1.861,0.343l0.651,1.305l-3.912,15.692
			c-0.218,0.931-0.406,1.737-0.406,2.457C461.071,160.791,461.823,161.442,462.877,161.848 M446.439,146.621
			c1.242,0,1.741,0.903,1.741,1.897c0,3.295-3.484,4.379-6.438,4.813C442.307,150.101,443.952,146.621,446.439,146.621
			 M442.987,161.938c2.551,0,5.008-1.271,7.179-2.944l-0.99-1.586c-1.742,1.119-3.329,1.771-4.729,1.771
			c-2.424,0-2.891-1.93-2.891-3.668v-0.562c7.556-0.465,10.876-2.796,10.876-6.242c0-2.703-2.298-4.192-5.405-4.192
			c-5.626,0-10.127,5.25-10.127,11.028C436.9,158.992,439.041,161.938,442.987,161.938 M402.133,161.722h5.275l5.72-11.465
			l1.738-4.445h0.808l-0.621,4.445l-0.495,11.465h5l9.882-19.234l1.987-0.715l0.593-2.171h-8.205l-0.556,2.077l1.362,0.559
			l0.343,0.998l-4.007,8.854l-1.742,4.447h-0.808l0.532-4.379l0.682-12.556h-4.755l-6.121,12.487l-1.832,4.445h-0.812l0.597-4.289
			l0.711-8.824l0.838-1.272l1.616-0.466l0.562-2.081h-9.26l-0.589,2.171l1.988,0.748L402.133,161.722z M364.514,158.277
			c-0.844,0-1.276-0.842-1.276-2.208c0-4.444,2.551-8.545,4.915-8.545c0.929,0,1.646,0.433,2.48,1.304l-1.147,4.603
			c-0.311,1.21-0.87,2.171-2.238,3.354C365.973,157.875,365.227,158.277,364.514,158.277 M370.167,161.848l4.601-0.651l0.372-1.369
			c-2.334-0.562-2.611-0.867-2.27-2.176l4.507-17.867v-1.607h-6.962l-0.466,1.794l1.865,0.343l0.651,1.305l-0.809,3.111
			l-0.341,2.048l-0.156,0.029c-1.057-1.177-2.081-2.048-4.318-2.048c-3.947,0-8.389,5.312-8.389,11.587
			c0,3.481,1.335,5.532,3.822,5.532c2.172,0,3.914-1.864,6.247-4.694l0.247,0.127c-0.247,0.899-0.403,1.925-0.403,2.457
			C368.367,160.791,369.111,161.442,370.167,161.848 M343.323,161.848l4.937-0.651l0.374-1.369c-2.33-0.56-2.61-0.867-2.269-2.176
			l2.207-8.266c0.743-2.762-0.282-4.812-2.921-4.812c-2.358,0-3.693,1.713-6.214,5.155l-0.184-0.089l0.714-2.956v-1.672h-6.589
			l-0.495,1.794l1.863,0.343l0.622,1.304l-3.481,13.021h4.477l2.083-7.858c0.369-1.431,0.898-2.361,2.298-3.762
			c1.147-1.15,1.582-1.488,2.269-1.488c0.743,0,1.273,0.465,0.932,1.676l-2.207,8.143c-0.153,0.621-0.218,1.054-0.218,1.586
			C341.52,160.791,342.268,161.442,343.323,161.848 M311.473,158.117c-0.84,0-1.309-0.498-1.309-1.802
			c0-4.289,2.865-9.104,5.875-9.104c0.688,0,1.306,0.344,1.646,0.809l-0.993,4.223c-0.31,1.307-1.116,2.801-2.33,3.979
			C313.059,157.496,312.186,158.117,311.473,158.117 M317.006,161.848l4.406-0.651l0.374-1.369
			c-2.331-0.562-2.608-0.902-2.271-2.176l3.451-12.826l-1.182-0.252l-1.618,1.116c-0.99-0.683-1.954-1.147-3.723-1.147
			c-4.755,0-11.062,5.56-11.062,12.642c0,3.172,1.553,4.976,4.037,4.694c2.144-0.25,3.915-2.237,6.218-5.346l0.25,0.125
			l-0.374,1.305c-0.155,0.562-0.31,1.184-0.31,1.806C315.205,160.791,315.948,161.442,317.006,161.848 M277.461,161.848l4.937-0.651
			l0.374-1.369c-2.331-0.56-2.608-0.867-2.27-2.176l2.208-8.266c0.746-2.762-0.279-4.812-2.917-4.812
			c-2.364,0-3.697,1.713-6.214,5.155l-0.218-0.089l1.026-2.956l1.709-6.899v-1.607h-6.962l-0.465,1.794l1.865,0.343l0.652,1.309
			l-4.941,19.852h4.475l1.925-7.855c0.342-1.434,0.839-2.363,2.237-3.765c1.152-1.149,1.586-1.489,2.27-1.489
			c0.747,0,1.273,0.467,0.935,1.676l-2.208,8.144c-0.156,0.621-0.218,1.054-0.218,1.586
			C275.661,160.791,276.404,161.442,277.461,161.848 M250.425,161.848c1.927,0,3.699-0.562,5.22-1.459l-0.339-1.832
			c-0.808,0.343-1.524,0.524-2.116,0.524c-1.087,0-1.644-0.401-1.644-1.273c0-0.432,0.093-0.896,0.25-1.488l2.358-8.795h4.446
			l0.651-2.513h-4.443l1.212-4.445h-2.765l-2.951,4.289l-2.703,0.774l-0.495,1.895h2.577l-2.485,9.354
			c-0.185,0.654-0.371,1.43-0.371,2.115C246.827,160.728,248.035,161.848,250.425,161.848 M230.729,161.848l4.969-0.651l0.374-1.369
			c-2.426-0.562-2.703-0.932-2.396-2.176l4.477-17.867v-1.607h-6.958l-0.465,1.794l1.861,0.343l0.652,1.305l-3.911,15.692
			c-0.218,0.931-0.404,1.737-0.404,2.457C228.927,160.791,229.674,161.442,230.729,161.848 M208.355,158.117
			c-0.84,0-1.305-0.498-1.305-1.802c0-4.289,2.859-9.104,5.875-9.104c0.683,0,1.305,0.344,1.647,0.809l-0.996,4.223
			c-0.307,1.307-1.117,2.801-2.329,3.979C209.941,157.496,209.072,158.117,208.355,158.117 M213.886,161.848l4.412-0.651
			l0.374-1.369c-2.331-0.562-2.612-0.902-2.27-2.176l3.45-12.826l-1.18-0.252l-1.618,1.116c-0.994-0.683-1.955-1.147-3.725-1.147
			c-4.754,0-11.06,5.56-11.06,12.642c0,3.172,1.553,4.976,4.034,4.694c2.146-0.25,3.919-2.237,6.218-5.346l0.248,0.125l-0.369,1.305
			c-0.156,0.562-0.312,1.184-0.312,1.806C212.087,160.791,212.834,161.442,213.886,161.848 M187.819,146.621
			c1.244,0,1.739,0.903,1.739,1.897c0,3.295-3.481,4.379-6.436,4.813C183.683,150.101,185.331,146.621,187.819,146.621
			 M184.37,161.938c2.546,0,5.006-1.271,7.178-2.944l-0.994-1.586c-1.739,1.119-3.325,1.771-4.725,1.771
			c-2.424,0-2.893-1.93-2.893-3.668v-0.562c7.556-0.465,10.877-2.796,10.877-6.242c0-2.703-2.299-4.192-5.402-4.192
			c-5.628,0-10.131,5.25-10.131,11.028C178.281,158.992,180.423,161.938,184.37,161.938 M145.313,161.472h10.034l0.497-1.893
			l-1.8-0.342l-0.343-1.273l1.678-6.276h6.588l-1.677,6.276l-1.026,1.273l-1.677,0.342l-0.5,1.893h10.04l0.557-2.172l-1.865-0.309
			l-0.339-1.341l3.79-14.229l1.085-1.34l1.739-0.31l0.56-2.171H162.62l-0.496,1.896l1.798,0.338l0.345,1.276l-1.557,5.847h-6.584
			l1.553-5.847l1.026-1.276l1.677-0.338l0.499-1.896h-10.034l-0.561,2.171l1.864,0.31l0.339,1.34l-3.789,14.229l-1.087,1.341
			l-1.738,0.309L145.313,161.472z"/>
	</g>
	<g>
		<defs>
			<rect id="SVGID_3_" x="145.313" width="437.373" height="161.971"/>
		</defs>
		<clipPath id="SVGID_4_">
			<use xlink:href="#SVGID_3_"  overflow="visible"/>
		</clipPath>
		<path clip-path="url(#SVGID_4_)" fill="#EC1B2F" d="M364.475,20.519v2.573c0,0.719,0.378,1.128,1.128,1.128h7.139
			c0.618,0,0.927-0.309,0.927-0.919V23.23c0-0.584-0.309-0.927-0.927-0.927h-6.246v-1.646c0-1.683,0.274-2.435,1.27-3.705
			l4.088-5.153c1.301-1.579,1.679-2.882,1.679-4.46V4.114c0-2.71-1.368-4.114-4.118-4.114h-0.754c-2.745,0-4.114,1.404-4.114,4.114
			v3.6c0,0.655,0.343,0.998,0.957,0.998h0.069c0.618,0,0.96-0.343,0.96-0.998V4.01c0-1.407,0.721-2.092,2.162-2.092h0.617
			c1.444,0,2.165,0.685,2.165,2.092v3.638c0,1.065-0.31,1.888-1.132,2.915l-4.089,5.12
			C364.853,17.432,364.475,18.631,364.475,20.519 M357.577,23.33c0,0.651,0.345,0.96,0.957,0.96h0.067
			c0.618,0,0.961-0.309,0.961-0.96V0.651c0-0.376-0.239-0.584-0.549-0.584h-0.103c-0.411,0-0.546,0.171-0.75,0.48
			c-0.24,0.413-0.378,0.551-0.482,0.651c-0.376,0.414-0.892,0.618-1.715,0.786c-0.446,0.138-0.687,0.346-0.687,0.79v0.138
			c0,0.413,0.239,0.722,0.823,0.722h1.476L357.577,23.33L357.577,23.33z"/>
	</g>
</g>
<line fill="none" stroke="#231F20" stroke-width="0.5" x1="347.59" y1="84.271" x2="381.901" y2="84.271"/>
</svg>
