<?xml version="1.0" encoding="utf-8"?>
<!-- Generator: Adobe Illustrator 16.2.1, SVG Export Plug-In . SVG Version: 6.00 Build 0)  -->
<!DOCTYPE svg PUBLIC "-//W3C//DTD SVG 1.1//EN" "http://www.w3.org/Graphics/SVG/1.1/DTD/svg11.dtd">
<svg version="1.1" id="Layer_1" xmlns="http://www.w3.org/2000/svg" xmlns:xlink="http://www.w3.org/1999/xlink" x="0px" y="0px"
	 width="440px" height="162.335px" viewBox="144 0 440 162.335" enable-background="new 144 0 440 162.335" xml:space="preserve">
<g>
	<g>
		<defs>
			<rect id="SVGID_1_" x="248.076" width="231.848" height="162.408"/>
		</defs>
		<clipPath id="SVGID_2_">
			<use xlink:href="#SVGID_1_"  overflow="visible"/>
		</clipPath>
		<path clip-path="url(#SVGID_2_)" d="M472.002,157.574c3.877,0,6.354-2.021,6.354-5.078c0-2.146-1.361-3.445-3.896-5.051
			c-2.152-1.357-2.877-1.994-2.877-2.99c0-0.881,0.754-1.906,2.51-1.906c0.486,0,1.453,0.119,2.084,0.572l-0.389,1.785
			c0.512,0.881,1.301,1.393,2.322,1.393c1,0,1.811-0.786,1.811-1.969c0-2.023-3.016-3.744-6.1-3.744
			c-3.871,0-6.105,2.054-6.105,4.983c0,1.909,1.148,3.3,3.867,4.959c2.115,1.304,2.906,2.091,2.906,2.966
			c0,1.243-1.152,2.115-2.638,2.115c-0.965,0-2.051-0.271-2.838-0.785l0.541-1.814c-0.508-0.967-1.326-1.481-2.231-1.481
			c-1.058,0-1.812,0.849-1.812,1.968C465.512,155.976,469.105,157.574,472.002,157.574 M448.039,154.643
			c-0.906,0-1.605-0.425-2.42-1.269l1.119-4.477c0.301-1.182,0.844-2.119,2.178-3.264c1.238-1.062,1.963-1.456,2.658-1.456
			c0.817,0,1.237,0.817,1.237,2.147C452.812,150.651,450.336,154.643,448.039,154.643 M436.973,162.228h8.857l0.484-1.84
			l-1.878-0.305l-0.299-0.844l0.48-1.877l0.334-1.992l0.151-0.035c1.027,1.15,2.027,1.994,4.201,1.994
			c3.84,0,8.156-5.164,8.156-11.271c0-3.384-1.297-5.379-3.715-5.379c-2.115,0-3.805,1.812-6.074,4.563l-0.244-0.123l0.609-2.572
			v-1.479h-6.412l-0.48,1.75l1.785,0.333l0.603,1.271l-3.627,14.359l-1.058,1.299l-1.391,0.306L436.973,162.228z M418.02,157.087
			h4.354l1.695-6.346c0.69-2.598,2.11-4.621,3.866-6.041l1.392,1.354c1.779-0.088,3.412-1.354,3.412-3.17
			c0-1.209-0.818-2.178-2.086-2.178c-1.449,0-2.601,1.178-5.408,5.317l-0.185-0.087l0.818-3.238v-1.63h-6.412l-0.477,1.75
			l1.811,0.333l0.605,1.268L418.02,157.087z M399.82,155.371c-1.328,0-1.998-1.181-1.998-3.48c0-4.23,2.061-9.104,4.658-9.104
			c1.422,0,2.026,1.182,2.026,3.481C404.508,150.528,402.48,155.371,399.82,155.371 M399.883,157.574
			c5.142,0,9.275-4.869,9.275-10.156c0-4.203-2.506-6.832-6.736-6.832c-5.141,0-9.279,4.865-9.279,10.156
			C393.143,154.947,395.648,157.574,399.883,157.574 M374.55,157.574c2.507,0,4.923-1.088,6.894-2.355l1.42-5.323h-2.542
			l-2.595,4.478c-0.608,0.365-1.274,0.662-2.241,0.662c-2.206,0-3.626-1.658-3.626-4.807c0-5.412,3.412-12.275,7.469-12.275
			c1.21,0,1.872,0.334,2.478,0.848l0.21,4.234h2.536l2.027-7.613h-1.205l-1.786,1.055c-1.119-0.635-2.448-1.116-4.439-1.116
			c-6.261,0-12.605,6.494-12.605,14.024C366.541,154.4,369.805,157.574,374.55,157.574 M340.938,162.408
			c2.871,0.029,6.62-2.264,10.459-6.77c3.111-3.626,5.527-8.1,5.561-11.243c0.029-2.237-1.058-3.716-2.782-3.749
			c-1.567-0.027-2.506,1.301-2.506,2.663c-0.031,0.662,0.181,1.296,0.514,1.812l1.78,0.633c-0.453,2.691-2.084,6.018-4.291,8.709
			h-0.665l0.152-3.84l-1.48-9.553h-5.868l-0.481,1.75l2.177,0.604l2.417,14.662c-1.027,0.91-1.996,1.42-3.292,1.873l-0.697-1.777
			c-2.025-0.758-3.867,0.238-3.898,1.872C338.037,161.441,339.095,162.38,340.938,162.408 M319.325,157.087h4.35l1.691-6.346
			c0.697-2.598,2.119-4.621,3.869-6.041l1.391,1.354c1.784-0.088,3.417-1.354,3.417-3.17c0-1.209-0.817-2.178-2.084-2.178
			c-1.451,0-2.601,1.178-5.412,5.317l-0.183-0.087l0.815-3.238v-1.63h-6.404l-0.482,1.75l1.809,0.333l0.605,1.268L319.325,157.087z
			 M301.125,155.371c-1.333,0-1.996-1.181-1.996-3.48c0-4.23,2.054-9.104,4.658-9.104c1.42,0,2.024,1.182,2.024,3.481
			C305.812,150.528,303.788,155.371,301.125,155.371 M301.184,157.574c5.142,0,9.28-4.869,9.28-10.156
			c0-4.203-2.506-6.832-6.739-6.832c-5.14,0-9.276,4.865-9.276,10.156C294.448,154.947,296.953,157.574,301.184,157.574
			 M278.937,157.451c1.875,0,3.595-0.545,5.078-1.421l-0.333-1.782c-0.786,0.338-1.479,0.519-2.056,0.519
			c-1.056,0-1.603-0.396-1.603-1.238c0-0.428,0.09-0.881,0.243-1.456l2.298-8.556h4.321l0.634-2.445H283.2l1.179-4.323h-2.693
			l-2.871,4.172l-2.626,0.758l-0.486,1.84h2.507l-2.414,9.104c-0.183,0.633-0.364,1.391-0.364,2.053
			C275.432,156.363,276.611,157.451,278.937,157.451 M256.838,157.421c4.901,0,8.161-3.289,8.101-7.07
			c-0.06-3.238-2.385-4.688-4.528-5.926c-1.789-1.029-3.45-1.909-3.482-3.51c-0.031-1.901,1.483-3.055,3.664-3.055
			c1.058,0,1.933,0.338,2.715,0.938l0.364,3.535h2.658l1.726-6.855h-1.209l-1.815,1.268c-1.36-0.756-2.811-1.268-4.895-1.268
			c-4.689,0-7.889,3.111-7.826,6.77c0.06,3.174,2.325,4.594,4.439,5.803c1.814,1.029,3.539,1.908,3.567,3.63
			c0.031,2.358-1.876,3.354-3.901,3.354c-1.51,0-2.626-0.449-3.624-1.088l-0.364-3.871h-2.599l-1.751,7.012h1.175l1.878-1.297
			C252.732,156.696,254.665,157.421,256.838,157.421"/>
	</g>
	<g>
		<defs>
			<rect id="SVGID_3_" x="248.076" width="231.848" height="162.408"/>
		</defs>
		<clipPath id="SVGID_4_">
			<use xlink:href="#SVGID_3_"  overflow="visible"/>
		</clipPath>
		<path clip-path="url(#SVGID_4_)" fill="#EC1B2F" d="M371.043,19.759c0,1.438-0.734,2.137-2.173,2.137h-0.868
			c-1.436,0-2.169-0.699-2.169-2.137V3.999c0-1.435,0.733-2.134,2.169-2.134h0.868c1.438,0,2.173,0.699,2.173,2.134V19.759z
			 M373.01,4.067c0-2.669-1.365-4.067-4.106-4.067h-0.935c-2.735,0-4.103,1.398-4.103,4.067V19.66c0,2.702,1.366,4.101,4.103,4.101
			h0.935c2.741,0,4.106-1.398,4.106-4.101V4.067z M357.024,22.692c0,0.638,0.333,0.938,0.931,0.938h0.064
			c0.603,0,0.938-0.301,0.938-0.938V0.634c0-0.369-0.235-0.568-0.534-0.568h-0.102c-0.4,0-0.531,0.167-0.73,0.467
			c-0.232,0.402-0.368,0.536-0.467,0.634c-0.368,0.402-0.867,0.601-1.67,0.764c-0.434,0.134-0.666,0.333-0.666,0.768v0.134
			c0,0.402,0.233,0.699,0.8,0.699h1.437V22.692z"/>
	</g>
</g>
<line fill="none" stroke="#231F20" stroke-width="0.5" x1="347.657" y1="81.979" x2="381.037" y2="81.979"/>
</svg>
