<?xml version="1.0" encoding="utf-8"?>
<!-- Generator: Adobe Illustrator 16.2.1, SVG Export Plug-In . SVG Version: 6.00 Build 0)  -->
<!DOCTYPE svg PUBLIC "-//W3C//DTD SVG 1.1//EN" "http://www.w3.org/Graphics/SVG/1.1/DTD/svg11.dtd">
<svg version="1.1" id="Layer_1" xmlns="http://www.w3.org/2000/svg" xmlns:xlink="http://www.w3.org/1999/xlink" x="0px" y="0px"
	 width="440px" height="162.335px" viewBox="144 0 440 162.335" enable-background="new 144 0 440 162.335" xml:space="preserve">
<g>
	<g>
		<defs>
			<rect id="SVGID_1_" x="293.869" width="140.262" height="161.794"/>
		</defs>
		<clipPath id="SVGID_2_">
			<use xlink:href="#SVGID_1_"  overflow="visible"/>
		</clipPath>
		<path clip-path="url(#SVGID_2_)" d="M425.996,161.792c3.973,0,6.516-2.076,6.516-5.207c0-2.207-1.395-3.541-3.994-5.186
			c-2.209-1.398-2.955-2.054-2.955-3.076c0-0.898,0.776-1.955,2.58-1.955c0.494,0,1.491,0.123,2.14,0.592l-0.402,1.832
			c0.529,0.896,1.332,1.43,2.389,1.43c1.025,0,1.863-0.812,1.863-2.02c0-2.08-3.104-3.847-6.268-3.847
			c-3.973,0-6.271,2.104-6.271,5.117c0,1.956,1.174,3.385,3.969,5.092c2.176,1.335,2.985,2.142,2.985,3.042
			c0,1.271-1.183,2.176-2.708,2.176c-0.988,0-2.104-0.281-2.916-0.807l0.562-1.864c-0.532-0.991-1.365-1.524-2.295-1.524
			c-1.086,0-1.867,0.871-1.867,2.021C419.324,160.151,423.021,161.792,425.996,161.792 M405.668,146.46
			c1.242,0,1.74,0.904,1.74,1.896c0,3.292-3.481,4.374-6.427,4.811C401.539,149.938,403.188,146.46,405.668,146.46 M402.224,161.762
			c2.544,0,4.999-1.269,7.171-2.941l-0.993-1.585c-1.736,1.12-3.32,1.771-4.72,1.771c-2.422,0-2.887-1.928-2.887-3.664v-0.561
			c7.543-0.466,10.86-2.795,10.86-6.238c0-2.699-2.291-4.188-5.394-4.188c-5.624,0-10.124,5.244-10.124,11.016
			C396.139,158.82,398.281,161.762,402.224,161.762 M379.188,161.732c2.238,0,4.284-0.932,6.338-2.357l-0.968-1.982
			c-1.796,0.934-2.818,1.302-3.846,1.302c-1.86,0-2.827-1.146-2.855-3.536c-0.098-4.068,2.049-8.324,4.997-8.324
			c0.495,0,0.809,0.127,1.15,0.377l-0.934,2.763c0.245,0.711,0.934,1.332,2.02,1.332c1.301,0,2.48-1.082,2.48-2.979
			c0-2.357-2.076-3.968-5.121-3.968c-4.69,0-9.585,4.81-9.585,10.985C372.864,159.81,375.776,161.732,379.188,161.732
			 M357.558,161.673l4.937-0.651l0.37-1.368c-2.329-0.559-2.605-0.867-2.268-2.172l2.206-8.257c0.746-2.761-0.278-4.81-2.914-4.81
			c-2.357,0-3.692,1.711-6.207,5.15l-0.188-0.089l0.718-2.953v-1.67h-6.581l-0.5,1.793l1.863,0.343l0.621,1.301l-3.475,13.006h4.468
			l2.079-7.852c0.373-1.428,0.903-2.357,2.296-3.756c1.15-1.148,1.584-1.486,2.267-1.486c0.746,0,1.272,0.465,0.934,1.672
			l-2.205,8.135c-0.156,0.621-0.219,1.053-0.219,1.584C355.76,160.617,356.505,161.268,357.558,161.673 M331.671,146.46
			c1.246,0,1.741,0.904,1.741,1.896c0,3.292-3.477,4.374-6.429,4.811C327.542,149.938,329.188,146.46,331.671,146.46
			 M328.225,161.762c2.548,0,5-1.269,7.17-2.941l-0.988-1.585c-1.741,1.12-3.321,1.771-4.721,1.771c-2.425,0-2.89-1.928-2.89-3.664
			v-0.561c7.544-0.466,10.866-2.795,10.866-6.238c0-2.699-2.297-4.188-5.4-4.188c-5.622,0-10.115,5.244-10.115,11.016
			C322.146,158.82,324.287,161.762,328.225,161.762 M293.869,161.296h10.735l0.591-2.168l-2.514-0.309l-0.338-1.339l1.52-5.743
			h1.646l1.894,0.436l-0.5,2.332h1.863l2.145-7.914h-1.863l-0.746,2.168l-2.109,0.439h-1.645l1.923-7.175h4.81l1.555,1.242
			l-0.312,2.825h2.609l1.768-6.643h-17.502l-0.556,2.17l1.862,0.309l0.338,1.339l-3.784,14.215l-1.086,1.339l-1.737,0.309
			L293.869,161.296z"/>
	</g>
	<g>
		<defs>
			<rect id="SVGID_3_" x="293.869" width="140.262" height="161.794"/>
		</defs>
		<clipPath id="SVGID_4_">
			<use xlink:href="#SVGID_3_"  overflow="visible"/>
		</clipPath>
		<path clip-path="url(#SVGID_4_)" fill="#EC1B2F" d="M369.266,22.486h-0.82c-1.475,0-2.229-0.722-2.229-2.194v-3.02
			c0-0.618-0.343-0.959-0.96-0.959h-0.069c-0.612,0-0.954,0.342-0.954,0.959v2.986c0,2.741,1.366,4.143,4.143,4.143h0.96
			c2.849,0,4.216-1.436,4.216-4.214V15.11c0-1.919-0.754-2.912-2.225-3.321c1.369-0.446,2.158-1.506,2.158-3.634V4.177
			c0-2.741-1.369-4.177-4.22-4.177h-0.785c-2.812,0-4.18,1.436-4.18,4.177v2.507c0,0.617,0.342,0.959,0.956,0.959h0.069
			c0.617,0,0.959-0.342,0.959-0.959V4.11c0-1.473,0.754-2.194,2.159-2.194h0.82c1.445,0,2.165,0.721,2.165,2.194v4.526
			c0,1.577-0.755,2.366-2.3,2.366h-1.68c-0.584,0-0.926,0.309-0.926,0.926v0.063c0,0.584,0.342,0.893,0.926,0.893h1.748
			c1.545,0,2.301,0.789,2.301,2.365v5.043C371.5,21.765,370.779,22.486,369.266,22.486 M357.411,23.304
			c0,0.651,0.342,0.959,0.956,0.959h0.068c0.617,0,0.959-0.309,0.959-0.959V0.651c0-0.375-0.239-0.584-0.549-0.584h-0.102
			c-0.411,0-0.545,0.171-0.751,0.48c-0.24,0.413-0.375,0.55-0.479,0.651c-0.376,0.413-0.891,0.617-1.713,0.785
			c-0.445,0.138-0.686,0.346-0.686,0.789v0.137c0,0.413,0.24,0.722,0.821,0.722h1.476L357.411,23.304L357.411,23.304z"/>
	</g>
</g>
<line fill="none" stroke="#231F20" stroke-width="0.5" x1="347.605" y1="84.18" x2="381.88" y2="84.18"/>
</svg>
