<?xml version="1.0" encoding="utf-8"?>
<!-- Generator: Adobe Illustrator 16.2.0, SVG Export Plug-In . SVG Version: 6.00 Build 0)  -->
<!DOCTYPE svg PUBLIC "-//W3C//DTD SVG 1.1//EN" "http://www.w3.org/Graphics/SVG/1.1/DTD/svg11.dtd">
<svg version="1.1" id="Selected_Items" xmlns="http://www.w3.org/2000/svg" xmlns:xlink="http://www.w3.org/1999/xlink" x="0px"
	 y="0px" width="19px" height="19px" viewBox="0 0 19 19" enable-background="new 0 0 19 19" xml:space="preserve">
<path fill-rule="evenodd" clip-rule="evenodd" fill="#FFFFFF" d="M16.35,0.3l1.45,6v0.05L11.75,5l-0.1-0.1l1.6-1.1
	c-0.6-0.367-1.184-0.633-1.75-0.8c-0.634-0.2-1.3-0.3-2-0.3C8.767,2.7,8.05,2.8,7.35,3C6.65,3.2,6.033,3.55,5.5,4.05
	C4.933,4.417,4.433,4.9,4,5.5C3.567,6.067,3.25,6.7,3.05,7.4c-0.267,0.633-0.4,1.35-0.4,2.15c0,0.733,0.133,1.45,0.4,2.15
	c0.2,0.633,0.517,1.25,0.95,1.85c0.433,0.566,0.933,1.066,1.5,1.5C6.033,15.483,6.65,15.8,7.35,16c0.7,0.233,1.417,0.366,2.15,0.4
	c0.8-0.034,1.566-0.167,2.3-0.4c0.7-0.267,1.351-0.634,1.95-1.1c0.566-0.467,1.066-1,1.5-1.601c0.434-0.633,0.733-1.316,0.9-2.05
	l2.55,0.55l0.05,0.05c-0.2,0.801-0.517,1.584-0.95,2.351c-0.434,0.733-0.934,1.399-1.5,2c-0.6,0.566-1.25,1.066-1.95,1.5
	c-0.733,0.434-1.5,0.783-2.3,1.05c-0.434,0.1-0.833,0.167-1.2,0.2c-0.466,0.066-0.916,0.1-1.35,0.1c-0.633,0-1.267-0.05-1.9-0.149
	c-0.633-0.167-1.217-0.351-1.75-0.551c-0.6-0.267-1.133-0.566-1.6-0.899c-0.533-0.367-1.017-0.767-1.45-1.2
	c-0.466-0.434-0.867-0.917-1.2-1.45c-0.333-0.467-0.633-1-0.9-1.6c-0.267-0.566-0.45-1.15-0.55-1.75C0.05,10.816,0,10.184,0,9.55
	C0,8.65,0.1,7.8,0.3,7c0.233-0.8,0.567-1.55,1-2.25c0.4-0.733,0.9-1.367,1.5-1.9C3.367,2.217,4,1.717,4.7,1.35
	c0.7-0.434,1.45-0.767,2.25-1c0.8-0.267,1.65-0.367,2.55-0.3c0.7-0.066,1.4-0.017,2.1,0.15c0.634,0.167,1.267,0.383,1.9,0.65
	c0.566,0.267,1.116,0.617,1.65,1.05L16.3,0.3H16.35z"/>
</svg>
