<?xml version="1.0" encoding="utf-8"?>
<!-- Generator: Adobe Illustrator 18.1.0, SVG Export Plug-In . SVG Version: 6.00 Build 0)  -->
<svg version="1.1" id="Layer_1" xmlns="http://www.w3.org/2000/svg" xmlns:xlink="http://www.w3.org/1999/xlink" x="0px" y="0px"
	 width="49px" height="53px" viewBox="0 0 49 53" enable-background="new 0 0 49 53" xml:space="preserve">
<g>
	<g>
		<linearGradient id="SVGID_1_" gradientUnits="userSpaceOnUse" x1="8.5724" y1="48.2124" x2="8.5724" y2="27.857">
			<stop  offset="0" style="stop-color:#A31E22"/>
			<stop  offset="0.3359" style="stop-color:#96191C"/>
			<stop  offset="0.9565" style="stop-color:#740A0B"/>
			<stop  offset="1" style="stop-color:#71090A"/>
		</linearGradient>
		<polygon fill="url(#SVGID_1_)" points="16.7,51.8 0.5,35.2 0.5,4.6 16.7,17.5 		"/>
		<path fill="#E31837" d="M41.9,0.5H0.5v34.7h41.4c1.3,0,2.3-1,2.3-2.3V2.8C44.2,1.5,43.2,0.5,41.9,0.5z"/>
	</g>
	<path fill="#FFFFFF" d="M20.5,28.8c7.2,1.3,12.5-5.7,15.9-11.7c1.4-2.4,3.4-8.8,1.1-11.2c-2.1-2.3-3.7,0.7-5,1.7l1,1.1
		c1.9,2.4,0.3,7.1-0.9,9.5c-1.7,3-5,7.6-8.8,7c-0.8-0.2-1.5-1-1.8-1.8c2-2,4.5-5.6,5.8-7.9c1.1-1.9,3.1-5.6,1.3-7.1
		c-1.5-1-4.5,0.5-6.2,1.8c-1,0.9-1.7,1.6-2.4,2.6c-2.1,2.8-4.1,7.7-3.9,11.4c-1,0.7-2.1,1.4-3.5,1c-1.3-0.3-1.6-1.4-1.8-2.3
		c-0.9-5.4,4.6-12.2,7.6-16.1c0,0-2.4,0.6-4.2,0.7c-4,0.2-7-1.7-9.2,1c-0.7,1-1,2-1.2,3.1c0.9-0.8,2.2-0.6,3.5-0.5
		c2.2,0.2,3.3,0.5,5.2-0.1c-1.8,2.5-4.7,7.3-5.2,10.4c-0.3,2-0.3,5.2,1.5,6.6c2.9,1.9,5.7,0.6,8.2-1.2
		C18.5,27.8,19.5,28.6,20.5,28.8z M25.4,11.9c0.8-0.4,0.5,0.8,0.5,0.8c-0.1,1.3-1,2.8-1.7,4c-0.7,1.2-3.1,4-4.1,4.6
		c0-1.7,1.9-5.4,2.8-6.9C23.4,13.6,24.6,12.3,25.4,11.9z"/>
	<path fill="#FFFFFF" d="M41.9,0H0v3.6l0,0l0,31.8L17.1,53V35.6h24.7c1.5,0,2.8-1.2,2.8-2.8V2.8C44.7,1.2,43.4,0,41.9,0z M1.6,35.6
		h14.6v15L1.6,35.6z M43.7,32.9c0,1-0.8,1.8-1.8,1.8H1l0-29l0,0V0.9h40.9c1,0,1.8,0.8,1.8,1.8V32.9z"/>
</g>
<g>
	<path fill="#FFFFFF" d="M47.3,31.3c0.9,0,1.7,0.7,1.7,1.7c0,1-0.8,1.7-1.7,1.7c-0.9,0-1.7-0.7-1.7-1.7
		C45.6,32.1,46.4,31.3,47.3,31.3z M47.3,34.4c0.8,0,1.4-0.6,1.4-1.4c0-0.8-0.6-1.4-1.4-1.4c-0.8,0-1.4,0.6-1.4,1.4
		C45.9,33.8,46.5,34.4,47.3,34.4z M46.7,32h0.8c0.5,0,0.7,0.2,0.7,0.6c0,0.4-0.2,0.5-0.5,0.5l0.6,0.9h-0.3l-0.5-0.8H47V34h-0.3V32z
		 M47,32.9h0.3c0.3,0,0.5,0,0.5-0.3c0-0.3-0.2-0.3-0.4-0.3H47V32.9z"/>
</g>
</svg>
