<?xml version="1.0" encoding="utf-8"?>
<!-- Generator: Adobe Illustrator 18.1.1, SVG Export Plug-In . SVG Version: 6.00 Build 0)  -->
<!DOCTYPE svg PUBLIC "-//W3C//DTD SVG 1.1//EN" "http://www.w3.org/Graphics/SVG/1.1/DTD/svg11.dtd">
<svg version="1.1" id="Layer_1" xmlns="http://www.w3.org/2000/svg" xmlns:xlink="http://www.w3.org/1999/xlink" x="0px" y="0px"
	 width="18.5px" height="31.7px" viewBox="0 0 18.5 31.7" enable-background="new 0 0 18.5 31.7" xml:space="preserve">
<g>
	<path fill="#FFFFFF" d="M18.1,16.6L3.4,31.3c-0.2,0.2-0.5,0.3-0.7,0.3s-0.5-0.1-0.7-0.3l-1.6-1.6C0.1,29.6,0,29.3,0,29
		c0-0.3,0.1-0.5,0.3-0.7l12.5-12.5L0.3,3.4C0.1,3.2,0,2.9,0,2.6s0.1-0.5,0.3-0.7l1.6-1.6C2.1,0.1,2.4,0,2.6,0s0.5,0.1,0.7,0.3
		l14.8,14.8c0.2,0.2,0.3,0.5,0.3,0.7S18.3,16.4,18.1,16.6z"/>
</g>
</svg>
