<?xml version="1.0" encoding="utf-8"?>
<!-- Generator: Adobe Illustrator 18.1.1, SVG Export Plug-In . SVG Version: 6.00 Build 0)  -->
<!DOCTYPE svg PUBLIC "-//W3C//DTD SVG 1.1//EN" "http://www.w3.org/Graphics/SVG/1.1/DTD/svg11.dtd">
<svg version="1.1" id="Layer_1" xmlns="http://www.w3.org/2000/svg" xmlns:xlink="http://www.w3.org/1999/xlink" x="0px" y="0px"
	 width="127.8px" height="25.3px" viewBox="-241 384.7 127.8 25.3" enable-background="new -241 384.7 127.8 25.3"
	 xml:space="preserve">
<g>
	
		<linearGradient id="SVGID_1_" gradientUnits="userSpaceOnUse" x1="-177.1" y1="412.7541" x2="-177.1" y2="387.4828" gradientTransform="matrix(1 0 0 -1 0 797.4)">
		<stop  offset="0" style="stop-color:#387AB4"/>
		<stop  offset="1" style="stop-color:#00427C"/>
	</linearGradient>
	<path fill="url(#SVGID_1_)" d="M-113.2,408c0,1.1-0.9,2-2,2H-239c-1.1,0-2-0.9-2-2v-21.3c0-1.1,0.9-2,2-2h123.8c1.1,0,2,0.9,2,2
		V408z"/>
</g>
<g>
	<path fill="#FFFFFF" d="M-137.1,397.5l-4.4,4.4c-0.1,0.1-0.1,0.1-0.2,0.1s-0.1,0-0.2-0.1l-0.5-0.5c-0.1,0-0.1-0.1-0.1-0.2
		s0-0.1,0.1-0.2l3.7-3.7l-3.7-3.7c-0.1-0.1-0.1-0.1-0.1-0.2s0-0.1,0.1-0.2l0.5-0.5c0.1-0.1,0.1-0.1,0.2-0.1s0.1,0,0.2,0.1l4.4,4.4
		c0.1,0.1,0.1,0.1,0.1,0.2C-137.1,397.3-137.1,397.5-137.1,397.5z"/>
</g>
</svg>
