<?xml version="1.0" encoding="utf-8"?>
<!-- Generator: Adobe Illustrator 18.1.1, SVG Export Plug-In . SVG Version: 6.00 Build 0)  -->
<!DOCTYPE svg PUBLIC "-//W3C//DTD SVG 1.1//EN" "http://www.w3.org/Graphics/SVG/1.1/DTD/svg11.dtd">
<svg version="1.1" id="Layer_1" xmlns="http://www.w3.org/2000/svg" xmlns:xlink="http://www.w3.org/1999/xlink" x="0px" y="0px"
	 width="283.1px" height="30.4px" viewBox="-163 381.6 283.1 30.4" enable-background="new -163 381.6 283.1 30.4"
	 xml:space="preserve">
<g>
	<g>
		<g>
			<g>
				<g>
					<path fill="#00549F" d="M-146.1,382.9h-0.4v0.3h0.4v0.1h-0.5v-0.9h0.5v0.1h-0.4v0.3L-146.1,382.9L-146.1,382.9z"/>
					<path fill="#00549F" d="M-145.9,383.3L-145.9,383.3l0.1-0.2c0.2-0.2,0.3-0.3,0.3-0.5c0-0.1,0-0.2-0.2-0.2c-0.1,0-0.1,0-0.2,0.1
						v-0.1c0.1-0.1,0.1-0.1,0.2-0.1c0.2,0,0.3,0.1,0.3,0.3s-0.1,0.3-0.3,0.5l-0.1,0.1l0,0h0.4v0.1H-145.9z"/>
					<path fill="#00549F" d="M-145,383l-0.1,0.3h-0.1l0.2-0.9h0.1l0.3,0.9h-0.1l-0.1-0.3C-144.8,383-145,383-145,383z M-144.7,382.9
						l-0.1-0.3c0-0.1,0-0.1,0-0.2l0,0c0,0.1,0,0.1,0,0.2l-0.2,0.3H-144.7z"/>
				</g>
			</g>
		</g>
		<path fill="#00549F" d="M-136,395.3c0,1.2-0.3,2.3-0.9,3.2c2.2-1.4,4.4-3.4,6.3-6c-4.6-5.9-9.2-8.6-14.9-8.6c-6,0-12.5,4-15.4,9.6
			c-0.3,0.5-0.9,0.7-1.5,0.4c-0.4-0.1-0.6-0.5-0.6-0.9c0-0.2,0-0.4,0.1-0.5c2.6-4.9,9.3-10.7,17.4-10.7c6.8,0,12.3,3.2,17.7,10.7
			c-5.2,7.1-10.5,9.8-15.5,9.8c-3.8,0-6.9-2.8-6.9-6.2c0-2.6,2.1-4.7,4.7-4.7c2.2,0,4.1,1.6,4.6,3.7c0.1,0.6-0.2,1.2-0.8,1.3
			c-0.6,0.1-1.2-0.2-1.3-0.8c-0.3-1.1-1.3-2-2.5-2c-1.4,0-2.5,1.1-2.5,2.5c0,2.2,2.1,4,4.8,4c3.2,0,5.1-1.8,5.1-4.8
			c0-3.2-3-6.7-7.3-6.7c-5,0-9,3.8-9,9.2c0,6.2,5.9,11.4,13,12c0.6,0.1,1,0.6,1,1.2s-0.5,1-1.1,1h-0.1c-7.8-0.7-15-6.5-15-14.2
			c0-6.6,5-11.4,11.2-11.4C-140.4,386.4-136,390.5-136,395.3z"/>
	</g>
	<g>
		<g>
			<path fill="#00549F" d="M-116.4,384v16.7c0,1-0.7,1.5-1.5,1.5h-0.1c-0.8,0-1.5-0.5-1.5-1.5V384h-5.1c-0.7,0-1.1-0.4-1.1-1.1l0,0
				c0-0.7,0.4-1.1,1.1-1.1h13.2c0.7,0,1.1,0.4,1.1,1.1v0.1c0,0.7-0.4,1.1-1.1,1.1h-5V384z"/>
		</g>
		<g>
			<path fill="#00549F" d="M-106.9,385.2c-0.9,0-1.7-0.7-1.7-1.6s0.8-1.7,1.7-1.7s1.7,0.7,1.7,1.7
				C-105.2,384.5-106,385.2-106.9,385.2z M-105.5,400.8c0,1-0.6,1.4-1.4,1.4h-0.1c-0.8,0-1.4-0.5-1.4-1.4v-12.5c0-1,0.4-1.5,1.4-1.5
				l0,0c1,0,1.5,0.6,1.5,2.2V400.8z"/>
			<path fill="#00549F" d="M-98.7,390.6v10.3c0,1-0.6,1.4-1.4,1.4h-0.1c-0.8,0-1.4-0.5-1.4-1.4v-12.6c0-1,0.4-1.5,1.3-1.5h0.1
				c0.9,0,1.4,0.5,1.5,2c1.4-1,3.4-2.1,5.6-2.1c1.6,0,3.1,0.6,3.6,2.2c1.5-1.3,3.7-2.2,5.9-2.2c2.1,0,3.9,1,3.9,4v10.1
				c0,1-0.6,1.4-1.4,1.4h-0.1c-0.8,0-1.4-0.5-1.4-1.4v-9.3c0-1.8-0.8-2.4-2.3-2.4c-1.6,0-3.1,0.8-4.3,1.5v10.2c0,1-0.6,1.4-1.4,1.4
				h-0.1c-0.8,0-1.4-0.5-1.4-1.4v-9.3c0-1.8-0.8-2.4-2.3-2.4C-96.1,389.1-97.5,389.8-98.7,390.6z"/>
			<path fill="#00549F" d="M-74,395.1c0.1,3.7,1.8,5.1,4.9,5.1c2.9,0,3.4-1.5,4.4-1.5c0.7,0,1,0.4,1,1.1v0.1c0,0.5-0.4,1-1,1.4
				c-1.1,0.6-2.6,1.1-4.9,1.1c-4.8,0-7.4-3-7.4-7.7c0-4.8,3-7.9,7.1-7.9c4.3,0,6.6,2.5,6.6,7c0,0.9-0.5,1.3-1.4,1.3
				C-64.7,395.1-74,395.1-74,395.1z M-74,393.2h7.7c0-3.4-1.4-4.6-3.6-4.6C-72,388.6-73.6,389.9-74,393.2z"/>
		</g>
		<g>
			<path fill="#00549F" d="M-35.9,382.9c0.2-0.9,0.7-1.3,1.3-1.3h0.1c1,0,1.6,0.8,1.3,1.8l-4.3,17.1c-0.3,1.3-0.9,1.7-2,1.7h-0.1
				c-1.1,0-1.8-0.5-2.1-1.8l-3.5-13.8h-0.1l-3.5,14c-0.3,1.3-1,1.7-2,1.7H-51c-1.1,0-1.8-0.4-2.1-1.7l-4.1-16.9
				c-0.3-1.1,0.3-2,1.4-2h0.1c0.7,0,1.3,0.5,1.5,1.4l3.5,15h0.1l3.9-14.9c0.3-1.1,0.8-1.5,1.7-1.5h0.1c0.9,0,1.4,0.4,1.7,1.5
				l3.9,14.9h0.1L-35.9,382.9z"/>
		</g>
		<g>
			<path fill="#00549F" d="M-22.3,400.5c-1.2,1.2-2.6,1.9-4.7,1.9c-2.9,0-4.9-1.6-4.9-4.5c0-3.1,2.5-4.6,6.1-4.6
				c1.3,0,2.4,0.1,3.5,0.4v-2.2c0-1.9-1.1-2.6-3.2-2.6c-3,0-3.2,1.4-4.3,1.4c-0.6,0-1.1-0.5-1.1-1.1l0,0c0-0.6,0.3-1.2,1.3-1.6
				c1.1-0.5,2.7-0.8,4.4-0.8c3.7,0,5.8,1.3,5.8,4.6v9.5c0,1-0.4,1.5-1.3,1.5h-0.1C-21.7,402.3-22.2,401.7-22.3,400.5z M-22.4,398.6
				v-3.3c-0.9-0.2-1.9-0.3-3-0.3c-2.2,0-3.7,0.8-3.7,2.7s1.3,2.7,3,2.7S-23.3,399.6-22.4,398.6z"/>
		</g>
		<g>
			<path fill="#00549F" d="M-12.9,389.1c1.1-1.3,2.7-2.3,4.3-2.3c0.8,0,1.2,0.4,1.2,1.2v0.1c0,0.8-0.4,1.2-1.3,1.3
				c-1.8,0.1-3,0.6-4.2,1.7v9.8c0,1-0.6,1.4-1.4,1.4h-0.1c-0.8,0-1.4-0.5-1.4-1.4v-12.6c0-1,0.4-1.5,1.3-1.5h0.1
				C-13.5,386.8-12.9,387.5-12.9,389.1z"/>
		</g>
		<g>
			<path fill="#00549F" d="M-2.1,390.7v10.2c0,1-0.6,1.4-1.4,1.4h-0.1c-0.8,0-1.4-0.5-1.4-1.4v-12.6c0-1,0.4-1.5,1.3-1.5h0.1
				c0.9,0,1.5,0.5,1.5,2.1c1.5-1.2,3.7-2.2,6.1-2.2c2.2,0,4,0.8,4,4.2v10c0,1-0.6,1.4-1.4,1.4H6.5c-0.8,0-1.4-0.5-1.4-1.4v-9.4
				c0-2-0.9-2.4-2.4-2.4C0.8,389.1-0.8,389.9-2.1,390.7z"/>
			<path fill="#00549F" d="M13.6,395.1c0.1,3.7,1.8,5.1,4.9,5.1c2.9,0,3.4-1.5,4.4-1.5c0.7,0,1,0.4,1,1.1v0.1c0,0.5-0.4,1-1,1.4
				c-1.1,0.6-2.6,1.1-4.9,1.1c-4.8,0-7.4-3-7.4-7.7c0-4.8,3-7.9,7.1-7.9c4.3,0,6.6,2.5,6.6,7c0,0.9-0.5,1.3-1.4,1.3
				C22.9,395.1,13.6,395.1,13.6,395.1z M13.7,393.2h7.7c-0.1-3.3-1.5-4.5-3.7-4.5C15.6,388.6,14,389.9,13.7,393.2z"/>
			<path fill="#00549F" d="M30,389.1c1.1-1.3,2.7-2.3,4.3-2.3c0.8,0,1.2,0.4,1.2,1.2v0.1c0,0.8-0.4,1.2-1.3,1.3
				c-1.8,0.1-3,0.6-4.2,1.7v9.8c0,1-0.6,1.4-1.4,1.4h-0.1c-0.8,0-1.4-0.5-1.4-1.4v-12.6c0-1,0.4-1.5,1.3-1.5h0.1
				C29.4,386.8,29.9,387.5,30,389.1z"/>
		</g>
		<g>
			<path fill="#00549F" d="M50.6,402.3c-5.6,0-9.3-3.8-9.3-10.4c0-6.6,4.1-10.4,9.6-10.4c2,0,3.6,0.3,4.9,1c0.9,0.5,1.3,1.1,1.3,1.8
				l0,0c0,0.7-0.5,1.2-1.2,1.2c-1.3,0-1.7-1.7-5-1.7c-3.8,0-6.4,2.8-6.4,7.9c0,5.4,2.3,8.2,6.2,8.2c3.8,0,4.3-2.2,5.5-2.2
				c0.7,0,1.1,0.5,1.1,1.1v0.1c0,0.8-0.4,1.3-1.4,1.9C54.7,401.8,52.9,402.3,50.6,402.3z"/>
			<path fill="#00549F" d="M68.7,400.5c-1.2,1.2-2.6,1.9-4.7,1.9c-2.9,0-4.9-1.6-4.9-4.5c0-3.1,2.5-4.6,6.1-4.6
				c1.3,0,2.4,0.1,3.5,0.4v-2.2c0-1.9-1.1-2.6-3.2-2.6c-3,0-3.2,1.4-4.3,1.4c-0.6,0-1.1-0.5-1.1-1.1l0,0c0-0.6,0.3-1.2,1.3-1.6
				c1.1-0.5,2.7-0.8,4.4-0.8c3.7,0,5.8,1.3,5.8,4.6v9.5c0,1-0.4,1.5-1.3,1.5h-0.1C69.3,402.3,68.8,401.7,68.7,400.5z M68.6,398.6
				v-3.3c-0.9-0.2-1.9-0.3-3-0.3c-2.2,0-3.7,0.8-3.7,2.7s1.3,2.7,3,2.7S67.7,399.6,68.6,398.6z"/>
			<path fill="#00549F" d="M78.1,383.9v5.1c1.2-1.2,2.9-2.2,5.2-2.2c2.9,0,5.9,1.8,5.9,7.6c0,6-3.3,8-6.5,8c-2.1,0-3.6-0.6-4.7-1.5
				c-0.2,1-0.8,1.5-1.5,1.5h-0.1c-0.8,0-1.3-0.4-1.3-1.5v-17.8c0-1,0.4-1.5,1.3-1.5h0.1C77.6,381.7,78.1,382.2,78.1,383.9z
				 M78.1,390.9v8c0.9,0.9,2,1.4,3.7,1.4c2.1,0,4.3-1,4.3-5.6c0-4.5-2-5.6-4-5.6C80.6,389,79.2,389.9,78.1,390.9z"/>
			<path fill="#00549F" d="M94.9,383.9v17c0,1-0.6,1.4-1.4,1.4h-0.1c-0.8,0-1.4-0.5-1.4-1.4v-17.8c0-1,0.4-1.5,1.4-1.5h0.1
				C94.4,381.7,94.9,382.2,94.9,383.9z"/>
			<path fill="#00549F" d="M100.7,395.1c0.1,3.7,1.8,5.1,4.9,5.1c2.9,0,3.4-1.5,4.4-1.5c0.7,0,1,0.4,1,1.1v0.1c0,0.5-0.4,1-1,1.4
				c-1.1,0.6-2.6,1.1-4.9,1.1c-4.8,0-7.4-3-7.4-7.7c0-4.8,3-7.9,7.1-7.9c4.3,0,6.6,2.5,6.6,7c0,0.9-0.5,1.3-1.4,1.3
				C110,395.1,100.7,395.1,100.7,395.1z M100.8,393.2h7.7c-0.1-3.3-1.5-4.5-3.7-4.5C102.8,388.6,101.1,389.9,100.8,393.2z"/>
		</g>
	</g>
</g>
<g>
	<path fill="#00549F" d="M116.8,392.2c-1.9,0-3.4-1.3-3.4-3.3s1.5-3.3,3.4-3.3c1.8,0,3.4,1.3,3.4,3.3
		C120.1,390.9,118.6,392.2,116.8,392.2z M116.8,391.6c1.5,0,2.7-1,2.7-2.7c0-1.7-1.1-2.7-2.7-2.7c-1.5,0-2.7,1-2.7,2.7
		C114.1,390.6,115.2,391.6,116.8,391.6z M118.2,390c0.2,0.3,0,0.6-0.3,0.6l0,0c-0.2,0-0.4-0.1-0.5-0.4l-0.5-0.9h-0.4v0.9
		c0,0.3-0.2,0.4-0.4,0.4l0,0c-0.2,0-0.4-0.1-0.4-0.4v-2.5c0-0.4,0.3-0.6,0.6-0.6h0.8c0.9,0,1.4,0.4,1.4,1.1c0,0.4-0.2,0.8-0.6,0.9
		L118.2,390z M116.4,388.7h0.5c0.4,0,0.6-0.2,0.6-0.5c0-0.3-0.1-0.5-0.6-0.5h-0.5V388.7z"/>
</g>
</svg>
