<?xml version="1.0" encoding="utf-8"?>
<!-- Generator: Adobe Illustrator 19.1.0, SVG Export Plug-In . SVG Version: 6.00 Build 0)  -->
<svg version="1.1" id="Layer_1" xmlns="http://www.w3.org/2000/svg" xmlns:xlink="http://www.w3.org/1999/xlink" x="0px" y="0px"
	 viewBox="0 0 341.8 36" style="enable-background:new 0 0 341.8 36;" xml:space="preserve">
<style type="text/css">
	.Arched_x0020_Green{fill:url(#SVGID_1_);stroke:#FFFFFF;stroke-width:0.25;stroke-miterlimit:1;}
	.st0{fill:#00549F;}
</style>
<linearGradient id="SVGID_1_" gradientUnits="userSpaceOnUse" x1="-174.1104" y1="55.0005" x2="-173.4033" y2="54.2934">
	<stop  offset="0" style="stop-color:#1EAB4B"/>
	<stop  offset="0.9831" style="stop-color:#19361A"/>
</linearGradient>
<g>
	<g>
		<path class="st0" d="M0,13.6c0,0.4,0.2,0.9,0.6,1.1C1.2,15,2,14.8,2.3,14.2C6.2,7.3,12.9,2.7,20.6,2.7c6.7,0,13.5,4.1,17.9,10.3
			c-2.3,3.2-5.1,5.8-8,7.5c0.8-1.2,1.3-2.6,1.3-4.2c0-5.7-5-10.3-11.1-10.3C13.3,6,7.4,11.7,7.4,18.8c0,8.9,7.5,16.2,17.1,17.2
			c0,0,0.1,0,0.1,0c0.6,0,1.2-0.5,1.2-1.1c0.1-0.7-0.4-1.3-1.1-1.4c-8.4-0.9-14.9-7.1-14.9-14.8c0-5.7,4.8-10.3,10.7-10.3
			c4.8,0,8.7,3.5,8.7,7.8c0,3.4-3,6.2-6.2,6.2c-3.2,0-5.8-2.2-5.8-5c0-1.8,1.5-3.3,3.3-3.3c1.4,0,2.6,1,2.8,2.4
			c0.1,0.7,0.8,1.1,1.4,1c0.7-0.1,1.1-0.8,1-1.4c-0.4-2.5-2.6-4.4-5.3-4.4c-3.2,0-5.8,2.6-5.8,5.8c0,4.1,3.7,7.4,8.3,7.4
			c6.4,0,13.7-4.7,18.4-12C36.7,5.4,28.7,0.2,20.6,0.2C12,0.2,4.4,5.3,0.2,13C0,13.2,0,13.4,0,13.6z"/>
	</g>
	<g>
		<g>
			<path class="st0" d="M55.2,3v20.2c0,1.3-0.8,1.9-1.9,1.9h-0.1c-1,0-1.8-0.6-1.8-1.9V3h-6.1C44.5,3,44,2.5,44,1.6V1.5
				c0-0.9,0.5-1.3,1.4-1.3h16c0.8,0,1.4,0.5,1.4,1.3v0.1c0,0.9-0.5,1.3-1.4,1.3H55.2z"/>
			<path class="st0" d="M66.7,4.3c-1.1,0-2-0.9-2-2c0-1.1,0.9-2,2-2c1.1,0,2,0.9,2,2C68.7,3.4,67.8,4.3,66.7,4.3z M68.4,23.2
				c0,1.2-0.7,1.7-1.7,1.7h-0.1c-1,0-1.7-0.6-1.7-1.7V8.1c0-1.2,0.5-1.8,1.7-1.8h0.1c1.2,0,1.8,0.7,1.8,2.7V23.2z"/>
			<path class="st0" d="M76.6,10.9v12.4c0,1.2-0.7,1.7-1.7,1.7h-0.1c-1,0-1.7-0.6-1.7-1.7V8.1c0-1.2,0.5-1.8,1.6-1.8h0.1
				c1.1,0,1.7,0.6,1.8,2.4c1.7-1.3,4.1-2.5,6.8-2.5c1.9,0,3.7,0.7,4.4,2.7c1.9-1.5,4.4-2.7,7.1-2.7c2.6,0,4.7,1.2,4.7,4.9v12.2
				c0,1.2-0.7,1.7-1.7,1.7h-0.1c-1,0-1.7-0.6-1.7-1.7V11.9c0-2.2-0.9-2.9-2.8-2.9c-2,0-3.7,0.9-5.2,1.9v12.3c0,1.2-0.7,1.7-1.7,1.7
				h-0.1c-1,0-1.7-0.6-1.7-1.7V11.9c0-2.2-1-2.9-2.7-2.9C79.8,9,78.1,9.9,76.6,10.9z"/>
			<path class="st0" d="M106.4,16.3c0.2,4.4,2.2,6.2,5.9,6.2c3.5,0,4.1-1.8,5.3-1.8c0.8,0,1.3,0.5,1.3,1.3V22c0,0.6-0.5,1.2-1.2,1.7
				c-1.3,0.8-3.2,1.4-5.9,1.4c-5.8,0-9-3.6-9-9.4c0-5.8,3.7-9.5,8.6-9.5c5.1,0,7.9,3.1,7.9,8.4c0,1.1-0.6,1.6-1.7,1.6H106.4z
				 M106.4,14h9.4c-0.1-4-1.8-5.5-4.4-5.5C108.8,8.5,106.9,10,106.4,14z"/>
			<path class="st0" d="M152.4,1.6c0.2-1.1,0.8-1.5,1.6-1.5h0.1c1.3,0,1.9,0.9,1.6,2.2l-5.1,20.6c-0.4,1.6-1.1,2.1-2.5,2.1h-0.2
				c-1.4,0-2.1-0.6-2.5-2.1l-4.3-16.6h-0.1l-4.3,16.7c-0.4,1.5-1.2,2-2.5,2h-0.2c-1.3,0-2.1-0.5-2.5-2.1l-5-20.4
				c-0.4-1.4,0.3-2.4,1.7-2.4h0.1c0.9,0,1.5,0.6,1.8,1.7l4.3,18.1h0.1l4.7-18c0.3-1.3,1-1.8,2-1.8h0.1c1.1,0,1.7,0.5,2,1.8l4.8,18
				h0.1L152.4,1.6z"/>
			<path class="st0" d="M168.8,22.8c-1.4,1.4-3.1,2.3-5.7,2.3c-3.4,0-5.9-1.9-5.9-5.4c0-3.8,3.1-5.6,7.3-5.6c1.6,0,2.9,0.2,4.2,0.5
				V12c0-2.3-1.3-3.2-3.9-3.2c-3.7,0-3.8,1.7-5.1,1.7c-0.7,0-1.3-0.6-1.3-1.3v0c0-0.7,0.4-1.4,1.5-1.9c1.3-0.6,3.2-1,5.3-1
				c4.4,0,7,1.5,7,5.6v11.5c0,1.2-0.5,1.8-1.5,1.8h-0.1C169.6,25,169,24.3,168.8,22.8z M168.8,20.5v-4c-1.1-0.2-2.3-0.4-3.6-0.4
				c-2.6,0-4.5,0.9-4.5,3.2c0,2.3,1.5,3.3,3.6,3.3C166.3,22.7,167.6,21.7,168.8,20.5z"/>
			<path class="st0" d="M180.2,9c1.3-1.5,3.3-2.8,5.2-2.8c0.9,0,1.4,0.5,1.4,1.4v0.1c0,1-0.5,1.5-1.6,1.6c-2.2,0.2-3.6,0.7-5,2v11.9
				c0,1.2-0.7,1.7-1.7,1.7h-0.1c-1,0-1.7-0.6-1.7-1.7V8.1c0-1.2,0.5-1.8,1.6-1.8h0.1C179.5,6.3,180.2,7.1,180.2,9z"/>
			<path class="st0" d="M193.2,11v12.3c0,1.2-0.7,1.7-1.7,1.7h-0.1c-1,0-1.7-0.6-1.7-1.7V8.1c0-1.2,0.5-1.8,1.6-1.8h0.1
				c1.1,0,1.8,0.6,1.8,2.5c1.9-1.4,4.5-2.6,7.3-2.6c2.6,0,4.9,1,4.9,5v12c0,1.2-0.7,1.7-1.7,1.7h-0.1c-1,0-1.7-0.6-1.7-1.7V12
				c0-2.4-1.1-3-3-3C196.8,9,194.8,10,193.2,11z"/>
			<path class="st0" d="M212.2,16.3c0.2,4.4,2.2,6.2,5.9,6.2c3.5,0,4.1-1.8,5.3-1.8c0.8,0,1.3,0.5,1.3,1.3V22c0,0.6-0.5,1.2-1.2,1.7
				c-1.3,0.8-3.2,1.4-5.9,1.4c-5.8,0-9-3.6-9-9.4c0-5.8,3.7-9.5,8.6-9.5c5.1,0,7.9,3.1,7.9,8.4c0,1.1-0.6,1.6-1.7,1.6H212.2z
				 M212.2,14h9.4c-0.1-4-1.8-5.5-4.4-5.5C214.6,8.5,212.7,10,212.2,14z"/>
			<path class="st0" d="M231.9,9c1.3-1.5,3.3-2.8,5.2-2.8c0.9,0,1.4,0.5,1.4,1.4v0.1c0,1-0.5,1.5-1.6,1.6c-2.2,0.2-3.6,0.7-5,2v11.9
				c0,1.2-0.7,1.7-1.7,1.7h-0.1c-1,0-1.7-0.6-1.7-1.7V8.1c0-1.2,0.5-1.8,1.6-1.8h0.1C231.2,6.3,231.9,7.1,231.9,9z"/>
			<path class="st0" d="M256.9,25c-6.7,0-11.2-4.5-11.2-12.5c0-8,5-12.5,11.5-12.5c2.4,0,4.3,0.4,5.9,1.3c1.1,0.6,1.5,1.3,1.5,2.1v0
				c0,0.9-0.6,1.4-1.4,1.4c-1.5,0-2.1-2.1-6-2.1c-4.6,0-7.7,3.3-7.7,9.6c0,6.6,2.7,9.9,7.5,9.9c4.6,0,5.2-2.6,6.6-2.6
				c0.8,0,1.3,0.6,1.3,1.4v0.1c0,0.9-0.5,1.5-1.7,2.3C261.8,24.3,259.6,25,256.9,25z"/>
			<path class="st0" d="M278.6,22.8c-1.4,1.4-3.1,2.3-5.7,2.3c-3.4,0-5.9-1.9-5.9-5.4c0-3.8,3.1-5.6,7.3-5.6c1.6,0,2.9,0.2,4.2,0.5
				V12c0-2.3-1.3-3.2-3.9-3.2c-3.7,0-3.8,1.7-5.1,1.7c-0.7,0-1.3-0.6-1.3-1.3v0c0-0.7,0.4-1.4,1.5-1.9c1.3-0.6,3.2-1,5.3-1
				c4.4,0,7,1.5,7,5.6v11.5c0,1.2-0.5,1.8-1.5,1.8h-0.1C279.5,25,278.8,24.3,278.6,22.8z M278.6,20.5v-4c-1.1-0.2-2.3-0.4-3.6-0.4
				c-2.6,0-4.5,0.9-4.5,3.2c0,2.3,1.5,3.3,3.6,3.3C276.2,22.7,277.5,21.7,278.6,20.5z"/>
			<path class="st0" d="M290.1,2.7v6.2c1.4-1.4,3.4-2.7,6.2-2.7c3.5,0,7.1,2.2,7.1,9.2c0,7.2-4,9.7-7.8,9.7c-2.6,0-4.3-0.7-5.6-1.8
				c-0.3,1.2-1,1.8-1.8,1.8h-0.1c-1,0-1.5-0.5-1.5-1.8V1.8c0-1.2,0.5-1.8,1.6-1.8h0.1C289.5,0.1,290.1,0.8,290.1,2.7z M290.1,11.2
				v9.6c1.1,1.1,2.5,1.7,4.5,1.7c2.6,0,5.2-1.3,5.2-6.8c0-5.5-2.4-6.8-4.8-6.8C293.1,8.9,291.4,10,290.1,11.2z"/>
			<path class="st0" d="M310.4,2.7v20.5c0,1.2-0.7,1.7-1.7,1.7h-0.1c-1,0-1.7-0.6-1.7-1.7V1.8c0-1.2,0.5-1.8,1.7-1.8h0.1
				C309.8,0.1,310.4,0.8,310.4,2.7z"/>
			<path class="st0" d="M317.4,16.3c0.2,4.4,2.2,6.2,5.9,6.2c3.5,0,4.1-1.8,5.3-1.8c0.8,0,1.3,0.5,1.3,1.3V22c0,0.6-0.5,1.2-1.2,1.7
				c-1.3,0.8-3.2,1.4-5.9,1.4c-5.8,0-9-3.6-9-9.4c0-5.8,3.7-9.5,8.6-9.5c5.1,0,7.9,3.1,7.9,8.4c0,1.1-0.6,1.6-1.7,1.6H317.4z
				 M317.4,14h9.4c-0.1-4-1.8-5.5-4.4-5.5C319.8,8.5,317.9,10,317.4,14z"/>
		</g>
		<g>
			<path class="st0" d="M337.8,14c-2.2,0-4-1.5-4-3.9c0-2.4,1.8-3.9,4-3.9c2.2,0,4,1.5,4,3.9C341.8,12.5,339.9,14,337.8,14z
				 M337.8,13.3c1.8,0,3.2-1.2,3.2-3.2c0-2-1.4-3.2-3.2-3.2c-1.8,0-3.2,1.2-3.2,3.2C334.6,12.1,336,13.3,337.8,13.3z M339.5,11.4
				c0.2,0.4,0,0.7-0.4,0.7h0c-0.3,0-0.4-0.2-0.6-0.5l-0.6-1.1h-0.5v1.1c0,0.4-0.2,0.5-0.5,0.5h0c-0.3,0-0.5-0.1-0.5-0.5v-3
				c0-0.5,0.4-0.7,0.7-0.7h1c1.1,0,1.6,0.5,1.6,1.3c0,0.5-0.3,0.9-0.7,1.1L339.5,11.4z M337.3,9.9h0.5c0.5,0,0.7-0.2,0.7-0.6
				c0-0.3-0.2-0.6-0.7-0.6h-0.5V9.9z"/>
		</g>
	</g>
</g>
</svg>
