<svg xmlns="http://www.w3.org/2000/svg" viewBox="-19.3 381.4 209 71.6" enable-background="new -19.3 381.4 209 71.6"><path fill="#fff" d="M53.1 399.1c-10.6 0-18.1 7.8-18.1 17 0 7.8 5.9 16.5 17.1 16.5 11.4 0 17.8-8.8 17.8-17-.1-8.5-6.5-16.5-16.8-16.5zm7.8 27.9c-1.6 2.2-4.4 3.5-7.1 3.5-8.4 0-11.9-11.3-11.9-18.2 0-3 .5-6 3.2-8.5 1.7-1.5 4-2.4 6.3-2.4 8.7 0 11.6 11.7 11.6 17.8 0 2.8-.4 5.5-2.1 7.8zm93.1.2v-41c0-.5.2-1 .5-1.3l2.5-2.5h-11.6l-3 3h4.5v42.5c0 .5-.2 1-.5 1.3l-2.5 2.5h13.5l2.1-2.1-3.9-.5c-.9-.1-1.6-.9-1.6-1.9zm13.2-10.6l21.5-8.7c-1.1-4.1-4.4-8.9-12.9-8.9-7 0-15.5 5.3-15.5 16.1 0 8.5 5.6 17.5 16.6 17.5 2.3 0 5.8-.1 9.4-2.7 1.4-1 2.5-2.1 3.5-3.4-2.4 1.2-5 2.5-8.6 2.5-6.2 0-12-4.4-14-12.4zm7.3-15.2c3.8 0 7 3.2 7 6 0 1-.7 1.4-2 1.9l-12.7 5.2c-2.1-10.6 4.8-13.1 7.7-13.1zm-83-2.3c-10.6 0-18.1 7.8-18.1 17 0 7.8 5.9 16.5 17.1 16.5 11.4 0 17.8-8.8 17.8-17-.1-8.5-6.6-16.5-16.8-16.5zm7.7 27.9c-1.6 2.2-4.4 3.5-7.1 3.5-8.4 0-11.9-11.3-11.9-18.2 0-3 .5-6 3.2-8.5 1.7-1.5 4-2.4 6.3-2.4 8.7 0 11.6 11.7 11.6 17.8 0 2.8-.4 5.5-2.1 7.8zm36.9 2.7l-2.5-2c-.8-.6-1.9-1.5-1.9-3 0-1.6 1-2.8 1.9-3.5 3-2.4 6-4.9 6-10.1 0-4.8-2.9-7.5-4.6-9.1h3.9l3-3h-14.5c-10.2 0-15.3 6.3-15.3 13.3 0 5.4 4.1 11.2 11.5 11.2h2.1c-.3.8-.5 1.6-.5 2.6 0 2.2 1 3.3 2.1 4.5-3.2.2-9.1.8-13.5 3.5-4.2 2.5-5.4 6.1-5.4 8.6 0 5.2 5 10.2 15.3 10.2 12.2 0 18.5-6.8 18.5-13.4-.2-4.8-3-7.2-6.1-9.8zm-9-8.2c-5.8 0-9-7.2-9-12.7 0-5.2 3.1-7.5 6.3-7.5 6.2 0 9.4 8.1 9.4 13 .1 6.1-4.8 7.2-6.7 7.2zm-.1 28.4c-7.6 0-12.5-3.6-12.5-8.6s4.5-6.7 6.1-7.3c3-1 6.8-1.1 7.4-1.1.7 0 1.1 0 1.6.1 5.4 3.8 7.7 5.7 7.7 9.3.1 4-3.5 7.6-10.3 7.6zM13.1 416.2h9v12.6c-2.1.7-5.4 1.4-10.4 1.4-13.5 0-23.3-11.9-23.3-25.3 0-12.2 8-20.8 19-20.8 8.5 0 11.9 3.4 14.6 5.7v4.1l6.8-6.8c-1.6-1.1-4.3-2.9-9.2-4.3-3.2-.9-6.9-1.4-10.7-1.4-18.5 0-28.2 13.6-28.2 25.5 0 17.1 12.5 26.4 27 26.4 10 0 17.9-2.3 21.2-3.2V417c0-.5.2-1 .5-1.3l2.5-2.5H16l-2.9 3z"/></svg>