<?xml version="1.0" encoding="UTF-8" standalone="no"?>
<svg width="109px" height="42px" viewBox="0 0 109 42" version="1.1" xmlns="http://www.w3.org/2000/svg" xmlns:xlink="http://www.w3.org/1999/xlink" xmlns:sketch="http://www.bohemiancoding.com/sketch/ns">
    <!-- Generator: Sketch 3.3 (11970) - http://www.bohemiancoding.com/sketch -->
    <title>Imported Layers</title>
    <desc>Created with Sketch.</desc>
    <defs></defs>
    <g id="Page-1" stroke="none" stroke-width="1" fill="none" fill-rule="evenodd" sketch:type="MSPage">
        <g id="Imported-Layers" sketch:type="MSLayerGroup" transform="translate(0.000000, -1.000000)" fill="#000000">
            <path d="M18.052,0.982 C20.071,1.656 19.726,5.376 19.491,6.502 C22.495,9.418 23.183,14.651 22.851,20.902 C24.667,20.317 25.269,18.52 26.212,17.062 C28.694,15.465 30.036,12.727 32.691,11.302 C34.583,9.754 35.88,7.61 37.731,6.022 C37.765,4.615 38.826,4.236 39.171,3.142 C40.665,2.928 41.059,3.814 42.051,4.102 C42.277,5.811 41.72,6.943 42.531,8.182 C39.923,16.613 37.071,24.802 32.212,30.982 C31.963,33.613 30.282,34.812 30.291,37.702 C28.833,38.495 28.14,40.599 25.972,39.382 C25.864,38.928 26.298,37.936 25.491,38.182 C26.148,36.598 26.134,34.344 26.451,32.422 C26.86,32.031 26.704,31.075 27.411,30.982 C28.802,24.524 33.887,20.508 35.091,14.662 C31.304,18.314 28.626,23.077 25.491,27.382 C24.888,30.539 23.418,32.829 22.132,35.302 C15.441,35.009 18.573,23.962 17.812,18.502 C15.017,24.587 12.144,30.594 7.731,35.062 L7.731,36.022 C6.142,36.992 5.043,38.453 3.892,39.862 C1.635,39.525 2.759,42.569 0.531,42.262 C0.616,41.306 0.231,39.882 1.011,39.622 L1.011,37.942 C2.89,31.98 5.749,26.999 9.171,22.582 C12.841,16.092 15.546,8.636 18.052,0.982" id="Fill-1" sketch:type="MSShapeGroup"></path>
            <path d="M107.331,4.582 C107.934,6.908 109.309,10.914 106.852,12.262 C103.484,12.349 103.74,8.812 101.812,7.462 C99.045,8.216 97.459,10.15 95.331,11.542 C95.856,19.337 104.155,19.358 102.771,29.062 C102.639,29.594 103.229,29.403 103.251,29.782 C103.569,32.42 102.125,33.296 102.291,35.782 C101.253,37.623 99.103,38.354 97.972,40.102 C96.945,40.276 96.337,40.868 95.331,41.062 C90.018,39.816 84.873,38.4 83.571,33.142 C83.584,31.475 84.369,30.58 84.051,28.582 C85.379,26.23 85.521,22.692 88.371,21.862 C88.296,26.365 88.74,27.526 88.852,31.942 C93.836,34.371 99.166,31.546 97.491,24.982 C96.737,24.215 95.929,23.504 95.571,22.342 C92.051,21.223 91.356,17.278 91.012,12.982 C91.706,10.157 93.264,8.194 94.371,5.782 C95.746,4.997 96.964,4.055 97.731,2.662 C100.187,1.835 104.519,0.594 105.411,4.342 C105.59,4.883 106.758,4.436 107.331,4.582" id="Fill-2" sketch:type="MSShapeGroup"></path>
            <path d="M87.171,6.262 L87.171,9.862 C85.089,15.54 80.062,18.272 75.411,21.382 C79.082,25.151 78.705,32.968 79.251,39.862 C78.296,40.027 78.286,41.137 77.331,41.302 C72.386,38.967 75.866,28.206 71.812,24.982 C67.623,25.395 67.795,31.31 65.812,33.142 L65.812,35.062 C65.174,36.265 64.731,37.662 63.651,38.422 C61.732,38.741 61.844,37.029 61.012,36.262 C60.883,32.373 61.364,29.095 62.932,26.902 L62.932,25.462 C65.418,19.281 69.155,14.471 69.411,5.782 C69.708,5.005 68.635,5.599 68.932,4.822 C69.269,3.721 70.513,3.523 70.852,2.422 L73.731,2.422 C75.191,1.322 78.676,2.247 80.932,1.942 C83.663,2.73 85.676,4.237 87.171,6.262 L87.171,6.262 Z M72.771,8.182 C72.636,11.769 72.945,14.486 72.291,17.302 C76.238,15.329 79.242,12.413 82.371,9.622 C82.434,8.521 82.627,8.462 82.371,7.462 C79.03,6.654 75.548,7.64 72.771,8.182 L72.771,8.182 Z" id="Fill-3" sketch:type="MSShapeGroup"></path>
            <path d="M60.771,2.902 C60.685,4.747 60.973,6.22 62.211,6.742 C63.374,18.064 59.531,24.381 58.611,33.622 C58.102,36.274 57.132,39.605 53.812,38.662 C53.9,36.516 52.558,33.978 53.812,32.182 C51.023,31.34 47.322,32.294 45.171,30.502 C41.717,34.68 38.763,37.97 35.091,42.022 C35.122,41.428 34.798,41.614 34.852,42.022 C34.493,41.5 34.598,40.515 34.131,40.102 C34.537,39.547 34.753,38.804 34.611,37.702 C35.981,35.872 37.048,33.739 37.972,31.462 C38.799,31.489 38.584,30.474 39.411,30.502 C39.095,29.385 40.208,29.699 39.892,28.582 C42.528,26.579 43.337,22.748 46.131,20.902 C48.429,16.079 52.762,13.293 54.531,7.942 C55.61,6.381 57.418,5.549 57.892,3.382 C59.005,3.375 58.881,2.131 60.291,2.422 C60.203,2.83 60.478,2.875 60.771,2.902 L60.771,2.902 Z M47.812,26.182 C49.705,26.283 52.824,26.268 54.771,25.702 C55.04,20.435 57.761,16.392 57.651,11.542 L56.932,11.542 C54.211,16.742 51.197,21.647 47.812,26.182 L47.812,26.182 Z" id="Fill-4" sketch:type="MSShapeGroup"></path>
        </g>
    </g>
</svg>