<?xml version="1.0" encoding="UTF-8" standalone="no"?>
<svg width="245px" height="40px" viewBox="0 0 245 40" version="1.1" xmlns="http://www.w3.org/2000/svg" xmlns:xlink="http://www.w3.org/1999/xlink" xmlns:sketch="http://www.bohemiancoding.com/sketch/ns">
    <!-- Generator: Sketch 3.3 (11970) - http://www.bohemiancoding.com/sketch -->
    <title>Imported Layers</title>
    <desc>Created with Sketch.</desc>
    <defs></defs>
    <g id="Page-1" stroke="none" stroke-width="1" fill="none" fill-rule="evenodd" sketch:type="MSPage">
        <g id="Imported-Layers" sketch:type="MSLayerGroup" fill="#000000">
            <path d="M211.004,37.523 C210.958,35.559 211.016,33.695 211.484,32.244 C209.714,29.215 209.756,24.373 209.805,19.523 C207.012,25.371 203.704,30.703 199.964,35.604 C194.957,34.629 198.704,28.66 200.204,25.523 C202.461,20.805 204.676,17.076 206.685,11.844 C207.504,9.709 208.294,5.92 210.044,5.844 C212.401,5.744 211.509,10.359 213.404,11.365 C214.187,14.582 215.24,17.527 215.565,21.205 C218.291,15.002 219.662,8.057 222.284,2.244 C223.565,1.219 225.609,-1.457 226.604,1.285 C225.148,12.859 221.426,22.887 217.484,32.725 C215.398,34.25 213.898,37.602 211.004,37.523" id="Fill-1" sketch:type="MSShapeGroup"></path>
            <path d="M19.005,3.924 C19.059,4.83 18.753,6.096 19.484,6.324 C19.747,9.043 16.917,12.783 15.165,10.404 C16.849,9.832 17.42,7.338 16.845,5.844 C13.987,6.027 13.762,8.842 11.804,9.924 C9.534,15.414 6.175,19.815 5.564,26.965 C10.313,26.914 12.681,22.4 17.804,21.924 C16.435,23.035 15.306,24.385 15.165,26.725 C14.235,26.516 14.311,27.31 13.725,27.443 C12.839,31.918 9.886,34.326 5.804,35.604 C4.221,35.348 3.702,34.027 2.444,33.443 C0.069,28.83 0.666,22.688 2.925,17.125 C5.351,11.148 8.815,6.863 13.005,3.443 C14.499,3.418 15.577,2.977 16.364,2.244 C17.49,2.559 17.434,4.055 19.005,3.924" id="Fill-2" sketch:type="MSShapeGroup"></path>
            <path d="M165.404,2.965 C166.469,3.26 165.866,5.223 166.364,6.084 C165.504,19.625 162.305,30.824 154.845,37.764 C151.256,34.576 155.661,28.635 156.284,25.045 C155.449,25.492 153.966,27.363 153.164,28.645 C148.875,29.539 148.708,24.326 148.124,20.725 C145.842,25.402 144.264,30.783 140.924,34.404 C139.368,34.529 138.52,33.547 137.805,32.244 C137.817,28.578 139.157,26.236 140.204,23.604 C142.976,18.695 144.521,12.56 147.164,7.523 C147.225,6.664 146.443,6.645 146.444,5.844 C147.733,5.824 148.996,4.145 150.044,5.365 C150.301,6.811 150.726,10.154 152.204,12.565 C152.469,14.379 152.266,16.662 152.685,18.324 C156.111,13.272 158.903,7.582 164.444,4.645 C164.625,3.945 165.014,3.455 165.404,2.965" id="Fill-3" sketch:type="MSShapeGroup"></path>
            <path d="M183.885,3.205 C183.222,4.168 183.814,5.424 184.124,6.324 C184.874,8.496 185.587,10.543 185.805,13.523 C186.021,16.514 185.594,20.182 185.565,23.604 C185.261,24.42 185.147,25.428 184.845,26.244 C185.141,30.621 184.072,33.633 182.685,36.324 C180.697,37.217 179.833,39.232 177.164,39.443 C177.08,34.641 180.126,32.967 180.044,28.164 C177.673,29.684 174.759,29.203 171.404,29.604 C169.688,30.928 168.168,32.447 167.324,34.645 C165.627,35.988 165.44,38.84 162.524,38.965 C160.978,36.424 163.912,32.871 163.964,29.604 C169.671,20.432 173.794,9.674 182.204,3.205 L183.885,3.205 L183.885,3.205 Z M175.004,23.365 C176.813,23.574 178.513,23.705 180.284,23.365 C180.51,18.869 181.692,15.332 181.484,10.404 C178.959,14.359 177.207,19.088 175.004,23.365 L175.004,23.365 Z" id="Fill-4" sketch:type="MSShapeGroup"></path>
            <path d="M57.404,4.404 C54.714,7.475 52.085,10.606 47.085,11.365 C47.472,13.723 46.215,15.305 47.324,16.404 C46.888,21.688 46.557,27.977 44.444,32.244 C43.687,32.205 42.996,32.236 42.765,32.725 C41.731,32.316 41.046,31.562 40.364,30.805 C40.827,24.066 42.718,18.758 43.244,12.084 C41.796,11.398 37.864,11.695 36.765,9.924 C42.308,6.828 49.234,5.115 56.204,3.443 C57.187,3.182 56.172,4.916 57.404,4.404" id="Fill-5" sketch:type="MSShapeGroup"></path>
            <path d="M40.364,4.404 C37.906,5.887 36.741,8.555 34.124,9.205 C33.923,9.482 33.808,9.848 33.884,10.404 C32.106,9.871 30.522,11.488 28.364,11.365 C26.96,12.361 27.427,15.227 26.204,16.404 C27.737,17.682 30.792,15.967 32.685,16.885 C32.646,17.164 32.737,17.311 32.925,17.365 C32.163,21.162 28.726,22.285 24.765,22.885 C23.824,24.023 23.368,25.648 23.085,27.443 C26.951,28.857 32.7,28.389 36.524,29.844 C32.092,32.012 27.58,35 19.964,34.645 C18.754,33.695 18.177,32.111 17.324,30.805 C17.628,21.268 22.456,16.256 25.244,9.205 L25.244,6.565 C25.966,6.406 26.082,5.643 27.165,5.844 C27.64,5.23 26.915,4.74 27.404,4.404 C31.418,5.461 35.989,2.822 40.364,4.404" id="Fill-6" sketch:type="MSShapeGroup"></path>
            <path d="M119.804,18.565 C115.93,18.279 115.895,14.154 115.724,10.164 C113.223,11.023 111.757,12.916 110.685,15.205 C111.562,18.512 114.732,20.721 113.804,25.045 C115.206,27.059 115.777,29.721 115.005,32.725 C114.134,33.295 112.78,33.381 112.605,34.645 C107.069,37.297 100.436,35.356 100.364,29.125 C100.728,26.047 100.46,22.34 103.005,21.443 C103.759,22.717 103.91,25.736 104.444,27.924 C106.214,29.113 106.791,28.027 109.005,27.924 C108.856,25.832 107.481,24.969 106.845,23.365 C106.672,20.416 106.009,17.959 105.884,14.965 C106.581,9.451 112.504,2.199 118.364,4.885 C118.949,8.705 122.907,14.17 119.804,18.565" id="Fill-7" sketch:type="MSShapeGroup"></path>
            <path d="M231.164,4.404 C232.392,4.777 232.574,6.193 233.805,6.565 C237.675,5.969 240.651,7.285 244.364,7.523 C243.525,7.902 242.663,9.008 240.765,8.965 C240.141,9.596 241.152,9.152 241.004,9.924 C238.371,10.652 236.417,12.057 233.084,12.084 C231.765,13.645 231.717,16.477 231.164,18.805 C234.687,19.441 239.633,18.656 242.204,20.244 C240.164,21.164 239.429,23.389 236.685,23.604 C236.007,23.846 237.446,23.832 236.685,24.324 C231.07,24.231 226.688,25.367 226.364,30.565 C229.468,30.654 235.543,29.256 239.084,30.565 C237.864,31.023 237.211,32.051 235.725,32.244 C236.636,33.893 232.816,34.272 231.164,34.885 C230.896,35.18 230.955,35.377 231.404,35.365 C227.957,36.254 223.898,36.043 220.844,36.084 C219.982,35.426 219.797,34.092 218.685,33.684 C218.693,32.815 219.673,32.912 219.885,32.244 C222.879,22.199 226.836,13.117 231.164,4.404" id="Fill-8" sketch:type="MSShapeGroup"></path>
            <path d="M72.524,5.365 C72.269,5.908 71.796,6.236 71.085,6.324 C72.122,8.232 68.3,8.166 69.165,9.924 C67.11,10.299 65.946,13.348 62.925,13.523 C63.214,19.662 60.858,27.074 59.324,32.965 C58.23,32.152 56.522,34.121 55.724,35.125 C54.688,35.281 54.379,34.709 53.804,34.404 C55.483,28.322 56.919,21.998 58.124,15.443 C55.06,16.514 50.921,16.315 50.444,13.045 C50.832,12.977 50.857,13.272 51.165,13.285 C56.505,9.266 64.036,7.435 70.605,4.645 C71.503,4.625 71.329,5.68 72.524,5.365" id="Fill-9" sketch:type="MSShapeGroup"></path>
            <path d="M75.404,5.365 C76.354,5.522 74.84,6.25 75.165,6.805 C78.684,6.414 84.779,4.94 88.364,5.844 C88.025,6.465 87.589,6.988 86.444,6.805 C86.612,7.543 86.612,7.266 86.444,8.004 C82.132,9.31 80.356,13.963 75.165,13.045 C74.113,14.313 73.743,16.264 73.244,18.084 C76.712,18.109 82.136,16.736 85.964,17.125 C86.05,18.73 83.899,18.1 84.044,19.764 C82.688,19.69 82.142,20.422 81.645,21.205 C78.674,22.395 76.058,23.938 72.044,24.084 C71.539,25.26 71.061,26.461 70.845,27.924 C73.725,27.943 76.823,27.397 79.964,26.725 C79.944,28.184 81.535,28.033 82.124,28.885 C81.964,29.924 79.644,28.805 79.964,30.324 C79.175,30.315 78.77,29.92 77.804,30.084 C75.965,30.484 75.169,31.93 72.765,31.764 C70.124,32.484 69.445,35.164 66.524,35.604 C65.857,35.391 65.655,34.713 64.845,34.645 C64.899,33.709 64.329,33.4 64.124,32.725 C63.94,28.731 66.204,25.897 67.244,22.885 C68.974,17.875 69.257,12.459 71.564,8.004 C72.981,7.703 73.02,5.746 74.204,4.645 L75.165,4.645 C75.097,5.031 75.392,5.057 75.404,5.365" id="Fill-10" sketch:type="MSShapeGroup"></path>
            <path d="M142.605,5.125 C138.379,8.738 134.961,13.16 127.964,14.004 C128.093,16.293 127.034,17.395 127.244,19.764 C131.135,19.365 136.281,18.492 139.725,19.764 C137.581,22.381 130.952,22.482 126.524,23.604 C125.299,25.818 123.486,27.445 123.404,30.805 C126.442,31.527 131.26,30.469 133.964,31.523 C133.869,33.59 132.553,34.432 131.805,35.844 C127.418,35.777 124.177,36.857 120.284,37.285 C118.489,36.279 117.284,34.685 117.645,31.523 C119.954,24.555 121.995,17.315 124.845,10.885 C124.98,9.938 123.923,8.941 124.605,8.244 C125.528,7.408 127.129,7.25 127.725,6.084 C130.172,6.926 134.78,4.988 138.524,4.885 C140.106,4.84 141.343,5.315 142.605,5.125" id="Fill-11" sketch:type="MSShapeGroup"></path>
            <path d="M190.124,34.885 C189.391,35.059 189.418,34.471 188.685,34.645 C187.953,34.176 187.627,33.301 187.004,32.725 C187.252,23.41 191.875,16.506 194.444,8.725 C194.991,8.791 195.347,8.666 195.404,8.244 C195.792,8.176 195.817,8.471 196.124,8.484 C199.487,17.529 193.785,29.272 190.124,34.885" id="Fill-12" sketch:type="MSShapeGroup"></path>
        </g>
    </g>
</svg>