<?xml version="1.0" encoding="UTF-8" standalone="no"?>
<svg width="50px" height="41px" viewBox="0 0 50 41" version="1.1" xmlns="http://www.w3.org/2000/svg" xmlns:xlink="http://www.w3.org/1999/xlink" xmlns:sketch="http://www.bohemiancoding.com/sketch/ns">
    <!-- Generator: Sketch 3.3 (11970) - http://www.bohemiancoding.com/sketch -->
    <title>Imported Layers</title>
    <desc>Created with Sketch.</desc>
    <defs></defs>
    <g id="Page-1" stroke="none" stroke-width="1" fill="none" fill-rule="evenodd" sketch:type="MSPage">
        <g id="Imported-Layers" sketch:type="MSLayerGroup" fill="#000000">
            <path d="M46.429,0.26 C47.933,0.836 48.279,2.569 49.309,3.62 C48.733,10.413 46.519,16.549 45.709,23.779 C45.15,24.248 45.43,24.789 45.229,25.94 C44.94,27.596 44.018,28.746 43.549,30.26 C42.536,33.527 43.225,36.828 42.349,40.82 C41.978,39.946 40.929,40.469 40.429,40.82 C37.776,40.286 37.916,34.895 35.629,35.54 C32.554,31.815 31.692,25.876 31.068,19.699 C29.942,20.254 30.196,22.188 29.868,23.54 C28.894,26.272 28.713,27.601 28.669,31.699 C27.803,32.993 28.719,34.622 27.948,36.981 C25.912,37.416 25.381,36.348 24.108,36.02 C22.418,31.908 24.238,26.852 24.589,22.58 C25.006,21.797 25.443,21.034 25.309,19.699 C26.68,16.166 26.936,12.57 28.429,8.9 C28.56,6.793 28.649,4.641 30.108,3.859 C32.358,8.348 34.68,11.287 35.868,16.82 C35.883,19.926 37.293,21.636 37.068,24.981 C37.76,26.129 37.668,28.061 37.789,29.779 C39.218,28.887 39.299,24.571 39.948,22.1 C40.192,21.943 40.197,21.548 40.669,21.62 C41.767,14.238 43.626,7.617 45.469,0.981 C45.928,0.879 46.502,0.893 46.429,0.26" id="Fill-1" sketch:type="MSShapeGroup"></path>
            <path d="M25.309,1.46 C25.35,2.141 24.497,1.928 24.828,2.9 C24.271,2.823 23.907,2.939 23.629,3.141 C20.727,7.449 15.429,10.607 9.709,11.3 C9.563,13.634 9.218,15.769 8.509,17.54 C11.557,18.054 16.323,14.994 20.509,15.859 C17.904,20.182 12.943,23.272 7.309,23.779 C6.843,26.034 7.023,28.934 6.108,30.74 C6.168,31 6.586,30.902 6.589,31.22 C10.051,30.841 15.748,29.342 20.509,30.26 C20.449,31.24 19.47,31.301 18.589,31.46 C18.507,31.941 18.638,32.211 19.068,32.18 C18.639,32.949 17.486,32.998 17.629,34.34 C15.63,35.221 13.789,36.261 12.108,37.46 C7.594,37.588 2.244,41.047 0.349,36.5 C0.434,34.949 -0.13,33.826 0.828,32.9 L0.828,31.22 C2.087,27.278 3.041,23.031 3.709,18.5 C4.704,14.799 6.455,11.707 5.629,7.46 C8.22,6.772 7.683,2.953 9.948,1.94 C10.174,2.463 9.802,4.094 9.948,5.3 C14.648,4.709 19.274,0.716 25.309,1.46" id="Fill-2" sketch:type="MSShapeGroup"></path>
        </g>
    </g>
</svg>