<?xml version="1.0" encoding="UTF-8" standalone="no"?>
<svg width="285px" height="128px" viewBox="0 0 285 128" version="1.1" xmlns="http://www.w3.org/2000/svg" xmlns:xlink="http://www.w3.org/1999/xlink" xmlns:sketch="http://www.bohemiancoding.com/sketch/ns">
    <!-- Generator: Sketch 3.3 (11970) - http://www.bohemiancoding.com/sketch -->
    <title>Group</title>
    <desc>Created with Sketch.</desc>
    <defs></defs>
    <g id="Page-1" stroke="none" stroke-width="1" fill="none" fill-rule="evenodd" sketch:type="MSPage">
        <g id="Group" sketch:type="MSLayerGroup" fill="#000000">
            <path d="M142.896096,0.446281977 C143.907275,0.189244733 144.11244,0.765450707 144.89387,0.74350835 C145.321255,4.69631277 149.571945,4.68715249 148.381891,10.3134565 C145.938417,11.4354249 143.697595,12.7517308 142.487084,15.0657178 C141.280589,15.0729399 140.248045,13.7888635 138.836506,15.1294389 C135.971084,12.292973 137.010799,9.07284986 138.329276,5.1753632 C140.485073,4.53719036 140.7464,2.0681876 142.913481,1.44227146 L142.896096,0.446281977" id="Fill-1" sketch:type="MSShapeGroup"></path>
            <path d="M18.6234162,15.5672779 C19.123576,19.3292397 20.5385556,22.149511 20.4760177,26.4941631 C18.7479043,31.8157499 17.712007,36.0473205 17.7662102,42.48215 C15.482903,47.785753 13.4276051,53.309542 12.4236109,59.8444831 C17.4711702,58.3989285 23.1006735,55.8085491 27.9507276,55.2561869 C29.5121093,59.5669584 28.1682793,62.0119604 26.8037705,65.5712342 C21.2697302,68.0022009 16.4762735,72.3519421 8.30468712,71.2076993 C7.49473601,70.4676986 6.45103131,69.9711652 4.96015877,69.9376876 C3.06956527,67.6155622 1.37195017,65.0921935 0.173127339,62.050902 C1.04349342,62.129804 1.59999489,61.9056105 1.48511158,61.0317083 C2.60476165,60.8848606 2.03226571,62.4916898 3.49309229,61.9929518 C6.01909028,43.7983401 10.4970443,30.8071136 16.6546174,16.9300341 C17.8750954,16.059114 17.2711842,16.9760052 18.3101881,16.5690383 C18.206778,16.0353359 18.6128459,15.9922707 18.6234162,15.5672779" id="Fill-2" sketch:type="MSShapeGroup"></path>
            <path d="M167.303714,47.8423067 C172.202422,52.5348544 177.013196,61.702569 175.326516,69.9528106 C173.019624,69.4658726 173.980889,72.1363171 171.367122,71.3503127 C170.037694,65.7416953 167.149271,61.7460566 165.461022,56.5090099 C163.011212,54.6518962 161.383749,51.946033 159.36339,49.6413939 C157.982905,50.5413978 156.977399,49.7757521 155.391022,50.3749271 C154.825458,58.6415768 152.254233,64.970022 149.780171,71.3950167 C143.470559,72.9151826 144.171604,63.1351238 144.901803,58.196263 C145.46702,56.5688048 146.388253,55.2810674 146.137068,52.861139 C146.693429,52.311769 146.45314,50.9917239 147.428901,50.8460041 C147.082982,50.2127541 145.425809,49.2135612 146.730138,48.8656151 C146.553968,47.8101289 144.518401,48.6772878 144.056781,47.9159858 C145.034031,46.0322623 147.27232,45.363591 148.635191,43.8508976 C149.553064,37.7727102 150.924188,32.1349432 152.317808,26.5175396 C148.751322,27.1180678 147.454453,24.0881738 145.270547,22.3232806 C145.636875,21.5890389 146.104541,20.9526577 145.888179,19.6557186 C146.548095,19.6483509 146.325907,20.5544278 147.229139,20.2965073 C150.19544,17.1797458 155.034981,15.86651 159.069524,13.7799773 C166.041137,15.5429415 172.905794,19.8192611 175.90115,26.7700861 C176.975698,34.6621725 173.525249,38.1845183 171.874946,43.4452462 C170.271923,44.8348274 168.276217,45.8451994 167.303714,47.8423067 L167.303714,47.8423067 L167.303714,47.8423067 Z M159.237579,23.4078757 C159.741487,28.970018 156.612585,34.2662411 158.515339,39.0290719 C163.385115,36.1184722 167.316039,32.2971542 168.24205,25.5753856 C165.991118,22.6659254 163.58827,22.1516037 159.237579,23.4078757 L159.237579,23.4078757 L159.237579,23.4078757 Z" id="Fill-3" sketch:type="MSShapeGroup"></path>
            <path d="M46.8662985,16.4026872 C48.071934,17.0596754 48.4067884,18.4860017 47.9274165,20.0372394 C55.3245817,19.0681911 62.1512383,16.7281284 71.1078376,16.3116472 C71.0161547,17.0839908 71.1840496,17.5861254 71.4688092,17.9658347 C71.2808696,19.0899447 69.6432173,18.8127235 69.5129837,19.9925596 L70.8409697,19.9693795 C63.5534736,25.8736986 58.3252153,28.6203556 47.4358908,30.0087485 C45.8338351,32.8014254 46.1519185,35.8829976 45.2813542,39.6771879 C52.4366864,39.2022048 59.8723508,37.5848941 68.158754,37.6173731 C68.5109505,38.6102859 67.430348,38.2195608 66.8423581,38.3045462 C66.9048341,39.0299193 67.691701,39.0023471 68.5153139,38.9395399 C67.5933625,40.6617843 65.9071337,41.6446146 64.9386877,43.3192396 C57.966848,45.744861 52.2037811,47.6595391 43.1196393,49.0136549 C41.8276325,52.4457428 40.8508494,56.1795188 40.3287016,60.3536909 C45.7143299,60.7564472 52.8196512,58.2883674 58.907532,59.3652009 C59.0338713,60.4990464 57.370703,59.2356637 57.2707296,60.722162 C57.3191863,61.3578367 58.3761087,60.3126528 59.2640918,60.6873677 C59.0184703,61.757135 57.320297,61.4214693 57.9810827,63.3665439 C51.4381817,66.1873465 46.2675587,70.3333426 37.8639653,71.3559354 C35.680533,71.3622214 35.8104369,68.9743858 33.5060624,69.1073194 C33.4463988,67.5917815 33.7170384,65.7356131 32.7725291,65.1349515 C33.7950594,49.9111821 37.1103254,36.9001219 42.0441999,25.4534937 L41.9978397,22.7975218 C43.8167821,20.8562105 44.5913616,17.9050098 46.8662985,16.4026872" id="Fill-4" sketch:type="MSShapeGroup"></path>
            <path d="M96.3345303,72.6600115 C95.493054,70.8274063 93.7273644,69.9532604 92.2810321,68.7455938 C96.9913397,60.3457127 95.9986489,46.44123 99.3606296,36.7406447 C99.0438623,32.2282622 99.5946979,30.4903558 100.189947,27.0953371 C98.7959297,25.1589099 96.7345829,23.9149312 95.775477,21.526732 C95.9562204,20.5452728 97.9126163,20.2952603 96.4033165,19.5231871 C97.4332129,19.4664655 99.8545439,17.6308737 101.663105,16.4424983 C114.831162,15.9096099 123.86629,25.382733 125.263535,36.6206055 C126.521162,46.7566903 123.415349,54.9611323 118.392855,61.6478572 C116.24672,61.9676012 115.755788,63.8871156 114.806022,65.3635398 C109.172091,68.8894049 104.69189,72.4767722 96.3345303,72.6600115 L96.3345303,72.6600115 L96.3345303,72.6600115 Z M106.816903,26.3154679 C106.326179,29.990945 106.176879,31.346849 105.627998,34.3065639 C107.374665,43.6038683 102.264684,50.2727481 103.740032,59.246842 C112.334098,53.9949819 119.260417,42.4609934 116.514342,30.1313702 C114.514274,27.245206 111.511184,25.4005173 106.799518,25.3194784 L106.816903,26.3154679 L106.816903,26.3154679 Z" id="Fill-5" sketch:type="MSShapeGroup"></path>
            <path d="M193.375268,19.4910236 C202.842999,18.7086156 210.508005,17.0706969 219.923398,18.363429 C219.894696,19.0973123 218.517642,18.5291081 217.937214,18.7301956 C217.428837,20.0467039 219.373744,18.8213551 219.283968,19.7029809 C219.249991,21.0859304 216.505212,19.8497298 216.656971,21.4093235 C216.767209,21.8584986 217.491768,21.6701164 217.989369,21.7181641 C217.650093,22.2582099 215.786391,22.1108547 217.342761,22.7257436 C210.581334,27.8515205 201.389752,26.7762802 193.904296,30.7731095 C193.814158,34.0915081 192.640008,38.8056497 192.122321,42.7597293 C196.520506,44.2244452 203.441525,41.8204671 208.074154,43.4775819 C208.363156,44.7345085 206.512835,43.9268756 205.763152,44.1821159 C205.540401,45.6901296 206.664514,43.6585499 206.443147,45.1665395 C206.098833,46.6863613 204.46716,45.4833135 203.80456,46.2088892 C203.339677,47.4803585 205.289996,46.2479966 204.823729,47.5194901 C200.747676,50.002497 195.900332,51.7406773 189.965017,52.4282169 C189.184784,55.3725977 188.839481,58.7383462 188.810882,62.4112919 C194.653443,63.6238628 200.981694,58.2565737 206.052903,60.7819407 C206.266425,62.629658 205.136637,64.8910377 206.151418,66.4258811 C201.699215,72.0136481 189.295157,75.8860033 181.005227,71.8462742 C176.40248,64.3700103 184.803943,54.2673514 181.218591,45.9389334 C182.045326,45.9757011 182.235911,45.399506 182.865601,45.2459895 C182.612451,35.9751976 190.390126,29.5351175 183.80532,22.9790442 C184.526883,21.8262473 185.546852,20.9629784 186.746928,20.270917 C186.964998,21.7449452 189.266869,20.2795134 190.066893,20.2129668 C190.289868,19.1934095 189.477152,19.2463402 189.700127,18.2267829 C192.014114,16.9797706 191.873179,18.418553 193.375268,19.4910236" id="Fill-6" sketch:type="MSShapeGroup"></path>
            <path d="M135.596288,19.8353642 C137.281977,23.0231363 141.260299,27.3871981 138.466676,32.0728744 C139.236804,40.4407461 138.010292,49.6861671 136.57871,57.0131525 C135.889512,63.7460087 135.120088,70.401392 129.539975,72.4125059 C126.289698,71.7856721 126.267649,67.8271762 126.425899,65.160714 C126.806565,58.7473524 129.403464,51.3529791 130.369589,43.8376272 C131.350479,36.2168533 132.340638,28.8892706 133.984049,22.5202871 C134.080693,21.6357739 135.203354,21.7407144 135.281677,20.8371487 C135.179626,20.3020388 135.585718,20.2603569 135.596288,19.8353642" id="Fill-7" sketch:type="MSShapeGroup"></path>
            <path d="M284.365488,19.231174 C283.826359,19.499344 282.560135,20.3655275 284.382873,20.2271635 C283.365219,20.9852277 282.92181,22.2978345 282.788019,23.9080759 C279.424308,27.4053841 273.651041,28.5771718 268.620892,30.4652194 C268.919382,32.82067 268.183386,34.1771286 268.393206,36.4469513 C264.839947,47.159622 265.566787,62.0055372 261.039562,71.7776603 C258.564982,73.65431 256.485233,71.1182392 255.355057,69.5522002 C254.99586,56.1085153 259.152827,44.3087569 260.671745,31.6002652 C257.540893,29.8878782 252.62138,30.1868446 250.646721,28.1221785 C250.536776,26.0249637 249.749955,22.8048969 249.202835,21.5054287 C249.790801,21.41906 250.871427,21.8111684 250.519231,20.8182556 C261.857136,23.0114548 273.816864,17.7036143 284.365488,19.231174" id="Fill-8" sketch:type="MSShapeGroup"></path>
            <path d="M67.8322715,87.4499901 C66.6330421,88.9283304 64.7817402,89.7918699 63.4495843,91.1448817 C63.1595004,92.6907768 62.3282554,93.7244665 61.2866305,94.5598016 C61.1710606,97.7289165 58.956733,100.913558 58.7412898,104.494501 C58.3355712,111.269985 61.238841,117.594713 64.9595034,121.030562 C64.2377915,121.616072 63.5589579,122.240032 62.5148554,122.52059 C60.2655113,120.868255 59.081369,118.138947 56.4860619,116.836397 C51.955523,105.868328 56.4057698,92.5382894 64.1358342,87.9969638 C65.6264888,88.0573837 66.342646,87.3895522 67.8322715,87.4499901" id="Fill-9" sketch:type="MSShapeGroup"></path>
            <path d="M222.539317,89.8825567 C223.891776,89.9876033 223.498957,90.8377462 225.273049,90.7997436 C227.826621,94.9012444 232.070005,99.7391423 232.458177,106.112797 C233.009943,115.194375 229.4647,121.218562 224.151289,125.555882 C222.388762,126.138452 221.225738,125.916522 219.977708,127.076089 C218.758569,126.470181 218.100281,127.62247 216.523023,127.377617 C220.149813,120.83538 225.859468,116.256953 227.547834,107.88709 C227.461525,104.947648 226.5619,102.830511 226.420965,99.9462984 C225.513884,97.7559179 224.084789,96.091275 223.591448,93.4825832 C223.30365,93.0363128 223.277871,92.3261509 222.338629,92.5395468 C223.407855,91.2212778 221.065825,91.2772347 222.539317,89.8825567" id="Fill-10" sketch:type="MSShapeGroup"></path>
            <path d="M76.6034151,94.541192 C77.4957329,94.2934364 76.8302231,95.6217454 77.6092431,95.4885396 C81.0524049,94.7037555 85.158106,94.5436407 89.4511251,94.5581604 C88.9705708,96.1616561 87.2936426,96.6351851 85.2901724,96.801825 C84.6809113,96.9883538 86.1189329,97.5130475 85.311219,98.0075882 C81.733123,99.3776906 76.3955646,99.0879116 75.7680187,103.239913 C78.2489298,104.299213 81.0797175,102.52001 83.9229111,103.338795 C84.1141852,104.388811 83.5267401,104.704618 83.7180141,105.754633 C82.4181864,105.71601 82.3984131,106.883286 82.022756,107.714033 C80.4986359,108.09544 79.1733998,108.665351 77.5979755,108.997398 C76.3897163,109.073769 75.9472291,108.375906 74.867424,108.321382 C74.3138059,108.510959 74.794311,109.676539 74.6541083,110.254914 C77.4171936,111.143445 81.0127981,111.189235 84.7975519,111.042764 C85.1909406,113.233065 83.2690701,113.238468 82.8847688,114.694543 C78.5975199,115.010603 75.6577141,115.144337 72.0382379,116.09 C71.1915246,115.883656 71.0609804,114.951183 70.0412681,114.918727 C68.8111126,108.550723 71.0131265,103.186216 72.9659085,98.4643025 C72.653459,97.9621764 71.4761019,98.3345153 71.2253768,97.7710053 C71.988877,96.0409526 75.4558968,96.8589006 75.6164826,94.5584189 L76.6034151,94.541192" id="Fill-11" sketch:type="MSShapeGroup"></path>
            <path d="M126.252737,93.9342909 C127.927158,98.9788528 125.29858,105.265455 123.817868,110.13894 C126.642792,110.146922 129.323023,110.29915 131.005846,111.46083 C130.705945,112.680237 129.289253,112.846685 129.076225,114.147999 C124.999862,113.570857 122.212337,116.118214 118.959067,114.807047 C119.191863,113.75365 118.428245,113.707678 118.187601,113.13193 C119.550608,105.879397 122.231331,99.8672842 125.268985,94.1926885 C126.066581,94.4159721 125.883003,94.86846 126.252737,93.9342909" id="Fill-12" sketch:type="MSShapeGroup"></path>
            <path d="M138.372425,94.6945111 C139.045435,99.7525322 136.679273,103.910759 137.143042,109.189536 C139.134309,109.090451 140.817839,108.700231 142.564203,108.371231 C143.585012,105.4587 144.323256,102.281731 145.874742,99.8705319 C146.281691,98.1195649 146.227078,95.9344066 147.771717,95.2541242 C148.93811,95.1382794 148.584086,96.559652 149.282096,96.9163431 C149.754375,103.449347 148.421156,108.280054 146.591818,112.642999 C145.593367,112.41317 145.501328,113.037944 145.122503,113.392324 C141.938912,111.472855 140.551566,115.561731 137.005495,115.463816 C135.497954,115.02577 134.721774,113.847259 133.748317,112.867183 C131.035648,106.020492 134.603673,99.4732499 137.138502,94.7160493 L138.372425,94.6945111" id="Fill-13" sketch:type="MSShapeGroup"></path>
            <path d="M101.834831,96.2779352 C102.253172,96.1821835 102.304306,96.4576959 102.33826,96.7516001 C100.776077,100.024364 98.466522,102.589511 97.0633969,106.010265 C98.2183181,109.424562 101.381223,110.807664 100.940836,115.832854 L98.4719607,115.875948 C97.1980956,113.727149 95.1372503,112.376071 93.9240804,110.165906 C91.8642665,111.940698 90.1330704,114.023348 88.0941547,115.815868 C86.0379885,115.971366 86.5094954,112.964897 86.7824055,111.496695 C88.6475799,109.77656 89.5445887,107.1436 91.11879,105.149124 C90.6162276,104.430198 90.4677384,103.354308 89.5989636,103.004618 C89.4041426,101.161634 87.0506122,99.1432468 87.7826639,97.9705733 C87.7375995,97.6889244 87.3283636,97.7754712 87.0364543,97.7423724 C90.5940307,96.8480446 91.9766519,100.273444 93.538182,102.21218 C95.6851525,99.6508766 97.952472,97.2020547 101.834831,96.2779352" id="Fill-14" sketch:type="MSShapeGroup"></path>
            <path d="M203.118834,95.5159762 C203.407465,96.6587723 202.331245,96.5147302 201.405709,96.5107833 C201.335666,97.6879831 200.775612,97.3318993 201.435174,98.1988517 C198.522406,100.353387 194.927247,101.866513 190.392165,102.492452 C194.078355,102.773867 198.368464,102.44469 201.039037,103.753967 C200.54202,104.473254 199.731996,104.894462 199.59395,105.950226 C196.659773,104.932006 192.497287,105.554457 189.978162,107.082974 C189.909717,107.644014 190.034451,108.007697 190.246199,108.284426 C192.636195,107.673817 194.941482,108.815586 197.664329,108.637394 C197.700029,109.856973 196.325871,109.74728 196.471471,111.070477 C192.889499,112.041619 190.143796,113.80024 185.901396,114.149691 C182.402399,108.727898 187.68672,102.606013 187.812818,96.2655959 C189.036988,96.392984 189.384016,95.6913914 190.270094,95.4990257 C190.38387,96.0016043 190.112472,96.1410261 190.039941,96.4679474 C194.112273,95.929489 199.745588,94.526528 203.118834,95.5159762" id="Fill-15" sketch:type="MSShapeGroup"></path>
            <path d="M206.585141,95.9433624 C211.360386,96.514336 216.826545,96.3867604 216.81698,101.795418 C216.43862,103.179021 215.992192,104.49647 215.151188,105.442886 C215.790592,106.924311 216.83662,107.992575 216.960098,109.994607 C214.696258,116.004468 207.337216,117.208387 199.559507,118.01757 C199.326093,116.617508 197.963711,116.356842 197.533072,115.158229 C198.154696,114.55939 198.809777,113.99012 200.2321,114.146213 C201.006314,108.075913 204.671453,104.733273 205.146321,98.3807381 C205.347921,97.6042906 204.75239,97.6337827 204.387483,97.4290793 C205.100167,96.9160952 206.505725,97.0553938 206.585141,95.9433624 L206.585141,95.9433624 L206.585141,95.9433624 Z M208.630677,100.010044 C207.999006,101.153827 208.202575,103.085108 208.220883,104.841719 C210.928646,104.153195 213.529649,103.364014 213.575724,100.164954 C212.603242,99.3587447 209.969215,99.730377 208.630677,100.010044 L208.630677,100.010044 L208.630677,100.010044 Z M206.575447,109.453087 C206.180657,110.662088 205.67806,111.769444 205.152436,112.855091 C208.954767,112.477137 212.627421,110.74455 213.47537,108.367744 C210.690104,108.27263 208.602946,108.834733 206.575447,109.453087 L206.575447,109.453087 L206.575447,109.453087 Z" id="Fill-16" sketch:type="MSShapeGroup"></path>
            <path d="M245.923435,23.8873543 C245.42747,25.3600086 248.412763,29.7524736 245.718929,31.1970723 C241.556133,31.5644708 240.431088,28.7861859 238.339671,27.0086083 C237.557975,27.0153341 237.371637,27.5969901 236.35487,27.3753507 C229.112009,33.2207736 221.612966,38.8174437 221.498889,51.5456935 C222.907956,54.8199348 223.956817,58.4657709 225.33188,61.7738155 C229.476758,62.044634 234.056022,62.3092539 237.27078,60.9012259 C237.239024,62.4114408 237.459749,64.037634 237.375091,66.8771628 C236.100337,69.2365509 234.190793,70.9815688 232.161662,72.6138236 C229.63802,72.4724527 228.263493,73.2381299 226.185725,72.718134 C216.309817,69.6968462 211.835264,58.8627746 213.75866,45.7030421 C218.269555,32.0622664 223.607939,17.6293849 242.517928,18.965333 C243.632812,20.2894843 244.304606,22.0724692 244.602627,24.2425068 C245.298133,24.3715082 245.477075,24.0003098 245.923435,23.8873543" id="Fill-17" sketch:type="MSShapeGroup"></path>
            <path d="M171.988832,95.5682111 C172.270591,95.609528 172.129933,95.8079794 171.993042,95.8093638 C172.377453,96.6007102 172.587358,95.2974407 173.223784,95.546655 C172.918449,99.7573596 176.522285,101.985097 176.629318,106.583612 C178.940853,102.834412 179.521762,96.1875396 183.337763,94.6464365 C184.121195,95.2378371 182.857546,96.8590222 183.890674,98.0139508 C183.27983,101.707332 182.865758,105.586238 181.103582,108.194096 C181.361758,112.074335 180.560726,114.956897 177.780415,115.971337 C175.1948,113.513748 173.777569,109.874865 172.422063,106.174597 C170.48849,108.753283 173.809205,114.931015 169.880931,116.350449 C164.999633,112.121726 162.809103,103.871835 161.632073,96.7138934 C165.084227,98.2135647 166.054956,102.222081 167.715588,105.533071 C169.597413,102.643705 170.037945,98.393451 171.988832,95.5682111" id="Fill-18" sketch:type="MSShapeGroup"></path>
            <path d="M118.215948,100.58213 C118.428828,101.572467 117.04242,101.055918 117.253242,102.046291 C116.255958,100.703787 114.002326,99.8083728 112.27555,99.9621421 C110.777111,102.581478 108.577405,104.539632 108.723259,108.708287 C112.335087,108.032126 114.664007,107.520079 117.8272,106.619569 C118.185314,108.381304 117.419273,109.081164 116.39577,109.539267 C117.238931,110.898534 115.640952,111.766697 115.466739,112.932649 C112.593868,114.954819 106.893747,116.363971 104.343753,112.644349 C102.758861,105.533731 104.265122,97.877659 109.734088,95.9056598 C114.216281,95.080627 116.423059,97.9508923 118.215948,100.58213" id="Fill-19" sketch:type="MSShapeGroup"></path>
        </g>
    </g>
</svg>