<?xml version="1.0" encoding="UTF-8" standalone="no"?>
<svg width="513px" height="55px" viewBox="0 0 513 55" version="1.1" xmlns="http://www.w3.org/2000/svg" xmlns:xlink="http://www.w3.org/1999/xlink" xmlns:sketch="http://www.bohemiancoding.com/sketch/ns">
    <!-- Generator: Sketch 3.3 (11970) - http://www.bohemiancoding.com/sketch -->
    <title>Imported Layers</title>
    <desc>Created with Sketch.</desc>
    <defs></defs>
    <g id="Page-1" stroke="none" stroke-width="1" fill="none" fill-rule="evenodd" sketch:type="MSPage">
        <g id="Imported-Layers" sketch:type="MSLayerGroup" fill="#000000">
            <path d="M9.201,43.161 C12.509,41.947 16.027,39.806 19.76,39.801 C19.353,40.193 19.164,40.805 18.32,40.761 C18.254,41.429 17.417,42.559 17.84,42.921 C14.362,47.443 10.276,51.357 4.16,53.241 C2.92,52.561 1.941,51.62 0.8,50.841 C0.821,49.46 0.852,48.069 0.56,47.001 C3.277,42.118 4.628,35.868 5.84,29.481 C8.07,23.151 9.355,15.875 11.36,9.321 C11.961,9.362 11.943,8.783 12.32,8.601 C12.599,8.562 12.748,8.654 12.8,8.841 C15.396,12.019 14.298,18.413 13.76,23.001 C12.914,27.834 11.712,32.314 10.88,37.161 C9.557,38.932 9.349,40.392 9.201,43.161" id="Fill-1" sketch:type="MSShapeGroup"></path>
            <path d="M44.961,11.481 C44.929,12.171 44.66,12.621 43.76,12.441 C44.166,14.926 41.577,14.418 41.36,16.281 C37.943,17.903 35.202,20.203 30.56,20.601 C30.652,23.252 30.601,25.762 29.84,27.561 C31.788,28.1 34.937,26.092 38.961,26.601 C37.176,31.377 33.683,34.444 28.16,35.481 C27.746,38.026 27.174,40.415 26.48,42.681 C29.26,43.057 34.317,39.887 37.041,42.441 C36.783,43.144 36.359,43.68 36.56,44.841 C32.747,48.439 27.265,49.26 22.88,52.521 C21.345,52.616 20.77,52.748 19.52,52.281 C19.047,51.634 19.05,50.511 18.081,50.361 C17.126,46.782 20.641,45.601 19.76,43.641 C21.404,39.696 22.8,34.456 23.121,29.961 C23.897,30.258 23.303,29.185 24.081,29.481 C24.773,24.373 27.886,19.398 24.081,15.561 C30.549,13.867 38.334,10.766 44.961,11.481" id="Fill-2" sketch:type="MSShapeGroup"></path>
            <path d="M486.988,0.744 C488.06,0.837 488.197,1.937 489.431,1.855 C489.875,3.577 491.191,5.145 490.106,7.113 C488.22,8.372 486.098,9.413 484.484,10.925 C483.192,10.142 482.993,11.027 481.366,11.04 C481.44,10.629 481.162,10.596 480.869,10.579 C481.645,5.616 483.652,3.132 486.988,0.744" id="Fill-3" sketch:type="MSShapeGroup"></path>
            <path d="M51.44,12.201 C51.819,12.862 52.991,12.73 52.88,13.881 C53.164,13.605 53.728,13.609 54.32,13.641 C57.158,17.053 61.777,20.088 61.52,27.321 C60.601,27.202 60.251,27.651 60.08,28.281 C56.156,28.206 55.974,24.387 54.56,21.801 L53.6,21.801 C52.641,22.122 52.282,23.042 51.68,23.721 C51.787,30.751 56.394,32.616 58.4,38.121 C57.923,40.364 58.26,43.421 58.16,46.041 C57.45,47.65 56.388,48.909 55.52,50.361 C54.651,50.691 53.17,50.411 53.121,51.561 C52.361,51.601 52.318,50.923 51.44,51.081 C50.794,51.715 50.167,52.367 49.52,53.001 C42.914,51.208 41.907,42.534 41.36,35.481 C42.252,35.469 42.404,36.197 42.56,36.921 C43.263,36.705 43.297,36.705 44.001,36.921 C45.418,39.744 48.066,41.335 48.56,45.081 C51.215,44.775 52.611,43.211 53.6,41.241 C52.434,35.127 47.23,33.051 46.64,26.361 C46.593,21.194 47.174,16.654 51.44,15.801 C51.359,15.319 51.49,15.05 51.92,15.081 C51.465,14.337 51.078,13.066 51.44,12.201" id="Fill-4" sketch:type="MSShapeGroup"></path>
            <path d="M171.44,13.401 L171.92,13.401 C173.03,14.371 173.337,16.144 174.08,17.481 C174.233,21.414 173.698,23.839 173.36,26.841 C171.16,32.241 169.739,38.419 166.64,42.921 C167.018,44.438 165.672,45.294 165.2,46.041 C163.626,48.528 163.773,51.84 160.16,52.281 C158.982,52.019 158.603,50.957 157.28,50.841 C156.205,48.418 155.003,45.891 154.64,42.681 C154.242,39.157 154.959,35.302 154.88,31.881 C154.822,29.352 154.825,26.498 154.4,22.521 C154.76,21.361 155.032,20.113 154.88,18.441 C157.43,18.371 157.288,20.993 159.2,21.561 C161.073,26.948 160.766,35.318 160.4,42.201 C161.43,42.111 161.435,40.996 161.36,39.801 C165.349,32.581 168.033,22.001 171.44,13.401" id="Fill-5" sketch:type="MSShapeGroup"></path>
            <path d="M203.12,12.881 C202.95,13.511 202.599,13.96 201.68,13.841 C199.461,18.501 193.519,19.441 188.72,21.521 C186.964,21.285 186.211,22.053 184.88,22.241 C184.049,25.09 183.761,28.482 182.24,30.641 C182.299,30.901 182.717,30.804 182.72,31.121 C185.132,30.97 190.298,30.055 192.56,30.401 C192.233,31.942 189.307,32.887 188.72,34.961 C186.776,35.576 185.954,37.315 183.2,37.121 C182.668,36.989 182.858,37.579 182.48,37.601 L179.84,37.601 C178.195,39.636 177.508,42.63 176.48,45.281 C180.612,45.724 184.342,44.047 188.48,45.521 C188.672,48.913 185.364,48.805 184.4,51.041 C180.278,51.639 176.925,53.007 171.92,52.721 C171.022,51.858 170.483,50.638 169.76,49.601 C170.481,38.709 175.832,30.837 179.36,22.001 L179.36,19.601 C179.015,19.066 178.406,18.795 178.4,17.921 C178.775,16.936 179.935,16.735 181.041,16.48 C181.878,15.799 181.654,14.055 182.72,13.601 C183.733,13.948 184.598,14.443 185.12,15.281 C191.013,14.673 197.858,12.527 203.12,12.881" id="Fill-6" sketch:type="MSShapeGroup"></path>
            <path d="M85.041,14.081 C86.189,15.893 86.464,18.577 86.72,21.281 C89.241,24.6 91.075,28.606 91.52,34.001 C91.345,35.053 91.997,33.808 92.001,34.48 C91.947,38.134 93.212,40.469 93.44,43.841 C94.323,37.924 96.012,32.813 97.041,27.041 C98.924,23.405 98.39,17.351 101.36,14.801 C102.17,16.796 101.341,19.066 101.6,21.521 C101.844,23.84 102.6,25.909 102.32,28.241 C101.33,36.481 98.893,45.147 97.28,52.48 C96.267,52.428 96.21,53.33 95.36,53.441 C93.561,52.76 91.55,52.29 90.08,51.281 C87.663,45.938 86.753,39.087 86.001,32.081 C85.453,32.733 85.122,33.603 85.28,34.961 C83.922,40.75 81.838,44.597 80.48,50.081 C78.961,51.089 77.076,50.314 76.16,49.361 C76.013,46.894 76.348,44.909 76.4,42.641 C78.886,35.884 81.381,28.552 82.88,21.521 C82.562,19.043 83.591,17.912 83.36,15.521 C83.984,15.105 84.211,14.292 85.041,14.081" id="Fill-7" sketch:type="MSShapeGroup"></path>
            <path d="M223.52,13.081 C225.534,15.848 225.446,21.068 224.24,24.601 C222.164,30.685 220.287,36.968 218.48,43.321 C221.981,43.552 225.229,41.436 229.04,42.841 C227.498,46.658 223.763,48.285 220.88,50.761 C217.412,51.137 215.95,53.383 211.76,52.441 C212.034,51.127 211.034,51.088 210.56,50.521 C210.765,49.319 210.765,48.843 210.56,47.641 C211.033,46.994 211.03,45.871 212,45.721 C214.026,34.626 218.615,24.018 222.32,13.801 C222.484,13.325 223.749,13.951 223.52,13.081" id="Fill-8" sketch:type="MSShapeGroup"></path>
            <path d="M205.04,14.801 C207.482,27.936 200.712,35.016 198.08,44.561 C201.819,44.618 204.927,41.969 209.84,42.401 C207.882,49.163 201.79,51.791 194.48,53.201 C192.195,52.767 190.808,51.434 189.919,49.601 C190.772,49.253 190.268,47.549 190.4,46.48 C191.227,46.509 191.012,45.493 191.84,45.521 C192.579,41.14 194.189,37.629 195.2,33.521 C196.916,31.365 198.159,28.848 199.28,25.601 C199.71,25.631 199.787,25.308 200.24,25.361 C200.716,22.485 202.541,19.922 202.4,17.201 C202.978,16.1 203.528,14.969 205.04,14.801" id="Fill-9" sketch:type="MSShapeGroup"></path>
            <path d="M261.919,15.761 C259.194,17.435 256.603,19.244 254.24,21.281 C250.242,22.083 247.445,24.086 243.44,24.881 C242.885,27.127 242.778,29.818 242.24,32.081 C244.706,32.364 250.604,30.19 254.24,31.601 C253.67,32.712 253.076,33.797 252.8,35.201 C249.128,37.13 244.954,38.555 239.84,39.041 C239.061,41.142 238.056,43.018 236.96,44.801 C237.808,45.664 239.226,44.835 240.08,44.321 C243.761,44.258 248.026,43.534 250.64,45.041 C248.976,51.617 238.52,49.401 233.6,52.721 C232.791,52.569 231.371,53.03 230.96,52.48 C230.274,52.206 230.317,51.204 229.52,51.041 C229.279,45.545 232.45,39.669 235.04,35.441 L235.04,33.521 C235.817,33.817 235.223,32.744 235.999,33.041 C236.252,29.612 237.715,27.396 238.64,24.641 C237.867,23.414 236.7,22.582 235.76,21.521 C236.402,18.804 240.397,20.172 241.04,17.921 C241.817,17.784 242.248,17.994 242.48,18.401 C247.939,16.857 256.648,15.491 261.919,15.761" id="Fill-10" sketch:type="MSShapeGroup"></path>
            <path d="M293.839,48.041 C294.149,46.35 297.348,47.549 297.919,46.121 C298.297,35.55 302.519,28.244 304.16,17.801 C302.086,17.562 300.221,16.612 297.919,16.601 C297.877,15.358 299.209,15.49 299.36,14.441 C304.195,12.742 311.252,12.499 315.68,14.681 C318.949,17.332 321.078,21.123 320.48,27.641 C317.9,39.542 311.435,47.557 301.76,52.361 L298.16,52.361 C296.196,51.444 294.7,50.062 293.839,48.041 L293.839,48.041 Z M311.6,35.081 C312.746,32.332 314.627,29.667 315.68,26.201 C315.845,24.116 315.445,22.596 315.44,20.681 C314.001,19.222 311.414,17.692 308.48,18.521 C309.06,26.867 305.771,35.269 303.68,42.521 C307.339,41.061 308.974,37.575 311.6,35.081 L311.6,35.081 Z" id="Fill-11" sketch:type="MSShapeGroup"></path>
            <path d="M148.16,17.481 L148.88,17.481 C152.745,25.037 149.48,35.033 146.961,41.001 C144.149,44.189 143.014,49.055 139.52,51.561 C138.525,51.836 138.585,51.056 137.84,51.081 C136.719,52.12 135.225,52.786 133.041,52.761 C130.571,51.87 128.988,50.094 127.52,48.201 C126.57,44.788 126.685,40.608 127.52,37.161 C128.878,34.199 129.353,30.355 131.6,28.281 C132.074,24.131 134.634,23.212 134.961,18.201 C137.602,18.119 137.739,20.542 139.041,21.801 C138.94,31.866 132.126,36.481 132.8,46.521 C135.343,46.744 136.199,45.279 138.08,44.841 C140.759,39.68 143.24,34.321 145.041,28.281 C146.508,25.109 146.387,20.348 148.16,17.481" id="Fill-12" sketch:type="MSShapeGroup"></path>
            <path d="M274.04,12.481 C276.794,12.207 276.792,14.689 278.839,15.121 C278.844,19.633 283.612,22.556 281.72,26.641 C280.731,26.035 280.82,26.926 280.04,27.121 C277.319,26.162 276.336,23.465 275,21.121 C272.768,22.81 271.576,24.206 269.72,26.401 L269.72,28.081 C272.583,33.6 281.354,43.279 274.28,50.4 L272.839,50.4 C270.746,52.718 267.673,53.624 264.919,52.561 C264.231,52.295 263.105,50.906 262.28,50.161 C261.393,49.359 260.379,48.973 259.88,48.001 C257.775,43.905 258.549,37.581 260.6,33.841 C261.366,33.635 261.342,34.219 261.8,34.321 C261.881,34.803 261.75,35.072 261.32,35.041 C263.558,37.683 263.548,42.572 265.16,45.841 C266.61,46.523 268.105,46.204 269.959,46.081 C270.204,45.925 270.208,45.529 270.68,45.601 C270.504,43.905 270.878,42.76 271.64,42.001 C269.925,36.915 266.371,33.671 264.44,28.801 C264.155,25.636 264.974,23.575 265.64,21.361 C266.935,20.016 268.502,18.943 269,16.801 C270.224,16.185 271.319,15.439 272.12,14.401 C272.945,14.506 273.465,14.307 274.04,14.161 L274.04,12.481" id="Fill-13" sketch:type="MSShapeGroup"></path>
            <path d="M348.8,13.721 C348.325,15.485 345.754,15.155 345.44,17.081 C343.787,18.468 341.406,19.127 339.919,20.681 C336.607,21.208 334.031,22.472 330.8,23.081 C330.494,25.673 329.534,28.83 329.36,30.761 C332.16,31.51 337.785,28.137 340.16,30.041 C340.269,30.95 339.424,30.905 338.959,31.241 C338.306,33.947 336.213,35.215 333.44,35.801 C332.163,37.315 329.406,37.835 326.959,37.48 C326.286,39.441 324.986,42.221 324.32,44.921 C328.218,45.546 332.245,44.723 335.6,45.641 C335.904,46.585 335.034,46.354 334.4,46.361 C332.725,49.006 328.763,49.365 326.48,51.4 C323.093,51.694 320.781,53.062 317.6,53.561 C316.871,53.095 316.644,52.84 315.919,52.841 C315.613,52.108 315.546,51.134 314.959,50.681 C314.712,46.833 316.439,44.96 318.08,43.001 C319.316,37.997 321.977,34.418 322.879,29.081 C324.658,27.419 324.484,23.805 326,21.881 C325.977,19.247 325.849,17.974 326.24,15.881 C326.666,15.826 327.442,16.123 327.2,15.401 C327.84,15.641 328.304,16.057 328.879,16.361 C335.748,15.392 341.794,14.013 348.8,13.721" id="Fill-14" sketch:type="MSShapeGroup"></path>
            <path d="M114.56,18.401 C117.387,17.256 118.827,19.572 121.76,19.121 C125.142,20.698 127.196,23.605 127.76,28.001 C127.545,34.832 125.056,38.277 122.961,42.881 C120.686,43.807 119.69,46.011 117.92,47.441 C113.444,48.245 111.975,52.057 107.36,52.721 C105.44,52.562 104.938,50.983 103.52,50.321 C102.272,47.137 102.179,43.981 102.8,40.721 C104.054,34.142 106.67,27.03 110.72,22.241 L110.72,20.801 C111.985,19.985 112.903,18.824 114.56,18.401 L114.56,18.401 Z M108.08,46.721 C109.592,47.221 110.023,45.703 112.16,45.761 C115.88,39.321 121.311,34.592 121.52,24.641 C120.188,24.133 119.644,22.837 118.16,22.48 C111.989,27.594 108.532,36.688 108.08,46.721 L108.08,46.721 Z" id="Fill-15" sketch:type="MSShapeGroup"></path>
            <path d="M399.795,13.348 C400.113,13.421 400.188,13.757 400.533,13.801 C401.118,15 401.173,16.769 401.883,17.833 C402.081,27.269 398.106,36.647 395.729,46.161 C396.053,48.391 394.794,49.152 395.206,51.465 C394.969,52.17 394.556,52.713 394.318,53.419 C393.359,53.454 392.399,53.49 391.44,53.525 C388.208,49.473 390.962,43.006 391.35,38.158 C389.159,38.748 386.764,39.15 383.942,39.154 C382.321,43.053 381.034,47.261 379.839,51.554 C378.625,51.3 379.168,51.066 378.657,52.078 C377.235,51.781 376.664,50.567 375.921,49.539 C376.194,48.402 376.071,46.898 376.01,45.452 C378.81,36.563 381.385,26.252 383.531,15.152 C384.318,15.42 383.685,14.369 384.473,14.637 C385.427,14.772 384.709,16.712 385.983,16.502 C386.19,17.234 385.167,16.826 385.547,17.72 C388.307,21.686 385.954,27.384 385.594,31.888 C388.501,31.579 390.405,31.436 393.481,30.875 C395.299,24.766 397.049,18.594 399.795,13.348" id="Fill-16" sketch:type="MSShapeGroup"></path>
            <path d="M376.533,27.181 C371.978,27.68 371.013,24.313 369.594,21.434 C363.353,23.513 363.175,31.221 362.045,38.046 C362.142,40.104 362.087,42.323 362.508,44.032 C365.978,43.472 367.798,41.379 371.523,41.056 C371.188,42.494 371.621,43.293 371.666,44.893 C371.476,45.489 370.979,45.8 371.258,46.829 C368.599,48.915 368.241,53.138 364.321,54.053 C361.212,52.578 358.266,50.929 357.339,47.106 C355.869,46.028 355.505,43.759 355.437,41.173 C357.468,32.468 357.865,21.467 364.389,17.063 C367.01,17.639 368.103,15.432 370.562,15.153 C374.014,16.09 375.322,19.338 377.296,21.868 C377.416,22.82 377.085,24.258 377.874,24.489 C377.673,25.614 377.003,26.305 376.533,27.181" id="Fill-17" sketch:type="MSShapeGroup"></path>
            <path d="M421.498,48.086 C419.609,48.376 418.289,48.052 417.387,47.278 C416.924,44.766 417.968,43.65 417.643,41.265 C415.425,40.789 411.333,43.1 409.24,41.337 C406.013,44.13 404.298,48.327 402.446,52.397 C401.51,52.223 401.423,52.836 401.033,53.169 C400.088,53.106 399.902,52.227 399.07,52.041 C399.029,50.922 398.987,49.803 398.946,48.684 C400.401,45.985 401.106,40.891 403.857,38.654 C405.57,33.684 408.897,30.211 410.563,25.197 C412.181,24.538 411.679,21.911 413.298,21.252 C413.358,18.221 415.961,17.551 416.673,15.123 C418.674,15.283 419.436,14.292 420.456,13.542 C426.87,15.619 424.446,27.129 424.838,34.514 C423.792,39.101 423.825,44.689 421.498,48.086 L421.498,48.086 Z M418.246,18.667 C417.98,25.367 414.6,29.177 412.829,34.479 C414.109,35.6 416.264,34.172 418.585,34.265 C419.694,29.579 419.677,22.628 419.648,17.654 C419.637,17.412 419.217,17.369 419.169,17.672 C419.597,17.79 418.609,18.52 418.246,18.667 L418.246,18.667 Z" id="Fill-18" sketch:type="MSShapeGroup"></path>
            <path d="M440.698,35.809 C443.17,39.548 444.661,44.344 446.463,48.805 C446.649,50.753 446.615,52.496 445.673,53.397 C444.522,53.254 444.144,53.828 443.044,53.734 C440.153,49.033 439.115,42.335 435.972,37.906 C435.077,38.611 435.607,37.86 434.293,37.968 C431.852,41.414 432.587,47.809 429.728,50.866 C427.89,51.102 427.495,49.78 426.309,49.313 C425.323,37.493 431.954,31.212 431.929,19.562 C430.71,19.296 430.173,18.294 429.681,17.245 C430.003,14.918 433.488,15.094 433.367,13.025 C435.676,13.365 437.207,13.85 439.612,13.034 C440.344,13.741 442.08,13.367 443.467,13.371 C446.638,14.943 449.649,16.69 451.16,20.05 C451.102,28.846 445.851,31.589 440.698,35.809 L440.698,35.809 Z M436.725,19.385 C437.509,22.437 436.129,29.285 436.469,31.883 C440.255,28.76 444.55,26.109 445.901,20.726 C444.766,18.44 439.563,18.209 436.725,19.385 L436.725,19.385 Z" id="Fill-19" sketch:type="MSShapeGroup"></path>
            <path d="M459.185,15.227 C460.638,15.215 460.534,16.225 461.62,16.097 C462.13,16.877 462.24,18.089 463.148,18.441 C462.789,28.683 458.489,35.266 455.911,43.447 C458.629,43.505 464.321,40.677 467.183,43.029 C467.334,44.636 466.843,45.646 466.356,46.662 C461.902,48.856 456.203,49.895 451.417,51.779 C450.106,51.361 449.553,50.129 448.449,49.488 C448.095,47.615 449.123,47.025 448.769,45.152 C451.76,35.416 457.078,25.301 459.185,15.227" id="Fill-20" sketch:type="MSShapeGroup"></path>
            <path d="M490.426,15.748 C490.907,15.73 491.386,15.712 491.866,15.694 C492.063,16.647 492.858,16.952 493.375,17.56 C497.878,16.406 507.914,14.286 513.034,16.589 C512.356,17.89 508.746,16.469 509.276,18.891 C504.368,20.509 500.173,22.789 494.566,23.76 C493.301,26.367 492.838,29.72 491.521,32.279 C491.685,32.516 492.081,32.506 492.027,32.98 C496.667,32.686 500.557,32.228 505.014,33.459 C502.85,39.092 494.899,39.352 487.986,40.575 C487.221,41.808 486.351,43.874 486.725,45.426 C491.434,45.821 498.103,44.754 503.993,44.785 C504.035,45.486 504.752,45.463 504.997,45.947 C503.767,49.056 499.922,50.551 496.266,50.114 C492.864,52.669 484.921,51.006 481.503,53.545 C480.584,53.536 480.803,52.303 479.549,52.657 C479.667,51.697 479.196,51.373 478.766,51.004 C478.746,50.445 478.725,49.885 478.704,49.325 C479.1,48.92 478.907,47.97 479.61,47.851 C481.648,37.393 485.96,29.045 490.125,20.562 C490.111,19.7 489.858,18.616 490.524,18.386 C490.492,17.506 490.459,16.627 490.426,15.748" id="Fill-21" sketch:type="MSShapeGroup"></path>
            <path d="M474.849,48.988 C473.91,49.43 472.326,49.271 471.021,49.37 C471.243,48.051 470.516,47.753 469.981,47.247 C469.734,35.744 474.127,29.687 476.676,20.581 C477.738,20.641 477.205,19.219 478.062,19.088 C478.185,18.354 477.678,17.034 478.213,16.682 C480.529,16.62 481.75,19.839 481.811,23.032 C479.897,30.599 477.113,36.936 475.178,44.893 C475.205,45.613 475.231,46.332 475.258,47.052 C475.067,47.648 474.571,47.958 474.849,48.988" id="Fill-22" sketch:type="MSShapeGroup"></path>
        </g>
    </g>
</svg>