<svg version="1.1" id="logo_stacked" xmlns="http://www.w3.org/2000/svg" viewBox="0 0 322.797 162.477"><path fill="#FFE100" d="M18.726,77.099H0V0h49.896v17.954H18.726v13.767h31.151v17.514H18.726V77.099z"/><path fill="#FFE100" d="M54.856,52.317V0h18.833v52.208c0,11.563,21.812,11.344,21.812,0V0h18.833v52.317 c0,17.402-14.981,25.994-29.849,25.884C69.613,78.201,54.856,69.719,54.856,52.317z"/><path fill="#FFE100" d="M119.289,77.099V0h14.54l26.653,38.549V0h18.615v77.099h-14.76l-26.322-37.558v37.558H119.289z"/><path fill="#FFE100" d="M184.1,77.099V0h14.54l26.653,38.549V0h18.615v77.099h-14.761l-26.322-37.558v37.558H184.1z"/><path fill="#FFE100" d="M293.941,45.929v31.17h-18.836v-31.06L246.395,0h21.774l7.71,12.335l8.7,15.751l9.146-16.742L300.771,0 h22.025L293.941,45.929z"/><path fill="#3FB1EA" d="M127.795,106.555h14.212v10.193h-41.976v-16.311c0-16.671,20.57-19.129,26.747-6.235l15.229-10.287v12.203 l-14.212,8.757V106.555z M118.499,106.555v-5.878c0-6.176-8.633-6.232-8.633,0v5.878H118.499z"/><path fill="#ED1C24" d="M176.523,83.916c25.904,0,38.914,19.735,38.914,39.361c0,19.623-13.01,39.135-38.914,39.135h-29.604V83.916 H176.523z M176.523,144.132c13.231,0,19.961-10.542,19.961-20.855c0-10.32-6.729-21.195-19.961-21.195h-10.541v42.051H176.523z"/><path fill="#ED1C24" d="M218.66,162.412V83.916h19.174v78.496H218.66z"/><path fill="#ED1C24" d="M262.212,143.91h32.517v18.502h-51.805V83.916h51.694v18.504h-32.406v11.438h32.389v18.612h-32.389V143.91z" /><path fill="#3FB1EA" d="M120.989,119.245c-11.94,0-21.617,9.676-21.617,21.613c0,11.939,9.677,21.619,21.617,21.619 c11.936,0,21.617-9.68,21.617-21.619C142.605,128.92,132.925,119.245,120.989,119.245z M120.989,152.721 c-6.552,0-11.863-5.31-11.863-11.863c0-6.549,5.311-11.859,11.863-11.859c6.552,0,11.862,5.311,11.862,11.859 C132.851,147.412,127.541,152.721,120.989,152.721z"/></svg>
